<svg preserveAspectRatio="none" width="100%" height="100%" overflow="visible" style="display: block;" viewBox="0 0 49.091 13.335" fill="none" xmlns="http://www.w3.org/2000/svg">
<g id="SOLID">
<path id="Vector" d="M37.9059 0.355558H42.7549C43.6277 0.355558 44.4467 0.479477 45.2118 0.727316C45.9876 0.975154 46.6611 1.35769 47.2322 1.87492C47.8141 2.39214 48.2666 3.04946 48.5899 3.84685C48.9239 4.63347 49.091 5.57094 49.091 6.65928C49.091 7.74761 48.9239 8.69048 48.5899 9.48787C48.2666 10.2745 47.8141 10.9264 47.2322 11.4436C46.6611 11.9609 45.9876 12.3434 45.2118 12.5912C44.4467 12.8391 43.6277 12.963 42.7549 12.963H38.1483V1.98806C38.1483 1.70789 38.116 1.48699 38.0514 1.32536C37.9975 1.16373 37.8951 0.996705 37.7443 0.824295C37.6473 0.705764 37.6203 0.598008 37.6634 0.501028C37.7065 0.404048 37.7874 0.355558 37.9059 0.355558ZM42.3508 11.088C43.1482 11.088 43.8109 10.9803 44.3389 10.7648C44.8669 10.5493 45.2872 10.2476 45.5997 9.85963C45.9122 9.47171 46.1331 9.00836 46.2624 8.46958C46.3917 7.92002 46.4563 7.31659 46.4563 6.65928C46.4563 6.00197 46.3917 5.40392 46.2624 4.86514C46.1331 4.31559 45.9122 3.84685 45.5997 3.45893C45.2872 3.07101 44.8669 2.77468 44.3389 2.56994C43.8109 2.35443 43.1482 2.24667 42.3508 2.24667H40.783V11.088H42.3508Z" fill="var(--fill-0, white)"/>
<path id="Vector_2" d="M32.8098 12.963V1.98806C32.8098 1.70789 32.7775 1.48699 32.7128 1.32536C32.6589 1.16373 32.5566 0.996705 32.4057 0.824295C32.3087 0.705764 32.2818 0.598008 32.3249 0.501028C32.368 0.404048 32.4488 0.355558 32.5673 0.355558H35.4444V12.963H32.8098Z" fill="var(--fill-0, white)"/>
<path id="Vector_3" d="M30.6271 11.8639V12.963H23.79V1.90724C23.79 1.67018 23.7685 1.43312 23.7254 1.19605C23.6823 0.948215 23.5853 0.759642 23.4344 0.630335V0.355558H25.0508V11.8639H30.6271Z" fill="var(--fill-0, white)"/>
<path id="Vector_4" d="M9.52175 6.65932C9.52175 5.66796 9.66183 4.76281 9.942 3.94387C10.2329 3.12492 10.637 2.42451 11.1543 1.84263C11.6823 1.26074 12.318 0.808169 13.0615 0.484902C13.805 0.161634 14.6294 0 15.5345 0C16.4397 0 17.264 0.161634 18.0075 0.484902C18.751 0.808169 19.3814 1.26074 19.8986 1.84263C20.4266 2.42451 20.8307 3.12492 21.1109 3.94387C21.4018 4.76281 21.5473 5.66796 21.5473 6.65932C21.5473 7.65067 21.4018 8.55582 21.1109 9.37476C20.8307 10.1937 20.4266 10.8995 19.8986 11.4922C19.3814 12.074 18.751 12.5266 18.0075 12.8499C17.264 13.1732 16.4397 13.3348 15.5345 13.3348C14.6294 13.3348 13.805 13.1732 13.0615 12.8499C12.318 12.5266 11.6823 12.074 11.1543 11.4922C10.637 10.8995 10.2329 10.1937 9.942 9.37476C9.66183 8.55582 9.52175 7.65067 9.52175 6.65932ZM20.2866 6.65932C20.2866 5.77572 20.1626 4.9891 19.9148 4.29946C19.667 3.60982 19.3275 3.02794 18.8965 2.55381C18.4655 2.06891 17.959 1.70254 17.3772 1.45471C16.8061 1.19609 16.1918 1.06678 15.5345 1.06678C14.8772 1.06678 14.2576 1.19609 13.6757 1.45471C13.1046 1.70254 12.6036 2.06891 12.1725 2.55381C11.7415 3.02794 11.4021 3.60982 11.1543 4.29946C10.9064 4.9891 10.7825 5.77572 10.7825 6.65932C10.7825 7.54291 10.9064 8.32953 11.1543 9.01917C11.4021 9.70881 11.7415 10.2961 12.1725 10.781C12.6036 11.2551 13.1046 11.6215 13.6757 11.8801C14.2576 12.1279 14.8772 12.2518 15.5345 12.2518C16.1918 12.2518 16.8061 12.1279 17.3772 11.8801C17.959 11.6215 18.4655 11.2551 18.8965 10.781C19.3275 10.2961 19.667 9.70881 19.9148 9.01917C20.1626 8.32953 20.2866 7.54291 20.2866 6.65932Z" fill="var(--fill-0, white)"/>
<path id="Vector_5" d="M6.98258 2.02062C6.63776 1.70813 6.23368 1.47107 5.77033 1.30943C5.31775 1.1478 4.78436 1.06698 4.17015 1.06698C3.36198 1.06698 2.70467 1.25017 2.19822 1.61654C1.70254 1.98291 1.4547 2.50552 1.4547 3.18439C1.4547 3.55076 1.53552 3.87402 1.69716 4.15419C1.85879 4.42358 2.09585 4.68758 2.40834 4.9462C2.63463 5.11861 2.87708 5.27485 3.1357 5.41493C3.40509 5.55502 3.67986 5.68971 3.96003 5.81902C4.2402 5.93755 4.52036 6.05608 4.80053 6.17461C5.08069 6.29314 5.34469 6.41168 5.59253 6.53021C6.002 6.73494 6.36299 6.95584 6.67548 7.19291C6.98797 7.41919 7.24659 7.67242 7.45132 7.95259C7.66683 8.22198 7.82847 8.52908 7.93622 8.8739C8.04398 9.20794 8.09786 9.58509 8.09786 10.0053C8.09786 10.4902 8.00088 10.9374 7.80692 11.3469C7.62373 11.7564 7.34895 12.1066 6.98258 12.3975C6.61621 12.6885 6.15825 12.9147 5.6087 13.0764C5.06992 13.2488 4.44493 13.335 3.73374 13.335C3.4428 13.335 3.12492 13.3081 2.7801 13.2542C2.43528 13.2003 2.09046 13.1249 1.74565 13.0279C1.40083 12.9417 1.07217 12.8339 0.759679 12.7046C0.457963 12.5753 0.204736 12.4352 0 12.2844L0.468738 11.2499C0.985967 11.5624 1.53013 11.8102 2.10124 11.9934C2.68312 12.1658 3.23268 12.252 3.74991 12.252C4.15938 12.252 4.5473 12.2143 4.91367 12.1389C5.29082 12.0635 5.61947 11.9396 5.89964 11.7671C6.1798 11.584 6.4007 11.3523 6.56234 11.0721C6.72397 10.7812 6.80479 10.4202 6.80479 9.98917C6.80479 9.41807 6.65393 8.94933 6.35221 8.58296C6.06127 8.21659 5.61408 7.87716 5.01065 7.56466C4.67661 7.39226 4.35334 7.2414 4.04085 7.11209C3.72835 6.98278 3.42664 6.85348 3.1357 6.72417C2.84476 6.58409 2.5592 6.43862 2.27904 6.28776C2.00965 6.1369 1.74026 5.95371 1.47087 5.7382C1.12605 5.46881 0.818945 5.12399 0.549555 4.70374C0.280165 4.27272 0.14547 3.76627 0.14547 3.18439C0.14547 2.17148 0.506453 1.39025 1.22842 0.840696C1.95038 0.280365 2.93635 0.000199751 4.18632 0.000199751C4.7682 0.000199751 5.30698 0.0540777 5.80266 0.161833C6.30911 0.258814 6.80479 0.404284 7.28969 0.598245V2.02062H6.98258Z" fill="var(--fill-0, white)"/>
</g>
</svg>
