<svg preserveAspectRatio="none" width="100%" height="100%" overflow="visible" style="display: block;" viewBox="0 0 49.091 13.335" fill="none" xmlns="http://www.w3.org/2000/svg">
<g id="SOLID">
<path id="Vector" d="M37.906 0.355558H42.755C43.6278 0.355558 44.4467 0.479477 45.2118 0.727316C45.9877 0.975154 46.6611 1.35769 47.2322 1.87492C47.8141 2.39214 48.2667 3.04946 48.59 3.84685C48.924 4.63347 49.091 5.57094 49.091 6.65928C49.091 7.74761 48.924 8.69048 48.59 9.48787C48.2667 10.2745 47.8141 10.9264 47.2322 11.4436C46.6611 11.9609 45.9877 12.3434 45.2118 12.5912C44.4467 12.8391 43.6278 12.963 42.755 12.963H38.1484V1.98806C38.1484 1.70789 38.1161 1.48699 38.0514 1.32536C37.9976 1.16373 37.8952 0.996705 37.7443 0.824295C37.6473 0.705764 37.6204 0.598008 37.6635 0.501028C37.7066 0.404048 37.7874 0.355558 37.906 0.355558ZM42.3509 11.088C43.1483 11.088 43.811 10.9803 44.339 10.7648C44.867 10.5493 45.2872 10.2476 45.5997 9.85963C45.9122 9.47171 46.1331 9.00836 46.2624 8.46958C46.3917 7.92002 46.4564 7.31659 46.4564 6.65928C46.4564 6.00197 46.3917 5.40392 46.2624 4.86514C46.1331 4.31559 45.9122 3.84685 45.5997 3.45893C45.2872 3.07101 44.867 2.77468 44.339 2.56994C43.811 2.35443 43.1483 2.24667 42.3509 2.24667H40.783V11.088H42.3509Z" fill="var(--fill-0, white)"/>
<path id="Vector_2" d="M32.8103 12.963V1.98806C32.8103 1.70789 32.7779 1.48699 32.7133 1.32536C32.6594 1.16373 32.557 0.996705 32.4062 0.824295C32.3092 0.705764 32.2823 0.598008 32.3254 0.501028C32.3685 0.404048 32.4493 0.355558 32.5678 0.355558H35.4449V12.963H32.8103Z" fill="var(--fill-0, white)"/>
<path id="Vector_3" d="M30.6276 11.8639V12.963H23.7905V1.90724C23.7905 1.67018 23.7689 1.43312 23.7258 1.19605C23.6827 0.948215 23.5858 0.759642 23.4349 0.630335V0.355558H25.0512V11.8639H30.6276Z" fill="var(--fill-0, white)"/>
<path id="Vector_4" d="M9.52182 6.65932C9.52182 5.66796 9.6619 4.76281 9.94206 3.94387C10.233 3.12492 10.6371 2.42451 11.1543 1.84263C11.6823 1.26074 12.3181 0.808169 13.0616 0.484902C13.8051 0.161634 14.6294 0 15.5346 0C16.4397 0 17.2641 0.161634 18.0076 0.484902C18.7511 0.808169 19.3815 1.26074 19.8987 1.84263C20.4267 2.42451 20.8308 3.12492 21.111 3.94387C21.4019 4.76281 21.5474 5.66796 21.5474 6.65932C21.5474 7.65067 21.4019 8.55582 21.111 9.37476C20.8308 10.1937 20.4267 10.8995 19.8987 11.4922C19.3815 12.074 18.7511 12.5266 18.0076 12.8499C17.2641 13.1732 16.4397 13.3348 15.5346 13.3348C14.6294 13.3348 13.8051 13.1732 13.0616 12.8499C12.3181 12.5266 11.6823 12.074 11.1543 11.4922C10.6371 10.8995 10.233 10.1937 9.94206 9.37476C9.6619 8.55582 9.52182 7.65067 9.52182 6.65932ZM20.2866 6.65932C20.2866 5.77572 20.1627 4.9891 19.9149 4.29946C19.667 3.60982 19.3276 3.02794 18.8966 2.55381C18.4656 2.06891 17.9591 1.70254 17.3772 1.45471C16.8061 1.19609 16.1919 1.06678 15.5346 1.06678C14.8773 1.06678 14.2577 1.19609 13.6758 1.45471C13.1047 1.70254 12.6036 2.06891 12.1726 2.55381C11.7416 3.02794 11.4022 3.60982 11.1543 4.29946C10.9065 4.9891 10.7826 5.77572 10.7826 6.65932C10.7826 7.54291 10.9065 8.32953 11.1543 9.01917C11.4022 9.70881 11.7416 10.2961 12.1726 10.781C12.6036 11.2551 13.1047 11.6215 13.6758 11.8801C14.2577 12.1279 14.8773 12.2518 15.5346 12.2518C16.1919 12.2518 16.8061 12.1279 17.3772 11.8801C17.9591 11.6215 18.4656 11.2551 18.8966 10.781C19.3276 10.2961 19.667 9.70881 19.9149 9.01917C20.1627 8.32953 20.2866 7.54291 20.2866 6.65932Z" fill="var(--fill-0, white)"/>
<path id="Vector_5" d="M6.98265 2.02062C6.63783 1.70813 6.23375 1.47107 5.7704 1.30943C5.31782 1.1478 4.78443 1.06698 4.17022 1.06698C3.36205 1.06698 2.70474 1.25017 2.19829 1.61654C1.70261 1.98291 1.45477 2.50552 1.45477 3.18439C1.45477 3.55076 1.53559 3.87402 1.69722 4.15419C1.85886 4.42358 2.09592 4.68758 2.40841 4.9462C2.6347 5.11861 2.87715 5.27485 3.13576 5.41493C3.40515 5.55502 3.67993 5.68971 3.9601 5.81902C4.24026 5.93755 4.52043 6.05608 4.80059 6.17461C5.08076 6.29314 5.34476 6.41168 5.5926 6.53021C6.00207 6.73494 6.36305 6.95584 6.67555 7.19291C6.98804 7.41919 7.24665 7.67242 7.45139 7.95259C7.6669 8.22198 7.82854 8.52908 7.93629 8.8739C8.04405 9.20794 8.09792 9.58509 8.09792 10.0053C8.09792 10.4902 8.00094 10.9374 7.80698 11.3469C7.6238 11.7564 7.34902 12.1066 6.98265 12.3975C6.61628 12.6885 6.15832 12.9147 5.60876 13.0764C5.06998 13.2488 4.445 13.335 3.73381 13.335C3.44287 13.335 3.12499 13.3081 2.78017 13.2542C2.43535 13.2003 2.09053 13.1249 1.74571 13.0279C1.40089 12.9417 1.07224 12.8339 0.759746 12.7046C0.458029 12.5753 0.204803 12.4352 6.65838e-05 12.2844L0.468805 11.2499C0.986033 11.5624 1.5302 11.8102 2.10131 11.9934C2.68319 12.1658 3.23274 12.252 3.74997 12.252C4.15944 12.252 4.54737 12.2143 4.91374 12.1389C5.29088 12.0635 5.61954 11.9396 5.8997 11.7671C6.17987 11.584 6.40077 11.3523 6.5624 11.0721C6.72404 10.7812 6.80485 10.4202 6.80485 9.98917C6.80485 9.41807 6.65399 8.94933 6.35228 8.58296C6.06134 8.21659 5.61415 7.87716 5.01072 7.56466C4.67667 7.39226 4.35341 7.2414 4.04091 7.11209C3.72842 6.98278 3.4267 6.85348 3.13576 6.72417C2.84482 6.58409 2.55927 6.43862 2.2791 6.28776C2.00971 6.1369 1.74032 5.95371 1.47093 5.7382C1.12612 5.46881 0.819012 5.12399 0.549622 4.70374C0.280232 4.27272 0.145537 3.76627 0.145537 3.18439C0.145537 2.17148 0.506519 1.39025 1.22848 0.840696C1.95045 0.280365 2.93642 0.000199751 4.18638 0.000199751C4.76827 0.000199751 5.30705 0.0540777 5.80272 0.161833C6.30918 0.258814 6.80485 0.404284 7.28975 0.598245V2.02062H6.98265Z" fill="var(--fill-0, white)"/>
</g>
</svg>
