<svg preserveAspectRatio="none" width="100%" height="100%" overflow="visible" style="display: block;" viewBox="0 0 49.091 13.335" fill="none" xmlns="http://www.w3.org/2000/svg">
<g id="SOLID">
<path id="Vector" d="M37.9059 0.355558H42.7549C43.6278 0.355558 44.4467 0.479477 45.2118 0.727316C45.9876 0.975154 46.6611 1.35769 47.2322 1.87492C47.8141 2.39214 48.2667 3.04946 48.5899 3.84685C48.924 4.63347 49.091 5.57094 49.091 6.65928C49.091 7.74761 48.924 8.69048 48.5899 9.48787C48.2667 10.2745 47.8141 10.9264 47.2322 11.4436C46.6611 11.9609 45.9876 12.3434 45.2118 12.5912C44.4467 12.8391 43.6278 12.963 42.7549 12.963H38.1484V1.98806C38.1484 1.70789 38.116 1.48699 38.0514 1.32536C37.9975 1.16373 37.8951 0.996705 37.7443 0.824295C37.6473 0.705764 37.6204 0.598008 37.6635 0.501028C37.7066 0.404048 37.7874 0.355558 37.9059 0.355558ZM42.3509 11.088C43.1482 11.088 43.8109 10.9803 44.339 10.7648C44.867 10.5493 45.2872 10.2476 45.5997 9.85963C45.9122 9.47171 46.1331 9.00836 46.2624 8.46958C46.3917 7.92002 46.4564 7.31659 46.4564 6.65928C46.4564 6.00197 46.3917 5.40392 46.2624 4.86514C46.1331 4.31559 45.9122 3.84685 45.5997 3.45893C45.2872 3.07101 44.867 2.77468 44.339 2.56994C43.8109 2.35443 43.1482 2.24667 42.3509 2.24667H40.783V11.088H42.3509Z" fill="var(--fill-0, white)"/>
<path id="Vector_2" d="M32.8094 12.963V1.98806C32.8094 1.70789 32.7771 1.48699 32.7124 1.32536C32.6586 1.16373 32.5562 0.996705 32.4053 0.824295C32.3084 0.705764 32.2814 0.598008 32.3245 0.501028C32.3676 0.404048 32.4484 0.355558 32.567 0.355558H35.444V12.963H32.8094Z" fill="var(--fill-0, white)"/>
<path id="Vector_3" d="M30.6276 11.8639V12.963H23.7905V1.90724C23.7905 1.67018 23.7689 1.43312 23.7258 1.19605C23.6827 0.948215 23.5857 0.759642 23.4349 0.630335V0.355558H25.0512V11.8639H30.6276Z" fill="var(--fill-0, white)"/>
<path id="Vector_4" d="M9.52177 6.65932C9.52177 5.66796 9.66186 4.76281 9.94202 3.94387C10.233 3.12492 10.637 2.42451 11.1543 1.84263C11.6823 1.26074 12.318 0.808169 13.0616 0.484902C13.8051 0.161634 14.6294 0 15.5346 0C16.4397 0 17.264 0.161634 18.0076 0.484902C18.7511 0.808169 19.3814 1.26074 19.8987 1.84263C20.4267 2.42451 20.8308 3.12492 21.1109 3.94387C21.4019 4.76281 21.5473 5.66796 21.5473 6.65932C21.5473 7.65067 21.4019 8.55582 21.1109 9.37476C20.8308 10.1937 20.4267 10.8995 19.8987 11.4922C19.3814 12.074 18.7511 12.5266 18.0076 12.8499C17.264 13.1732 16.4397 13.3348 15.5346 13.3348C14.6294 13.3348 13.8051 13.1732 13.0616 12.8499C12.318 12.5266 11.6823 12.074 11.1543 11.4922C10.637 10.8995 10.233 10.1937 9.94202 9.37476C9.66186 8.55582 9.52177 7.65067 9.52177 6.65932ZM20.2866 6.65932C20.2866 5.77572 20.1627 4.9891 19.9148 4.29946C19.667 3.60982 19.3276 3.02794 18.8965 2.55381C18.4655 2.06891 17.9591 1.70254 17.3772 1.45471C16.8061 1.19609 16.1919 1.06678 15.5346 1.06678C14.8772 1.06678 14.2576 1.19609 13.6758 1.45471C13.1047 1.70254 12.6036 2.06891 12.1726 2.55381C11.7415 3.02794 11.4021 3.60982 11.1543 4.29946C10.9064 4.9891 10.7825 5.77572 10.7825 6.65932C10.7825 7.54291 10.9064 8.32953 11.1543 9.01917C11.4021 9.70881 11.7415 10.2961 12.1726 10.781C12.6036 11.2551 13.1047 11.6215 13.6758 11.8801C14.2576 12.1279 14.8772 12.2518 15.5346 12.2518C16.1919 12.2518 16.8061 12.1279 17.3772 11.8801C17.9591 11.6215 18.4655 11.2551 18.8965 10.781C19.3276 10.2961 19.667 9.70881 19.9148 9.01917C20.1627 8.32953 20.2866 7.54291 20.2866 6.65932Z" fill="var(--fill-0, white)"/>
<path id="Vector_5" d="M6.98268 2.02064C6.63786 1.70814 6.23377 1.47108 5.77042 1.30945C5.31785 1.14781 4.78446 1.067 4.17025 1.067C3.36208 1.067 2.70477 1.25018 2.19831 1.61655C1.70264 1.98292 1.4548 2.50554 1.4548 3.1844C1.4548 3.55077 1.53561 3.87404 1.69725 4.1542C1.85888 4.42359 2.09595 4.68759 2.40844 4.94621C2.63472 5.11862 2.87718 5.27486 3.13579 5.41495C3.40518 5.55503 3.67996 5.68972 3.96012 5.81903C4.24029 5.93756 4.52045 6.05609 4.80062 6.17463C5.08078 6.29316 5.34479 6.41169 5.59262 6.53022C6.0021 6.73496 6.36308 6.95586 6.67557 7.19292C6.98806 7.41921 7.24668 7.67243 7.45141 7.9526C7.66693 8.22199 7.82856 8.52909 7.93632 8.87391C8.04407 9.20795 8.09795 9.5851 8.09795 10.0053C8.09795 10.4902 8.00097 10.9374 7.80701 11.3469C7.62382 11.7564 7.34905 12.1066 6.98268 12.3975C6.61631 12.6885 6.15834 12.9148 5.60879 13.0764C5.07001 13.2488 4.44502 13.335 3.73383 13.335C3.44289 13.335 3.12501 13.3081 2.7802 13.2542C2.43538 13.2003 2.09056 13.1249 1.74574 13.0279C1.40092 12.9417 1.07226 12.8339 0.759772 12.7046C0.458055 12.5753 0.204829 12.4352 9.25109e-05 12.2844L0.468831 11.2499C0.986059 11.5624 1.53023 11.8103 2.10133 11.9934C2.68321 12.1659 3.23277 12.2521 3.75 12.2521C4.15947 12.2521 4.54739 12.2143 4.91376 12.1389C5.29091 12.0635 5.61956 11.9396 5.89973 11.7672C6.17989 11.584 6.40079 11.3523 6.56243 11.0721C6.72406 10.7812 6.80488 10.4202 6.80488 9.98918C6.80488 9.41808 6.65402 8.94934 6.3523 8.58297C6.06136 8.2166 5.61418 7.87717 5.01074 7.56468C4.6767 7.39227 4.35343 7.24141 4.04094 7.1121C3.72845 6.98279 3.42673 6.85349 3.13579 6.72418C2.84485 6.5841 2.5593 6.43863 2.27913 6.28777C2.00974 6.13691 1.74035 5.95373 1.47096 5.73821C1.12614 5.46882 0.819038 5.12401 0.549648 4.70376C0.280258 4.27273 0.145563 3.76628 0.145563 3.1844C0.145563 2.17149 0.506545 1.39026 1.22851 0.840708C1.95047 0.280377 2.93644 0.000211949 4.18641 0.000211949C4.76829 0.000211949 5.30707 0.0540898 5.80275 0.161846C6.3092 0.258826 6.80488 0.404296 7.28978 0.598257V2.02064H6.98268Z" fill="var(--fill-0, white)"/>
</g>
</svg>
