<svg preserveAspectRatio="none" width="100%" height="100%" overflow="visible" style="display: block;" viewBox="0 0 49.0912 13.335" fill="none" xmlns="http://www.w3.org/2000/svg">
<g id="SOLID">
<path id="Vector" d="M37.9061 0.355558H42.7552C43.628 0.355558 44.4469 0.479477 45.212 0.727316C45.9878 0.975154 46.6613 1.35769 47.2324 1.87492C47.8143 2.39214 48.2669 3.04946 48.5901 3.84685C48.9242 4.63347 49.0912 5.57094 49.0912 6.65928C49.0912 7.74761 48.9242 8.69048 48.5901 9.48787C48.2669 10.2745 47.8143 10.9264 47.2324 11.4436C46.6613 11.9609 45.9878 12.3434 45.212 12.5912C44.4469 12.8391 43.628 12.963 42.7552 12.963H38.1486V1.98806C38.1486 1.70789 38.1163 1.48699 38.0516 1.32536C37.9977 1.16373 37.8954 0.996705 37.7445 0.824295C37.6475 0.705764 37.6206 0.598008 37.6637 0.501028C37.7068 0.404048 37.7876 0.355558 37.9061 0.355558ZM42.3511 11.088C43.1485 11.088 43.8112 10.9803 44.3392 10.7648C44.8672 10.5493 45.2874 10.2476 45.5999 9.85963C45.9124 9.47171 46.1333 9.00836 46.2626 8.46958C46.3919 7.92002 46.4566 7.31659 46.4566 6.65928C46.4566 6.00197 46.3919 5.40392 46.2626 4.86514C46.1333 4.31559 45.9124 3.84685 45.5999 3.45893C45.2874 3.07101 44.8672 2.77468 44.3392 2.56994C43.8112 2.35443 43.1485 2.24667 42.3511 2.24667H40.7832V11.088H42.3511Z" fill="var(--fill-0, white)"/>
<path id="Vector_2" d="M32.81 12.963V1.98806C32.81 1.70789 32.7777 1.48699 32.7131 1.32536C32.6592 1.16373 32.5568 0.996705 32.406 0.824295C32.309 0.705764 32.282 0.598008 32.3251 0.501028C32.3682 0.404048 32.4491 0.355558 32.5676 0.355558H35.4447V12.963H32.81Z" fill="var(--fill-0, white)"/>
<path id="Vector_3" d="M30.6274 11.8639V12.963H23.7903V1.90724C23.7903 1.67018 23.7687 1.43312 23.7256 1.19605C23.6825 0.948215 23.5855 0.759642 23.4347 0.630335V0.355558H25.051V11.8639H30.6274Z" fill="var(--fill-0, white)"/>
<path id="Vector_4" d="M9.52199 6.65932C9.52199 5.66796 9.66208 4.76281 9.94224 3.94387C10.2332 3.12492 10.6373 2.42451 11.1545 1.84263C11.6825 1.26074 12.3183 0.808169 13.0618 0.484902C13.8053 0.161634 14.6296 0 15.5348 0C16.4399 0 17.2643 0.161634 18.0078 0.484902C18.7513 0.808169 19.3817 1.26074 19.8989 1.84263C20.4269 2.42451 20.831 3.12492 21.1111 3.94387C21.4021 4.76281 21.5476 5.66796 21.5476 6.65932C21.5476 7.65067 21.4021 8.55582 21.1111 9.37476C20.831 10.1937 20.4269 10.8995 19.8989 11.4922C19.3817 12.074 18.7513 12.5266 18.0078 12.8499C17.2643 13.1732 16.4399 13.3348 15.5348 13.3348C14.6296 13.3348 13.8053 13.1732 13.0618 12.8499C12.3183 12.5266 11.6825 12.074 11.1545 11.4922C10.6373 10.8995 10.2332 10.1937 9.94224 9.37476C9.66208 8.55582 9.52199 7.65067 9.52199 6.65932ZM20.2868 6.65932C20.2868 5.77572 20.1629 4.9891 19.9151 4.29946C19.6672 3.60982 19.3278 3.02794 18.8968 2.55381C18.4657 2.06891 17.9593 1.70254 17.3774 1.45471C16.8063 1.19609 16.1921 1.06678 15.5348 1.06678C14.8775 1.06678 14.2579 1.19609 13.676 1.45471C13.1049 1.70254 12.6038 2.06891 12.1728 2.55381C11.7418 3.02794 11.4023 3.60982 11.1545 4.29946C10.9067 4.9891 10.7827 5.77572 10.7827 6.65932C10.7827 7.54291 10.9067 8.32953 11.1545 9.01917C11.4023 9.70881 11.7418 10.2961 12.1728 10.781C12.6038 11.2551 13.1049 11.6215 13.676 11.8801C14.2579 12.1279 14.8775 12.2518 15.5348 12.2518C16.1921 12.2518 16.8063 12.1279 17.3774 11.8801C17.9593 11.6215 18.4657 11.2551 18.8968 10.781C19.3278 10.2961 19.6672 9.70881 19.9151 9.01917C20.1629 8.32953 20.2868 7.54291 20.2868 6.65932Z" fill="var(--fill-0, white)"/>
<path id="Vector_5" d="M6.98268 2.02064C6.63786 1.70814 6.23377 1.47108 5.77042 1.30945C5.31785 1.14781 4.78446 1.067 4.17025 1.067C3.36208 1.067 2.70477 1.25018 2.19831 1.61655C1.70264 1.98292 1.4548 2.50554 1.4548 3.1844C1.4548 3.55077 1.53561 3.87404 1.69725 4.1542C1.85888 4.42359 2.09595 4.68759 2.40844 4.94621C2.63472 5.11862 2.87718 5.27486 3.13579 5.41495C3.40518 5.55503 3.67996 5.68972 3.96012 5.81903C4.24029 5.93756 4.52045 6.05609 4.80062 6.17463C5.08078 6.29316 5.34479 6.41169 5.59262 6.53022C6.0021 6.73496 6.36308 6.95586 6.67557 7.19292C6.98806 7.41921 7.24668 7.67243 7.45141 7.9526C7.66693 8.22199 7.82856 8.52909 7.93632 8.87391C8.04407 9.20795 8.09795 9.5851 8.09795 10.0053C8.09795 10.4902 8.00097 10.9374 7.80701 11.3469C7.62382 11.7564 7.34905 12.1066 6.98268 12.3975C6.61631 12.6885 6.15834 12.9148 5.60879 13.0764C5.07001 13.2488 4.44502 13.335 3.73383 13.335C3.44289 13.335 3.12501 13.3081 2.7802 13.2542C2.43538 13.2003 2.09056 13.1249 1.74574 13.0279C1.40092 12.9417 1.07226 12.8339 0.759772 12.7046C0.458055 12.5753 0.204829 12.4352 9.25109e-05 12.2844L0.468831 11.2499C0.986059 11.5624 1.53023 11.8103 2.10133 11.9934C2.68321 12.1659 3.23277 12.2521 3.75 12.2521C4.15947 12.2521 4.54739 12.2143 4.91376 12.1389C5.29091 12.0635 5.61956 11.9396 5.89973 11.7672C6.17989 11.584 6.40079 11.3523 6.56243 11.0721C6.72406 10.7812 6.80488 10.4202 6.80488 9.98918C6.80488 9.41808 6.65402 8.94934 6.3523 8.58297C6.06136 8.2166 5.61418 7.87717 5.01074 7.56468C4.6767 7.39227 4.35343 7.24141 4.04094 7.1121C3.72845 6.98279 3.42673 6.85349 3.13579 6.72418C2.84485 6.5841 2.5593 6.43863 2.27913 6.28777C2.00974 6.13691 1.74035 5.95373 1.47096 5.73821C1.12614 5.46882 0.819038 5.12401 0.549648 4.70376C0.280258 4.27273 0.145563 3.76628 0.145563 3.1844C0.145563 2.17149 0.506545 1.39026 1.22851 0.840708C1.95047 0.280377 2.93644 0.000211949 4.18641 0.000211949C4.76829 0.000211949 5.30707 0.0540898 5.80275 0.161846C6.3092 0.258826 6.80488 0.404296 7.28978 0.598257V2.02064H6.98268Z" fill="var(--fill-0, white)"/>
</g>
</svg>
