<svg preserveAspectRatio="none" width="100%" height="100%" overflow="visible" style="display: block;" viewBox="0 0 49.0911 13.335" fill="none" xmlns="http://www.w3.org/2000/svg">
<g id="SOLID">
<path id="Vector" d="M37.9061 0.355558H42.7551C43.6279 0.355558 44.4468 0.479477 45.2119 0.727316C45.9877 0.975154 46.6612 1.35769 47.2323 1.87492C47.8142 2.39214 48.2668 3.04946 48.5901 3.84685C48.9241 4.63347 49.0911 5.57094 49.0911 6.65928C49.0911 7.74761 48.9241 8.69048 48.5901 9.48787C48.2668 10.2745 47.8142 10.9264 47.2323 11.4436C46.6612 11.9609 45.9877 12.3434 45.2119 12.5912C44.4468 12.8391 43.6279 12.963 42.7551 12.963H38.1485V1.98806C38.1485 1.70789 38.1162 1.48699 38.0515 1.32536C37.9976 1.16373 37.8953 0.996705 37.7444 0.824295C37.6474 0.705764 37.6205 0.598008 37.6636 0.501028C37.7067 0.404048 37.7875 0.355558 37.9061 0.355558ZM42.351 11.088C43.1484 11.088 43.8111 10.9803 44.3391 10.7648C44.8671 10.5493 45.2873 10.2476 45.5998 9.85963C45.9123 9.47171 46.1332 9.00836 46.2625 8.46958C46.3918 7.92002 46.4565 7.31659 46.4565 6.65928C46.4565 6.00197 46.3918 5.40392 46.2625 4.86514C46.1332 4.31559 45.9123 3.84685 45.5998 3.45893C45.2873 3.07101 44.8671 2.77468 44.3391 2.56994C43.8111 2.35443 43.1484 2.24667 42.351 2.24667H40.7831V11.088H42.351Z" fill="var(--fill-0, white)"/>
<path id="Vector_2" d="M32.8099 12.963V1.98806C32.8099 1.70789 32.7776 1.48699 32.713 1.32536C32.6591 1.16373 32.5567 0.996705 32.4059 0.824295C32.3089 0.705764 32.2819 0.598008 32.325 0.501028C32.3681 0.404048 32.449 0.355558 32.5675 0.355558H35.4446V12.963H32.8099Z" fill="var(--fill-0, white)"/>
<path id="Vector_3" d="M30.6273 11.8639V12.963H23.7902V1.90724C23.7902 1.67018 23.7686 1.43312 23.7255 1.19605C23.6824 0.948215 23.5855 0.759642 23.4346 0.630335V0.355558H25.0509V11.8639H30.6273Z" fill="var(--fill-0, white)"/>
<path id="Vector_4" d="M9.52191 6.65932C9.52191 5.66796 9.66199 4.76281 9.94215 3.94387C10.2331 3.12492 10.6372 2.42451 11.1544 1.84263C11.6824 1.26074 12.3182 0.808169 13.0617 0.484902C13.8052 0.161634 14.6295 0 15.5347 0C16.4398 0 17.2642 0.161634 18.0077 0.484902C18.7512 0.808169 19.3816 1.26074 19.8988 1.84263C20.4268 2.42451 20.8309 3.12492 21.1111 3.94387C21.402 4.76281 21.5475 5.66796 21.5475 6.65932C21.5475 7.65067 21.402 8.55582 21.1111 9.37476C20.8309 10.1937 20.4268 10.8995 19.8988 11.4922C19.3816 12.074 18.7512 12.5266 18.0077 12.8499C17.2642 13.1732 16.4398 13.3348 15.5347 13.3348C14.6295 13.3348 13.8052 13.1732 13.0617 12.8499C12.3182 12.5266 11.6824 12.074 11.1544 11.4922C10.6372 10.8995 10.2331 10.1937 9.94215 9.37476C9.66199 8.55582 9.52191 7.65067 9.52191 6.65932ZM20.2867 6.65932C20.2867 5.77572 20.1628 4.9891 19.915 4.29946C19.6671 3.60982 19.3277 3.02794 18.8967 2.55381C18.4656 2.06891 17.9592 1.70254 17.3773 1.45471C16.8062 1.19609 16.192 1.06678 15.5347 1.06678C14.8774 1.06678 14.2578 1.19609 13.6759 1.45471C13.1048 1.70254 12.6037 2.06891 12.1727 2.55381C11.7417 3.02794 11.4022 3.60982 11.1544 4.29946C10.9066 4.9891 10.7826 5.77572 10.7826 6.65932C10.7826 7.54291 10.9066 8.32953 11.1544 9.01917C11.4022 9.70881 11.7417 10.2961 12.1727 10.781C12.6037 11.2551 13.1048 11.6215 13.6759 11.8801C14.2578 12.1279 14.8774 12.2518 15.5347 12.2518C16.192 12.2518 16.8062 12.1279 17.3773 11.8801C17.9592 11.6215 18.4656 11.2551 18.8967 10.781C19.3277 10.2961 19.6671 9.70881 19.915 9.01917C20.1628 8.32953 20.2867 7.54291 20.2867 6.65932Z" fill="var(--fill-0, white)"/>
<path id="Vector_5" d="M6.98268 2.02064C6.63786 1.70814 6.23377 1.47108 5.77042 1.30945C5.31785 1.14781 4.78446 1.067 4.17025 1.067C3.36208 1.067 2.70477 1.25018 2.19831 1.61655C1.70264 1.98292 1.4548 2.50554 1.4548 3.1844C1.4548 3.55077 1.53561 3.87404 1.69725 4.1542C1.85888 4.42359 2.09595 4.68759 2.40844 4.94621C2.63472 5.11862 2.87718 5.27486 3.13579 5.41495C3.40518 5.55503 3.67996 5.68972 3.96012 5.81903C4.24029 5.93756 4.52045 6.05609 4.80062 6.17463C5.08078 6.29316 5.34479 6.41169 5.59262 6.53022C6.0021 6.73496 6.36308 6.95586 6.67557 7.19292C6.98806 7.41921 7.24668 7.67243 7.45141 7.9526C7.66693 8.22199 7.82856 8.52909 7.93632 8.87391C8.04407 9.20795 8.09795 9.5851 8.09795 10.0053C8.09795 10.4902 8.00097 10.9374 7.80701 11.3469C7.62382 11.7564 7.34905 12.1066 6.98268 12.3975C6.61631 12.6885 6.15834 12.9148 5.60879 13.0764C5.07001 13.2488 4.44502 13.335 3.73383 13.335C3.44289 13.335 3.12501 13.3081 2.7802 13.2542C2.43538 13.2003 2.09056 13.1249 1.74574 13.0279C1.40092 12.9417 1.07226 12.8339 0.759772 12.7046C0.458055 12.5753 0.204829 12.4352 9.25109e-05 12.2844L0.468831 11.2499C0.986059 11.5624 1.53023 11.8103 2.10133 11.9934C2.68321 12.1659 3.23277 12.2521 3.75 12.2521C4.15947 12.2521 4.54739 12.2143 4.91376 12.1389C5.29091 12.0635 5.61956 11.9396 5.89973 11.7672C6.17989 11.584 6.40079 11.3523 6.56243 11.0721C6.72406 10.7812 6.80488 10.4202 6.80488 9.98918C6.80488 9.41808 6.65402 8.94934 6.3523 8.58297C6.06136 8.2166 5.61418 7.87717 5.01074 7.56468C4.6767 7.39227 4.35343 7.24141 4.04094 7.1121C3.72845 6.98279 3.42673 6.85349 3.13579 6.72418C2.84485 6.5841 2.5593 6.43863 2.27913 6.28777C2.00974 6.13691 1.74035 5.95373 1.47096 5.73821C1.12614 5.46882 0.819038 5.12401 0.549648 4.70376C0.280258 4.27273 0.145563 3.76628 0.145563 3.1844C0.145563 2.17149 0.506545 1.39026 1.22851 0.840708C1.95047 0.280377 2.93644 0.000211949 4.18641 0.000211949C4.76829 0.000211949 5.30707 0.0540898 5.80275 0.161846C6.3092 0.258826 6.80488 0.404296 7.28978 0.598257V2.02064H6.98268Z" fill="var(--fill-0, white)"/>
</g>
</svg>
