<svg preserveAspectRatio="none" width="100%" height="100%" overflow="visible" style="display: block;" viewBox="0 0 147.661 16.8049" fill="none" xmlns="http://www.w3.org/2000/svg">
<g id="SOLIF, &#235;&#132;&#136;&#236;&#157;&#152; &#234;&#191;&#136;&#236;&#157;&#132; &#236;&#157;&#145;&#236;&#155;&#144;&#237;&#149;&#180;">
<g id="Union">
<path fill-rule="evenodd" clip-rule="evenodd" d="M145.918 0.694259C146.063 0.645758 146.238 0.678797 146.404 0.734298L146.403 0.736251C146.636 0.800582 146.833 0.92515 146.989 1.11027C147.139 1.27682 147.251 1.52132 147.334 1.82024C147.418 2.12198 147.48 2.49786 147.521 2.94328L147.554 3.31145C147.626 4.25024 147.661 5.7433 147.661 7.7841V7.78606C147.648 9.53354 147.621 11.0885 147.581 12.4501C147.541 13.7976 147.488 14.8362 147.421 15.5624C147.394 15.9223 147.364 16.1991 147.328 16.3866C147.311 16.4784 147.29 16.5617 147.263 16.6249C147.25 16.6553 147.228 16.6971 147.193 16.7323C147.156 16.7708 147.084 16.8176 146.988 16.8017L146.963 16.7978L146.94 16.787C146.866 16.7541 146.832 16.6906 146.82 16.6669C146.805 16.6352 146.794 16.6 146.786 16.5693C146.77 16.5065 146.757 16.4249 146.747 16.33C146.726 16.1378 146.711 15.8611 146.701 15.5048C146.681 14.7905 146.681 13.7353 146.701 12.3417C146.721 10.9292 146.723 9.86145 146.706 9.13859C146.698 8.77707 146.685 8.50495 146.668 8.32024C146.662 8.2497 146.653 8.19478 146.646 8.15422C146.643 8.15416 146.64 8.15422 146.637 8.15422C146.584 8.15422 146.513 8.16216 146.421 8.18059C146.236 8.21754 145.987 8.2937 145.672 8.41203L145.671 8.41106C145.398 8.51517 145.206 8.60261 145.088 8.67277C144.981 8.74447 144.88 8.82927 144.783 8.9257C144.725 8.98388 144.673 9.09445 144.661 9.29582C144.648 9.51788 144.642 9.76107 144.642 10.0243C144.642 10.2716 144.654 10.6529 144.681 11.1698C144.721 11.7313 144.738 12.1691 144.731 12.4784C144.728 12.632 144.719 12.7617 144.701 12.8613C144.692 12.9108 144.68 12.9603 144.663 13.0038C144.647 13.0433 144.618 13.1019 144.562 13.1445L144.55 13.1532L144.536 13.1601C144.47 13.1958 144.392 13.2204 144.307 13.2148C144.219 13.2089 144.143 13.172 144.083 13.1181C143.973 13.0196 143.909 12.8611 143.867 12.6933L143.866 12.6874C143.802 12.3947 143.757 11.8728 143.727 11.1376C143.696 10.3972 143.682 9.42556 143.682 8.22453C143.682 6.47643 143.661 5.35083 143.622 4.83977L143.621 4.83488C143.608 4.58127 143.584 4.38114 143.551 4.23332C143.516 4.08013 143.478 4.00632 143.453 3.97844C143.288 3.81052 143.182 3.6015 143.248 3.37199L143.278 3.28899C143.314 3.20998 143.37 3.14178 143.447 3.09172C143.546 3.02754 143.664 3.00482 143.781 3.00481C143.966 3.00481 144.123 3.08528 144.24 3.22649C144.35 3.35867 144.425 3.5399 144.475 3.7509L144.515 3.92082C144.601 4.34892 144.642 5.00171 144.642 5.86418V5.96477C144.642 6.29793 144.634 6.54572 144.62 6.70207C144.609 6.82948 144.614 6.98768 144.64 7.17766C144.665 7.36921 144.683 7.4941 144.695 7.55656C144.696 7.55906 144.7 7.56614 144.708 7.57805C144.719 7.59427 144.736 7.61605 144.763 7.6425C144.778 7.65794 144.792 7.66796 144.802 7.6757C144.863 7.66274 144.945 7.64623 145.046 7.62785C145.184 7.60276 145.298 7.57169 145.391 7.53703C145.506 7.48111 145.682 7.4088 145.913 7.32316C145.933 7.31062 145.956 7.29765 145.983 7.29094L146.77 6.95695L146.662 5.66106V5.6591C146.582 4.59108 146.541 3.75807 146.541 3.16399C146.541 2.72563 146.514 2.43672 146.469 2.27922C146.428 2.13517 146.338 1.99253 146.187 1.85246L145.975 1.64543C145.913 1.57996 145.859 1.51776 145.815 1.45891C145.733 1.34845 145.661 1.21804 145.661 1.08391C145.661 1.00751 145.676 0.925168 145.72 0.851485C145.766 0.773657 145.837 0.721321 145.918 0.694259ZM144.421 6.68352C144.428 6.61027 144.433 6.51425 144.437 6.39445L144.441 5.96477C144.441 6.29781 144.434 6.53682 144.421 6.68352ZM143.602 3.84465C143.616 3.86129 143.631 3.88063 143.645 3.90324L143.602 3.84465Z" fill="var(--fill-0, #3971E0)"/>
<path fill-rule="evenodd" clip-rule="evenodd" d="M139.076 7.69035C139.343 7.67048 139.64 7.71583 139.964 7.81828L140.297 7.93938L140.301 7.94133C140.865 8.18719 141.23 8.5767 141.354 9.11418C141.492 9.64851 141.363 10.2112 141.012 10.788L141.008 10.7958L141.007 10.7948C140.829 11.0612 140.563 11.3179 140.218 11.5663C139.871 11.816 139.509 12.0123 139.131 12.1523L139.125 12.1542C138.754 12.278 138.427 12.3305 138.164 12.2812L138.152 12.2782C137.757 12.1793 137.421 12.0208 137.153 11.7978L137.148 11.7939C136.884 11.5585 136.705 11.2844 136.627 10.9726C136.542 10.6308 136.652 10.2531 136.891 9.86027C137.127 9.45824 137.563 8.88141 138.188 8.13566C138.412 7.86484 138.714 7.71744 139.076 7.69035ZM139.062 11.9638C138.893 12.02 138.74 12.0569 138.604 12.078C138.667 12.0682 138.734 12.0564 138.805 12.039L139.062 11.9638ZM140.102 11.4042L140.28 11.2685C140.293 11.2583 140.305 11.2474 140.317 11.2372C140.25 11.2925 140.178 11.3489 140.102 11.4042ZM136.986 11.3046C137.005 11.3344 137.026 11.3635 137.048 11.3925C137.004 11.3342 136.966 11.2744 136.933 11.2128L136.986 11.3046ZM139.204 8.65422L139.174 8.66399H139.142C139.123 8.66399 139.093 8.6679 139.05 8.67863C139 8.69102 138.959 8.70252 138.925 8.71379C138.92 8.7169 138.904 8.72735 138.875 8.75188C138.836 8.78519 138.786 8.8351 138.725 8.90324C138.601 9.03969 138.439 9.23873 138.241 9.50285C137.857 10.0202 137.625 10.4084 137.529 10.6728L137.526 10.6806C137.503 10.738 137.506 10.7812 137.534 10.829C137.568 10.8873 137.645 10.9628 137.794 11.0468L137.905 11.0995C138.13 11.1961 138.364 11.2364 138.609 11.2196L138.733 11.206C139.28 11.1184 139.71 10.8969 140.035 10.5478L140.037 10.5458C140.383 10.1877 140.505 9.85172 140.463 9.53117L140.462 9.52336C140.446 9.35512 140.387 9.21831 140.29 9.10539C140.191 8.99052 140.042 8.88962 139.832 8.81145H139.829C139.659 8.74598 139.52 8.698 139.411 8.66691C139.342 8.64705 139.29 8.63663 139.253 8.63078C139.235 8.63915 139.219 8.64933 139.204 8.65422ZM140.842 10.6835C140.765 10.799 140.666 10.9137 140.549 11.0292C140.605 10.9737 140.658 10.9196 140.705 10.8642L140.842 10.6835ZM140.591 9.21672C140.609 9.26106 140.624 9.30729 140.636 9.35539C140.612 9.25937 140.576 9.17074 140.526 9.08977L140.591 9.21672ZM139.142 8.46379C139.122 8.46379 139.1 8.46629 139.076 8.46965L139.142 8.46379Z" fill="var(--fill-0, #3971E0)"/>
<path fill-rule="evenodd" clip-rule="evenodd" d="M141.87 4.35051C141.974 4.37457 142.064 4.43169 142.125 4.52629C142.183 4.61634 142.201 4.72214 142.201 4.82414C142.201 4.91856 142.155 4.99292 142.111 5.04191C142.067 5.09141 142.009 5.13347 141.948 5.16984C141.826 5.24307 141.654 5.31545 141.441 5.38859C141.013 5.53585 140.379 5.69942 139.544 5.87981C138.986 6.02583 138.402 6.17859 137.792 6.33781L137.79 6.33879C137.734 6.35284 137.671 6.36619 137.604 6.37981C137.357 6.4574 137.158 6.51737 137.008 6.55754C136.931 6.57806 136.864 6.59429 136.81 6.60539C136.759 6.6157 136.706 6.62395 136.661 6.62395H136.645L136.629 6.62199C136.512 6.60244 136.432 6.52448 136.39 6.43352C136.371 6.39282 136.359 6.34804 136.352 6.30266L136.342 6.16399V6.10441C136.342 5.94548 136.451 5.83287 136.55 5.76164C136.654 5.68639 136.798 5.61951 136.97 5.55754L137.305 5.44328C137.571 5.35966 137.922 5.26149 138.357 5.14934L139.074 4.96965C139.92 4.74996 140.569 4.58815 141.021 4.4843C141.248 4.43239 141.427 4.39437 141.558 4.37102C141.623 4.35942 141.679 4.35128 141.724 4.3466C141.746 4.34427 141.769 4.34198 141.79 4.34172C141.808 4.34152 141.838 4.34257 141.87 4.35051ZM137.741 6.14348C137.688 6.15679 137.628 6.1702 137.562 6.18352L137.741 6.14348ZM141.024 5.30949C140.894 5.34762 140.751 5.38723 140.595 5.42766L141.024 5.30949C141.155 5.27134 141.272 5.235 141.376 5.19914L141.024 5.30949Z" fill="var(--fill-0, #3971E0)"/>
<path fill-rule="evenodd" clip-rule="evenodd" d="M136.458 1.61418C136.632 1.55623 136.844 1.57421 137.07 1.63078C137.297 1.68747 137.554 1.77776 137.84 1.90031L137.844 1.90227L138.004 1.97063C138.385 2.12324 138.825 2.22935 139.324 2.28606C139.626 2.32035 139.88 2.37281 140.081 2.44719C140.229 2.50204 140.361 2.57326 140.46 2.66887L140.548 2.77336L140.553 2.78117C140.616 2.88659 140.666 2.98767 140.689 3.07805C140.711 3.15872 140.729 3.30057 140.623 3.40617C140.576 3.45328 140.518 3.46925 140.491 3.47551C140.458 3.48329 140.421 3.48668 140.388 3.4882C140.32 3.49127 140.234 3.48704 140.134 3.47844C139.933 3.46107 139.649 3.42146 139.288 3.36125C138.926 3.30097 138.636 3.24577 138.42 3.19426C138.312 3.16856 138.22 3.14309 138.145 3.11809C138.073 3.09433 138.003 3.06643 137.95 3.03117L137.934 3.01945L137.92 3.00578C137.898 2.98414 137.829 2.93977 137.679 2.88078C137.536 2.82477 137.34 2.76381 137.091 2.69816C136.825 2.62999 136.609 2.5525 136.455 2.46184C136.31 2.37628 136.161 2.24173 136.161 2.04387C136.161 1.95444 136.182 1.86309 136.235 1.78313C136.289 1.70239 136.366 1.64899 136.451 1.61711L136.458 1.61418ZM140.481 3.26359C140.469 3.27628 140.437 3.28415 140.387 3.28703C140.41 3.28568 140.43 3.28371 140.445 3.2802L140.481 3.26359ZM137.142 2.50481C137.077 2.48818 137.016 2.47029 136.959 2.45305L137.142 2.50481ZM137.762 2.08391L137.461 1.96281C137.443 1.95617 137.425 1.95057 137.407 1.94426C137.519 1.98445 137.637 2.03053 137.762 2.08391Z" fill="var(--fill-0, #3971E0)"/>
</g>
<g id="Union_2">
<path fill-rule="evenodd" clip-rule="evenodd" d="M130.061 11.1135C130.189 11.0676 130.305 11.1132 130.385 11.1809C130.458 11.243 130.517 11.334 130.566 11.4309C130.617 11.53 130.666 11.6522 130.714 11.7951L130.798 12.0588C130.825 12.1549 130.852 12.2602 130.879 12.3742C130.978 12.7635 131.073 13.0654 131.161 13.2834C131.251 13.5048 131.323 13.6064 131.364 13.6408C131.379 13.6505 131.418 13.6705 131.499 13.6867C131.58 13.7029 131.689 13.7142 131.827 13.719C132.105 13.7285 132.484 13.7106 132.967 13.6643C134.082 13.5581 134.823 13.5098 135.173 13.5236C135.353 13.5306 135.51 13.5502 135.633 13.5871C135.734 13.6175 135.847 13.6701 135.917 13.7688L135.944 13.8147L135.953 13.8322L135.959 13.8508C135.993 13.9741 135.978 14.1041 135.896 14.2141C135.821 14.3136 135.706 14.374 135.589 14.4133L135.577 14.4172C135.364 14.474 134.77 14.5761 133.815 14.7219H133.812C132.911 14.843 132.174 14.8571 131.614 14.7551C131.056 14.6532 130.636 14.4277 130.429 14.0373C130.257 13.7207 130.092 13.2337 129.932 12.592L129.931 12.5881C129.857 12.2653 129.808 12.0031 129.787 11.8049C129.777 11.7062 129.772 11.6172 129.776 11.5422C129.78 11.4751 129.791 11.3908 129.834 11.3205C129.882 11.2413 129.953 11.1521 130.061 11.1135ZM135.165 13.7238C135.332 13.7303 135.465 13.7485 135.563 13.7766C135.516 13.7631 135.461 13.7509 135.398 13.7424C135.33 13.7332 135.252 13.7272 135.165 13.7238Z" fill="var(--fill-0, #3971E0)"/>
<path fill-rule="evenodd" clip-rule="evenodd" d="M132.339 4.8049L132.34 4.80392C132.397 4.808 132.456 4.8176 132.51 4.8381C132.563 4.85844 132.63 4.89778 132.671 4.97287C132.714 5.05252 132.708 5.13497 132.688 5.1965C132.67 5.25457 132.636 5.30626 132.602 5.34884L132.598 5.35373C132.519 5.44584 132.4 5.53815 132.256 5.63009C132.109 5.72367 131.924 5.82441 131.704 5.93283C131.263 6.14995 130.666 6.40309 129.917 6.69064C129.709 6.77266 129.57 6.85524 129.485 6.93185C129.403 7.0063 129.386 7.06295 129.386 7.10373C129.386 7.2026 129.348 7.31878 129.301 7.4338C129.25 7.55597 129.175 7.70471 129.08 7.87619C128.89 8.21968 128.607 8.67343 128.232 9.23459L128.23 9.23654C127.404 10.4495 126.833 11.3074 126.515 11.8108L126.513 11.8137C126.318 12.1084 126.157 12.3404 126.029 12.5061C125.966 12.5885 125.908 12.6577 125.857 12.7111C125.812 12.7596 125.755 12.8128 125.695 12.843L125.683 12.8488L125.669 12.8537C125.605 12.8749 125.527 12.8916 125.447 12.8772C125.354 12.86 125.276 12.8026 125.234 12.7141C125.199 12.6386 125.198 12.5568 125.204 12.4904C125.211 12.4206 125.229 12.3435 125.255 12.2629C125.359 11.8848 125.593 11.4516 125.943 10.967C126.202 10.5888 126.418 10.2718 126.59 10.0168L126.978 9.43478C127.475 8.61159 127.847 7.97946 128.091 7.53732C128.206 7.32912 128.29 7.16452 128.348 7.04416C128.333 7.04796 128.316 7.05216 128.299 7.05685L128.298 7.05587C127.99 7.15286 127.297 7.32161 126.229 7.5588L126.227 7.55978C125.147 7.78631 124.399 7.93938 123.983 8.01974L123.975 8.0217L123.966 8.02267C123.703 8.04898 123.498 8.0594 123.377 8.0422L123.364 8.04025L123.351 8.03634C123.269 8.01297 123.191 7.96649 123.137 7.88888C123.084 7.81289 123.064 7.72549 123.064 7.64377C123.064 7.50688 123.12 7.38624 123.219 7.29318C123.311 7.206 123.436 7.14845 123.572 7.11056C123.825 7.04042 124.437 6.92601 125.393 6.76681L125.395 6.76584C126.318 6.62074 127.39 6.37659 128.611 6.03146L129.448 5.78537C129.697 5.70781 129.917 5.63444 130.107 5.56564C130.492 5.42644 130.741 5.31047 130.871 5.21994L130.878 5.21505L131.066 5.10275C131.501 4.86142 131.928 4.75497 132.339 4.8049Z" fill="var(--fill-0, #3971E0)"/>
<path fill-rule="evenodd" clip-rule="evenodd" d="M133.658 0.495328C133.771 0.535781 133.865 0.619622 133.945 0.716031C133.986 0.765343 134.027 0.822014 134.066 0.884977L134.184 1.09298L134.185 1.09396C134.312 1.34868 134.422 1.65529 134.518 2.00998C134.644 2.45821 134.712 3.00964 134.726 3.65939C134.739 4.30619 134.712 5.47929 134.646 7.17209C134.592 9.07342 134.525 10.3061 134.443 10.8537C134.402 11.129 134.339 11.3583 134.244 11.5236C134.146 11.6938 133.995 11.8233 133.785 11.8235H133.732L133.687 11.7971C133.592 11.7432 133.554 11.643 133.535 11.5852C133.513 11.5145 133.497 11.4275 133.486 11.3303C133.476 11.2322 133.469 11.115 133.466 10.9797V10.5158C133.493 9.83312 133.586 8.16405 133.746 5.51193C133.812 4.50804 133.792 3.64816 133.688 2.93283C133.582 2.20743 133.408 1.75135 133.197 1.51779L133.19 1.50998C133.096 1.39388 133.022 1.27375 132.991 1.15255C132.961 1.03233 132.977 0.908482 133.054 0.802945C133.118 0.692636 133.198 0.593452 133.299 0.532438C133.409 0.466066 133.535 0.451119 133.658 0.495328ZM134.368 9.23654C134.331 9.99 134.291 10.5196 134.245 10.8244L134.246 10.8235C134.256 10.7567 134.266 10.6792 134.275 10.591C134.31 10.2763 134.339 9.82467 134.368 9.23654Z" fill="var(--fill-0, #3971E0)"/>
<path fill-rule="evenodd" clip-rule="evenodd" d="M132.61 7.18478C132.8 7.17024 132.975 7.18401 133.121 7.24337C133.236 7.29006 133.33 7.36343 133.396 7.46212L133.451 7.56955L133.456 7.58029C133.483 7.66124 133.482 7.7464 133.455 7.82736L133.451 7.84005L133.444 7.85275C133.409 7.92377 133.35 7.97465 133.297 8.00998L133.274 8.02462L133.249 8.03341C133.19 8.05313 133.128 8.06363 133.065 8.06369C132.875 8.06375 132.556 8.15888 132.093 8.384L132.086 8.38693C131.199 8.77388 130.516 9.05284 130.043 9.22189C129.808 9.30589 129.617 9.36557 129.477 9.3967C129.407 9.41196 129.34 9.42237 129.282 9.42306C129.253 9.42338 129.218 9.42149 129.183 9.41232C129.15 9.4039 129.104 9.38479 129.064 9.34396L129.055 9.33517L129.056 9.3342C128.953 9.22149 128.983 9.0823 129.018 9.00314C129.054 8.91934 129.121 8.83274 129.198 8.74826C129.357 8.5751 129.549 8.41865 129.772 8.27853L129.932 8.17599C129.982 8.1459 130.03 8.11921 130.074 8.09787C130.159 8.05733 130.254 8.02365 130.346 8.02365C130.406 8.0235 130.521 7.9991 130.702 7.92795C130.79 7.8933 130.891 7.84927 131.002 7.79611L131.371 7.60763C131.824 7.36082 132.239 7.21448 132.61 7.18478ZM132.085 7.50412C131.892 7.57059 131.685 7.66367 131.466 7.78341L131.465 7.78439C131.685 7.66443 131.892 7.57078 132.085 7.50412Z" fill="var(--fill-0, #3971E0)"/>
<path fill-rule="evenodd" clip-rule="evenodd" d="M128.074 1.26974C128.199 1.25962 128.317 1.26239 128.418 1.28634C128.579 1.31327 128.744 1.39674 128.91 1.51877L129.077 1.65353L129.084 1.65939C129.448 2.00788 129.608 2.44613 129.564 2.95529C129.538 3.39325 129.344 3.82265 129.007 4.24045L128.854 4.41818C128.597 4.70194 128.368 4.91265 128.171 5.03439L128.16 5.04025C127.956 5.15035 127.729 5.20327 127.485 5.20334C127.238 5.20329 126.989 5.14152 126.74 5.02462C126.498 4.91052 126.276 4.76769 126.075 4.59591L126.07 4.59103C125.876 4.4115 125.738 4.20758 125.673 3.97873C125.611 3.76348 125.642 3.52465 125.733 3.27853C125.826 3.03123 125.986 2.75889 126.205 2.46408C126.655 1.86488 127.117 1.47347 127.596 1.34982L127.854 1.29806C127.932 1.28479 128.006 1.27526 128.074 1.26974ZM128.706 4.28341L128.705 4.28439C128.588 4.41422 128.478 4.52485 128.378 4.6174C128.424 4.57472 128.473 4.52844 128.523 4.47775C128.582 4.4187 128.643 4.35325 128.706 4.28341ZM126.965 4.28439C127.06 4.32436 127.162 4.34639 127.27 4.3508C127.198 4.34782 127.129 4.33632 127.062 4.31759C127.029 4.30825 126.997 4.29669 126.966 4.28341L126.965 4.28439ZM127.909 2.19357L127.901 2.19552L127.895 2.19748C127.854 2.20771 127.775 2.24605 127.654 2.33517C127.537 2.42132 127.394 2.54506 127.225 2.70822L127.224 2.70724C126.866 3.06585 126.705 3.37024 126.685 3.62033C126.674 3.74127 126.7 3.82964 126.749 3.89865C126.8 3.97025 126.889 4.03981 127.037 4.09689L127.043 4.09884C127.23 4.17761 127.472 4.17281 127.788 4.03927L127.79 4.0383C128.116 3.90532 128.328 3.72026 128.448 3.49142L128.452 3.48459C128.593 3.23765 128.64 3.00149 128.607 2.7717L128.606 2.76193C128.584 2.51744 128.496 2.37829 128.368 2.29904C128.134 2.17678 127.991 2.16668 127.909 2.19357ZM126.217 2.79318C125.946 3.19921 125.821 3.53437 125.842 3.79806C125.817 3.49038 125.992 3.0858 126.365 2.5842L126.217 2.79318ZM128.455 3.82638C128.469 3.81138 128.483 3.797 128.495 3.78146L128.504 3.76974C128.488 3.78922 128.472 3.80772 128.455 3.82638ZM127.845 2.00412C127.825 2.00908 127.804 2.01619 127.781 2.0256L127.845 2.00412C127.865 1.99754 127.886 1.99223 127.907 1.98849L127.845 2.00412Z" fill="var(--fill-0, #3971E0)"/>
</g>
<g id="Union_3">
<path fill-rule="evenodd" clip-rule="evenodd" d="M117.207 10.3647C117.636 10.4078 117.987 10.6706 118.267 11.0952L118.382 11.2876L118.386 11.2944C118.577 11.6775 118.479 12.1486 118.203 12.6587C117.919 13.1842 117.507 13.6166 116.974 13.9536L116.971 13.9546C116.422 14.289 115.961 14.4836 115.607 14.4839C115.23 14.4839 114.9 14.2609 114.616 13.896L114.443 13.6831C114.065 13.181 113.874 12.6455 113.887 12.0796L113.888 12.0698L113.889 12.061C113.911 11.8703 113.963 11.6972 114.069 11.5708C114.184 11.4339 114.343 11.3745 114.518 11.3843L114.532 11.3853L114.582 11.3862C114.643 11.3809 114.738 11.3567 114.874 11.2993C115.049 11.2254 115.271 11.1051 115.539 10.9351C116.175 10.5289 116.738 10.3178 117.207 10.3647ZM116.987 11.3237C116.838 11.3237 116.569 11.4034 116.159 11.6011C115.705 11.8479 115.404 12.086 115.236 12.3091C115.094 12.498 115.051 12.6694 115.081 12.8345L115.099 12.9048L115.102 12.9155C115.147 13.0984 115.22 13.2092 115.307 13.2739C115.391 13.3373 115.512 13.3738 115.688 13.3638C116.067 13.3292 116.501 13.1148 116.991 12.6772L117.219 12.4546C117.412 12.2513 117.517 12.095 117.555 11.9849C117.596 11.8509 117.573 11.714 117.435 11.5552C117.278 11.3883 117.129 11.3239 116.987 11.3237ZM118.027 12.564C117.929 12.7451 117.814 12.914 117.684 13.0718C117.77 12.9676 117.85 12.859 117.922 12.7446C117.959 12.6859 117.994 12.6254 118.027 12.564ZM116.906 11.1284C116.708 11.1504 116.428 11.2494 116.066 11.4243C115.133 11.9309 114.746 12.4444 114.906 12.9644C114.826 12.7042 114.884 12.4457 115.077 12.189C115.222 11.9966 115.444 11.8052 115.742 11.6147C115.842 11.5511 115.95 11.4877 116.066 11.4243C116.17 11.3743 116.267 11.3309 116.357 11.2935C116.447 11.256 116.531 11.2247 116.607 11.1997C116.722 11.1624 116.821 11.1378 116.906 11.1284ZM117.587 11.4243L117.516 11.354C117.5 11.3397 117.484 11.326 117.469 11.313C117.508 11.3459 117.548 11.3829 117.587 11.4243ZM118.207 11.3843L118.112 11.2261C118.11 11.2233 118.108 11.221 118.106 11.2183C118.14 11.2706 118.175 11.3257 118.207 11.3843ZM117.187 10.564C117.283 10.5736 117.375 10.5978 117.464 10.6343C117.421 10.6168 117.378 10.6016 117.334 10.5903L117.187 10.564Z" fill="var(--fill-0, #3971E0)"/>
<path fill-rule="evenodd" clip-rule="evenodd" d="M122.099 5.18603C122.269 5.16184 122.449 5.24591 122.612 5.354C122.747 5.43813 122.872 5.57351 122.856 5.76513C122.843 5.92966 122.728 6.06389 122.602 6.17041L122.602 6.17138C122.389 6.36788 122.126 6.46425 121.827 6.46435C121.724 6.46435 121.499 6.49595 121.137 6.56982C120.781 6.64227 120.308 6.7509 119.717 6.89697L119.718 6.89795C118.698 7.16639 117.551 7.40749 116.28 7.62158C115.245 7.79403 113.862 8.0732 112.131 8.45947H112.128C111.301 8.63289 110.669 8.7559 110.234 8.82666C110.018 8.86188 109.846 8.88517 109.722 8.89502C109.66 8.89986 109.604 8.90152 109.558 8.89892C109.535 8.89763 109.508 8.89468 109.481 8.88818C109.461 8.88324 109.415 8.86904 109.373 8.83056L109.372 8.83154C109.37 8.82962 109.367 8.82765 109.365 8.82568L109.366 8.8247C109.303 8.76485 109.246 8.67841 109.248 8.56591C109.25 8.45472 109.31 8.36816 109.37 8.3081C109.486 8.19201 109.688 8.09048 109.936 7.99658L109.94 7.9956C110.495 7.80044 111.567 7.55917 113.146 7.27099L114.894 6.96631C117.689 6.48714 119.822 5.97637 121.298 5.43603C121.512 5.35588 121.685 5.29486 121.816 5.25341C121.882 5.23273 121.94 5.21608 121.988 5.20459C122.023 5.19633 122.062 5.18897 122.099 5.18603ZM112.087 8.26416C111.322 8.42457 110.726 8.53893 110.301 8.61084C110.496 8.57772 110.729 8.53666 110.996 8.48486L112.087 8.26416ZM121.826 6.26416C121.751 6.26421 121.634 6.27826 121.477 6.3042C121.568 6.28916 121.646 6.27733 121.71 6.27099L121.826 6.26416Z" fill="var(--fill-0, #3971E0)"/>
<path fill-rule="evenodd" clip-rule="evenodd" d="M117.5 0.807126C117.859 0.867004 118.153 1.02016 118.362 1.27783C118.583 1.54962 118.643 1.91362 118.585 2.33154C118.525 2.74894 118.326 3.16201 118.004 3.56787L118.002 3.5708C117.29 4.44346 116.567 4.87913 115.861 4.6333L115.858 4.63134C115.478 4.49174 115.218 4.23275 115.102 3.85888C114.989 3.49739 115.016 3.04936 115.153 2.53271L115.155 2.52783C115.251 2.19903 115.372 1.93131 115.528 1.7417C115.682 1.54245 115.917 1.3483 116.22 1.15576L116.224 1.15283C116.682 0.875327 117.112 0.742484 117.5 0.807126ZM115.735 3.46631C115.779 3.63889 115.902 3.75165 116.106 3.8042C116.143 3.81342 116.181 3.81808 116.218 3.82275L116.106 3.8042C115.99 3.77423 115.9 3.7248 115.836 3.65576C115.82 3.63849 115.806 3.61981 115.793 3.60009C115.767 3.56064 115.748 3.51555 115.735 3.46631ZM117.369 1.8042C117.089 1.81049 116.853 1.88023 116.655 2.00732C116.456 2.1352 116.285 2.32872 116.144 2.59716L116.143 2.59619C115.962 2.95995 115.904 3.21093 115.921 3.36767C115.929 3.43995 115.952 3.4862 115.982 3.51904C116.014 3.5529 116.066 3.58685 116.154 3.60986C116.4 3.67129 116.672 3.6076 116.976 3.35888L117.108 3.23974C117.477 2.88313 117.647 2.50593 117.647 2.104C117.647 2.00406 117.641 1.93192 117.631 1.8833C117.625 1.85529 117.62 1.8417 117.618 1.8374L117.617 1.83642C117.613 1.83429 117.601 1.82855 117.578 1.82275C117.534 1.81175 117.466 1.80433 117.369 1.8042ZM115.523 2.1206C115.52 2.1277 115.516 2.13484 115.513 2.14209C115.538 2.0907 115.564 2.04325 115.591 1.99951L115.523 2.1206Z" fill="var(--fill-0, #3971E0)"/>
</g>
<g id="Union_4">
<path fill-rule="evenodd" clip-rule="evenodd" d="M99.5312 8.4044C99.686 8.39782 99.83 8.44065 99.9531 8.53526C100.075 8.62931 100.167 8.76551 100.235 8.92491C100.376 9.25217 100.393 9.63024 100.308 10.045L100.307 10.0489C100.254 10.2811 100.214 10.4652 100.188 10.6017C100.161 10.7446 100.151 10.8191 100.151 10.8439V10.8536L100.15 10.8644C100.145 10.9166 100.126 10.9629 100.108 10.9972C100.089 11.0336 100.064 11.0699 100.037 11.1056C99.9833 11.1769 99.9095 11.2595 99.8184 11.3507C99.6352 11.5339 99.3675 11.7699 99.0195 12.0577L99.0156 12.0607C98.5652 12.4183 98.3025 12.6664 98.1992 12.8126C98.1218 12.9406 98.0879 13.0997 98.1104 13.3019C98.1229 13.4207 98.1405 13.5072 98.1602 13.5636C98.1675 13.5846 98.1749 13.5986 98.1797 13.6075C98.1825 13.6081 98.186 13.609 98.1895 13.6095C98.218 13.6137 98.2591 13.6177 98.3125 13.6192C98.4198 13.6223 98.5678 13.6177 98.7578 13.6046L98.96 13.5851C99.3722 13.5349 99.8218 13.4194 100.309 13.2364L100.556 13.1388C100.914 12.9902 101.216 12.8905 101.456 12.8468C101.576 12.825 101.689 12.8156 101.789 12.8243C101.864 12.8309 101.94 12.8487 102.008 12.8839L102.073 12.9259L102.08 12.9308L102.086 12.9357C102.175 13.0164 102.252 13.1167 102.277 13.2374C102.305 13.3684 102.265 13.4896 102.189 13.587L102.183 13.5958C102.115 13.6734 102.011 13.7467 101.893 13.8165C101.832 13.8523 101.763 13.8897 101.687 13.9278L101.433 14.047C101.078 14.203 100.513 14.3522 99.752 14.4991C98.995 14.6585 98.4552 14.7442 98.1514 14.7442H98.1406C97.8316 14.7271 97.5586 14.5627 97.3223 14.297C97.0874 14.0458 96.9512 13.7668 96.9512 13.464C96.9512 13.3683 96.9349 13.3241 96.9258 13.3087C96.9227 13.3037 96.922 13.3036 96.9238 13.3048C96.9223 13.3043 96.9183 13.3034 96.9131 13.3028H96.9043L96.8955 13.3009C96.8681 13.296 96.7907 13.2991 96.6416 13.338C96.4998 13.375 96.3149 13.4378 96.0859 13.5294C95.9867 13.5714 95.8491 13.6117 95.7227 13.5577C95.5646 13.4899 95.5313 13.3319 95.5312 13.2237V13.212C95.5363 13.1279 95.5786 13.0553 95.6143 13.004C95.6534 12.9477 95.7061 12.8888 95.7676 12.8282C95.8912 12.7064 96.0692 12.5591 96.2969 12.3888C96.7535 12.0472 97.4307 11.595 98.3252 11.0343L98.3291 11.0323C98.7208 10.7973 98.9648 10.5879 99.0869 10.4103L99.0918 10.4044C99.2209 10.2322 99.292 10.0092 99.292 9.72374C99.292 9.58179 99.2855 9.4765 99.2744 9.4044C99.2728 9.39422 99.2692 9.38518 99.2676 9.37706C99.2418 9.38341 99.2069 9.39343 99.1631 9.41026L99.1543 9.41417L99.1445 9.4171C98.5995 9.56573 97.8592 10.0035 96.917 10.7599L96.9121 10.7638C96.5591 11.0302 96.2698 11.2112 96.0576 11.2794C95.9573 11.3116 95.8216 11.3357 95.7021 11.2706C95.5989 11.2141 95.5547 11.1196 95.5391 11.0304L95.5312 10.9444C95.5312 10.837 95.5858 10.7387 95.6387 10.6642C95.696 10.5834 95.7763 10.4959 95.874 10.4034C96.0706 10.2174 96.3596 9.98924 96.7354 9.72081C97.4853 9.17195 98.1159 8.79938 98.6221 8.61632C98.9814 8.48327 99.2847 8.40696 99.5195 8.4044H99.5312ZM96.0107 13.3439C95.9875 13.3538 95.9657 13.362 95.9453 13.3683L96.0107 13.3439C96.1272 13.2973 96.2345 13.257 96.3311 13.2237L96.0107 13.3439ZM95.748 13.3214C95.7489 13.3233 95.751 13.3245 95.752 13.3263C95.7448 13.3126 95.7387 13.297 95.7354 13.2784L95.748 13.3214ZM98.8916 11.9044C98.7578 12.0107 98.638 12.1083 98.5332 12.1983C98.5493 12.1845 98.5662 12.1706 98.583 12.1564L98.8916 11.9044ZM96.791 10.6036C96.6198 10.7328 96.4686 10.8362 96.3389 10.9161C96.4016 10.8775 96.4705 10.8345 96.543 10.7843L96.791 10.6036ZM97.8711 9.20323C97.7943 9.24831 97.7157 9.29683 97.6348 9.34776L97.8711 9.20323C97.9478 9.15819 98.0222 9.11646 98.0947 9.07726L97.8711 9.20323ZM100.051 9.00401C100.094 9.1051 100.123 9.21325 100.141 9.32823C100.129 9.25311 100.114 9.18063 100.092 9.11143C100.08 9.07483 100.066 9.03895 100.051 9.00401ZM99.0908 9.22374C99.0074 9.24651 98.9208 9.27673 98.8301 9.31163C98.8412 9.30735 98.8523 9.30206 98.8633 9.29796L99.0908 9.22374ZM99.1709 8.65343C99.031 8.68679 98.8712 8.73723 98.6914 8.80382C98.9613 8.70386 99.1863 8.6413 99.3662 8.61632L99.1709 8.65343Z" fill="var(--fill-0, #3971E0)"/>
<path fill-rule="evenodd" clip-rule="evenodd" d="M103.008 3.92491C103.104 3.93235 103.201 3.95026 103.281 3.99327C103.371 4.04198 103.451 4.13242 103.451 4.26378C103.451 4.48202 103.288 4.63413 103.112 4.73643C102.928 4.8438 102.667 4.93519 102.341 5.01671C101.982 5.10976 101.144 5.33756 99.8242 5.69737H99.8223C98.4978 6.0452 97.3172 6.30071 96.2822 6.46202C94.8659 6.67381 93.4747 6.99162 92.1113 7.41515C91.7627 7.52243 91.4837 7.59541 91.2812 7.63097C91.1813 7.64849 91.0902 7.65853 91.0146 7.65636C90.9769 7.65523 90.9341 7.65082 90.8936 7.63878C90.8541 7.62693 90.8001 7.60246 90.7578 7.55186L90.7432 7.53429L90.7324 7.51378C90.7092 7.4673 90.7021 7.41543 90.6982 7.38097C90.6938 7.34094 90.6904 7.29459 90.6904 7.24425C90.6904 7.10493 90.792 7.00798 90.8594 6.95421C90.9387 6.89105 91.0473 6.82944 91.1758 6.76866C91.4353 6.64593 91.8168 6.5067 92.3125 6.35265L93.0703 6.13585C93.8273 5.934 94.5852 5.77723 95.3428 5.66612L95.3477 5.66515C96.1097 5.57314 97.1551 5.36917 98.4854 5.04991L99.4287 4.81651C100.306 4.5902 100.99 4.38377 101.48 4.19737L101.485 4.19542C101.694 4.12252 101.903 4.06443 102.112 4.02257L102.322 3.98643C102.592 3.93308 102.823 3.90957 103.008 3.92491ZM92.0508 7.22374C91.7202 7.32545 91.4605 7.39185 91.2725 7.42686C91.3621 7.41021 91.4689 7.38837 91.5908 7.35655L92.0508 7.22374ZM96.251 6.26378C96.126 6.28246 96.0015 6.30303 95.877 6.32335L96.251 6.26378ZM103.251 4.26378C103.251 4.31508 103.231 4.364 103.194 4.41222C103.212 4.38912 103.227 4.36667 103.236 4.34288L103.251 4.26378ZM102.541 4.14952C102.481 4.15862 102.418 4.17041 102.352 4.1837C102.485 4.1571 102.604 4.139 102.711 4.12901L102.541 4.14952Z" fill="var(--fill-0, #3971E0)"/>
<path fill-rule="evenodd" clip-rule="evenodd" d="M98.6416 0.00498952C98.9654 -0.0244662 99.2832 0.0832883 99.5879 0.300888C99.7828 0.427559 99.9434 0.583307 99.9873 0.78038C100.013 0.866639 100.021 0.969546 100.021 1.07921C100.021 1.20027 100.011 1.34424 99.9902 1.5089L99.9893 1.50792C99.9598 1.80949 99.872 2.07702 99.7217 2.30577L99.7227 2.30675C99.5876 2.53177 99.3641 2.77272 99.0664 3.03038C98.3943 3.64869 97.7504 3.94073 97.1885 3.68565L97.1865 3.68468C96.638 3.42731 96.4519 2.76249 96.4922 1.87511C96.4991 1.66466 96.5146 1.48538 96.54 1.33995C96.5647 1.19908 96.6014 1.06816 96.665 0.972763L96.6689 0.966904L96.6738 0.961044C96.7397 0.876405 96.8423 0.792442 96.9639 0.709091C97.0886 0.623583 97.2475 0.529636 97.4375 0.427841L97.4385 0.426865C97.9228 0.171326 98.3289 0.0206235 98.6416 0.00498952ZM98.959 0.991318C98.6094 0.876991 98.3643 0.922705 98.1807 1.07726C98.0854 1.16093 97.9874 1.2642 97.8877 1.38878C97.787 1.5146 97.692 1.64672 97.6035 1.78526C97.5294 1.92177 97.4689 2.05779 97.4199 2.19249C97.3712 2.32646 97.3516 2.42878 97.3516 2.50401C97.3516 2.54587 97.3623 2.56625 97.3721 2.57823C97.3839 2.59241 97.4109 2.61452 97.4707 2.63292C97.591 2.66969 97.76 2.66589 97.9912 2.59288C98.2163 2.52173 98.4263 2.40312 98.6201 2.23351L98.624 2.2296C98.8981 2.00309 99.0489 1.74477 99.0938 1.45323L99.0947 1.4464C99.124 1.2942 99.115 1.19127 99.0898 1.12511C99.0681 1.0684 99.0288 1.02451 98.959 0.991318ZM99.8135 1.2628C99.8085 1.33015 99.801 1.40371 99.791 1.48351C99.7777 1.6236 99.751 1.75406 99.7109 1.87413L99.7617 1.68663C99.7751 1.62173 99.7853 1.55435 99.792 1.48448C99.812 1.32456 99.8213 1.18931 99.8213 1.07921L99.8135 1.2628ZM97.4307 1.6837C97.4773 1.61049 97.5263 1.53878 97.5762 1.46886L97.4307 1.6837ZM99.207 1.78429C99.2137 1.76793 99.2215 1.75206 99.2275 1.73546L99.2324 1.71983C99.2249 1.74166 99.2157 1.76288 99.207 1.78429Z" fill="var(--fill-0, #3971E0)"/>
</g>
<g id="Union_5">
<path fill-rule="evenodd" clip-rule="evenodd" d="M90.035 5.7334C90.1068 5.73392 90.1789 5.74054 90.243 5.76074C90.2906 5.77575 90.3472 5.80197 90.3924 5.84961L90.4334 5.90527L90.4403 5.91699L90.4452 5.92969L90.4852 6.03027L90.4998 6.06543V6.10449C90.4998 6.16898 90.4728 6.21918 90.453 6.24902C90.4321 6.28021 90.4071 6.30696 90.3836 6.32812C90.3363 6.3707 90.2729 6.41352 90.202 6.45605L90.201 6.45508C90.0625 6.54583 89.8757 6.63052 89.6483 6.71094L89.6493 6.71191C89.4323 6.79325 89.1952 6.87427 88.9393 6.95508L88.9373 6.95605C88.453 7.10203 88.0827 7.22666 87.8241 7.33008C87.6948 7.38178 87.5972 7.42628 87.5291 7.46387C87.4529 7.50606 87.438 7.52592 87.4432 7.51855L87.4393 7.52441C87.4351 7.53014 87.4182 7.55992 87.4022 7.63574C87.3869 7.70826 87.3753 7.80722 87.369 7.93457C87.3563 8.18922 87.3662 8.53965 87.3993 8.98926C87.439 9.4389 87.4842 9.7666 87.534 9.97852C87.5558 10.0712 87.5778 10.132 87.5946 10.1689C87.841 10.1936 88.0471 10.3382 88.2137 10.5576C88.4095 10.7986 88.5193 11.0622 88.5194 11.3438C88.5194 11.683 88.3739 12.0193 88.117 12.3477C88.0178 12.4744 87.9416 12.5772 87.8866 12.6562C88.0378 12.6734 88.2676 12.6846 88.5799 12.6846C89.0628 12.6846 89.4394 12.7094 89.7 12.7637C89.8287 12.7905 89.9455 12.8279 90.035 12.8838C90.1268 12.9412 90.2196 13.0392 90.2196 13.1846C90.2194 13.3015 90.1619 13.3917 90.0868 13.458C90.0177 13.534 89.9205 13.5782 89.827 13.6064C89.7294 13.6359 89.6111 13.6556 89.4774 13.668C89.2093 13.6926 88.8507 13.6909 88.4071 13.6641H88.4051C87.9578 13.6312 87.6001 13.6299 87.3299 13.6582C87.0528 13.6872 86.8963 13.7441 86.8221 13.8018L86.8133 13.8086L86.8045 13.8145C86.5723 13.9579 86.3662 14.0655 86.1893 14.1318C86.0182 14.1959 85.847 14.2323 85.6971 14.2002L85.6893 14.1982L85.6805 14.1953C85.5516 14.1556 85.3995 14.0488 85.2362 13.9121C85.0655 13.7693 84.8582 13.5721 84.616 13.3232L84.6131 13.3213L83.5203 12.1533L84.2987 11.8936C84.5891 11.8005 85.0357 11.5063 85.6483 10.9736L85.6512 10.9707L86.5291 10.2383L86.4002 8.98438V8.98145C86.3603 8.51522 86.327 8.16322 86.3006 7.92578C86.2906 7.83551 86.2801 7.76331 86.2723 7.70801C86.2622 7.70928 86.251 7.71014 86.2391 7.71191C86.1175 7.73015 85.9362 7.77001 85.6922 7.83594C85.2204 7.96702 84.8367 8.0904 84.5399 8.20605C84.2937 8.31543 83.8157 8.50525 83.1102 8.77148L83.1053 8.77246C82.6173 8.94393 82.0285 9.17651 81.3377 9.46875L81.3368 9.46777C80.8368 9.68389 80.3914 9.83638 80.0018 9.91992C79.8093 9.96117 79.6422 9.98348 79.5086 9.97949C79.3893 9.97587 79.2287 9.94923 79.1366 9.82031L79.1278 9.80762L79.1209 9.79395C79.085 9.72214 79.0673 9.64061 79.0799 9.55566C79.0924 9.47247 79.1316 9.40103 79.1805 9.3418C79.2731 9.2298 79.4207 9.14002 79.5936 9.06348L79.911 8.92969C80.325 8.7666 81.0288 8.51571 82.0145 8.17969C82.6751 7.95448 83.4662 7.69002 84.3866 7.38574L87.5379 6.35352C88.3726 6.07977 89.0196 5.89508 89.4744 5.80273C89.7005 5.75686 89.8901 5.73243 90.035 5.7334ZM85.7948 14.0107C85.7977 14.0109 85.8006 14.0097 85.8035 14.0098C85.7806 14.0091 85.759 14.0082 85.7391 14.0039L85.7948 14.0107ZM87.3221 11.3037C86.8389 11.3161 86.3435 11.5402 85.8348 12.0107C85.6018 12.2249 85.5081 12.3978 85.493 12.5273C85.4798 12.6409 85.5225 12.7662 85.6873 12.9102C85.8004 12.9998 85.8657 13.0093 85.8944 13.0059C85.9556 12.9981 86.0907 12.9453 86.3182 12.8115L86.3211 12.8096C86.9211 12.472 87.3048 12.0111 87.4881 11.4248L87.491 11.416L87.495 11.4072C87.5093 11.3728 87.5187 11.3442 87.5252 11.3213V11.3184C87.4815 11.3101 87.4152 11.3038 87.3221 11.3037ZM88.5789 12.8838C88.8179 12.8838 89.0274 12.8899 89.2069 12.9023C89.1176 12.8962 89.0209 12.8918 88.9168 12.8887C88.812 12.8855 88.6987 12.8838 88.5789 12.8838ZM87.9588 12.2246C87.8171 12.4057 87.718 12.5431 87.66 12.6357C87.6934 12.5822 87.7403 12.5135 87.8016 12.4307L87.9588 12.2246ZM85.4686 12.1133C85.4587 12.1264 85.4503 12.1403 85.4412 12.1533C85.469 12.1134 85.4995 12.0721 85.535 12.0312L85.4686 12.1133ZM87.5741 11.125C87.6372 11.1384 87.6791 11.1579 87.6991 11.1846L87.6532 11.1494C87.6115 11.1293 87.548 11.1161 87.4627 11.1094L87.5741 11.125ZM81.2586 9.28418C80.7655 9.49742 80.3321 9.64463 79.9588 9.72461C79.7839 9.76208 79.6426 9.77795 79.535 9.77734C79.5852 9.77761 79.6429 9.77559 79.7078 9.76758L79.9588 9.72461C80.2389 9.66457 80.5537 9.56681 80.9012 9.43164C81.0168 9.38672 81.1356 9.3374 81.2586 9.28418ZM85.6395 7.64453C85.1595 7.77786 84.7655 7.90441 84.4588 8.02441C84.2187 8.1311 83.7453 8.31744 83.0389 8.58398C82.7727 8.67753 82.4776 8.78947 82.1532 8.91797C82.3273 8.84901 82.4929 8.78447 82.6502 8.72559L83.0389 8.58398C83.3921 8.45068 83.6881 8.33744 83.9246 8.24414C84.1613 8.15091 84.3389 8.07773 84.4588 8.02441C84.7655 7.90441 85.1595 7.77786 85.6395 7.64453ZM89.5789 6.52441C89.3657 6.60439 89.132 6.68468 88.8787 6.76465C88.6359 6.83784 88.4203 6.90552 88.2323 6.96875L88.8787 6.76465C89.132 6.68468 89.3657 6.60439 89.5789 6.52441ZM90.2987 6.10449C90.2986 6.11433 90.2951 6.12545 90.2869 6.1377L90.2987 6.10449Z" fill="var(--fill-0, #3971E0)"/>
<path fill-rule="evenodd" clip-rule="evenodd" d="M87.9393 1.58398C88.1452 1.58402 88.3634 1.65069 88.4471 1.87402C88.479 1.95916 88.494 2.09306 88.5037 2.24609C88.5141 2.40876 88.5194 2.62208 88.5194 2.88379C88.5194 3.69679 88.438 4.43398 88.2733 5.09277C88.1915 5.41292 88.0999 5.67399 87.995 5.86523C87.894 6.04912 87.7578 6.21018 87.5682 6.25781L87.5545 6.26172L87.5418 6.2627C87.4717 6.27049 87.4013 6.27243 87.3368 6.26172C87.2728 6.25106 87.1973 6.22571 87.1375 6.16602L87.1151 6.14258L87.1004 6.11328C87.0601 6.03228 87.0634 5.94145 87.0711 5.87598C87.0797 5.80308 87.0998 5.71929 87.1278 5.62793C87.257 5.16179 87.3682 4.54693 87.4608 3.78027L87.4618 3.77637C87.5148 3.39144 87.5466 3.10059 87.5594 2.90137C87.5637 2.83462 87.5623 2.78058 87.5623 2.73828C87.5329 2.73986 87.4965 2.74087 87.453 2.74707C87.303 2.7685 87.091 2.81743 86.8143 2.89648L86.0907 3.13672L85.8153 4.40625L85.8143 4.41016C85.6284 5.19373 85.4569 5.75745 85.3006 6.08594L85.3016 6.08691C85.1645 6.38859 84.962 6.64444 84.659 6.64453C84.5635 6.6445 84.4636 6.63392 84.3807 6.5957C84.3368 6.57542 84.2897 6.54372 84.2537 6.49414C84.2163 6.44227 84.1991 6.38265 84.1991 6.32422C84.1991 6.23755 84.2342 6.12224 84.2762 6.00586C84.3215 5.88045 84.3882 5.72085 84.4744 5.52832C84.5487 5.32873 84.6317 5.02203 84.7235 4.60254C84.8159 4.16689 84.8745 3.80883 84.9002 3.52637C84.9094 3.42526 84.91 3.34441 84.908 3.28223C84.889 3.29137 84.8679 3.30109 84.8455 3.3125C84.7089 3.38242 84.5221 3.48925 84.284 3.63477L84.2801 3.63672C83.8039 3.91453 83.4169 4.16387 83.118 4.38477C82.9592 4.50957 82.8159 4.61102 82.6893 4.68555C82.5642 4.75916 82.443 4.81462 82.3319 4.83594C82.2192 4.85746 82.0808 4.8485 81.9764 4.74414C81.8813 4.6488 81.8592 4.51634 81.8592 4.4043C81.8592 4.27613 81.9252 4.16257 81.9998 4.07129C82.0775 3.97635 82.1864 3.87893 82.3192 3.7793C82.586 3.5792 82.9781 3.34768 83.4881 3.08594C84.0051 2.81743 84.442 2.62285 84.7957 2.50488C85.1384 2.39067 85.438 2.33588 85.6629 2.38867C85.9189 2.44682 86.0695 2.40288 86.1639 2.31641L86.1698 2.31152C86.3627 2.14832 86.6338 1.9932 86.9725 1.84375C87.3213 1.67635 87.6455 1.58402 87.9393 1.58398ZM87.5194 6.06445C87.4893 6.0678 87.4614 6.06837 87.4364 6.06836L87.4373 6.06934L87.5194 6.06445ZM85.119 6.00391L85.2039 5.80566C85.2092 5.79211 85.2133 5.77779 85.2186 5.76367C85.184 5.85546 85.1515 5.93579 85.119 6.00391ZM87.8924 5.61426C87.9354 5.51424 87.9785 5.39846 88.0184 5.26562C88.0392 5.19632 88.0599 5.12218 88.0799 5.04395C88.0216 5.27218 87.9578 5.46207 87.8924 5.61426ZM87.6248 2.53613C87.4672 2.52877 87.1782 2.58422 86.7586 2.7041C87.0381 2.62426 87.2605 2.57316 87.4237 2.5498C87.5053 2.53816 87.5723 2.53364 87.6248 2.53613ZM84.995 3.03125C84.9419 3.045 84.8618 3.07903 84.7547 3.13379C84.8972 3.06112 84.992 3.02483 85.0389 3.02441L84.995 3.03125ZM88.2586 1.94434C88.2778 1.99537 88.2926 2.09359 88.3026 2.23926C88.2979 2.16951 88.2928 2.11055 88.286 2.0625L88.2586 1.94434C88.2537 1.93107 88.2481 1.91885 88.241 1.90723L88.2586 1.94434Z" fill="var(--fill-0, #3971E0)"/>
</g>
<g id="Union_6">
<path fill-rule="evenodd" clip-rule="evenodd" d="M72.0932 0.727596C72.235 0.681052 72.3744 0.711884 72.4858 0.807674C72.5839 0.892276 72.6525 1.01983 72.7036 1.15924C72.7561 1.30281 72.799 1.48165 72.8334 1.69146L72.8354 1.70807V1.77545C72.9057 2.31115 72.95 3.65288 72.9672 5.7901L72.976 8.22369C72.9827 10.1162 73.0008 11.6145 73.0307 12.7188C73.0605 13.8183 73.1019 14.5141 73.1518 14.8223L73.2231 15.2051C73.2814 15.5671 73.2973 15.8658 73.2631 16.0938C73.2402 16.2465 73.1924 16.3894 73.0991 16.4962C72.9991 16.6104 72.8635 16.664 72.7153 16.6641C72.6032 16.664 72.5132 16.6097 72.4487 16.5411C72.3871 16.4754 72.3413 16.3893 72.3051 16.2979C72.2324 16.1142 72.1778 15.854 72.1372 15.5294V15.5254C72.0693 14.8876 72.0294 13.7044 72.0161 11.9854V11.4659L71.9975 10.6055C71.9884 10.3537 71.9761 10.1368 71.9614 9.95514C71.9467 9.77371 71.9298 9.63034 71.9106 9.52349C71.8904 9.41106 71.8703 9.35905 71.8618 9.34381L71.8569 9.33502C71.8555 9.33428 71.853 9.33318 71.85 9.33209C71.8316 9.32538 71.7917 9.31792 71.7211 9.3233C71.5833 9.3339 71.3783 9.38821 71.0991 9.4981C71.0704 9.52232 71.0398 9.54524 71.0053 9.56256L70.9633 9.58404H70.9233C70.8892 9.60093 70.8505 9.61508 70.81 9.62896C69.7456 10.0601 68.1835 10.5567 66.1284 11.1172C65.1009 11.3908 64.3096 11.5841 63.7602 11.6954C63.4867 11.7507 63.2672 11.7866 63.1059 11.8018C63.026 11.8093 62.9528 11.8128 62.892 11.8087C62.8618 11.8066 62.8282 11.8017 62.7963 11.793C62.7665 11.7848 62.7225 11.7684 62.6831 11.7335L62.6752 11.7266L62.6684 11.7198C62.6036 11.6495 62.5537 11.5546 62.56 11.4405C62.5661 11.3304 62.623 11.2412 62.687 11.1749C62.8098 11.0477 63.021 10.938 63.2836 10.837L63.2885 10.836C63.7119 10.6858 64.3874 10.4964 65.3081 10.2696L65.312 10.2686C66.2652 10.0568 67.368 9.75863 68.6176 9.3731C69.8815 8.98727 70.8753 8.64871 71.601 8.35846L71.6049 8.35748L72.0561 8.1856V5.36432C72.0561 4.38008 72.0328 3.60256 71.9868 3.03033C71.9637 2.74417 71.9351 2.51208 71.9018 2.33307C71.8678 2.14994 71.8307 2.03706 71.7993 1.97857C71.6018 1.62414 71.5357 1.2639 71.7582 0.980526L71.7641 0.972714C71.8596 0.862601 71.9691 0.768492 72.0932 0.727596ZM72.4897 16.2237C72.4919 16.2292 72.4953 16.234 72.4975 16.2393C72.4793 16.1955 72.4611 16.1456 72.4448 16.0889L72.4897 16.2237ZM72.7202 3.16803C72.7566 4.28047 72.7748 5.96568 72.7748 8.22369C72.7775 8.98785 72.785 9.68827 72.7915 10.3243L72.7748 8.22369C72.7748 7.32058 72.7728 6.50898 72.767 5.78912C72.7583 4.70922 72.742 3.83551 72.7202 3.16803ZM72.3549 0.959042C72.475 1.06224 72.5685 1.31701 72.6352 1.72369C72.5935 1.4693 72.5417 1.2743 72.479 1.13873C72.4416 1.05779 72.3997 0.997725 72.3549 0.959042Z" fill="var(--fill-0, #3971E0)"/>
<path fill-rule="evenodd" clip-rule="evenodd" d="M66.4584 3.76178C67.0939 3.30213 67.6781 3.09221 68.1665 3.2774C68.6814 3.45823 68.8754 4.01305 68.8754 4.7442C68.8754 5.39752 68.6825 6.03155 68.3071 6.64459L68.3081 6.64557C67.9469 7.25675 67.5097 7.68162 66.9897 7.88971L66.9887 7.89068C66.6158 8.0366 66.2091 7.9872 65.7885 7.78424L65.7866 7.78326C65.3805 7.58022 65.0826 7.29641 64.9135 6.92779L64.9086 6.91705C64.8094 6.66168 64.7632 6.42131 64.7983 6.21099C64.8313 6.00101 64.967 5.68163 65.1782 5.27252C65.5103 4.63593 65.9363 4.12923 66.4584 3.76178ZM66.1723 7.03912C66.1468 7.02976 66.1214 7.01892 66.0961 7.00689L66.0161 6.96392C66.0426 6.97967 66.0694 6.99413 66.0961 7.00689L66.1723 7.03912ZM67.7153 4.30377C67.4304 4.30393 67.0861 4.47177 66.6811 4.87213L66.5043 5.05767C66.0404 5.57321 65.8355 6.02738 65.8354 6.42389C65.8354 6.5065 65.8566 6.57088 65.894 6.62408C65.9327 6.67898 65.9975 6.73419 66.101 6.78326L66.1098 6.78717L66.1176 6.79205C66.2852 6.89146 66.4508 6.91298 66.6254 6.86236C66.8082 6.80921 67.0173 6.67247 67.2504 6.42682L67.2524 6.42486C67.7244 5.94034 67.9555 5.38258 67.9555 4.7442C67.9555 4.54522 67.9415 4.43429 67.9262 4.38775C67.9199 4.36881 67.9136 4.35904 67.9106 4.35553C67.9084 4.35308 67.9058 4.35133 67.9018 4.34967L67.8764 4.3399L67.8559 4.32428C67.8552 4.32388 67.8468 4.31845 67.8256 4.31353C67.8012 4.30792 67.7647 4.30379 67.7153 4.30377ZM65.6743 6.63092C65.6595 6.59313 65.648 6.55376 65.642 6.51178L65.6362 6.42389C65.6362 6.49895 65.6495 6.56759 65.6743 6.63092ZM66.3549 4.92389C66.3206 4.96201 66.2891 5.00133 66.2573 5.03912L66.3549 4.92389C66.4166 4.85561 66.4781 4.79124 66.5385 4.7315L66.3549 4.92389ZM67.7153 4.10455L67.7993 4.10748C67.8311 4.11057 67.8596 4.11615 67.8852 4.1231C67.839 4.1106 67.7824 4.10455 67.7153 4.10455ZM68.0952 3.46392C68.1919 3.49727 68.2765 3.54915 68.3491 3.6192C68.3129 3.5842 68.2741 3.55325 68.2319 3.5274C68.2106 3.51439 68.1883 3.50294 68.1655 3.49224C68.1431 3.48174 68.119 3.47219 68.0952 3.46392Z" fill="var(--fill-0, #3971E0)"/>
</g>
<g id="Union_7">
<path fill-rule="evenodd" clip-rule="evenodd" d="M61.4426 2.12305C61.6873 2.1232 61.8746 2.2571 61.9992 2.46777C62.1175 2.66793 62.1875 2.94714 62.2219 3.28418C62.2897 3.94978 62.3359 5.8084 62.3625 8.84277C62.3758 11.8234 62.3565 13.6111 62.302 14.1836L62.301 14.1826C62.2801 14.4768 62.2299 14.7239 62.134 14.9033C62.0317 15.0944 61.867 15.2244 61.6428 15.2246C61.5662 15.2246 61.5157 15.1827 61.4944 15.1602C61.4736 15.138 61.4622 15.115 61.4573 15.1045C61.4474 15.0832 61.4429 15.0624 61.4407 15.0527C61.4356 15.0309 61.4315 15.0053 61.4289 14.9824C61.4235 14.9341 61.4189 14.8655 61.4143 14.7803C61.405 14.6073 61.3963 14.349 61.3879 14.0088C61.3712 13.3277 61.3563 12.307 61.343 10.9482L61.303 9.12598C61.2896 8.6042 61.2762 8.16712 61.2629 7.81641C61.2496 7.46601 61.2359 7.2025 61.2229 7.02539C61.2188 6.97073 61.214 6.92493 61.2102 6.88867C61.1983 6.88906 61.1843 6.88745 61.1692 6.88867C61.066 6.89727 60.9152 6.92444 60.7131 6.97656C59.7862 7.22328 59.0808 7.39888 58.5989 7.5C58.359 7.55031 58.1685 7.58321 58.0324 7.59766C57.9659 7.6047 57.9031 7.60817 57.8508 7.60449C57.8252 7.60265 57.7912 7.59913 57.758 7.58789C57.7305 7.57845 57.6756 7.55294 57.6369 7.49414L57.636 7.49512C57.6342 7.49248 57.6326 7.48901 57.6311 7.48633L57.6291 7.4834C57.5927 7.42085 57.5921 7.35551 57.5979 7.31445C57.6043 7.26991 57.6201 7.22828 57.636 7.19434C57.668 7.12565 57.7198 7.04747 57.7824 6.96387L57.7883 6.95605L57.7951 6.94922C57.981 6.74643 58.321 6.58762 58.7649 6.45312L58.7737 6.4502C58.8771 6.42434 59.0217 6.38503 59.2073 6.33203L59.2112 6.33105C59.4113 6.27768 59.6385 6.21706 59.8918 6.15039C60.155 6.07144 60.3534 6.0123 60.4856 5.97266L61.3625 5.71387V4.58691C61.3559 4.15931 61.3295 3.81897 61.2854 3.56348C61.24 3.30083 61.1796 3.15581 61.1272 3.09082L61.1233 3.08594C61.0313 2.96566 60.96 2.8477 60.9231 2.7373C60.8862 2.62665 60.8746 2.48811 60.9602 2.36816L60.9621 2.36426C61.0799 2.20723 61.2463 2.12305 61.4426 2.12305Z" fill="var(--fill-0, #3971E0)"/>
<path fill-rule="evenodd" clip-rule="evenodd" d="M55.0422 4.98438C55.176 4.98449 55.2963 5.04117 55.3762 5.1543C55.4468 5.25481 55.475 5.38311 55.4826 5.51172L55.4865 5.75C55.4841 6.05507 55.4619 6.56015 55.4221 7.25586V7.25879C55.3956 7.61647 55.3758 7.96131 55.3625 8.29199V9.02344C55.4061 9.00736 55.4575 8.99005 55.5149 8.96777C55.7355 8.88216 56.0519 8.75292 56.4641 8.58008L56.9934 8.36035C57.4916 8.16013 57.8946 8.02088 58.1994 7.94531C58.3999 7.89564 58.5753 7.86914 58.7131 7.87891C58.8432 7.88825 59.0257 7.9412 59.0764 8.13379L59.0823 8.1582V8.18457C59.082 8.26462 59.0506 8.3331 59.0168 8.38379C58.9822 8.43569 58.9356 8.48449 58.885 8.5293C58.7836 8.61892 58.6398 8.71486 58.4621 8.81738L58.4612 8.81641C58.1253 9.01752 57.8263 9.14439 57.5823 9.14453C57.5799 9.14477 57.572 9.14571 57.5588 9.14844C57.5407 9.15223 57.5159 9.15842 57.4846 9.16797C57.4213 9.18735 57.3372 9.21756 57.2317 9.25977C57.0206 9.3442 56.7334 9.47294 56.3684 9.64551L56.3674 9.64453C55.9726 9.84505 55.6411 9.99159 55.3752 10.0791C55.2417 10.123 55.1196 10.1542 55.0119 10.1689C54.9068 10.1833 54.8008 10.1839 54.7063 10.1562L54.7033 10.1553C54.4951 10.0902 54.3946 9.89932 54.3518 9.70117C54.3085 9.50011 54.3099 9.23572 54.344 8.92188C54.3565 8.80831 54.3962 8.15665 54.4631 6.95312C54.483 6.38205 54.4996 5.94897 54.5129 5.65527C54.5196 5.50866 54.5254 5.39505 54.5305 5.31641C54.533 5.27762 54.5359 5.24492 54.5383 5.2207C54.5395 5.20913 54.5405 5.19657 54.5422 5.18555C54.543 5.18024 54.5443 5.17211 54.5461 5.16406C54.5463 5.16329 54.5467 5.16108 54.5471 5.15918C54.5575 5.11334 54.5831 5.08024 54.6028 5.06055C54.6263 5.03705 54.65 5.02432 54.6623 5.01855C54.6872 5.00698 54.7108 5.00125 54.7219 4.99902C54.7475 4.99394 54.777 4.99106 54.8039 4.98926C54.8607 4.98549 54.9416 4.98438 55.0422 4.98438ZM57.5823 8.94336C57.5657 8.94337 57.5446 8.9468 57.5188 8.95215L57.5823 8.94336C57.6055 8.94334 57.63 8.94257 57.6555 8.93945L57.5823 8.94336ZM58.8821 8.18359C58.8821 8.20958 58.8714 8.23801 58.8508 8.26953C58.8607 8.2544 58.8691 8.24041 58.8742 8.22656C58.8797 8.21187 58.8829 8.19783 58.883 8.18457L58.8821 8.18359Z" fill="var(--fill-0, #3971E0)"/>
</g>
<path id="Union_8" fill-rule="evenodd" clip-rule="evenodd" d="M47.9443 11.2357C48.0356 11.2472 48.1171 11.2859 48.1895 11.3383C48.3124 11.4103 48.4054 11.5137 48.4707 11.641L48.5293 11.7807L48.5312 11.7865C48.5816 11.9547 48.5867 12.1392 48.5566 12.3344C48.5404 12.4404 48.5423 12.5606 48.5645 12.6957L48.5938 12.8353V12.8373C48.7436 13.4642 48.7653 13.9933 48.6289 14.4047C48.4816 14.8628 48.0669 15.189 47.4688 15.4115L47.416 15.431L47.3604 15.4203L46.8604 15.3197L46.1221 15.1723L46.8359 14.934C47.0644 14.8578 47.3676 14.7502 47.7461 14.6117C47.8018 14.5531 47.8305 14.5151 47.8408 14.4945L47.8486 14.4789L47.8594 14.4642C47.8866 14.4279 47.8996 14.3979 47.9053 14.3754L47.9111 14.3539L47.9209 14.3344C47.9333 14.3093 47.9557 14.2351 47.9824 14.0883L47.9834 14.0824C48.0239 13.8933 48.039 13.7859 48.0391 13.7435V13.724L48.0439 13.6996C48.0442 13.6963 48.044 13.691 48.0439 13.685C48.0439 13.6721 48.0436 13.6544 48.041 13.6322C48.0357 13.5869 48.0245 13.5273 48.0059 13.4525L48.0029 13.4428L48.001 13.432C47.995 13.3899 47.9871 13.3533 47.9814 13.3217C47.9387 13.3411 47.8925 13.3556 47.8418 13.3588C47.7321 13.3656 47.6325 13.3265 47.5488 13.2709C47.3868 13.1629 47.2538 12.9796 47.1406 12.7533L47.1357 12.7445L47.1328 12.7348C47.0089 12.4094 47.0122 12.0904 47.1602 11.7943C47.2156 11.6835 47.3029 11.5837 47.4092 11.4926C47.5 11.4026 47.5886 11.3263 47.6699 11.2855C47.7546 11.2432 47.8476 11.2236 47.9443 11.2357ZM47.7256 13.14C47.7296 13.1417 47.7343 13.1415 47.7383 13.143C47.7129 13.1337 47.6859 13.1217 47.6592 13.1039L47.7256 13.14ZM48.293 11.7328C48.3029 11.7522 48.3107 11.7731 48.3193 11.7943C48.2956 11.7356 48.2685 11.6834 48.2344 11.6391L48.293 11.7328ZM47.2998 11.975L47.2734 12.056C47.2728 12.0583 47.2721 12.0606 47.2715 12.0629C47.2792 12.0333 47.2889 12.0041 47.2998 11.975Z" fill="var(--fill-0, #3971E0)"/>
<path id="Union_9" fill-rule="evenodd" clip-rule="evenodd" d="M39.8066 2.46521C39.8808 2.42812 39.9622 2.42623 40.0381 2.45544L40.0391 2.45446C40.0441 2.45615 40.0488 2.45944 40.0537 2.4613C40.0574 2.46294 40.0618 2.46338 40.0654 2.46521L40.0645 2.46618C40.1279 2.49261 40.1794 2.53341 40.2197 2.58435C40.2496 2.61454 40.2772 2.64963 40.3027 2.68786L40.375 2.81481L40.3828 2.82946L40.3877 2.84509L40.4229 2.96032L41.0303 2.9447C41.5126 2.93166 42.4764 2.8387 43.9297 2.6654C44.6381 2.57184 45.1863 2.51795 45.5693 2.50427C45.7649 2.49753 45.9237 2.49705 46.043 2.50427C46.1023 2.50786 46.1568 2.5138 46.2031 2.52282C46.2222 2.52655 46.2476 2.53191 46.2744 2.54138L46.3564 2.58435L46.3672 2.59313L46.3779 2.6029C46.4989 2.72423 46.5091 2.90718 46.4951 3.06188L46.4941 3.06091C46.4855 3.20684 46.3687 3.29342 46.2988 3.33532L46.2852 3.34313C46.2013 3.38492 46.0896 3.40636 45.9697 3.42028L45.9707 3.42126C45.9692 3.42152 45.9674 3.42098 45.9658 3.42126C45.9633 3.42156 45.9606 3.42293 45.958 3.42321L45.957 3.42224C45.7044 3.46454 44.97 3.53124 43.7715 3.62243L43.7725 3.62341C42.7006 3.70996 41.8789 3.79653 41.3057 3.8822C41.0186 3.92509 40.7983 3.96743 40.6416 4.00817C40.5633 4.02854 40.5048 4.04697 40.4639 4.06384C40.448 4.07037 40.4363 4.07547 40.4287 4.07946C40.4244 4.09247 40.4191 4.11145 40.4131 4.13708C40.3972 4.20514 40.3806 4.30521 40.3643 4.43884C40.3319 4.70469 40.3019 5.08813 40.2754 5.59118L40.2764 5.59216C40.2631 5.91041 40.2415 6.19177 40.2148 6.43493C40.2014 6.66262 40.1894 6.85277 40.1758 7.00231L40.1748 7.00134C40.1745 7.06346 40.1744 7.11834 40.1709 7.16442C40.1677 7.20536 40.1599 7.25061 40.1484 7.29138L40.1504 7.29235C40.1356 7.35147 40.1314 7.39511 40.1309 7.42517C40.133 7.42651 40.1349 7.4286 40.1377 7.43005C40.1891 7.43727 40.2788 7.44372 40.416 7.44372C40.5664 7.44372 40.7723 7.43104 41.0361 7.40466C41.5361 7.35737 41.9466 7.35602 42.2578 7.40661C42.5534 7.45474 42.8129 7.55897 42.9424 7.77282L42.9434 7.77478C42.9454 7.7781 42.9483 7.78115 42.9502 7.78454H42.9482C42.9846 7.84184 43.0166 7.91298 43.0166 7.9945C43.0165 8.07711 42.9834 8.14748 42.9355 8.20349C42.9298 8.2111 42.9242 8.21901 42.918 8.22595L42.917 8.22497C42.867 8.28076 42.803 8.31705 42.7451 8.3402C42.677 8.3674 42.5964 8.38712 42.5088 8.40173L42.5029 8.4027C42.1973 8.44434 41.5777 8.4694 40.6572 8.48278C40.6026 8.49496 40.5486 8.50427 40.4961 8.50427C40.4787 8.50427 40.4601 8.50714 40.4395 8.51403L40.4082 8.5238H40.2637L40.2236 8.54431H40.1836L40.1436 8.56384H40.124L40.1162 8.56677C40.1159 8.56785 40.1156 8.5696 40.1152 8.57067C40.0977 8.6189 40.0783 8.69238 40.0576 8.79431C40.0163 8.99786 39.9753 9.29334 39.9355 9.68395C39.8563 10.4503 39.803 11.3724 39.7764 12.4486C39.7763 12.7304 39.7692 13.0323 39.7559 13.3529V14.3168L39.7461 14.347C39.7262 14.4065 39.6688 14.5173 39.542 14.5394C39.4923 14.5538 39.4457 14.5519 39.4131 14.5472C39.3752 14.5418 39.3374 14.5302 39.3018 14.517C39.1151 14.4864 38.975 14.371 38.8848 14.2035C38.7947 14.0359 38.7503 13.8135 38.7363 13.555C38.7088 13.0317 38.7643 12.0429 38.8975 10.6049C38.9374 10.1917 38.9704 9.84463 38.9971 9.56481C39.0235 9.27415 39.0361 9.05436 39.0361 8.90368V8.89685L39.0371 8.88903C39.0428 8.81458 39.0443 8.75684 39.0449 8.7152C39.0347 8.71316 39.023 8.70937 39.0088 8.70739C38.9086 8.69348 38.7509 8.69041 38.5283 8.70349C38.2921 8.71661 38.1108 8.73683 37.9834 8.7611C37.9198 8.77324 37.8736 8.78483 37.8428 8.79626C37.8092 8.80872 37.808 8.81528 37.8174 8.80603L37.8076 8.81579L37.7959 8.82458C37.6364 8.944 37.4443 8.97529 37.2432 8.94177L37.2275 8.93786C37.1366 8.91511 37.0472 8.88228 36.9766 8.82946C36.9002 8.7722 36.836 8.68231 36.8359 8.56384C36.8361 8.28827 37.0503 8.10804 37.3027 7.99255C37.5636 7.87331 37.9375 7.78675 38.4102 7.72595L38.4229 7.72399H38.4365C38.4906 7.72397 38.5604 7.71884 38.6475 7.70642L38.6592 7.70446C38.8071 7.69214 38.916 7.67311 38.9912 7.6527C39.0272 7.6387 39.0498 7.62693 39.0615 7.61755C39.0725 7.60868 39.072 7.60557 39.0703 7.60974L39.0859 7.57165L39.1123 7.54431C39.1145 7.53986 39.1183 7.53087 39.1221 7.51599C39.133 7.47241 39.1453 7.40628 39.1582 7.31579C39.1712 7.22513 39.1841 7.12056 39.1973 7.00231C39.2102 6.88605 39.2233 6.74942 39.2363 6.59313V6.36462L39.2402 6.34509C39.2522 6.28504 39.264 6.22906 39.2764 6.1781C39.3224 5.46569 39.3483 4.92728 39.3516 4.56188C39.3532 4.37787 39.349 4.24256 39.3408 4.15271C39.3392 4.15282 39.3376 4.15356 39.3359 4.15368C39.2555 4.15964 39.141 4.17531 38.9902 4.20153L38.9805 4.20349L38.9561 4.00427L38.9795 4.20251C38.6885 4.23752 38.5569 4.3444 38.501 4.47985L38.5 4.47888C38.4895 4.50626 38.4727 4.54054 38.4414 4.57067C38.4016 4.60893 38.3501 4.63202 38.2949 4.63513C38.2024 4.64026 38.1323 4.59009 38.1025 4.56677C38.0308 4.51037 37.9533 4.41285 37.873 4.29919L37.8701 4.29528L37.8301 4.23474C37.7769 4.15493 37.7366 4.09503 37.71 4.05505L37.7031 4.04431L37.6973 4.03356C37.6699 3.97882 37.6359 3.90199 37.6357 3.82458V3.79919L37.6426 3.77575C37.6819 3.61838 37.8007 3.51222 37.9424 3.43884L38.0889 3.37536C38.3038 3.28566 38.5916 3.23132 38.9404 3.20446C39.077 3.19142 39.185 3.17878 39.2656 3.16638C39.306 3.16016 39.338 3.15418 39.3623 3.1488C39.3689 3.14734 39.3749 3.14519 39.3799 3.14392C39.382 3.14118 39.3858 3.13794 39.3887 3.13317C39.3988 3.11577 39.4107 3.08605 39.4209 3.0404C39.4515 2.87694 39.508 2.7302 39.6025 2.61657L39.6191 2.59606L39.6396 2.58142L39.7803 2.48181L39.793 2.47204L39.8066 2.46521ZM39.3564 14.3246C39.3897 14.3379 39.4181 14.3458 39.4414 14.349L39.3564 14.3246C39.3249 14.3213 39.2947 14.3137 39.2666 14.3031L39.3564 14.3246ZM39.0957 10.6244C39.0624 10.9843 39.0341 11.315 39.0107 11.6166C38.9896 11.8902 38.9728 12.1399 38.96 12.3656C38.9872 11.8911 39.0321 11.3111 39.0957 10.6244ZM37.6758 8.66442C37.6238 8.70338 37.5656 8.72792 37.501 8.74157C37.5323 8.7349 37.5625 8.72679 37.5908 8.71423C37.6208 8.70095 37.6491 8.68434 37.6758 8.66442ZM42.8057 7.94177C42.8255 7.9965 42.816 8.0435 42.7764 8.08337C42.7364 8.13665 42.6363 8.17682 42.4766 8.20349C42.38 8.21666 42.2481 8.22641 42.082 8.23669C42.1221 8.23421 42.1603 8.23445 42.1963 8.23181L42.4766 8.20349C42.6363 8.17682 42.7364 8.13665 42.7764 8.08337C42.8029 8.05684 42.8163 8.0277 42.8164 7.9945C42.8165 7.9778 42.8123 7.96015 42.8057 7.94177ZM39.1855 7.7738C39.1689 7.78712 39.1496 7.79925 39.1279 7.81091C39.1064 7.8225 39.0822 7.83417 39.0557 7.84411C39.1358 7.81406 39.1935 7.77593 39.2285 7.73083L39.1855 7.7738ZM40.1914 4.23083C40.1477 4.49955 40.1095 4.95043 40.0762 5.58337C40.1028 5.07649 40.1326 4.68695 40.166 4.41345C40.1743 4.34527 40.1827 4.28448 40.1914 4.23083ZM43.7559 3.42419C42.1328 3.55525 41.074 3.68668 40.5791 3.81774C40.9105 3.73001 41.4947 3.64181 42.332 3.55407C42.7451 3.51078 43.2197 3.46748 43.7559 3.42419ZM37.957 3.66247C37.9515 3.66647 37.9466 3.67107 37.9414 3.67517C37.967 3.65496 37.9968 3.63555 38.0312 3.61755L37.957 3.66247ZM46.1963 3.16345C46.1695 3.17683 46.1344 3.18956 46.0908 3.19958L46.1963 3.16345ZM46.2959 3.04333C46.2959 3.05511 46.2919 3.0667 46.2861 3.07849C46.2869 3.0769 46.2894 3.07616 46.29 3.07458L46.2959 3.04333Z" fill="var(--fill-0, #3971E0)"/>
<path id="Union_10" fill-rule="evenodd" clip-rule="evenodd" d="M30.643 3.03032L30.8569 3.044L30.8666 3.04497C31.3369 3.11028 31.9563 3.1571 32.726 3.18364L32.725 3.18462C33.1086 3.1912 33.4208 3.18852 33.6616 3.17876C33.9067 3.1688 34.0657 3.15119 34.1508 3.12993L34.1547 3.12896C34.3116 3.09333 34.4562 3.07564 34.5825 3.08403C34.6769 3.09036 34.7709 3.112 34.853 3.15825L34.9311 3.21294L34.9409 3.22173L35.0209 3.30864C35.0396 3.33036 35.0555 3.3528 35.0708 3.37407C35.1231 3.42971 35.1674 3.50429 35.1752 3.59673H35.1772C35.1778 3.60098 35.1769 3.60615 35.1772 3.6104C35.1774 3.61466 35.1791 3.61972 35.1791 3.62407C35.1854 3.7253 35.1509 3.81763 35.0874 3.89165C35.0236 3.96575 34.9346 4.0183 34.8422 4.05767C34.6572 4.13632 34.3912 4.18888 34.06 4.22271L34.0493 4.22368H33.9516L33.3051 4.29107L33.2543 4.50982L33.2524 4.5147C33.2256 4.61663 33.2023 4.84502 33.1889 5.22075C33.1757 5.58952 33.1725 6.08289 33.1791 6.70122V6.70317C33.1791 7.3135 33.1926 7.94509 33.2192 8.59575C33.2325 8.92167 33.2475 9.25297 33.2641 9.58892L33.3188 10.6124V10.6153L33.4125 12.9043L34.0258 12.9854L34.0336 12.9864L34.0415 12.9883C34.5215 13.0921 34.9944 13.1436 35.4594 13.1436C35.6924 13.1436 35.8924 13.157 36.0551 13.1866C36.1696 13.2074 36.2749 13.2345 36.3618 13.2715L36.4418 13.3125L36.4633 13.3252L36.4809 13.3418C36.5176 13.3786 36.5508 13.4162 36.5766 13.4522C36.5951 13.4781 36.639 13.5426 36.6391 13.6241V13.7139L36.5708 13.7745L36.4106 13.9141L36.4077 13.917C36.1988 14.0923 35.9058 14.1887 35.5561 14.2276C35.2066 14.2664 34.781 14.2493 34.2836 14.1827C34.1986 14.1818 34.1172 14.1745 34.0405 14.1592L34.0307 14.1583C33.9929 14.1488 33.9557 14.1436 33.9194 14.1436H33.8872L33.8559 14.1329C33.841 14.1279 33.8163 14.1241 33.7797 14.1241H33.6118L33.5932 14.1143L33.5473 14.1211C33.5246 14.1245 33.4674 14.1484 33.3774 14.2471C33.3567 14.2787 33.3311 14.3065 33.3012 14.3292C33.28 14.3563 33.2548 14.3801 33.226 14.3995C33.2244 14.4011 33.2228 14.4036 33.2211 14.4053C33.2146 14.4119 33.2072 14.4183 33.2006 14.4249L33.187 14.4385L33.1704 14.4502C33.0556 14.5268 32.9233 14.5554 32.7866 14.5196C32.7813 14.5187 32.7761 14.5168 32.7709 14.5157C32.7664 14.5143 32.7609 14.5152 32.7563 14.5137C32.6086 14.4769 32.5064 14.3603 32.435 14.2374C32.3597 14.1301 32.3025 14.0934 32.2719 14.0811C32.2479 14.0796 32.1992 14.0778 32.1176 14.0831C32.0196 14.0894 31.8879 14.1024 31.7231 14.1221L31.7172 14.1231C31.5661 14.1368 31.4263 14.1436 31.2993 14.1436C31.0758 14.1436 30.8784 14.1162 30.7299 14.042C30.6529 14.0035 30.5827 13.9492 30.5327 13.8741C30.4821 13.7979 30.4595 13.712 30.4594 13.6241C30.4595 13.5345 30.4793 13.4424 30.5327 13.3624C30.5731 13.3019 30.6271 13.2569 30.687 13.2247L30.7495 13.1963C30.8331 13.1596 30.9446 13.1396 31.0639 13.127L31.3208 13.086C31.4162 13.0724 31.5218 13.0584 31.6362 13.045L31.644 13.044L32.2993 12.9952V11.3243C32.2859 9.0317 32.2648 7.29451 32.2348 6.11333C32.2198 5.52271 32.202 5.07222 32.1831 4.76177C32.1736 4.60643 32.1637 4.48804 32.1538 4.4063C32.1521 4.39265 32.1495 4.38017 32.1479 4.36919L32.1303 4.33306L32.1206 4.32817L32.0981 4.30474C32.0958 4.30248 32.0894 4.29764 32.0756 4.29302C32.0418 4.28177 32.0001 4.27022 31.9506 4.25786L31.9438 4.25591L31.936 4.25298C31.9072 4.24339 31.8627 4.23228 31.8002 4.21978C31.7361 4.20695 31.6645 4.19374 31.5864 4.18071L31.5805 4.17974C31.5164 4.16692 31.4447 4.1537 31.3666 4.14067C31.114 4.10732 30.904 4.07352 30.7387 4.03911C30.5831 4.0067 30.4521 3.97024 30.3608 3.92681C30.3599 3.92642 30.3588 3.92628 30.3579 3.92583C30.3554 3.92464 30.3525 3.92409 30.35 3.9229V3.92095C30.2005 3.85288 30.1043 3.72987 30.0649 3.57232L30.062 3.5606L30.061 3.54888C30.0429 3.40344 30.0683 3.25776 30.1635 3.13872L30.1704 3.12993L30.1782 3.12212C30.2305 3.07015 30.2967 3.05161 30.3315 3.044C30.3743 3.03468 30.4232 3.03025 30.4721 3.02837C30.5215 3.0265 30.5789 3.02765 30.643 3.03032ZM31.6596 13.2432C31.4331 13.2699 31.2457 13.2966 31.0991 13.3233C31.2457 13.2966 31.4322 13.2708 31.6586 13.2442L31.6596 13.2432Z" fill="var(--fill-0, #3971E0)"/>
<path id="Union_11" fill-rule="evenodd" clip-rule="evenodd" d="M22.5215 3.59275C22.6679 3.50495 22.8346 3.48082 22.9961 3.55857C23.1052 3.61112 23.1946 3.70237 23.2695 3.81248L23.3398 3.92869L23.3447 3.93748C23.4563 4.16869 23.5187 4.53632 23.5488 5.0117C23.5795 5.49504 23.5774 6.1163 23.5439 6.87302C23.4769 8.38727 23.3084 9.81598 23.04 11.1592L23.041 11.1601C22.9742 11.5207 22.9139 11.8356 22.8604 12.1035C22.8209 12.3532 22.7882 12.5578 22.7617 12.7168C22.7436 12.8846 22.7449 12.9998 22.7568 13.0713C22.759 13.0842 22.7626 13.0939 22.7646 13.1015C22.772 13.1022 22.7811 13.103 22.792 13.1035C22.8384 13.1056 22.9034 13.1044 22.9883 13.0996C23.1578 13.09 23.3937 13.0651 23.6982 13.0254C24.9908 12.8189 26.0499 12.6736 26.874 12.5898C27.6891 12.507 28.2893 12.4828 28.6602 12.5244C28.8294 12.5385 28.9889 12.5743 29.1367 12.6308C29.2992 12.6752 29.4428 12.7372 29.5605 12.8213C29.7652 12.9674 29.9342 13.1786 29.8555 13.4414L29.8506 13.458L29.8428 13.4736C29.8144 13.5303 29.7712 13.5748 29.7178 13.6074C29.6729 13.6418 29.6215 13.6623 29.5869 13.6738C29.5268 13.6938 29.4635 13.7009 29.3994 13.7021L29.4004 13.7031C29.3991 13.7032 29.3978 13.703 29.3965 13.7031C29.3924 13.7032 29.3879 13.7041 29.3838 13.7041C29.2932 13.7101 29.1606 13.7089 28.9883 13.6992L28.3047 13.6435C27.9126 13.6056 27.2564 13.6304 26.3242 13.7236C25.3955 13.8165 24.5203 13.9344 23.6992 14.0801L23.7002 14.081C23.2698 14.1605 22.9336 14.2359 22.6895 14.3066C22.5675 14.3419 22.4718 14.3747 22.4004 14.4053C22.3258 14.4372 22.2904 14.4607 22.2783 14.4717L22.2578 14.4902L22.2334 14.5029C22.1824 14.5284 22.1255 14.5439 22.0645 14.5439C22.0068 14.5439 21.9592 14.5201 21.9443 14.5127C21.9206 14.5008 21.8962 14.4861 21.873 14.4707C21.8204 14.4356 21.7704 14.3934 21.7227 14.3457C21.6314 14.2544 21.568 14.1443 21.5322 14.0195L21.5283 14.0058L21.5264 13.9922C21.5113 13.8866 21.5039 13.7631 21.5039 13.624V13.6133L21.5049 13.6035C21.533 13.3364 21.636 12.8183 21.8086 12.0615L21.9434 11.415C21.9864 11.1965 22.0276 10.9742 22.0674 10.749C22.1466 10.2865 22.2128 9.82375 22.2656 9.3613V9.35642C22.3318 8.8802 22.3913 8.3906 22.4443 7.88767C22.564 6.39863 22.5624 5.29145 22.4463 4.55564C22.4001 4.32963 22.3729 4.14131 22.3691 3.999C22.3673 3.92758 22.3709 3.85711 22.3857 3.7949C22.3996 3.73713 22.4312 3.65211 22.5127 3.59763L22.5215 3.59275ZM24.9443 13.6845C24.8779 13.6936 24.8119 13.7035 24.7461 13.7129C25.0299 13.6727 25.3192 13.6343 25.6143 13.5996L24.9443 13.6845ZM29.6045 13.4443C29.5912 13.4576 29.5643 13.471 29.5244 13.4844L29.5742 13.4648C29.5878 13.4581 29.5978 13.451 29.6045 13.4443Z" fill="var(--fill-0, #3971E0)"/>
<path id="Union_12" fill-rule="evenodd" clip-rule="evenodd" d="M15.7139 2.97365C16.3477 2.75362 16.8983 2.72295 17.3291 2.9463L17.334 2.94923C17.354 2.96034 17.4092 2.97823 17.5225 2.98439C17.6311 2.99026 17.7752 2.98424 17.9561 2.96486C18.3766 2.90795 18.7693 2.96573 19.127 3.14455C19.4804 3.30785 19.795 3.57729 20.0752 3.94142C20.3561 4.30657 20.6045 4.77078 20.8223 5.32814L20.8926 5.51076C20.9604 5.69865 21.0198 5.90095 21.0713 6.1172C21.1391 6.40183 21.1871 6.68108 21.2148 6.95412C21.2557 7.22659 21.2832 7.49294 21.2969 7.75294V7.76369C21.2969 7.83396 21.2896 7.90396 21.2773 7.97365V8.12404C21.2773 8.19406 21.2681 8.2635 21.251 8.33205L21.249 8.33986L21.2471 8.34669C21.2358 8.38064 21.2234 8.42292 21.2109 8.47267C21.1898 8.6197 21.1253 8.83766 21.0254 9.11232L21.0244 9.11525C20.9169 9.39756 20.769 9.76579 20.582 10.2197L20.5801 10.2246C20.1798 11.1318 19.8638 11.7984 19.6328 12.2197L19.6318 12.2188C19.5886 12.3046 19.5397 12.3902 19.4834 12.4746L19.4785 12.4824L19.4736 12.4893C19.4194 12.5571 19.3583 12.6312 19.291 12.7119C19.238 12.7781 19.1776 12.8494 19.1123 12.9278L19.1133 12.9287C19.0533 13.0038 18.9799 13.0746 18.8975 13.1445L18.8984 13.1455L18.6904 13.3535L18.6816 13.3604C18.6153 13.4135 18.5488 13.4665 18.4824 13.5195C18.4094 13.5779 18.3348 13.6308 18.2598 13.6758C18.1914 13.7168 18.1274 13.7511 18.0693 13.7803C17.8177 13.9127 17.5982 14.0256 17.4111 14.1192C17.2392 14.2118 17.0904 14.2861 16.9658 14.3418C16.8593 14.3951 16.7799 14.4363 16.7266 14.4629L16.7021 14.4746L16.6768 14.4795C16.5968 14.4955 16.4648 14.5102 16.292 14.5235C16.1115 14.5373 15.8789 14.544 15.5967 14.544C15.1468 14.544 14.8285 14.5314 14.6611 14.501V14.499C14.4849 14.4772 14.2849 14.3874 14.0713 14.2539C13.5493 13.9427 13.0834 13.4805 12.6719 12.877L12.6699 12.874C12.2692 12.2661 12.0111 11.6267 11.8994 10.957V10.9522C11.8859 10.8575 11.8719 10.7561 11.8584 10.6485V10.6455C11.845 10.5248 11.8317 10.3975 11.8184 10.2637L11.8174 10.2539V10.2442C11.8174 10.1175 11.8105 9.99004 11.7979 9.8633L11.7969 9.85353V9.3838C11.7969 8.51068 11.9269 7.71358 12.1895 6.99513C12.3143 6.63532 12.4866 6.27109 12.7051 5.90236L12.708 5.89748C12.9388 5.53098 13.2029 5.15846 13.5 4.78029L13.7959 4.41896C13.9878 4.19307 14.1694 3.99746 14.3408 3.83302L14.5898 3.60939C14.7452 3.46916 14.9145 3.34911 15.0977 3.25002C15.2955 3.13695 15.5011 3.04456 15.7139 2.97365ZM16.418 3.76369C15.893 3.77668 15.2572 4.15463 14.5068 4.99709L14.5059 4.99611C13.7774 5.82894 13.2524 6.75835 12.9277 7.78419C12.7733 8.28119 12.7084 8.88875 12.7383 9.61134L12.7568 9.92873V9.93166C12.7831 10.365 12.8291 10.7423 12.8936 11.0645C12.9509 11.3015 13.0215 11.5104 13.1045 11.6924L13.1924 11.8672L13.1953 11.8731L13.3242 12.1094C13.6346 12.6396 14.013 13.0302 14.4561 13.2901C14.5434 13.34 14.6245 13.3828 14.6982 13.4199C14.7828 13.4561 14.8478 13.4767 14.8955 13.4863C14.9674 13.4981 15.0649 13.5109 15.1895 13.5235H15.6973C16.1191 13.5234 16.3948 13.5093 16.5381 13.4863C16.6725 13.451 16.8777 13.3626 17.1611 13.208L17.168 13.2051C17.6071 12.9855 17.9546 12.7436 18.2158 12.4824L18.2178 12.4805C18.4505 12.2539 18.7163 11.8802 19.0127 11.3467C19.3078 10.8156 19.6277 10.1358 19.9727 9.30666L19.9736 9.30275L20.334 8.48927L20.2578 7.47853L20.2568 7.47169C20.2303 6.75654 20.1577 6.24736 20.0479 5.9297L20.0459 5.92287L20.0439 5.91505C19.9425 5.53458 19.7836 5.16546 19.5664 4.80763L19.5645 4.8047C19.3419 4.42508 19.1552 4.20816 19.0107 4.11427C18.8249 4.01608 18.6192 3.92876 18.3936 3.85353L18.3877 3.85158C18.3254 3.82862 18.272 3.81021 18.2266 3.79689C18.2345 3.82136 18.2427 3.84827 18.2529 3.87697L18.3428 4.10841L18.3438 4.11232L18.4336 4.37013C18.4582 4.4509 18.4775 4.52788 18.4922 4.6006L18.5254 4.78224C18.5319 4.83137 18.5341 4.87807 18.5352 4.92189C18.5438 4.99954 18.5419 5.10155 18.4834 5.18947C18.4156 5.29122 18.3083 5.32423 18.2168 5.32423C18.068 5.32411 17.9493 5.22522 17.8652 5.1338C17.7734 5.03392 17.6794 4.89385 17.583 4.7217L17.5781 4.71291C17.4202 4.39726 17.2045 4.16063 16.9326 3.99513L16.9297 3.9922C16.7895 3.903 16.6756 3.84483 16.5869 3.81154L16.5781 3.80763C16.4988 3.77367 16.4473 3.76388 16.418 3.76369ZM12.6504 10.8438C12.6564 10.8822 12.6644 10.9198 12.6709 10.957C12.6491 10.8326 12.6291 10.7015 12.6123 10.5635L12.6504 10.8438ZM15.4424 3.89845C15.1848 4.06097 14.9169 4.28274 14.6387 4.56349L14.9141 4.30275C15.0949 4.14188 15.2708 4.00685 15.4424 3.89845ZM17.3506 3.16408C17.354 3.16483 17.3578 3.16434 17.3613 3.16505C17.3344 3.15964 17.3098 3.15414 17.2881 3.1465L17.3506 3.16408Z" fill="var(--fill-0, #3971E0)"/>
<path id="Union_13" fill-rule="evenodd" clip-rule="evenodd" d="M6.69727 1.42858C8.02511 1.13649 9.24062 1.54354 10.3301 2.60632L10.5469 2.828L10.5488 2.82995C10.9447 3.26689 11.2217 3.69475 11.3672 4.11315C11.5258 4.53136 11.6006 5.07217 11.6006 5.72448C11.6006 6.18057 11.5782 6.53636 11.5312 6.7821C11.5081 6.90282 11.4765 7.01343 11.4277 7.09851C11.3793 7.18295 11.2875 7.28386 11.1406 7.28405H11.1152L11.0918 7.27819C10.9187 7.23492 10.7955 7.11945 10.7334 6.95397L10.7275 6.93933L10.7236 6.9237C10.7086 6.84868 10.6952 6.74783 10.6816 6.62585L10.6807 6.61511V6.60437C10.6807 6.46504 10.6867 6.29306 10.7002 6.09069C10.6996 5.79813 10.68 5.53322 10.6426 5.29577V5.29382C10.6043 5.03865 10.5469 4.81217 10.4727 4.61413L10.4717 4.6112C10.3356 4.22758 10.0982 3.8426 9.75195 3.45788C9.47228 3.15175 9.2778 2.99693 9.16309 2.94909L9.15039 2.94323C8.98207 2.85905 8.83618 2.75811 8.71484 2.6405L8.65039 2.59558C8.48066 2.49444 8.17587 2.4095 7.70117 2.36315C7.44161 2.3372 7.22621 2.33139 7.05469 2.34362C6.8851 2.35574 6.78175 2.38485 6.72559 2.41491C6.69087 2.43826 6.64901 2.46747 6.60059 2.50378L6.58594 2.5155L6.56934 2.52331C6.52806 2.54399 6.48509 2.57087 6.44043 2.60436C6.37868 2.65067 6.31515 2.69092 6.25 2.72351C6.21467 2.74118 6.16832 2.7702 6.11133 2.8153L6.11035 2.81628L6.1084 2.81921L6.08594 2.84167C6.08464 2.84292 6.08541 2.84122 6.08398 2.84265L6.08301 2.8446L6.05762 2.86999L6.05566 2.87097L6.05371 2.87292L6.05273 2.87487C6.05165 2.87589 6.05197 2.87466 6.05078 2.87585L6.0498 2.8778L6.0459 2.88171L6.04395 2.88269L6.04199 2.88464L6.04102 2.88659L6.03906 2.88757L6.03418 2.89245L6.0332 2.8944L6.01465 2.91296C6.01352 2.91403 6.01394 2.91269 6.0127 2.91394L6.00977 2.91686L6.00879 2.91882L6.00684 2.91979L6.00586 2.92175L6.00391 2.92272L6 2.92663L5.99902 2.92858L5.98828 2.93933L5.98633 2.9403L5.98535 2.94226L5.9834 2.94323L5.98145 2.94616L5.97168 2.95593C5.97018 2.95739 5.97137 2.95526 5.96973 2.9569L5.96777 2.95983L5.96484 2.96276L5.96289 2.96374C5.96176 2.96493 5.96323 2.96438 5.96191 2.96569L5.96094 2.96667C5.95909 2.96848 5.96099 2.96564 5.95898 2.96765L5.95703 2.97058L5.94629 2.98132L5.94434 2.98229L5.94336 2.98327C5.94188 2.9848 5.94407 2.98353 5.94238 2.98522L5.9248 3.00085C5.86464 3.04902 5.803 3.1041 5.74121 3.16589C5.66516 3.24196 5.60404 3.30978 5.55664 3.36901L5.5498 3.3778L5.54199 3.38562C5.51806 3.40955 5.50075 3.42849 5.48926 3.44226C5.48479 3.44761 5.48129 3.45154 5.47949 3.45397L5.44922 3.51354L5.44141 3.51647C5.42846 3.55895 5.41069 3.59966 5.38672 3.63562C5.34551 3.69728 5.28905 3.74963 5.22754 3.79675L5.22852 3.79772C5.18192 3.83661 5.11023 3.93185 5.01953 4.11315L5.01367 4.1239C4.96807 4.20382 4.92608 4.29784 4.88965 4.4071L4.8877 4.41491C4.8495 4.51679 4.80993 4.62504 4.77148 4.74011C4.70793 4.95624 4.67226 5.14912 4.66016 5.31823L4.65918 5.31921C4.63396 5.64729 4.64678 5.96882 4.69629 6.28308L4.75098 6.50671C4.81364 6.72476 4.90053 6.93646 5.01172 7.14147L5.13086 7.3612C5.15073 7.39432 5.17154 7.42769 5.19141 7.46081L5.24414 7.5487C5.29431 7.61142 5.34436 7.67446 5.39453 7.73718C5.44555 7.78918 5.49624 7.84575 5.5459 7.9071C5.66001 8.02106 5.7804 8.13554 5.90723 8.24987C6.0341 8.35123 6.16782 8.44606 6.30762 8.53503C6.49435 8.64844 6.64614 8.74427 6.7627 8.82312C6.86224 8.89046 6.94324 8.95283 6.99902 9.00378C7.05908 9.0409 7.11349 9.08071 7.16016 9.1239C7.21145 9.16236 7.25506 9.19367 7.29102 9.21765L7.37012 9.2655L7.38086 9.27136L7.3916 9.27819C7.49525 9.34732 7.61055 9.4291 7.73633 9.52429L8.14648 9.84948L8.1582 9.85925C8.43947 10.1271 8.66304 10.3504 8.82715 10.5282L8.83398 10.536L8.93652 10.6649C9.03286 10.7925 9.11747 10.9251 9.19141 11.0614C9.30241 11.2291 9.39413 11.4041 9.46484 11.5868L9.55957 11.8407C9.58781 11.9254 9.61252 12.0105 9.63379 12.0956L9.63477 12.0985C9.76281 12.6396 9.7234 13.1298 9.49707 13.5546L9.49805 13.5555C9.24784 14.0401 8.76344 14.3385 8.10156 14.4794L8.09766 14.4803C7.43526 14.6072 6.67174 14.5626 5.81348 14.3583C5.15349 14.1966 4.59323 14.0063 4.1377 13.786C3.45757 13.4793 2.96451 13.2438 2.66406 13.08L2.66113 13.078C2.56522 13.0232 2.46297 12.9612 2.35449 12.8934L2.34375 12.8866C2.29726 12.8534 2.25059 12.8202 2.2041 12.787C2.15747 12.7537 2.11011 12.7207 2.06348 12.6874L2.05176 12.6776C1.97241 12.6115 1.88688 12.5386 1.79492 12.4598C1.73059 12.4084 1.5611 12.2783 1.28418 12.0673L1.06543 11.8954C0.854687 11.7139 0.664889 11.5012 0.496094 11.2587L0.494141 11.2548C0.272865 10.9228 0.119872 10.6081 0.0458984 10.3124L0.0478516 10.3114C0.0180413 10.2171 3.90166e-05 10.1215 0 10.0243C0 9.93472 0.0077586 9.8498 0.0263672 9.77526C0.0460732 9.68374 0.0843989 9.5993 0.140625 9.52429L0.162109 9.49401L0.194336 9.47448L0.354492 9.37487L0.380859 9.35827L0.412109 9.35046C0.468655 9.33638 0.549909 9.33102 0.62793 9.3778C0.693777 9.41735 0.727488 9.47673 0.745117 9.52819C0.787123 9.60886 0.799792 9.70031 0.799805 9.78405C0.79984 9.84867 0.814421 9.93776 0.848633 10.0546C0.89766 10.1633 0.965033 10.2929 1.05273 10.4432L1.05566 10.4491C1.21871 10.7501 1.41851 11.0046 1.65332 11.2147L1.6543 11.2157C2.20804 11.7179 3.00317 12.2215 4.04688 12.7235C4.41537 12.8946 4.76932 13.0454 5.11035 13.1766C5.45758 13.2921 5.79091 13.3818 6.11035 13.4462C6.44746 13.498 6.77796 13.5243 7.10059 13.5243C7.38831 13.5243 7.62533 13.5113 7.81348 13.4862H7.81543C8.01363 13.4614 8.16544 13.4247 8.27637 13.3817C8.3822 13.3278 8.46233 13.262 8.52051 13.1844C8.58118 13.1036 8.631 12.9953 8.66602 12.8553C8.72907 12.5892 8.665 12.2149 8.41992 11.7118V11.7098C8.30928 11.4763 8.1608 11.2601 7.97461 11.0614L7.96582 11.0516C7.79095 10.8393 7.54899 10.6088 7.23633 10.3612C6.90899 10.1126 6.48094 9.81627 5.95215 9.47253L5.66797 9.27917C5.38921 9.07785 5.12633 8.85275 4.87891 8.60534C4.70401 8.43044 4.55462 8.2742 4.43164 8.13757L4.4248 8.13073L4.41797 8.12194C4.3063 7.96838 4.21406 7.81857 4.1416 7.6737C4.04337 7.48688 3.9558 7.24572 3.87891 6.95593L3.73438 6.35632C3.71366 6.25965 3.69657 6.16569 3.68262 6.07507L3.68066 6.05944C3.66706 5.88258 3.66016 5.72349 3.66016 5.58386V5.57409C3.67437 5.30409 3.74423 4.8771 3.86426 4.30358L3.86621 4.29577C3.88227 4.23155 3.90554 4.16232 3.93457 4.08972L3.94043 4.07507L3.94824 4.0614C3.99017 3.99151 4.03909 3.91487 4.09375 3.83288C4.14677 3.74051 4.20558 3.64184 4.27051 3.53796L4.27441 3.53112C4.3738 3.38535 4.45023 3.27208 4.50195 3.19128C4.52777 3.15093 4.54667 3.11974 4.55957 3.09753C4.56253 3.09243 4.56549 3.08822 4.56738 3.08483C4.57926 3.0316 4.60428 2.9872 4.62305 2.95788C4.65279 2.91149 4.69277 2.86252 4.73828 2.81335C4.83 2.7143 4.96291 2.59295 5.13184 2.45104C5.46351 2.14625 5.73118 1.92469 5.93164 1.79577C6.1956 1.61571 6.44942 1.4911 6.69141 1.43054L6.69727 1.42858ZM8.06055 14.2841C7.83114 14.328 7.58709 14.3494 7.3291 14.3505C7.49903 14.3499 7.66279 14.3414 7.82031 14.3221L8.06055 14.2841ZM9.32031 13.4637L9.37988 13.3387C9.38064 13.337 9.38011 13.3347 9.38086 13.3329C9.36223 13.3771 9.34309 13.4212 9.32031 13.4637ZM9.44043 12.1434C9.46896 12.2639 9.48761 12.3811 9.49805 12.494C9.4931 12.4405 9.48655 12.3861 9.47754 12.3309L9.44043 12.1434ZM0.240234 10.2645C0.256918 10.3312 0.27787 10.3996 0.303711 10.4696C0.329569 10.5396 0.360483 10.6111 0.395508 10.6844C0.465475 10.831 0.553597 10.9846 0.660156 11.1444C0.446934 10.8245 0.30688 10.5311 0.240234 10.2645ZM7.96777 10.7518C8.02273 10.8102 8.07347 10.868 8.12012 10.9247C8.02682 10.8114 7.91664 10.694 7.79004 10.5741L7.96777 10.7518ZM6.06055 9.30456C6.32699 9.47775 6.56859 9.63912 6.78516 9.78893L6.06055 9.30456ZM3.87988 6.04382C3.89323 6.13054 3.90964 6.2208 3.92969 6.31433C3.94967 6.40754 3.97337 6.5045 4 6.60437C3.94673 6.40454 3.90653 6.21702 3.87988 6.04382ZM11.4004 5.72351C11.4004 6.05944 11.3871 6.33333 11.3633 6.54479C11.3791 6.40475 11.3912 6.23755 11.3965 6.04284L11.4004 5.72351ZM11.3447 4.85925C11.3539 4.92337 11.3623 4.98941 11.3691 5.05749L11.3447 4.85925C11.3356 4.79508 11.3259 4.73294 11.3145 4.67272L11.3447 4.85925ZM11.1807 4.18347C11.2174 4.28022 11.2489 4.3853 11.2764 4.49792L11.2324 4.33483C11.2164 4.28269 11.1989 4.23166 11.1807 4.18347ZM5.10059 3.64343C5.08062 3.66006 5.05986 3.68084 5.03906 3.70495L5.10059 3.64343ZM5.7998 2.84362C5.73318 2.89693 5.66721 2.95767 5.60059 3.02429C5.5206 3.10427 5.45372 3.17736 5.40039 3.24401C5.3738 3.27061 5.35161 3.29339 5.33496 3.31335L5.40039 3.24401C5.42695 3.21083 5.45707 3.17601 5.49023 3.13952L5.60059 3.02429L5.7998 2.84362ZM6.48047 2.34362C6.42714 2.37029 6.37365 2.40421 6.32031 2.44421L6.40039 2.38952L6.48047 2.34362ZM7.71973 2.16394C7.92469 2.18393 8.10544 2.21089 8.26172 2.24597L8.09766 2.21374C7.98267 2.19374 7.85637 2.17727 7.71973 2.16394ZM7.04004 2.14343C6.93093 2.15123 6.83796 2.16688 6.76074 2.18835C6.80503 2.17612 6.85445 2.16589 6.90918 2.15808L7.04004 2.14343Z" fill="var(--fill-0, #3971E0)"/>
</g>
</svg>
