<svg preserveAspectRatio="none" width="100%" height="100%" overflow="visible" style="display: block;" viewBox="0 0 70 70" fill="none" xmlns="http://www.w3.org/2000/svg">
<path id="Ellipse 370" d="M70 35C70 41.9223 67.9473 48.6892 64.1015 54.445C60.2556 60.2007 54.7893 64.6867 48.3939 67.3358C41.9985 69.9849 34.9612 70.678 28.1719 69.3275C21.3825 67.977 15.1461 64.6436 10.2513 59.7487C5.35644 54.8539 2.02301 48.6175 0.672531 41.8282C-0.677952 35.0388 0.015165 28.0015 2.66423 21.6061C5.3133 15.2107 9.79934 9.74441 15.5551 5.89856C21.3108 2.05271 28.0777 -8.25482e-08 35 0L35 7C29.4621 7 24.0486 8.64217 19.444 11.7189C14.8395 14.7955 11.2506 19.1685 9.13139 24.2849C7.01214 29.4012 6.45764 35.0311 7.53803 40.4625C8.61841 45.894 11.2852 50.8831 15.201 54.799C19.1169 58.7149 24.106 61.3816 29.5375 62.462C34.969 63.5424 40.5988 62.9879 45.7152 60.8686C50.8315 58.7494 55.2045 55.1605 58.2812 50.556C61.3578 45.9514 63 40.5379 63 35H70Z" fill="url(#paint0_linear_2777_19597)"/>
<defs>
<linearGradient id="paint0_linear_2777_19597" x1="1.57399e-05" y1="35" x2="70" y2="35" gradientUnits="userSpaceOnUse">
<stop stop-color="#3971E0"/>
<stop offset="1" stop-color="#ABC8FF"/>
</linearGradient>
</defs>
</svg>
