<svg preserveAspectRatio="none" width="100%" height="100%" overflow="visible" style="display: block;" viewBox="0 0 18 18" fill="none" xmlns="http://www.w3.org/2000/svg">
<g id="Frame 2147230425">
<path id="Vector" d="M9 2.4502C12.3411 2.4502 15.0496 5.15819 15.0498 8.49902C15.0498 11.84 12.3413 14.5488 9 14.5488C8.02763 14.5488 7.0878 14.3186 6.24219 13.8848L3.96582 14.5205C3.54028 14.6393 3.0993 14.3903 2.98047 13.9648C2.94116 13.8241 2.94114 13.6748 2.98047 13.5342L3.61523 11.2598C3.18055 10.4136 2.9502 9.47231 2.9502 8.49902C2.95045 5.15819 5.65884 2.4502 9 2.4502ZM9 3.4502C6.21112 3.4502 3.95045 5.71044 3.9502 8.49902C3.9502 9.37212 4.17193 10.2121 4.58789 10.957L4.67773 11.1191L4.6875 11.1367L4.68262 11.1572L4.03809 13.4609L6.34473 12.8184L6.36523 12.8125L6.38281 12.8232L6.54492 12.9131C7.28922 13.328 8.12794 13.5488 9 13.5488C11.789 13.5488 14.0498 11.2878 14.0498 8.49902C14.0496 5.71044 11.7889 3.4502 9 3.4502Z" fill="var(--fill-0, #C8C8C8)" stroke="var(--stroke-0, #C8C8C8)" stroke-width="0.1"/>
</g>
</svg>
