<svg preserveAspectRatio="none" width="100%" height="100%" overflow="visible" style="display: block;" viewBox="0 0 28 28" fill="none" xmlns="http://www.w3.org/2000/svg">
<g id="Frame">
<path id="Vector" d="M13.9855 2.32878C15.6743 2.32878 17.2524 2.80347 18.5912 3.62901C18.1923 4.05516 17.8838 4.5667 17.6962 5.13316C16.62 4.46387 15.348 4.07831 13.9855 4.07831C10.1068 4.07831 6.97663 7.19743 6.97607 11.0764V16.2196L5.40597 19.8284H22.5752L20.9951 16.2208L20.9952 11.0914L20.9908 10.8287C20.9865 10.7024 20.9788 10.5768 20.9679 10.4523C21.1674 10.4822 21.3716 10.4976 21.5794 10.4976C21.9738 10.4976 22.3552 10.4419 22.7161 10.3378C22.7285 10.4854 22.7374 10.6341 22.7425 10.7837L22.7474 11.0764V15.8549L24.3597 19.536C24.4404 19.7202 24.482 19.919 24.482 20.12C24.482 20.9252 23.8281 21.578 23.0217 21.578L17.4903 21.5797C17.4903 23.5122 15.9212 25.0788 13.9855 25.0788C12.1191 25.0788 10.5934 23.6221 10.4868 21.7853L10.4803 21.577L4.96069 21.578C4.76052 21.578 4.56249 21.5369 4.3789 21.4573C3.63916 21.1365 3.29995 20.2777 3.62127 19.5392L5.22371 15.8561V11.0763C5.22439 6.23034 9.13979 2.32878 13.9855 2.32878ZM15.7374 21.577L12.2332 21.5797C12.2332 22.546 13.0178 23.3293 13.9855 23.3293C14.8965 23.3293 15.645 22.6354 15.7299 21.7482L15.7374 21.577ZM18.7052 5.89477C18.8162 5.27978 19.1204 4.73182 19.5528 4.31574C20.078 3.81035 20.7923 3.49955 21.5794 3.49955C23.1924 3.49955 24.5 4.80503 24.5 6.41542C24.5 7.69046 23.6803 8.77435 22.5383 9.17049C22.238 9.27469 21.9153 9.33131 21.5794 9.33131C21.2896 9.33131 21.0097 9.28917 20.7454 9.2107C19.5388 8.85238 18.6587 7.7365 18.6587 6.41542C18.6587 6.23772 18.6747 6.06371 18.7052 5.89477Z" fill="var(--fill-0, #BFD6FF)"/>
</g>
</svg>
