<svg width="28" height="28" viewBox="0 0 28 28" fill="none" xmlns="http://www.w3.org/2000/svg">
<path d="M13.9855 2.32861C15.6743 2.32861 17.2524 2.80331 18.5912 3.62885C18.1923 4.055 17.8838 4.56654 17.6962 5.133C16.62 4.46371 15.348 4.07815 13.9855 4.07815C10.1068 4.07815 6.97663 7.19726 6.97607 11.0763V16.2194L5.40597 19.8283H22.5752L20.9951 16.2206L20.9952 11.0912L20.9908 10.8286C20.9865 10.7022 20.9788 10.5767 20.9679 10.4521C21.1674 10.482 21.3716 10.4975 21.5794 10.4975C21.9738 10.4975 22.3552 10.4417 22.7161 10.3377C22.7285 10.4852 22.7374 10.6339 22.7425 10.7836L22.7474 11.0763V15.8547L24.3597 19.5358C24.4404 19.72 24.482 19.9188 24.482 20.1198C24.482 20.9251 23.8281 21.5778 23.0217 21.5778L17.4903 21.5796C17.4903 23.512 15.9212 25.0786 13.9855 25.0786C12.1191 25.0786 10.5934 23.6219 10.4868 21.7851L10.4803 21.5769L4.96069 21.5778C4.76052 21.5778 4.56249 21.5367 4.3789 21.4572C3.63916 21.1363 3.29995 20.2776 3.62127 19.5391L5.22371 15.8559V11.0761C5.22439 6.23018 9.13979 2.32861 13.9855 2.32861ZM15.7374 21.5769L12.2332 21.5796C12.2332 22.5458 13.0178 23.3291 13.9855 23.3291C14.8965 23.3291 15.645 22.6353 15.7299 21.748L15.7374 21.5769ZM18.7052 5.89461C18.8162 5.27961 19.1204 4.73165 19.5528 4.31557C20.078 3.81019 20.7923 3.49939 21.5794 3.49939C23.1924 3.49939 24.5 4.80486 24.5 6.41526C24.5 7.6903 23.6803 8.77419 22.5383 9.17033C22.238 9.27453 21.9153 9.33114 21.5794 9.33114C21.2896 9.33114 21.0097 9.289 20.7454 9.21053C19.5388 8.85222 18.6587 7.73633 18.6587 6.41526C18.6587 6.23755 18.6747 6.06354 18.7052 5.89461Z" fill="#212121"/>
</svg>
