<svg width="152" height="26" viewBox="0 0 152 26" fill="none" xmlns="http://www.w3.org/2000/svg">
<path fill-rule="evenodd" clip-rule="evenodd" d="M145.918 5.49519C146.063 5.44669 146.238 5.47973 146.404 5.53523L146.403 5.53719C146.636 5.60152 146.833 5.72609 146.989 5.91121C147.139 6.07776 147.251 6.32225 147.334 6.62117C147.418 6.92291 147.48 7.29879 147.521 7.74422L147.554 8.11238C147.626 9.05117 147.661 10.5442 147.661 12.585V12.587C147.648 14.3345 147.621 15.8894 147.581 17.2511C147.541 18.5986 147.488 19.6371 147.421 20.3634C147.394 20.7232 147.364 21 147.328 21.1876C147.311 21.2794 147.29 21.3626 147.263 21.4259C147.25 21.4563 147.228 21.498 147.193 21.5333C147.156 21.5717 147.084 21.6185 146.988 21.6026L146.963 21.5987L146.94 21.588C146.866 21.555 146.832 21.4916 146.82 21.4679C146.805 21.4362 146.794 21.401 146.786 21.3702C146.77 21.3074 146.757 21.2258 146.747 21.1309C146.726 20.9387 146.711 20.662 146.701 20.3057C146.681 19.5915 146.681 18.5363 146.701 17.1427C146.721 15.7302 146.723 14.6624 146.706 13.9395C146.698 13.578 146.685 13.3059 146.668 13.1212C146.662 13.0506 146.653 12.9957 146.646 12.9552C146.643 12.9551 146.64 12.9552 146.637 12.9552C146.584 12.9552 146.513 12.9631 146.421 12.9815C146.236 13.0185 145.987 13.0946 145.672 13.213L145.671 13.212C145.398 13.3161 145.206 13.4035 145.088 13.4737C144.981 13.5454 144.88 13.6302 144.783 13.7266C144.725 13.7848 144.673 13.8954 144.661 14.0968C144.648 14.3188 144.642 14.562 144.642 14.8253C144.642 15.0726 144.654 15.4538 144.681 15.9708C144.721 16.5323 144.738 16.97 144.731 17.2794C144.728 17.4329 144.719 17.5626 144.701 17.6622C144.692 17.7117 144.68 17.7613 144.663 17.8048C144.647 17.8442 144.618 17.9029 144.562 17.9454L144.55 17.9542L144.536 17.961C144.47 17.9967 144.392 18.0214 144.307 18.0157C144.219 18.0098 144.143 17.9729 144.083 17.919C143.973 17.8205 143.909 17.662 143.867 17.4942L143.866 17.4884C143.802 17.1957 143.757 16.6737 143.727 15.9386C143.696 15.1981 143.682 14.2265 143.682 13.0255C143.682 11.2774 143.661 10.1518 143.622 9.6407L143.621 9.63582C143.608 9.38221 143.584 9.18208 143.551 9.03426C143.516 8.88106 143.478 8.80725 143.453 8.77937C143.288 8.61145 143.182 8.40243 143.248 8.17293L143.278 8.08992C143.314 8.01092 143.37 7.94271 143.447 7.89266C143.546 7.82847 143.664 7.80575 143.781 7.80574C143.966 7.80574 144.123 7.88622 144.24 8.02742C144.35 8.1596 144.425 8.34084 144.475 8.55184L144.515 8.72176C144.601 9.14986 144.642 9.80264 144.642 10.6651V10.7657C144.642 11.0989 144.634 11.3467 144.62 11.503C144.609 11.6304 144.614 11.7886 144.64 11.9786C144.665 12.1701 144.683 12.295 144.695 12.3575C144.696 12.36 144.7 12.3671 144.708 12.379C144.719 12.3952 144.736 12.417 144.763 12.4434C144.778 12.4589 144.792 12.4689 144.802 12.4766C144.863 12.4637 144.945 12.4472 145.046 12.4288C145.184 12.4037 145.298 12.3726 145.391 12.338C145.506 12.2821 145.682 12.2097 145.913 12.1241C145.933 12.1116 145.956 12.0986 145.983 12.0919L146.77 11.7579L146.662 10.462V10.46C146.582 9.39201 146.541 8.55901 146.541 7.96492C146.541 7.52657 146.514 7.23766 146.469 7.08016C146.428 6.9361 146.338 6.79347 146.187 6.6534L145.975 6.44637C145.913 6.38089 145.859 6.31869 145.815 6.25984C145.733 6.14939 145.661 6.01897 145.661 5.88484C145.661 5.80845 145.676 5.7261 145.72 5.65242C145.766 5.57459 145.837 5.52226 145.918 5.49519ZM144.421 11.4845C144.428 11.4112 144.433 11.3152 144.437 11.1954L144.441 10.7657C144.441 11.0987 144.434 11.3378 144.421 11.4845ZM143.602 8.64559C143.616 8.66222 143.631 8.68156 143.645 8.70418L143.602 8.64559Z" fill="#3971E0"/>
<path fill-rule="evenodd" clip-rule="evenodd" d="M139.076 12.4913C139.343 12.4714 139.64 12.5168 139.964 12.6192L140.297 12.7403L140.301 12.7423C140.865 12.9881 141.23 13.3776 141.354 13.9151C141.492 14.4495 141.363 15.0121 141.012 15.5889L141.008 15.5968L141.007 15.5958C140.829 15.8621 140.563 16.1188 140.218 16.3673C139.871 16.6169 139.509 16.8132 139.131 16.9532L139.125 16.9552C138.754 17.0789 138.427 17.1314 138.164 17.0821L138.152 17.0792C137.757 16.9802 137.421 16.8218 137.153 16.5987L137.148 16.5948C136.884 16.3594 136.705 16.0853 136.627 15.7735C136.542 15.4317 136.652 15.054 136.891 14.6612C137.127 14.2592 137.563 13.6823 138.188 12.9366C138.412 12.6658 138.714 12.5184 139.076 12.4913ZM139.062 16.7647C138.893 16.8209 138.74 16.8579 138.604 16.879C138.667 16.8692 138.734 16.8573 138.805 16.8399L139.062 16.7647ZM140.102 16.2052L140.28 16.0694C140.293 16.0592 140.305 16.0483 140.317 16.0382C140.25 16.0935 140.178 16.1498 140.102 16.2052ZM136.986 16.1055C137.005 16.1353 137.026 16.1645 137.048 16.1934C137.004 16.1351 136.966 16.0754 136.933 16.0137L136.986 16.1055ZM139.204 13.4552L139.174 13.4649H139.142C139.123 13.4649 139.093 13.4688 139.05 13.4796C139 13.492 138.959 13.5035 138.925 13.5147C138.92 13.5178 138.904 13.5283 138.875 13.5528C138.836 13.5861 138.786 13.636 138.725 13.7042C138.601 13.8406 138.439 14.0397 138.241 14.3038C137.857 14.8211 137.625 15.2093 137.529 15.4737L137.526 15.4815C137.503 15.5389 137.506 15.5821 137.534 15.63C137.568 15.6883 137.645 15.7637 137.794 15.8477L137.905 15.9005C138.13 15.997 138.364 16.0373 138.609 16.0206L138.733 16.0069C139.28 15.9193 139.71 15.6978 140.035 15.3487L140.037 15.3468C140.383 14.9886 140.505 14.6527 140.463 14.3321L140.462 14.3243C140.446 14.1561 140.387 14.0192 140.29 13.9063C140.191 13.7915 140.042 13.6906 139.832 13.6124H139.829C139.659 13.5469 139.52 13.4989 139.411 13.4679C139.342 13.448 139.29 13.4376 139.253 13.4317C139.235 13.4401 139.219 13.4503 139.204 13.4552ZM140.842 15.4845C140.765 15.6 140.666 15.7146 140.549 15.8302C140.605 15.7747 140.658 15.7206 140.705 15.6651L140.842 15.4845ZM140.591 14.0177C140.609 14.062 140.624 14.1082 140.636 14.1563C140.612 14.0603 140.576 13.9717 140.526 13.8907L140.591 14.0177ZM139.142 13.2647C139.122 13.2647 139.1 13.2672 139.076 13.2706L139.142 13.2647Z" fill="#3971E0"/>
<path fill-rule="evenodd" clip-rule="evenodd" d="M141.87 9.15144C141.974 9.17551 142.064 9.23262 142.125 9.32723C142.183 9.41727 142.201 9.52307 142.201 9.62508C142.201 9.7195 142.155 9.79386 142.111 9.84285C142.067 9.89234 142.009 9.93441 141.948 9.97078C141.826 10.044 141.654 10.1164 141.441 10.1895C141.013 10.3368 140.379 10.5004 139.544 10.6807C138.986 10.8268 138.402 10.9795 137.792 11.1387L137.79 11.1397C137.734 11.1538 137.671 11.1671 137.604 11.1807C137.357 11.2583 137.158 11.3183 137.008 11.3585C136.931 11.379 136.864 11.3952 136.81 11.4063C136.759 11.4166 136.706 11.4249 136.661 11.4249H136.645L136.629 11.4229C136.512 11.4034 136.432 11.3254 136.39 11.2345C136.371 11.1938 136.359 11.149 136.352 11.1036L136.342 10.9649V10.9054C136.342 10.7464 136.451 10.6338 136.55 10.5626C136.654 10.4873 136.798 10.4204 136.97 10.3585L137.305 10.2442C137.571 10.1606 137.922 10.0624 138.357 9.95027L139.074 9.77059C139.92 9.5509 140.569 9.38908 141.021 9.28523C141.248 9.23333 141.427 9.19531 141.558 9.17195C141.623 9.16035 141.679 9.15222 141.724 9.14754C141.746 9.14521 141.769 9.14291 141.79 9.14266C141.808 9.14245 141.838 9.14351 141.87 9.15144ZM137.741 10.9444C137.688 10.9577 137.628 10.9711 137.562 10.9845L137.741 10.9444ZM141.024 10.1104C140.894 10.1486 140.751 10.1882 140.595 10.2286L141.024 10.1104C141.155 10.0723 141.272 10.0359 141.376 10.0001L141.024 10.1104Z" fill="#3971E0"/>
<path fill-rule="evenodd" clip-rule="evenodd" d="M136.458 6.41512C136.632 6.35716 136.844 6.37515 137.07 6.43172C137.297 6.4884 137.554 6.5787 137.84 6.70125L137.844 6.7032L138.004 6.77156C138.385 6.92418 138.825 7.03029 139.324 7.08699C139.626 7.12128 139.88 7.17374 140.081 7.24812C140.229 7.30298 140.361 7.3742 140.46 7.4698L140.548 7.5743L140.553 7.58211C140.616 7.68753 140.666 7.7886 140.689 7.87898C140.711 7.95965 140.729 8.10151 140.623 8.20711C140.576 8.25421 140.518 8.27018 140.491 8.27644C140.458 8.28422 140.421 8.28761 140.388 8.28914C140.32 8.29221 140.234 8.28797 140.134 8.27937C139.933 8.262 139.649 8.2224 139.288 8.16219C138.926 8.1019 138.636 8.0467 138.42 7.99519C138.312 7.96949 138.22 7.94402 138.145 7.91902C138.073 7.89527 138.003 7.86737 137.95 7.83211L137.934 7.82039L137.92 7.80672C137.898 7.78508 137.829 7.74071 137.679 7.68172C137.536 7.62571 137.34 7.56475 137.091 7.4991C136.825 7.43092 136.609 7.35343 136.455 7.26277C136.31 7.17721 136.161 7.04266 136.161 6.8448C136.161 6.75538 136.182 6.66403 136.235 6.58406C136.289 6.50333 136.366 6.44993 136.451 6.41805L136.458 6.41512ZM140.481 8.06453C140.469 8.07721 140.437 8.08509 140.387 8.08797C140.41 8.08662 140.43 8.08465 140.445 8.08113L140.481 8.06453ZM137.142 7.30574C137.077 7.28912 137.016 7.27123 136.959 7.25398L137.142 7.30574ZM137.762 6.88484L137.461 6.76375C137.443 6.75711 137.425 6.75151 137.407 6.74519C137.519 6.78538 137.637 6.83147 137.762 6.88484Z" fill="#3971E0"/>
<path fill-rule="evenodd" clip-rule="evenodd" d="M130.061 15.9144C130.189 15.8685 130.305 15.9141 130.385 15.9817C130.458 16.0439 130.517 16.1349 130.566 16.2317C130.617 16.3308 130.666 16.4531 130.714 16.596L130.798 16.8597C130.825 16.9558 130.852 17.0611 130.879 17.1751C130.978 17.5644 131.073 17.8663 131.161 18.0843C131.251 18.3056 131.323 18.4073 131.364 18.4417C131.379 18.4513 131.418 18.4713 131.499 18.4876C131.58 18.5038 131.689 18.5151 131.827 18.5198C132.105 18.5294 132.484 18.5114 132.967 18.4651C134.082 18.3589 134.823 18.3106 135.173 18.3245C135.353 18.3315 135.51 18.3511 135.633 18.388C135.734 18.4184 135.847 18.471 135.917 18.5696L135.944 18.6155L135.953 18.6331L135.959 18.6517C135.993 18.7749 135.978 18.905 135.896 19.0149C135.821 19.1144 135.706 19.1749 135.589 19.2142L135.577 19.2181C135.364 19.2749 134.77 19.3769 133.815 19.5228H133.812C132.911 19.6439 132.174 19.658 131.614 19.556C131.056 19.4541 130.636 19.2286 130.429 18.8382C130.257 18.5216 130.092 18.0346 129.932 17.3929L129.931 17.389C129.857 17.0662 129.808 16.8039 129.787 16.6058C129.777 16.507 129.772 16.4181 129.776 16.3431C129.78 16.2759 129.791 16.1916 129.834 16.1214C129.882 16.0422 129.953 15.9529 130.061 15.9144ZM135.165 18.5247C135.332 18.5311 135.465 18.5494 135.563 18.5774C135.516 18.564 135.461 18.5517 135.398 18.5433C135.33 18.5341 135.252 18.5281 135.165 18.5247Z" fill="#3971E0"/>
<path fill-rule="evenodd" clip-rule="evenodd" d="M132.339 9.60576L132.34 9.60479C132.397 9.60887 132.456 9.61847 132.51 9.63897C132.563 9.65931 132.63 9.69865 132.671 9.77373C132.714 9.85338 132.708 9.93584 132.688 9.99737C132.67 10.0554 132.636 10.1071 132.602 10.1497L132.598 10.1546C132.519 10.2467 132.4 10.339 132.256 10.431C132.109 10.5245 131.924 10.6253 131.704 10.7337C131.263 10.9508 130.666 11.204 129.917 11.4915C129.709 11.5735 129.57 11.6561 129.485 11.7327C129.403 11.8072 129.386 11.8638 129.386 11.9046C129.386 12.0035 129.348 12.1196 129.301 12.2347C129.25 12.3568 129.175 12.5056 129.08 12.6771C128.89 13.0205 128.607 13.4743 128.232 14.0355L128.23 14.0374C127.404 15.2503 126.833 16.1082 126.515 16.6116L126.513 16.6146C126.318 16.9093 126.157 17.1412 126.029 17.3069C125.966 17.3894 125.908 17.4586 125.857 17.512C125.812 17.5605 125.755 17.6137 125.695 17.6439L125.683 17.6497L125.669 17.6546C125.605 17.6758 125.527 17.6924 125.447 17.678C125.354 17.6609 125.276 17.6035 125.234 17.5149C125.199 17.4394 125.198 17.3577 125.204 17.2913C125.211 17.2215 125.229 17.1444 125.255 17.0638C125.359 16.6856 125.593 16.2524 125.943 15.7679C126.202 15.3896 126.418 15.0727 126.59 14.8177L126.978 14.2356C127.475 13.4125 127.847 12.7803 128.091 12.3382C128.206 12.13 128.29 11.9654 128.348 11.845C128.333 11.8488 128.316 11.853 128.299 11.8577L128.298 11.8567C127.99 11.9537 127.297 12.1225 126.229 12.3597L126.227 12.3606C125.147 12.5872 124.399 12.7402 123.983 12.8206L123.975 12.8226L123.966 12.8235C123.703 12.8499 123.498 12.8603 123.377 12.8431L123.364 12.8411L123.351 12.8372C123.269 12.8138 123.191 12.7674 123.137 12.6897C123.084 12.6138 123.064 12.5264 123.064 12.4446C123.064 12.3077 123.12 12.1871 123.219 12.094C123.311 12.0069 123.436 11.9493 123.572 11.9114C123.825 11.8413 124.437 11.7269 125.393 11.5677L125.395 11.5667C126.318 11.4216 127.39 11.1775 128.611 10.8323L129.448 10.5862C129.697 10.5087 129.917 10.4353 130.107 10.3665C130.492 10.2273 130.741 10.1113 130.871 10.0208L130.878 10.0159L131.066 9.90362C131.501 9.66228 131.928 9.55584 132.339 9.60576Z" fill="#3971E0"/>
<path fill-rule="evenodd" clip-rule="evenodd" d="M133.658 5.29619C133.771 5.33665 133.865 5.42049 133.945 5.5169C133.986 5.56621 134.027 5.62288 134.066 5.68584L134.184 5.89385L134.185 5.89483C134.312 6.14955 134.422 6.45615 134.518 6.81084C134.644 7.25907 134.712 7.81051 134.726 8.46026C134.739 9.10705 134.712 10.2802 134.646 11.973C134.592 13.8743 134.525 15.107 134.443 15.6546C134.402 15.9299 134.339 16.1592 134.244 16.3245C134.146 16.4946 133.995 16.6241 133.785 16.6243H133.732L133.687 16.598C133.592 16.544 133.554 16.4438 133.535 16.386C133.513 16.3153 133.497 16.2283 133.486 16.1312C133.476 16.0331 133.469 15.9159 133.466 15.7806V15.3167C133.493 14.634 133.586 12.9649 133.746 10.3128C133.812 9.30891 133.792 8.44902 133.688 7.73369C133.582 7.0083 133.408 6.55221 133.197 6.31866L133.19 6.31084C133.096 6.19475 133.022 6.07462 132.991 5.95342C132.961 5.8332 132.977 5.70935 133.054 5.60381C133.118 5.4935 133.198 5.39432 133.299 5.3333C133.409 5.26693 133.535 5.25198 133.658 5.29619ZM134.368 14.0374C134.331 14.7909 134.291 15.3205 134.245 15.6253L134.246 15.6243C134.256 15.5576 134.266 15.4801 134.275 15.3919C134.31 15.0771 134.339 14.6255 134.368 14.0374Z" fill="#3971E0"/>
<path fill-rule="evenodd" clip-rule="evenodd" d="M132.61 11.9856C132.8 11.9711 132.975 11.9849 133.121 12.0442C133.236 12.0909 133.33 12.1643 133.396 12.263L133.451 12.3704L133.456 12.3812C133.483 12.4621 133.482 12.5473 133.455 12.6282L133.451 12.6409L133.444 12.6536C133.409 12.7246 133.35 12.7755 133.297 12.8108L133.274 12.8255L133.249 12.8343C133.19 12.854 133.128 12.8645 133.065 12.8646C132.875 12.8646 132.556 12.9597 132.093 13.1849L132.086 13.1878C131.199 13.5747 130.516 13.8537 130.043 14.0228C129.808 14.1068 129.617 14.1664 129.477 14.1976C129.407 14.2128 129.34 14.2232 129.282 14.2239C129.253 14.2242 129.218 14.2224 129.183 14.2132C129.15 14.2048 129.104 14.1857 129.064 14.1448L129.055 14.136L129.056 14.1351C128.953 14.0224 128.983 13.8832 129.018 13.804C129.054 13.7202 129.121 13.6336 129.198 13.5491C129.357 13.376 129.549 13.2195 129.772 13.0794L129.932 12.9769C129.982 12.9468 130.03 12.9201 130.074 12.8987C130.159 12.8582 130.254 12.8245 130.346 12.8245C130.406 12.8244 130.521 12.8 130.702 12.7288C130.79 12.6942 130.891 12.6501 131.002 12.597L131.371 12.4085C131.824 12.1617 132.239 12.0153 132.61 11.9856ZM132.085 12.305C131.892 12.3715 131.685 12.4645 131.466 12.5843L131.465 12.5853C131.685 12.4653 131.892 12.3716 132.085 12.305Z" fill="#3971E0"/>
<path fill-rule="evenodd" clip-rule="evenodd" d="M128.074 6.07061C128.199 6.06049 128.317 6.06325 128.418 6.08721C128.579 6.11414 128.744 6.19761 128.91 6.31963L129.077 6.4544L129.084 6.46026C129.448 6.80875 129.608 7.24699 129.564 7.75616C129.538 8.19411 129.344 8.62352 129.007 9.04131L128.854 9.21905C128.597 9.50281 128.368 9.71352 128.171 9.83526L128.16 9.84112C127.956 9.95122 127.729 10.0041 127.485 10.0042C127.238 10.0042 126.989 9.94238 126.74 9.82549C126.498 9.71138 126.276 9.56855 126.075 9.39678L126.07 9.3919C125.876 9.21237 125.738 9.00845 125.673 8.77959C125.611 8.56434 125.642 8.32551 125.733 8.0794C125.826 7.8321 125.986 7.55976 126.205 7.26494C126.655 6.66575 127.117 6.27433 127.596 6.15069L127.854 6.09893C127.932 6.08566 128.006 6.07613 128.074 6.07061ZM128.706 9.08428L128.705 9.08526C128.588 9.21508 128.478 9.32571 128.378 9.41826C128.424 9.37559 128.473 9.3293 128.523 9.27862C128.582 9.21956 128.643 9.15412 128.706 9.08428ZM126.965 9.08526C127.06 9.12522 127.162 9.14726 127.27 9.15166C127.198 9.14869 127.129 9.13719 127.062 9.11846C127.029 9.10912 126.997 9.09755 126.966 9.08428L126.965 9.08526ZM127.909 6.99444L127.901 6.99639L127.895 6.99834C127.854 7.00858 127.775 7.04691 127.654 7.13604C127.537 7.22219 127.394 7.34593 127.225 7.50908L127.224 7.50811C126.866 7.86672 126.705 8.17111 126.685 8.42119C126.674 8.54213 126.7 8.6305 126.749 8.69951C126.8 8.77112 126.889 8.84068 127.037 8.89776L127.043 8.89971C127.23 8.97848 127.472 8.97367 127.788 8.84014L127.79 8.83916C128.116 8.70618 128.328 8.52112 128.448 8.29229L128.452 8.28545C128.593 8.03852 128.64 7.80235 128.607 7.57256L128.606 7.5628C128.584 7.31831 128.496 7.17916 128.368 7.09991C128.134 6.97764 127.991 6.96755 127.909 6.99444ZM126.217 7.59405C125.946 8.00008 125.821 8.33524 125.842 8.59893C125.817 8.29124 125.992 7.88666 126.365 7.38506L126.217 7.59405ZM128.455 8.62725C128.469 8.61224 128.483 8.59786 128.495 8.58233L128.504 8.57061C128.488 8.59009 128.472 8.60858 128.455 8.62725ZM127.845 6.80498C127.825 6.80994 127.804 6.81706 127.781 6.82647L127.845 6.80498C127.865 6.79841 127.886 6.7931 127.907 6.78936L127.845 6.80498Z" fill="#3971E0"/>
<path fill-rule="evenodd" clip-rule="evenodd" d="M117.207 15.1655C117.636 15.2086 117.987 15.4714 118.266 15.896L118.382 16.0884L118.386 16.0952C118.577 16.4783 118.479 16.9494 118.203 17.4595C117.919 17.985 117.507 18.4174 116.973 18.7544L116.971 18.7554C116.422 19.0898 115.961 19.2844 115.607 19.2847C115.229 19.2847 114.9 19.0616 114.616 18.6968L114.443 18.4839C114.065 17.9818 113.874 17.4463 113.887 16.8804L113.888 16.8706L113.888 16.8618C113.911 16.671 113.963 16.498 114.069 16.3716C114.184 16.2346 114.343 16.1753 114.518 16.1851L114.532 16.186L114.582 16.187C114.643 16.1817 114.738 16.1575 114.874 16.1001C115.049 16.0262 115.271 15.9059 115.539 15.7358C116.175 15.3297 116.738 15.1186 117.207 15.1655ZM116.987 16.1245C116.838 16.1245 116.568 16.2042 116.159 16.4019C115.705 16.6487 115.404 16.8868 115.236 17.1099C115.094 17.2987 115.051 17.4702 115.081 17.6352L115.098 17.7056L115.101 17.7163C115.147 17.8991 115.22 18.01 115.306 18.0747C115.391 18.1381 115.512 18.1746 115.688 18.1645C116.067 18.13 116.501 17.9156 116.991 17.478L117.219 17.2554C117.412 17.052 117.516 16.8958 117.555 16.7856C117.596 16.6516 117.573 16.5148 117.435 16.356C117.278 16.1891 117.129 16.1247 116.987 16.1245ZM118.027 17.3647C117.929 17.5459 117.814 17.7148 117.683 17.8726C117.77 17.7684 117.85 17.6598 117.922 17.5454C117.959 17.4867 117.994 17.4262 118.027 17.3647ZM116.906 15.9292C116.708 15.9511 116.428 16.0502 116.066 16.2251C115.133 16.7317 114.746 17.2452 114.906 17.7651C114.826 17.505 114.883 17.2465 115.077 16.9897C115.222 16.7974 115.444 16.606 115.742 16.4155C115.842 16.3519 115.949 16.2885 116.066 16.2251C116.17 16.1751 116.267 16.1317 116.357 16.0942C116.447 16.0567 116.531 16.0255 116.607 16.0005C116.722 15.9632 116.821 15.9386 116.906 15.9292ZM117.587 16.2251L117.515 16.1548C117.5 16.1405 117.484 16.1268 117.469 16.1138C117.508 16.1467 117.548 16.1837 117.587 16.2251ZM118.207 16.1851L118.112 16.0269C118.11 16.0241 118.108 16.0218 118.106 16.019C118.14 16.0713 118.175 16.1265 118.207 16.1851ZM117.187 15.3647C117.283 15.3743 117.375 15.3986 117.464 15.4351C117.421 15.4176 117.378 15.4024 117.334 15.3911L117.187 15.3647Z" fill="#3971E0"/>
<path fill-rule="evenodd" clip-rule="evenodd" d="M122.098 9.98681C122.269 9.96262 122.449 10.0467 122.612 10.1548C122.747 10.2389 122.872 10.3743 122.856 10.5659C122.843 10.7304 122.727 10.8647 122.601 10.9712L122.602 10.9722C122.389 11.1687 122.126 11.265 121.827 11.2651C121.724 11.2651 121.499 11.2967 121.137 11.3706C120.781 11.443 120.308 11.5517 119.717 11.6977L119.718 11.6987C118.697 11.9672 117.551 12.2083 116.28 12.4224C115.245 12.5948 113.862 12.874 112.131 13.2602H112.128C111.301 13.4337 110.669 13.5567 110.234 13.6274C110.018 13.6627 109.846 13.686 109.722 13.6958C109.66 13.7006 109.604 13.7023 109.557 13.6997C109.535 13.6984 109.508 13.6955 109.481 13.689C109.461 13.684 109.415 13.6698 109.373 13.6313L109.372 13.6323C109.37 13.6304 109.367 13.6284 109.365 13.6265L109.366 13.6255C109.303 13.5656 109.245 13.4792 109.248 13.3667C109.25 13.2555 109.31 13.1689 109.37 13.1089C109.486 12.9928 109.688 12.8913 109.936 12.7974L109.94 12.7964C110.495 12.6012 111.567 12.3599 113.146 12.0718L114.894 11.7671C117.689 11.2879 119.822 10.7771 121.298 10.2368C121.511 10.1567 121.685 10.0956 121.816 10.0542C121.882 10.0335 121.94 10.0169 121.988 10.0054C122.023 9.99711 122.062 9.98975 122.098 9.98681ZM112.087 13.0649C111.322 13.2253 110.726 13.3397 110.301 13.4116C110.496 13.3785 110.728 13.3374 110.996 13.2856L112.087 13.0649ZM121.826 11.0649C121.751 11.065 121.634 11.079 121.476 11.105C121.568 11.0899 121.646 11.0781 121.71 11.0718L121.826 11.0649Z" fill="#3971E0"/>
<path fill-rule="evenodd" clip-rule="evenodd" d="M117.5 5.60791C117.859 5.66778 118.153 5.82094 118.362 6.07861C118.583 6.3504 118.642 6.7144 118.585 7.13232C118.525 7.54972 118.326 7.9628 118.004 8.36865L118.002 8.37158C117.29 9.24424 116.567 9.67991 115.861 9.43408L115.858 9.43212C115.478 9.29252 115.218 9.03353 115.101 8.65966C114.989 8.29817 115.015 7.85014 115.153 7.33349L115.155 7.32861C115.251 6.99981 115.372 6.73209 115.528 6.54248C115.682 6.34323 115.917 6.14908 116.22 5.95654L116.223 5.95361C116.682 5.67611 117.112 5.54326 117.5 5.60791ZM115.735 8.26709C115.778 8.43967 115.902 8.55243 116.106 8.60498C116.143 8.6142 116.181 8.61886 116.218 8.62353L116.106 8.60498C115.99 8.57502 115.9 8.52558 115.836 8.45654C115.82 8.43927 115.806 8.42059 115.793 8.40087C115.767 8.36142 115.748 8.31633 115.735 8.26709ZM117.369 6.60498C117.089 6.61127 116.853 6.68101 116.655 6.8081C116.456 6.93598 116.285 7.1295 116.144 7.39794L116.143 7.39697C115.962 7.76073 115.904 8.01171 115.921 8.16845C115.929 8.24073 115.952 8.28698 115.982 8.31982C116.014 8.35368 116.066 8.38763 116.154 8.41064C116.4 8.47207 116.672 8.40838 116.975 8.15966L117.108 8.04052C117.477 7.68391 117.647 7.30671 117.647 6.90478C117.647 6.80484 117.64 6.7327 117.631 6.68408C117.625 6.65607 117.62 6.64248 117.618 6.63818L117.617 6.6372C117.613 6.63507 117.601 6.62933 117.578 6.62353C117.534 6.61253 117.466 6.60511 117.369 6.60498ZM115.523 6.92138C115.52 6.92848 115.516 6.93562 115.513 6.94287C115.538 6.89148 115.564 6.84403 115.591 6.80029L115.523 6.92138Z" fill="#3971E0"/>
<path fill-rule="evenodd" clip-rule="evenodd" d="M99.5312 13.205C99.686 13.1984 99.83 13.2412 99.9531 13.3358C100.075 13.4299 100.167 13.5661 100.235 13.7255C100.376 14.0527 100.393 14.4308 100.308 14.8456L100.307 14.8495C100.254 15.0816 100.214 15.2658 100.188 15.4022C100.161 15.5452 100.151 15.6197 100.151 15.6444V15.6542L100.15 15.6649C100.145 15.7172 100.126 15.7634 100.108 15.7977C100.089 15.8341 100.064 15.8704 100.037 15.9061C99.9833 15.9775 99.9095 16.0601 99.8184 16.1513C99.6352 16.3344 99.3675 16.5705 99.0195 16.8583L99.0156 16.8612C98.5652 17.2189 98.3025 17.467 98.1992 17.6132C98.1218 17.7411 98.0879 17.9003 98.1104 18.1024C98.1229 18.2213 98.1405 18.3078 98.1602 18.3642C98.1675 18.3851 98.1749 18.3991 98.1797 18.4081C98.1825 18.4086 98.186 18.4095 98.1895 18.4101C98.218 18.4143 98.2591 18.4183 98.3125 18.4198C98.4198 18.4228 98.5678 18.4183 98.7578 18.4052L98.96 18.3856C99.3722 18.3354 99.8218 18.22 100.309 18.037L100.556 17.9393C100.914 17.7908 101.216 17.691 101.456 17.6474C101.576 17.6256 101.689 17.6162 101.789 17.6249C101.864 17.6314 101.94 17.6492 102.008 17.6845L102.073 17.7265L102.08 17.7313L102.086 17.7362C102.175 17.8169 102.252 17.9172 102.277 18.038C102.305 18.169 102.265 18.2902 102.189 18.3876L102.183 18.3964C102.115 18.474 102.011 18.5473 101.893 18.6171C101.832 18.6528 101.763 18.6902 101.687 18.7284L101.433 18.8476C101.078 19.0036 100.513 19.1528 99.752 19.2997C98.995 19.459 98.4552 19.5447 98.1514 19.5448H98.1406C97.8316 19.5276 97.5586 19.3633 97.3223 19.0976C97.0874 18.8464 96.9512 18.5673 96.9512 18.2645C96.9512 18.1689 96.9349 18.1246 96.9258 18.1093C96.9227 18.1043 96.922 18.1041 96.9238 18.1054C96.9223 18.1049 96.9183 18.1039 96.9131 18.1034H96.9043L96.8955 18.1015C96.8681 18.0966 96.7907 18.0997 96.6416 18.1386C96.4998 18.1756 96.3149 18.2384 96.0859 18.33C95.9867 18.372 95.8491 18.4122 95.7227 18.3583C95.5647 18.2905 95.5313 18.1325 95.5312 18.0243V18.0126C95.5363 17.9285 95.5786 17.8559 95.6143 17.8046C95.6534 17.7483 95.7061 17.6894 95.7676 17.6288C95.8912 17.507 96.0692 17.3596 96.2969 17.1893C96.7535 16.8477 97.4307 16.3956 98.3252 15.8349L98.3291 15.8329C98.7208 15.5978 98.9648 15.3885 99.0869 15.2108L99.0918 15.205C99.2209 15.0328 99.292 14.8098 99.292 14.5243C99.292 14.3824 99.2855 14.2771 99.2744 14.205C99.2728 14.1948 99.2692 14.1857 99.2676 14.1776C99.2418 14.184 99.2069 14.194 99.1631 14.2108L99.1543 14.2147L99.1445 14.2177C98.5995 14.3663 97.8592 14.8041 96.917 15.5604L96.9121 15.5643C96.5591 15.8308 96.2698 16.0118 96.0576 16.08C95.9573 16.1121 95.8216 16.1362 95.7021 16.0712C95.5989 16.0147 95.5547 15.9201 95.5391 15.8309L95.5312 15.745C95.5312 15.6375 95.5858 15.5393 95.6387 15.4647C95.696 15.384 95.7763 15.2965 95.874 15.204C96.0706 15.018 96.3596 14.7898 96.7354 14.5214C97.4853 13.9725 98.1159 13.6 98.6221 13.4169C98.9814 13.2838 99.2847 13.2075 99.5195 13.205H99.5312ZM96.0107 18.1444C95.9875 18.1544 95.9657 18.1626 95.9453 18.1688L96.0107 18.1444C96.1272 18.0979 96.2345 18.0576 96.3311 18.0243L96.0107 18.1444ZM95.748 18.122C95.7489 18.1238 95.751 18.1251 95.752 18.1268C95.7448 18.1132 95.7387 18.0975 95.7354 18.079L95.748 18.122ZM98.8916 16.705C98.7578 16.8112 98.638 16.9089 98.5332 16.9989C98.5493 16.9851 98.5662 16.9712 98.583 16.9569L98.8916 16.705ZM96.791 15.4042C96.6198 15.5334 96.4686 15.6368 96.3389 15.7167C96.4016 15.678 96.4705 15.635 96.543 15.5849L96.791 15.4042ZM97.8711 14.0038C97.7943 14.0489 97.7157 14.0974 97.6348 14.1483L97.8711 14.0038C97.9478 13.9588 98.0222 13.917 98.0947 13.8778L97.8711 14.0038ZM100.051 13.8046C100.094 13.9057 100.123 14.0138 100.141 14.1288C100.129 14.0537 100.114 13.9812 100.092 13.912C100.08 13.8754 100.066 13.8395 100.051 13.8046ZM99.0908 14.0243C99.0074 14.0471 98.9208 14.0773 98.8301 14.1122C98.8412 14.1079 98.8523 14.1026 98.8633 14.0985L99.0908 14.0243ZM99.1709 13.454C99.031 13.4874 98.8712 13.5378 98.6914 13.6044C98.9613 13.5044 99.1863 13.4419 99.3662 13.4169L99.1709 13.454Z" fill="#3971E0"/>
<path fill-rule="evenodd" clip-rule="evenodd" d="M103.008 8.72548C103.104 8.73292 103.201 8.75083 103.281 8.79384C103.371 8.84254 103.451 8.93299 103.451 9.06435C103.451 9.28259 103.288 9.4347 103.112 9.537C102.928 9.64437 102.667 9.73576 102.341 9.81728C101.982 9.91033 101.144 10.1381 99.8242 10.4979H99.8223C98.4978 10.8458 97.3172 11.1013 96.2822 11.2626C94.8659 11.4744 93.4747 11.7922 92.1113 12.2157C91.7627 12.323 91.4837 12.396 91.2812 12.4315C91.1813 12.4491 91.0902 12.4591 91.0146 12.4569C90.9769 12.4558 90.9341 12.4514 90.8936 12.4393C90.8541 12.4275 90.8001 12.403 90.7578 12.3524L90.7432 12.3349L90.7324 12.3143C90.7092 12.2679 90.7021 12.216 90.6982 12.1815C90.6938 12.1415 90.6904 12.0952 90.6904 12.0448C90.6904 11.9055 90.792 11.8085 90.8594 11.7548C90.9387 11.6916 91.0473 11.63 91.1758 11.5692C91.4353 11.4465 91.8168 11.3073 92.3125 11.1532L93.0703 10.9364C93.8273 10.7346 94.5852 10.5778 95.3428 10.4667L95.3477 10.4657C96.1097 10.3737 97.1551 10.1697 98.4854 9.85048L99.4287 9.61708C100.306 9.39077 100.99 9.18434 101.48 8.99794L101.485 8.99599C101.694 8.92309 101.903 8.865 102.112 8.82314L102.322 8.787C102.592 8.73364 102.823 8.71014 103.008 8.72548ZM92.0508 12.0243C91.7202 12.126 91.4605 12.1924 91.2725 12.2274C91.3621 12.2108 91.4689 12.1889 91.5908 12.1571L92.0508 12.0243ZM96.251 11.0643C96.126 11.083 96.0015 11.1036 95.877 11.1239L96.251 11.0643ZM103.251 9.06435C103.251 9.11564 103.231 9.16457 103.194 9.21278C103.212 9.18968 103.227 9.16724 103.236 9.14345L103.251 9.06435ZM102.541 8.95009C102.481 8.95919 102.418 8.97098 102.352 8.98427C102.485 8.95767 102.604 8.93957 102.711 8.92958L102.541 8.95009Z" fill="#3971E0"/>
<path fill-rule="evenodd" clip-rule="evenodd" d="M98.6416 4.80556C98.9654 4.7761 99.2832 4.88386 99.5879 5.10146C99.7828 5.22813 99.9434 5.38388 99.9873 5.58095C100.013 5.66721 100.021 5.77012 100.021 5.87978C100.021 6.00084 100.011 6.14481 99.9902 6.30946L99.9893 6.30849C99.9598 6.61006 99.872 6.87759 99.7217 7.10634L99.7227 7.10732C99.5876 7.33234 99.3641 7.57329 99.0664 7.83095C98.3943 8.44926 97.7504 8.7413 97.1885 8.48622L97.1865 8.48525C96.638 8.22788 96.4519 7.56306 96.4922 6.67568C96.4991 6.46522 96.5146 6.28595 96.54 6.14052C96.5647 5.99965 96.6014 5.86872 96.665 5.77333L96.6689 5.76747L96.6738 5.76161C96.7397 5.67697 96.8423 5.59301 96.9639 5.50966C97.0886 5.42415 97.2475 5.3302 97.4375 5.22841L97.4385 5.22743C97.9228 4.97189 98.3289 4.82119 98.6416 4.80556ZM98.959 5.79189C98.6094 5.67756 98.3643 5.72327 98.1807 5.87782C98.0854 5.9615 97.9874 6.06477 97.8877 6.18935C97.787 6.31517 97.692 6.44729 97.6035 6.58583C97.5294 6.72234 97.4689 6.85836 97.4199 6.99306C97.3712 7.12702 97.3516 7.22935 97.3516 7.30458C97.3516 7.34644 97.3623 7.36682 97.3721 7.3788C97.3839 7.39298 97.4109 7.41509 97.4707 7.43349C97.591 7.47026 97.76 7.46646 97.9912 7.39345C98.2163 7.3223 98.4263 7.20369 98.6201 7.03407L98.624 7.03017C98.8981 6.80366 99.0489 6.54534 99.0938 6.2538L99.0947 6.24696C99.124 6.09477 99.115 5.99184 99.0898 5.92568C99.0681 5.86896 99.0288 5.82508 98.959 5.79189ZM99.8135 6.06337C99.8085 6.13072 99.801 6.20428 99.791 6.28407C99.7777 6.42417 99.751 6.55463 99.7109 6.6747L99.7617 6.4872C99.7751 6.4223 99.7853 6.35492 99.792 6.28505C99.812 6.12513 99.8213 5.98988 99.8213 5.87978L99.8135 6.06337ZM97.4307 6.48427C97.4773 6.41106 97.5263 6.33935 97.5762 6.26943L97.4307 6.48427ZM99.207 6.58486C99.2137 6.5685 99.2215 6.55263 99.2275 6.53603L99.2324 6.5204C99.2249 6.54223 99.2157 6.56345 99.207 6.58486Z" fill="#3971E0"/>
<path fill-rule="evenodd" clip-rule="evenodd" d="M90.0351 10.5342C90.1069 10.5347 90.1789 10.5413 90.2431 10.5615C90.2906 10.5765 90.3472 10.6028 90.3925 10.6504L90.4335 10.7061L90.4403 10.7178L90.4452 10.7305L90.4853 10.8311L90.4999 10.8662V10.9053C90.4998 10.9698 90.4729 11.02 90.453 11.0498C90.4322 11.081 90.4072 11.1077 90.3837 11.1289C90.3364 11.1715 90.2729 11.2143 90.2021 11.2568L90.2011 11.2559C90.0625 11.3466 89.8758 11.4313 89.6484 11.5117L89.6493 11.5127C89.4324 11.594 89.1953 11.675 88.9394 11.7559L88.9374 11.7568C88.453 11.9028 88.0827 12.0274 87.8241 12.1309C87.6949 12.1826 87.5972 12.2271 87.5292 12.2646C87.4529 12.3068 87.4381 12.3267 87.4433 12.3193L87.4394 12.3252C87.4352 12.3309 87.4183 12.3607 87.4023 12.4365C87.3869 12.509 87.3754 12.608 87.3691 12.7354C87.3564 12.99 87.3663 13.3404 87.3993 13.79C87.4391 14.2397 87.4842 14.5674 87.5341 14.7793C87.5559 14.872 87.5779 14.9328 87.5946 14.9697C87.8411 14.9944 88.0472 15.139 88.2138 15.3584C88.4096 15.5994 88.5193 15.8629 88.5194 16.1445C88.5194 16.4838 88.374 16.8201 88.1171 17.1484C88.0179 17.2752 87.9417 17.378 87.8866 17.457C88.0379 17.4742 88.2677 17.4854 88.58 17.4854C89.0629 17.4854 89.4395 17.5102 89.7001 17.5645C89.8287 17.5913 89.9456 17.6287 90.0351 17.6846C90.1269 17.742 90.2196 17.84 90.2196 17.9854C90.2195 18.1022 90.1619 18.1925 90.0868 18.2588C90.0177 18.3348 89.9206 18.379 89.8271 18.4072C89.7294 18.4367 89.6112 18.4564 89.4775 18.4688C89.2094 18.4934 88.8508 18.4917 88.4071 18.4648H88.4052C87.9578 18.432 87.6001 18.4307 87.33 18.459C87.0529 18.488 86.8964 18.5449 86.8222 18.6025L86.8134 18.6094L86.8046 18.6152C86.5724 18.7587 86.3662 18.8663 86.1894 18.9326C86.0183 18.9967 85.847 19.033 85.6972 19.001L85.6894 18.999L85.6806 18.9961C85.5517 18.9564 85.3996 18.8496 85.2362 18.7129C85.0656 18.57 84.8583 18.3729 84.6161 18.124L84.6132 18.1221L83.5204 16.9541L84.2987 16.6943C84.5892 16.6013 85.0357 16.3071 85.6484 15.7744L85.6513 15.7715L86.5292 15.0391L86.4003 13.7852V13.7822C86.3603 13.316 86.3271 12.964 86.3007 12.7266C86.2907 12.6363 86.2801 12.5641 86.2724 12.5088C86.2623 12.5101 86.251 12.5109 86.2392 12.5127C86.1176 12.5309 85.9363 12.5708 85.6923 12.6367C85.2205 12.7678 84.8367 12.8912 84.54 13.0068C84.2938 13.1162 83.8158 13.306 83.1103 13.5723L83.1054 13.5732C82.6174 13.7447 82.0286 13.9773 81.3378 14.2695L81.3368 14.2686C80.8368 14.4847 80.3915 14.6372 80.0019 14.7207C79.8094 14.762 79.6423 14.7843 79.5087 14.7803C79.3893 14.7767 79.2288 14.75 79.1366 14.6211L79.1278 14.6084L79.121 14.5947C79.0851 14.5229 79.0673 14.4414 79.08 14.3564C79.0924 14.2733 79.1317 14.2018 79.1806 14.1426C79.2732 14.0306 79.4208 13.9408 79.5937 13.8643L79.911 13.7305C80.3251 13.5674 81.0289 13.3165 82.0146 12.9805C82.6752 12.7553 83.4663 12.4908 84.3866 12.1865L87.538 11.1543C88.3727 10.8806 89.0197 10.6959 89.4745 10.6035C89.7006 10.5576 89.8902 10.5332 90.0351 10.5342ZM85.7948 18.8115C85.7977 18.8117 85.8007 18.8105 85.8036 18.8105C85.7806 18.8099 85.7591 18.809 85.7392 18.8047L85.7948 18.8115ZM87.3222 16.1045C86.839 16.1169 86.3436 16.341 85.8349 16.8115C85.6019 17.0256 85.5082 17.1986 85.4931 17.3281C85.4798 17.4417 85.5226 17.567 85.6874 17.7109C85.8004 17.8006 85.8658 17.8101 85.8944 17.8066C85.9557 17.7989 86.0908 17.7461 86.3183 17.6123L86.3212 17.6104C86.9212 17.2728 87.3049 16.8119 87.4882 16.2256L87.4911 16.2168L87.495 16.208C87.5094 16.1736 87.5188 16.145 87.5253 16.1221V16.1191C87.4816 16.1108 87.4153 16.1046 87.3222 16.1045ZM88.579 17.6846C88.818 17.6846 89.0275 17.6907 89.2069 17.7031C89.1176 17.6969 89.0209 17.6926 88.9169 17.6895C88.8121 17.6863 88.6988 17.6846 88.579 17.6846ZM87.9589 17.0254C87.8172 17.2065 87.718 17.3438 87.6601 17.4365C87.6935 17.3829 87.7404 17.3143 87.8017 17.2314L87.9589 17.0254ZM85.4687 16.9141C85.4588 16.9272 85.4504 16.9411 85.4413 16.9541C85.4691 16.9141 85.4996 16.8729 85.5351 16.832L85.4687 16.9141ZM87.5741 15.9258C87.6373 15.9391 87.6792 15.9587 87.6991 15.9854L87.6532 15.9502C87.6116 15.9301 87.5481 15.9168 87.4628 15.9102L87.5741 15.9258ZM81.2587 14.085C80.7655 14.2982 80.3321 14.4454 79.9589 14.5254C79.784 14.5629 79.6426 14.5787 79.5351 14.5781C79.5853 14.5784 79.643 14.5764 79.7079 14.5684L79.9589 14.5254C80.2389 14.4654 80.5537 14.3676 80.9013 14.2324C81.0169 14.1875 81.1356 14.1382 81.2587 14.085ZM85.6396 12.4453C85.1596 12.5786 84.7656 12.7052 84.4589 12.8252C84.2188 12.9319 83.7453 13.1182 83.039 13.3848C82.7727 13.4783 82.4777 13.5903 82.1532 13.7188C82.3273 13.6498 82.493 13.5853 82.6503 13.5264L83.039 13.3848C83.3922 13.2515 83.6881 13.1382 83.9247 13.0449C84.1614 12.9517 84.3389 12.8785 84.4589 12.8252C84.7656 12.7052 85.1596 12.5786 85.6396 12.4453ZM89.579 11.3252C89.3657 11.4052 89.1321 11.4855 88.8788 11.5654C88.636 11.6386 88.4204 11.7063 88.2323 11.7695L88.8788 11.5654C89.1321 11.4855 89.3657 11.4052 89.579 11.3252ZM90.2987 10.9053C90.2987 10.9151 90.2951 10.9262 90.287 10.9385L90.2987 10.9053Z" fill="#3971E0"/>
<path fill-rule="evenodd" clip-rule="evenodd" d="M87.9394 6.38477C88.1453 6.3848 88.3634 6.45147 88.4472 6.6748C88.479 6.75994 88.494 6.89384 88.5038 7.04688C88.5142 7.20954 88.5194 7.42287 88.5194 7.68457C88.5194 8.49757 88.438 9.23476 88.2734 9.89355C88.1916 10.2137 88.1 10.4748 87.995 10.666C87.8941 10.8499 87.7579 11.011 87.5683 11.0586L87.5546 11.0625L87.5419 11.0635C87.4718 11.0713 87.4014 11.0732 87.3368 11.0625C87.2729 11.0518 87.1974 11.0265 87.1376 10.9668L87.1151 10.9434L87.1005 10.9141C87.0601 10.8331 87.0635 10.7422 87.0712 10.6768C87.0798 10.6039 87.0998 10.5201 87.1278 10.4287C87.2571 9.96257 87.3683 9.34771 87.4609 8.58105L87.4618 8.57715C87.5149 8.19222 87.5466 7.90137 87.5595 7.70215C87.5638 7.6354 87.5624 7.58136 87.5624 7.53906C87.533 7.54064 87.4965 7.54165 87.453 7.54785C87.3031 7.56928 87.0911 7.61821 86.8144 7.69727L86.0907 7.9375L85.8153 9.20703L85.8144 9.21094C85.6284 9.99451 85.457 10.5582 85.3007 10.8867L85.3017 10.8877C85.1645 11.1894 84.962 11.4452 84.6591 11.4453C84.5635 11.4453 84.4637 11.4347 84.3808 11.3965C84.3368 11.3762 84.2898 11.3445 84.2538 11.2949C84.2164 11.243 84.1991 11.1834 84.1991 11.125C84.1991 11.0383 84.2343 10.923 84.2763 10.8066C84.3216 10.6812 84.3883 10.5216 84.4745 10.3291C84.5488 10.1295 84.6318 9.82281 84.7235 9.40332C84.816 8.96767 84.8746 8.60961 84.9003 8.32715C84.9095 8.22604 84.9101 8.14519 84.9081 8.08301C84.8891 8.09215 84.8679 8.10187 84.8456 8.11328C84.709 8.1832 84.5222 8.29003 84.2841 8.43555L84.2802 8.4375C83.8039 8.71531 83.4169 8.96465 83.1181 9.18555C82.9592 9.31035 82.8159 9.4118 82.6894 9.48633C82.5643 9.55994 82.4431 9.6154 82.3319 9.63672C82.2193 9.65824 82.0809 9.64928 81.9765 9.54492C81.8814 9.44958 81.8593 9.31713 81.8593 9.20508C81.8593 9.07691 81.9253 8.96335 81.9999 8.87207C82.0776 8.77713 82.1864 8.67971 82.3193 8.58008C82.5861 8.37998 82.9781 8.14846 83.4882 7.88672C84.0052 7.61821 84.4421 7.42363 84.7958 7.30566C85.1385 7.19145 85.438 7.13666 85.663 7.18945C85.919 7.2476 86.0696 7.20366 86.164 7.11719L86.1698 7.1123C86.3627 6.9491 86.6339 6.79398 86.9726 6.64453C87.3214 6.47713 87.6456 6.3848 87.9394 6.38477ZM87.5194 10.8652C87.4893 10.8686 87.4615 10.8692 87.4364 10.8691L87.4374 10.8701L87.5194 10.8652ZM85.1191 10.8047L85.204 10.6064C85.2093 10.5929 85.2133 10.5786 85.2187 10.5645C85.1841 10.6562 85.1516 10.7366 85.1191 10.8047ZM87.8925 10.415C87.9355 10.315 87.9786 10.1992 88.0185 10.0664C88.0393 9.99711 88.06 9.92296 88.08 9.84473C88.0217 10.073 87.9578 10.2629 87.8925 10.415ZM87.6249 7.33691C87.4673 7.32955 87.1783 7.38501 86.7587 7.50488C87.0382 7.42505 87.2606 7.37394 87.4237 7.35059C87.5054 7.33894 87.5724 7.33442 87.6249 7.33691ZM84.995 7.83203C84.942 7.84578 84.8619 7.87981 84.7548 7.93457C84.8972 7.8619 84.9921 7.82561 85.039 7.8252L84.995 7.83203ZM88.2587 6.74512C88.2778 6.79616 88.2927 6.89437 88.3026 7.04004C88.2979 6.97029 88.2929 6.91133 88.286 6.86328L88.2587 6.74512C88.2537 6.73185 88.2482 6.71963 88.2411 6.70801L88.2587 6.74512Z" fill="#3971E0"/>
<path fill-rule="evenodd" clip-rule="evenodd" d="M72.0933 5.52818C72.2351 5.48164 72.3745 5.51247 72.4859 5.60826C72.584 5.69286 72.6526 5.82042 72.7037 5.95983C72.7562 6.1034 72.7991 6.28224 72.8335 6.49205L72.8355 6.50865V6.57604C72.9058 7.11174 72.9501 8.45346 72.9673 10.5907L72.9761 13.0243C72.9828 14.9168 73.0009 16.4151 73.0308 17.5194C73.0606 18.6189 73.102 19.3147 73.1519 19.6229L73.2232 20.0057C73.2815 20.3677 73.2974 20.6664 73.2632 20.8944C73.2403 21.0471 73.1925 21.19 73.0992 21.2967C72.9992 21.411 72.8636 21.4646 72.7154 21.4647C72.6033 21.4646 72.5133 21.4103 72.4488 21.3417C72.3872 21.276 72.3414 21.1899 72.3052 21.0985C72.2325 20.9148 72.1779 20.6545 72.1373 20.3299V20.326C72.0694 19.6882 72.0295 18.505 72.0162 16.786V16.2665L71.9976 15.4061C71.9885 15.1543 71.9762 14.9374 71.9615 14.7557C71.9468 14.5743 71.9299 14.4309 71.9107 14.3241C71.8905 14.2117 71.8704 14.1596 71.8619 14.1444L71.857 14.1356C71.8556 14.1349 71.8531 14.1338 71.8501 14.1327C71.8317 14.126 71.7918 14.1185 71.7212 14.1239C71.5834 14.1345 71.3784 14.1888 71.0992 14.2987C71.0705 14.3229 71.0399 14.3458 71.0054 14.3631L70.9634 14.3846H70.9234C70.8893 14.4015 70.8506 14.4157 70.8101 14.4296C69.7457 14.8607 68.1836 15.3573 66.1285 15.9178C65.101 16.1914 64.3097 16.3847 63.7603 16.496C63.4868 16.5513 63.2673 16.5872 63.106 16.6024C63.0261 16.6099 62.9529 16.6134 62.8921 16.6092C62.8619 16.6071 62.8283 16.6023 62.7964 16.5936C62.7666 16.5854 62.7226 16.569 62.6832 16.534L62.6753 16.5272L62.6685 16.5204C62.6037 16.4501 62.5538 16.3552 62.5601 16.2411C62.5662 16.131 62.6231 16.0417 62.6871 15.9755C62.8099 15.8483 63.0211 15.7386 63.2837 15.6376L63.2886 15.6366C63.712 15.4864 64.3875 15.297 65.3082 15.0702L65.3121 15.0692C66.2653 14.8573 67.3681 14.5592 68.6177 14.1737C69.8816 13.7879 70.8754 13.4493 71.6011 13.159L71.605 13.1581L72.0562 12.9862V10.1649C72.0562 9.18067 72.0329 8.40315 71.9869 7.83092C71.9638 7.54476 71.9352 7.31267 71.9019 7.13365C71.8679 6.95053 71.8308 6.83765 71.7994 6.77916C71.6019 6.42473 71.5358 6.06449 71.7584 5.78111L71.7642 5.7733C71.8597 5.66319 71.9692 5.56908 72.0933 5.52818ZM72.4898 21.0243C72.492 21.0298 72.4954 21.0346 72.4976 21.0399C72.4794 20.9961 72.4612 20.9462 72.4449 20.8895L72.4898 21.0243ZM72.7203 7.96861C72.7567 9.08106 72.775 10.7663 72.775 13.0243C72.7776 13.7884 72.7851 14.4889 72.7916 15.1249L72.775 13.0243C72.775 12.1212 72.7729 11.3096 72.7671 10.5897C72.7584 9.50981 72.7421 8.6361 72.7203 7.96861ZM72.355 5.75963C72.4751 5.86282 72.5686 6.1176 72.6353 6.52428C72.5936 6.26989 72.5418 6.07489 72.4791 5.93932C72.4417 5.85838 72.3998 5.79831 72.355 5.75963Z" fill="#3971E0"/>
<path fill-rule="evenodd" clip-rule="evenodd" d="M66.4585 8.56236C67.094 8.10272 67.6782 7.8928 68.1666 8.07799C68.6815 8.25882 68.8755 8.81363 68.8755 9.54479C68.8755 10.1981 68.6826 10.8321 68.3072 11.4452L68.3082 11.4462C67.947 12.0573 67.5098 12.4822 66.9898 12.6903L66.9888 12.6913C66.6159 12.8372 66.2092 12.7878 65.7886 12.5848L65.7867 12.5838C65.3806 12.3808 65.0827 12.097 64.9136 11.7284L64.9087 11.7176C64.8095 11.4623 64.7634 11.2219 64.7984 11.0116C64.8314 10.8016 64.9671 10.4822 65.1783 10.0731C65.5104 9.43652 65.9364 8.92982 66.4585 8.56236ZM66.1724 11.8397C66.1469 11.8303 66.1215 11.8195 66.0962 11.8075L66.0162 11.7645C66.0427 11.7803 66.0695 11.7947 66.0962 11.8075L66.1724 11.8397ZM67.7154 9.10436C67.4305 9.10452 67.0862 9.27236 66.6812 9.67272L66.5044 9.85826C66.0405 10.3738 65.8356 10.828 65.8355 11.2245C65.8355 11.3071 65.8567 11.3715 65.8941 11.4247C65.9328 11.4796 65.9976 11.5348 66.1011 11.5838L66.1099 11.5878L66.1177 11.5926C66.2853 11.6921 66.4509 11.7136 66.6255 11.663C66.8083 11.6098 67.0174 11.4731 67.2505 11.2274L67.2525 11.2255C67.7245 10.7409 67.9556 10.1832 67.9556 9.54479C67.9556 9.34581 67.9416 9.23488 67.9263 9.18834C67.92 9.1694 67.9137 9.15963 67.9107 9.15611C67.9086 9.15367 67.9059 9.15192 67.9019 9.15026L67.8765 9.14049L67.856 9.12486C67.8553 9.12447 67.8469 9.11904 67.8257 9.11412C67.8013 9.10851 67.7648 9.10438 67.7154 9.10436ZM65.6744 11.4315C65.6596 11.3937 65.6481 11.3543 65.6421 11.3124L65.6363 11.2245C65.6363 11.2995 65.6496 11.3682 65.6744 11.4315ZM66.355 9.72447C66.3207 9.7626 66.2892 9.80192 66.2574 9.83971L66.355 9.72447C66.4167 9.6562 66.4782 9.59183 66.5386 9.53209L66.355 9.72447ZM67.7154 8.90514L67.7994 8.90807C67.8312 8.91116 67.8597 8.91673 67.8853 8.92369C67.8391 8.91119 67.7825 8.90514 67.7154 8.90514ZM68.0953 8.26451C68.192 8.29786 68.2766 8.34974 68.3492 8.41979C68.313 8.38478 68.2742 8.35384 68.232 8.32799C68.2107 8.31498 68.1884 8.30353 68.1656 8.29283C68.1432 8.28233 68.1191 8.27277 68.0953 8.26451Z" fill="#3971E0"/>
<path fill-rule="evenodd" clip-rule="evenodd" d="M61.4427 6.92383C61.6874 6.92399 61.8746 7.05788 61.9993 7.26855C62.1175 7.46871 62.1876 7.74792 62.2219 8.08496C62.2897 8.75056 62.336 10.6092 62.3626 13.6436C62.3759 16.6241 62.3565 18.4119 62.302 18.9844L62.301 18.9834C62.2802 19.2775 62.23 19.5247 62.1341 19.7041C62.0318 19.8952 61.867 20.0251 61.6428 20.0254C61.5663 20.0254 61.5157 19.9835 61.4944 19.9609C61.4736 19.9388 61.4622 19.9158 61.4573 19.9053C61.4474 19.8839 61.4429 19.8631 61.4407 19.8535C61.4357 19.8317 61.4316 19.806 61.429 19.7832C61.4235 19.7349 61.4189 19.6663 61.4143 19.5811C61.405 19.4081 61.3963 19.1498 61.388 18.8096C61.3713 18.1285 61.3564 17.1077 61.343 15.749L61.303 13.9268C61.2897 13.405 61.2763 12.9679 61.263 12.6172C61.2497 12.2668 61.236 12.0033 61.2229 11.8262C61.2189 11.7715 61.214 11.7257 61.2102 11.6895C61.1983 11.6898 61.1844 11.6882 61.1692 11.6895C61.0661 11.6981 60.9153 11.7252 60.7132 11.7773C59.7863 12.0241 59.0808 12.1997 58.5989 12.3008C58.3591 12.3511 58.1686 12.384 58.0325 12.3984C57.966 12.4055 57.9032 12.409 57.8509 12.4053C57.8253 12.4034 57.7912 12.3999 57.7581 12.3887C57.7305 12.3792 57.6756 12.3537 57.637 12.2949L57.636 12.2959C57.6343 12.2933 57.6327 12.2898 57.6311 12.2871L57.6292 12.2842C57.5927 12.2216 57.5921 12.1563 57.5979 12.1152C57.6043 12.0707 57.6202 12.0291 57.636 11.9951C57.6681 11.9264 57.7198 11.8483 57.7825 11.7646L57.7884 11.7568L57.7952 11.75C57.9811 11.5472 58.3211 11.3884 58.7649 11.2539L58.7737 11.251C58.8771 11.2251 59.0218 11.1858 59.2073 11.1328L59.2112 11.1318C59.4114 11.0785 59.6385 11.0178 59.8919 10.9512C60.155 10.8722 60.3535 10.8131 60.4856 10.7734L61.3626 10.5146V9.3877C61.356 8.9601 61.3295 8.61975 61.2854 8.36426C61.24 8.10161 61.1796 7.95659 61.1272 7.8916L61.1233 7.88672C61.0313 7.76644 60.96 7.64848 60.9231 7.53809C60.8863 7.42743 60.8746 7.28889 60.9602 7.16895L60.9622 7.16504C61.08 7.00801 61.2464 6.92383 61.4427 6.92383Z" fill="#3971E0"/>
<path fill-rule="evenodd" clip-rule="evenodd" d="M55.0423 9.78516C55.176 9.78527 55.2964 9.84195 55.3762 9.95508C55.4468 10.0556 55.475 10.1839 55.4827 10.3125L55.4866 10.5508C55.4842 10.8559 55.4619 11.3609 55.4221 12.0566V12.0596C55.3957 12.4173 55.3758 12.7621 55.3626 13.0928V13.8242C55.4062 13.8081 55.4575 13.7908 55.5149 13.7686C55.7355 13.6829 56.052 13.5537 56.4641 13.3809L56.9934 13.1611C57.4917 12.9609 57.8946 12.8217 58.1995 12.7461C58.4 12.6964 58.5754 12.6699 58.7132 12.6797C58.8433 12.689 59.0258 12.742 59.0764 12.9346L59.0823 12.959V12.9854C59.0821 13.0654 59.0506 13.1339 59.0169 13.1846C58.9822 13.2365 58.9357 13.2853 58.885 13.3301C58.7837 13.4197 58.6399 13.5156 58.4622 13.6182L58.4612 13.6172C58.1254 13.8183 57.8264 13.9452 57.5823 13.9453C57.5799 13.9455 57.572 13.9465 57.5589 13.9492C57.5407 13.953 57.5159 13.9592 57.4846 13.9688C57.4213 13.9881 57.3372 14.0183 57.2317 14.0605C57.0206 14.145 56.7335 14.2737 56.3684 14.4463L56.3675 14.4453C55.9727 14.6458 55.6412 14.7924 55.3753 14.8799C55.2418 14.9238 55.1196 14.955 55.012 14.9697C54.9068 14.984 54.8008 14.9847 54.7063 14.957L54.7034 14.9561C54.4951 14.891 54.3947 14.7001 54.3518 14.502C54.3085 14.3009 54.3099 14.0365 54.344 13.7227C54.3566 13.6091 54.3963 12.9574 54.4632 11.7539C54.4831 11.1828 54.4996 10.7498 54.513 10.4561C54.5196 10.3094 54.5254 10.1958 54.5305 10.1172C54.5331 10.0784 54.5359 10.0457 54.5384 10.0215C54.5395 10.0099 54.5406 9.99735 54.5423 9.98633C54.5431 9.98102 54.5444 9.97289 54.5462 9.96484C54.5463 9.96408 54.5467 9.96186 54.5471 9.95996C54.5575 9.91412 54.5831 9.88103 54.6028 9.86133C54.6263 9.83783 54.6501 9.8251 54.6624 9.81934C54.6872 9.80776 54.7108 9.80203 54.7219 9.7998C54.7475 9.79472 54.7771 9.79184 54.804 9.79004C54.8608 9.78627 54.9417 9.78516 55.0423 9.78516ZM57.5823 13.7441C57.5657 13.7442 57.5446 13.7476 57.5188 13.7529L57.5823 13.7441C57.6056 13.7441 57.63 13.7434 57.6555 13.7402L57.5823 13.7441ZM58.8821 12.9844C58.8821 13.0104 58.8714 13.0388 58.8509 13.0703C58.8607 13.0552 58.8692 13.0412 58.8743 13.0273C58.8797 13.0127 58.883 12.9986 58.8831 12.9854L58.8821 12.9844Z" fill="#3971E0"/>
<path fill-rule="evenodd" clip-rule="evenodd" d="M47.9443 16.0367C48.0356 16.0482 48.1171 16.0869 48.1895 16.1393C48.3124 16.2113 48.4054 16.3147 48.4707 16.442L48.5293 16.5817L48.5312 16.5875C48.5816 16.7557 48.5867 16.9402 48.5566 17.1354C48.5404 17.2414 48.5423 17.3616 48.5645 17.4967L48.5938 17.6363V17.6383C48.7436 18.2652 48.7653 18.7943 48.6289 19.2057C48.4816 19.6638 48.0669 19.9899 47.4688 20.2125L47.416 20.232L47.3604 20.2213L46.8604 20.1207L46.1221 19.9733L46.8359 19.735C47.0644 19.6588 47.3676 19.5512 47.7461 19.4127C47.8018 19.354 47.8305 19.3161 47.8408 19.2955L47.8486 19.2799L47.8594 19.2652C47.8866 19.2289 47.8996 19.1989 47.9053 19.1764L47.9111 19.1549L47.9209 19.1354C47.9333 19.1103 47.9557 19.0361 47.9824 18.8893L47.9834 18.8834C48.0239 18.6943 48.039 18.5869 48.0391 18.5445V18.525L48.0439 18.5006C48.0442 18.4973 48.044 18.492 48.0439 18.4859C48.0439 18.4731 48.0436 18.4554 48.041 18.4332C48.0357 18.3879 48.0245 18.3283 48.0059 18.2535L48.0029 18.2438L48.001 18.233C47.995 18.1909 47.9871 18.1543 47.9814 18.1227C47.9387 18.1421 47.8925 18.1566 47.8418 18.1598C47.7321 18.1666 47.6325 18.1275 47.5488 18.0719C47.3868 17.9639 47.2538 17.7806 47.1406 17.5543L47.1357 17.5455L47.1328 17.5358C47.0089 17.2104 47.0122 16.8914 47.1602 16.5953C47.2156 16.4845 47.3029 16.3847 47.4092 16.2936C47.5 16.2036 47.5886 16.1273 47.6699 16.0865C47.7546 16.0442 47.8476 16.0246 47.9443 16.0367ZM47.7256 17.941C47.7296 17.9427 47.7343 17.9425 47.7383 17.944C47.7129 17.9347 47.6859 17.9227 47.6592 17.9049L47.7256 17.941ZM48.293 16.5338C48.3029 16.5532 48.3107 16.5741 48.3193 16.5953C48.2956 16.5366 48.2685 16.4844 48.2344 16.4401L48.293 16.5338ZM47.2998 16.776L47.2734 16.857C47.2728 16.8593 47.2721 16.8616 47.2715 16.8639C47.2792 16.8343 47.2889 16.805 47.2998 16.776Z" fill="#3971E0"/>
<path fill-rule="evenodd" clip-rule="evenodd" d="M39.8066 7.26578C39.8808 7.22869 39.9622 7.2268 40.0381 7.25601L40.0391 7.25503C40.0441 7.25672 40.0488 7.26001 40.0537 7.26187C40.0574 7.26352 40.0618 7.26395 40.0654 7.26578L40.0645 7.26675C40.1279 7.29318 40.1794 7.33398 40.2197 7.38492C40.2496 7.41512 40.2772 7.4502 40.3027 7.48843L40.375 7.61539L40.3828 7.63003L40.3877 7.64566L40.4229 7.76089L41.0303 7.74527C41.5126 7.73223 42.4764 7.63927 43.9297 7.46597C44.6381 7.37241 45.1863 7.31852 45.5693 7.30484C45.7649 7.2981 45.9237 7.29763 46.043 7.30484C46.1023 7.30843 46.1568 7.31437 46.2031 7.32339C46.2222 7.32712 46.2476 7.33249 46.2744 7.34195L46.3564 7.38492L46.3672 7.39371L46.3779 7.40347C46.4989 7.5248 46.5091 7.70775 46.4951 7.86246L46.4941 7.86148C46.4855 8.00742 46.3687 8.09399 46.2988 8.13589L46.2852 8.14371C46.2013 8.18549 46.0896 8.20693 45.9697 8.22085L45.9707 8.22183C45.9692 8.22209 45.9674 8.22156 45.9658 8.22183C45.9633 8.22213 45.9606 8.2235 45.958 8.22378L45.957 8.22281C45.7044 8.26511 44.97 8.33181 43.7715 8.423L43.7725 8.42398C42.7006 8.51053 41.8789 8.59711 41.3057 8.68277C41.0186 8.72567 40.7983 8.768 40.6416 8.80874C40.5633 8.82911 40.5048 8.84754 40.4639 8.86441C40.448 8.87094 40.4363 8.87604 40.4287 8.88003C40.4244 8.89305 40.4191 8.91202 40.4131 8.93765C40.3972 9.00571 40.3806 9.10578 40.3643 9.23941C40.3319 9.50526 40.3019 9.8887 40.2754 10.3918L40.2764 10.3927C40.2631 10.711 40.2415 10.9923 40.2148 11.2355C40.2014 11.4632 40.1894 11.6533 40.1758 11.8029L40.1748 11.8019C40.1745 11.864 40.1744 11.9189 40.1709 11.965C40.1677 12.0059 40.1599 12.0512 40.1484 12.0919L40.1504 12.0929C40.1356 12.152 40.1314 12.1957 40.1309 12.2257C40.133 12.2271 40.1349 12.2292 40.1377 12.2306C40.1891 12.2378 40.2788 12.2443 40.416 12.2443C40.5664 12.2443 40.7723 12.2316 41.0361 12.2052C41.5361 12.1579 41.9466 12.1566 42.2578 12.2072C42.5534 12.2553 42.8129 12.3595 42.9424 12.5734L42.9434 12.5753C42.9454 12.5787 42.9483 12.5817 42.9502 12.5851H42.9482C42.9846 12.6424 43.0166 12.7136 43.0166 12.7951C43.0165 12.8777 42.9834 12.9481 42.9355 13.0041C42.9298 13.0117 42.9242 13.0196 42.918 13.0265L42.917 13.0255C42.867 13.0813 42.803 13.1176 42.7451 13.1408C42.677 13.168 42.5964 13.1877 42.5088 13.2023L42.5029 13.2033C42.1973 13.2449 41.5777 13.27 40.6572 13.2834C40.6026 13.2955 40.5486 13.3048 40.4961 13.3048C40.4787 13.3048 40.4601 13.3077 40.4395 13.3146L40.4082 13.3244H40.2637L40.2236 13.3449H40.1836L40.1436 13.3644H40.124L40.1162 13.3673C40.1159 13.3684 40.1156 13.3702 40.1152 13.3712C40.0977 13.4195 40.0783 13.493 40.0576 13.5949C40.0163 13.7984 39.9753 14.0939 39.9355 14.4845C39.8563 15.2509 39.803 16.1729 39.7764 17.2492C39.7763 17.531 39.7692 17.8329 39.7559 18.1535V19.1173L39.7461 19.1476C39.7262 19.207 39.6688 19.3179 39.542 19.34C39.4923 19.3543 39.4457 19.3524 39.4131 19.3478C39.3752 19.3424 39.3374 19.3307 39.3018 19.3175C39.1151 19.287 38.975 19.1715 38.8848 19.0041C38.7947 18.8364 38.7503 18.614 38.7363 18.3556C38.7088 17.8323 38.7643 16.8434 38.8975 15.4054C38.9374 14.9923 38.9704 14.6452 38.9971 14.3654C39.0235 14.0747 39.0361 13.8549 39.0361 13.7043V13.6974L39.0371 13.6896C39.0428 13.6151 39.0443 13.5574 39.0449 13.5158C39.0347 13.5137 39.023 13.5099 39.0088 13.508C38.9086 13.4941 38.7509 13.491 38.5283 13.5041C38.2921 13.5172 38.1108 13.5374 37.9834 13.5617C37.9198 13.5738 37.8736 13.5854 37.8428 13.5968C37.8092 13.6093 37.808 13.6158 37.8174 13.6066L37.8076 13.6164L37.7959 13.6252C37.6364 13.7446 37.4443 13.7759 37.2432 13.7423L37.2275 13.7384C37.1366 13.7157 37.0472 13.6828 36.9766 13.63C36.9002 13.5728 36.836 13.4829 36.8359 13.3644C36.8361 13.0888 37.0503 12.9086 37.3027 12.7931C37.5636 12.6739 37.9375 12.5873 38.4102 12.5265L38.4229 12.5246H38.4365C38.4906 12.5245 38.5604 12.5194 38.6475 12.507L38.6592 12.505C38.8071 12.4927 38.916 12.4737 38.9912 12.4533C39.0272 12.4393 39.0498 12.4275 39.0615 12.4181C39.0725 12.4093 39.072 12.4061 39.0703 12.4103L39.0859 12.3722L39.1123 12.3449C39.1145 12.3404 39.1183 12.3314 39.1221 12.3166C39.133 12.273 39.1453 12.2069 39.1582 12.1164C39.1712 12.0257 39.1841 11.9211 39.1973 11.8029C39.2102 11.6866 39.2233 11.55 39.2363 11.3937V11.1652L39.2402 11.1457C39.2522 11.0856 39.264 11.0296 39.2764 10.9787C39.3224 10.2663 39.3483 9.72785 39.3516 9.36246C39.3532 9.17844 39.349 9.04313 39.3408 8.95328C39.3392 8.95339 39.3376 8.95413 39.3359 8.95425C39.2555 8.96021 39.141 8.97588 38.9902 9.0021L38.9805 9.00406L38.9561 8.80484L38.9795 9.00308C38.6885 9.0381 38.5569 9.14497 38.501 9.28042L38.5 9.27945C38.4895 9.30683 38.4727 9.34111 38.4414 9.37124C38.4016 9.4095 38.3501 9.43259 38.2949 9.4357C38.2024 9.44083 38.1323 9.39066 38.1025 9.36734C38.0308 9.31094 37.9533 9.21342 37.873 9.09976L37.8701 9.09585L37.8301 9.03531C37.7769 8.9555 37.7366 8.8956 37.71 8.85562L37.7031 8.84488L37.6973 8.83414C37.6699 8.77939 37.6359 8.70256 37.6357 8.62515V8.59976L37.6426 8.57632C37.6819 8.41895 37.8007 8.31279 37.9424 8.23941L38.0889 8.17593C38.3038 8.08624 38.5916 8.03189 38.9404 8.00503C39.077 7.99199 39.185 7.97935 39.2656 7.96695C39.306 7.96073 39.338 7.95475 39.3623 7.94937C39.3689 7.94791 39.3749 7.94576 39.3799 7.94449C39.382 7.94176 39.3858 7.93851 39.3887 7.93374C39.3988 7.91634 39.4107 7.88662 39.4209 7.84097C39.4515 7.67751 39.508 7.53077 39.6025 7.41714L39.6191 7.39664L39.6396 7.38199L39.7803 7.28238L39.793 7.27261L39.8066 7.26578ZM39.3564 19.1252C39.3897 19.1384 39.4181 19.1464 39.4414 19.1496L39.3564 19.1252C39.3249 19.1218 39.2947 19.1142 39.2666 19.1037L39.3564 19.1252ZM39.0957 15.425C39.0624 15.7848 39.0341 16.1156 39.0107 16.4171C38.9896 16.6908 38.9728 16.9405 38.96 17.1662C38.9872 16.6917 39.0321 16.1117 39.0957 15.425ZM37.6758 13.465C37.6238 13.5039 37.5656 13.5285 37.501 13.5421C37.5323 13.5355 37.5625 13.5274 37.5908 13.5148C37.6208 13.5015 37.6491 13.4849 37.6758 13.465ZM42.8057 12.7423C42.8255 12.7971 42.816 12.8441 42.7764 12.8839C42.7364 12.9372 42.6363 12.9774 42.4766 13.0041C42.38 13.0172 42.2481 13.027 42.082 13.0373C42.1221 13.0348 42.1603 13.035 42.1963 13.0324L42.4766 13.0041C42.6363 12.9774 42.7364 12.9372 42.7764 12.8839C42.8029 12.8574 42.8163 12.8283 42.8164 12.7951C42.8165 12.7784 42.8123 12.7607 42.8057 12.7423ZM39.1855 12.5744C39.1689 12.5877 39.1496 12.5998 39.1279 12.6115C39.1064 12.6231 39.0822 12.6347 39.0557 12.6447C39.1358 12.6146 39.1935 12.5765 39.2285 12.5314L39.1855 12.5744ZM40.1914 9.0314C40.1477 9.30012 40.1095 9.751 40.0762 10.3839C40.1028 9.87706 40.1326 9.48752 40.166 9.21402C40.1743 9.14584 40.1827 9.08505 40.1914 9.0314ZM43.7559 8.22476C42.1328 8.35582 41.074 8.48725 40.5791 8.61831C40.9105 8.53058 41.4947 8.44238 42.332 8.35464C42.7451 8.31135 43.2197 8.26806 43.7559 8.22476ZM37.957 8.46304C37.9515 8.46704 37.9466 8.47165 37.9414 8.47574C37.967 8.45553 37.9968 8.43612 38.0312 8.41812L37.957 8.46304ZM46.1963 7.96402C46.1695 7.9774 46.1344 7.99013 46.0908 8.00015L46.1963 7.96402ZM46.2959 7.8439C46.2959 7.85568 46.2919 7.86727 46.2861 7.87906C46.2869 7.87747 46.2894 7.87673 46.29 7.87515L46.2959 7.8439Z" fill="#3971E0"/>
<path fill-rule="evenodd" clip-rule="evenodd" d="M30.6431 7.831L30.857 7.84467L30.8668 7.84564C31.3371 7.91095 31.9564 7.95777 32.7261 7.98432L32.7252 7.98529C33.1087 7.99187 33.4209 7.98919 33.6617 7.97943C33.9068 7.96948 34.0658 7.95187 34.1509 7.93061L34.1548 7.92963C34.3117 7.894 34.4563 7.87631 34.5826 7.88471C34.677 7.89104 34.771 7.91267 34.8531 7.95893L34.9312 8.01361L34.941 8.0224L35.0211 8.10932C35.0397 8.13104 35.0556 8.15347 35.0709 8.17475C35.1232 8.23038 35.1675 8.30496 35.1754 8.3974H35.1773C35.1779 8.40165 35.177 8.40682 35.1773 8.41107C35.1775 8.41533 35.1792 8.42039 35.1793 8.42475C35.1856 8.52598 35.151 8.6183 35.0875 8.69232C35.0237 8.76642 34.9348 8.81897 34.8423 8.85834C34.6573 8.93699 34.3913 8.98955 34.0601 9.02338L34.0494 9.02436H33.9517L33.3052 9.09174L33.2545 9.31049L33.2525 9.31537C33.2257 9.41731 33.2025 9.64569 33.189 10.0214C33.1759 10.3902 33.1726 10.8836 33.1793 11.5019V11.5038C33.1793 12.1142 33.1927 12.7458 33.2193 13.3964C33.2326 13.7223 33.2476 14.0536 33.2642 14.3896L33.3189 15.413V15.416L33.4127 17.705L34.0259 17.7861L34.0338 17.7871L34.0416 17.789C34.5216 17.8928 34.9945 17.9443 35.4595 17.9443C35.6925 17.9443 35.8925 17.9577 36.0552 17.9872C36.1697 18.0081 36.275 18.0352 36.3619 18.0722L36.442 18.1132L36.4634 18.1259L36.481 18.1425C36.5177 18.1792 36.5509 18.2168 36.5767 18.2529C36.5952 18.2788 36.6391 18.3433 36.6392 18.4247V18.5146L36.5709 18.5751L36.4107 18.7148L36.4078 18.7177C36.199 18.893 35.9059 18.9894 35.5562 19.0283C35.2068 19.0671 34.7811 19.0499 34.2838 18.9833C34.1987 18.9825 34.1173 18.9752 34.0406 18.9599L34.0308 18.9589C33.9931 18.9495 33.9558 18.9443 33.9195 18.9443H33.8873L33.856 18.9335C33.8411 18.9286 33.8165 18.9248 33.7798 18.9247H33.6119L33.5933 18.915L33.5474 18.9218C33.5247 18.9252 33.4675 18.9491 33.3775 19.0478C33.3568 19.0794 33.3312 19.1071 33.3013 19.1298C33.2801 19.157 33.2549 19.1807 33.2261 19.2001C33.2245 19.2018 33.2229 19.2043 33.2213 19.206C33.2147 19.2125 33.2073 19.219 33.2007 19.2255L33.1871 19.2392L33.1705 19.2509C33.0557 19.3274 32.9234 19.356 32.7867 19.3203C32.7814 19.3194 32.7762 19.3175 32.7711 19.3163C32.7665 19.315 32.761 19.3159 32.7564 19.3144C32.6087 19.2776 32.5065 19.1609 32.4351 19.038C32.3599 18.9308 32.3026 18.894 32.272 18.8818C32.248 18.8803 32.1993 18.8785 32.1177 18.8837C32.0197 18.8901 31.888 18.903 31.7232 18.9228L31.7173 18.9238C31.5662 18.9375 31.4264 18.9443 31.2994 18.9443C31.0759 18.9443 30.8785 18.9169 30.73 18.8427C30.653 18.8042 30.5828 18.7499 30.5328 18.6747C30.4822 18.5986 30.4596 18.5127 30.4595 18.4247C30.4596 18.3352 30.4794 18.2431 30.5328 18.163C30.5732 18.1026 30.6272 18.0575 30.6871 18.0253L30.7496 17.997C30.8333 17.9602 30.9447 17.9403 31.064 17.9277L31.3209 17.8867C31.4163 17.873 31.5219 17.8591 31.6363 17.8456L31.6441 17.8447L32.2994 17.7958V16.1249C32.286 13.8324 32.2649 12.0952 32.2349 10.914C32.2199 10.3234 32.2021 9.87289 32.1832 9.56244C32.1737 9.4071 32.1638 9.28872 32.1539 9.20697C32.1522 9.19332 32.1496 9.18085 32.148 9.16986L32.1304 9.13373L32.1207 9.12885L32.0982 9.10541C32.0959 9.10316 32.0895 9.09831 32.0757 9.09369C32.0419 9.08244 32.0002 9.0709 31.9507 9.05854L31.9439 9.05658L31.9361 9.05365C31.9073 9.04406 31.8628 9.03295 31.8004 9.02045C31.7362 9.00762 31.6647 8.99442 31.5865 8.98139L31.5806 8.98041C31.5165 8.96759 31.4449 8.95437 31.3668 8.94135C31.1141 8.908 30.9041 8.8742 30.7388 8.83979C30.5832 8.80737 30.4522 8.77092 30.3609 8.72748C30.36 8.72709 30.3589 8.72695 30.358 8.7265C30.3555 8.72531 30.3526 8.72476 30.3502 8.72357V8.72162C30.2006 8.65355 30.1044 8.53054 30.065 8.37299L30.0621 8.36127L30.0611 8.34955C30.043 8.20411 30.0684 8.05844 30.1636 7.93939L30.1705 7.93061L30.1783 7.92279C30.2306 7.87082 30.2968 7.85228 30.3316 7.84467C30.3744 7.83535 30.4233 7.83093 30.4722 7.82904C30.5216 7.82718 30.579 7.82832 30.6431 7.831ZM31.6597 18.0439C31.4332 18.0705 31.2458 18.0973 31.0992 18.124C31.2458 18.0973 31.4323 18.0715 31.6588 18.0449L31.6597 18.0439Z" fill="#3971E0"/>
<path fill-rule="evenodd" clip-rule="evenodd" d="M22.5215 8.39357C22.6679 8.30577 22.8346 8.28164 22.9961 8.35939C23.1052 8.41194 23.1946 8.50319 23.2695 8.6133L23.3398 8.72951L23.3447 8.7383C23.4563 8.96951 23.5187 9.33714 23.5488 9.81252C23.5795 10.2959 23.5774 10.9171 23.5439 11.6738C23.4769 13.1881 23.3084 14.6168 23.04 15.96L23.041 15.961C22.9742 16.3216 22.9139 16.6365 22.8604 16.9043C22.8209 17.154 22.7882 17.3586 22.7617 17.5176C22.7436 17.6855 22.7449 17.8007 22.7568 17.8721C22.759 17.885 22.7626 17.8947 22.7646 17.9024C22.772 17.903 22.7811 17.9038 22.792 17.9043C22.8384 17.9064 22.9034 17.9052 22.9883 17.9004C23.1578 17.8908 23.3937 17.8659 23.6982 17.8262C24.9908 17.6197 26.0499 17.4744 26.874 17.3906C27.6891 17.3078 28.2893 17.2836 28.6602 17.3252C28.8294 17.3393 28.9889 17.3751 29.1367 17.4317C29.2992 17.476 29.4428 17.538 29.5605 17.6221C29.7652 17.7683 29.9342 17.9795 29.8555 18.2422L29.8506 18.2588L29.8428 18.2744C29.8144 18.3311 29.7712 18.3757 29.7178 18.4082C29.6729 18.4426 29.6215 18.4631 29.5869 18.4746C29.5268 18.4946 29.4635 18.5018 29.3994 18.5029L29.4004 18.5039C29.3991 18.504 29.3978 18.5038 29.3965 18.5039C29.3924 18.504 29.3879 18.5049 29.3838 18.5049C29.2932 18.511 29.1606 18.5097 28.9883 18.5L28.3047 18.4444C27.9126 18.4064 27.2564 18.4312 26.3242 18.5244C25.3955 18.6173 24.5203 18.7352 23.6992 18.8809L23.7002 18.8819C23.2698 18.9613 22.9336 19.0368 22.6895 19.1074C22.5675 19.1427 22.4718 19.1755 22.4004 19.2061C22.3258 19.238 22.2904 19.2615 22.2783 19.2725L22.2578 19.291L22.2334 19.3037C22.1824 19.3292 22.1255 19.3447 22.0645 19.3447C22.0068 19.3447 21.9592 19.3209 21.9443 19.3135C21.9206 19.3016 21.8962 19.2869 21.873 19.2715C21.8204 19.2364 21.7704 19.1942 21.7227 19.1465C21.6314 19.0552 21.568 18.9451 21.5322 18.8203L21.5283 18.8067L21.5264 18.793C21.5113 18.6874 21.5039 18.564 21.5039 18.4248V18.4141L21.5049 18.4043C21.533 18.1373 21.636 17.6191 21.8086 16.8623L21.9434 16.2158C21.9864 15.9974 22.0276 15.775 22.0674 15.5498C22.1466 15.0873 22.2128 14.6246 22.2656 14.1621V14.1572C22.3318 13.681 22.3913 13.1914 22.4443 12.6885C22.564 11.1995 22.5624 10.0923 22.4463 9.35646C22.4001 9.13045 22.3729 8.94213 22.3691 8.79982C22.3673 8.7284 22.3709 8.65793 22.3857 8.59572C22.3996 8.53795 22.4312 8.45294 22.5127 8.39846L22.5215 8.39357ZM24.9443 18.4854C24.8779 18.4944 24.8119 18.5043 24.7461 18.5137C25.0299 18.4735 25.3192 18.4351 25.6143 18.4004L24.9443 18.4854ZM29.6045 18.2451C29.5912 18.2584 29.5643 18.2719 29.5244 18.2852L29.5742 18.2656C29.5878 18.2589 29.5978 18.2518 29.6045 18.2451Z" fill="#3971E0"/>
<path fill-rule="evenodd" clip-rule="evenodd" d="M15.7139 7.7744C16.3477 7.55438 16.8983 7.5237 17.3291 7.74705L17.334 7.74998C17.354 7.76109 17.4092 7.77898 17.5225 7.78514C17.6311 7.79101 17.7752 7.78499 17.9561 7.76561C18.3766 7.7087 18.7693 7.76648 19.127 7.9453C19.4804 8.1086 19.795 8.37804 20.0752 8.74217C20.3561 9.10732 20.6045 9.57153 20.8223 10.1289L20.8926 10.3115C20.9604 10.4994 21.0198 10.7017 21.0713 10.918C21.1391 11.2026 21.1871 11.4818 21.2148 11.7549C21.2557 12.0273 21.2832 12.2937 21.2969 12.5537V12.5644C21.2969 12.6347 21.2896 12.7047 21.2773 12.7744V12.9248C21.2773 12.9948 21.2681 13.0642 21.251 13.1328L21.249 13.1406L21.2471 13.1474C21.2358 13.1814 21.2234 13.2237 21.2109 13.2734C21.1898 13.4204 21.1253 13.6384 21.0254 13.9131L21.0244 13.916C20.9169 14.1983 20.769 14.5665 20.582 15.0205L20.5801 15.0254C20.1798 15.9326 19.8638 16.5992 19.6328 17.0205L19.6318 17.0195C19.5886 17.1054 19.5397 17.191 19.4834 17.2754L19.4785 17.2832L19.4736 17.29C19.4194 17.3579 19.3583 17.432 19.291 17.5127C19.238 17.5789 19.1776 17.6501 19.1123 17.7285L19.1133 17.7295C19.0533 17.8045 18.9799 17.8754 18.8975 17.9453L18.8984 17.9463L18.6904 18.1543L18.6816 18.1611C18.6153 18.2142 18.5488 18.2672 18.4824 18.3203C18.4094 18.3787 18.3348 18.4315 18.2598 18.4765C18.1914 18.5176 18.1274 18.5519 18.0693 18.581C17.8177 18.7135 17.5982 18.8263 17.4111 18.9199C17.2392 19.0125 17.0904 19.0868 16.9658 19.1426C16.8593 19.1958 16.7799 19.237 16.7266 19.2637L16.7021 19.2754L16.6768 19.2803C16.5968 19.2963 16.4648 19.3109 16.292 19.3242C16.1115 19.3381 15.8789 19.3447 15.5967 19.3447C15.1468 19.3447 14.8285 19.3322 14.6611 19.3017V19.2998C14.4849 19.2779 14.2849 19.1882 14.0713 19.0547C13.5493 18.7434 13.0834 18.2813 12.6719 17.6777L12.6699 17.6748C12.2692 17.0668 12.0111 16.4275 11.8994 15.7578V15.7529C11.8859 15.6583 11.8719 15.5569 11.8584 15.4492V15.4463C11.845 15.3256 11.8317 15.1983 11.8184 15.0644L11.8174 15.0547V15.0449C11.8174 14.9183 11.8105 14.7908 11.7979 14.664L11.7969 14.6543V14.1846C11.7969 13.3114 11.9269 12.5143 12.1895 11.7959C12.3143 11.4361 12.4866 11.0718 12.7051 10.7031L12.708 10.6982C12.9388 10.3317 13.2029 9.95921 13.5 9.58104L13.7959 9.21971C13.9878 8.99382 14.1694 8.79821 14.3408 8.63377L14.5898 8.41014C14.7452 8.26991 14.9145 8.14986 15.0977 8.05077C15.2955 7.9377 15.5011 7.84531 15.7139 7.7744ZM16.418 8.56444C15.893 8.57743 15.2572 8.95538 14.5068 9.79784L14.5059 9.79686C13.7774 10.6297 13.2524 11.5591 12.9277 12.5849C12.7733 13.0819 12.7084 13.6895 12.7383 14.4121L12.7568 14.7295V14.7324C12.7831 15.1658 12.8291 15.543 12.8936 15.8652C12.9509 16.1023 13.0215 16.3112 13.1045 16.4931L13.1924 16.668L13.1953 16.6738L13.3242 16.9101C13.6346 17.4404 14.013 17.8309 14.4561 18.0908C14.5434 18.1407 14.6245 18.1836 14.6982 18.2207C14.7828 18.2568 14.8478 18.2774 14.8955 18.2871C14.9674 18.2989 15.0649 18.3116 15.1895 18.3242H15.6973C16.1191 18.3242 16.3948 18.3101 16.5381 18.2871C16.6725 18.2517 16.8777 18.1634 17.1611 18.0088L17.168 18.0058C17.6071 17.7863 17.9546 17.5444 18.2158 17.2832L18.2178 17.2812C18.4505 17.0546 18.7163 16.681 19.0127 16.1474C19.3078 15.6163 19.6277 14.9365 19.9727 14.1074L19.9736 14.1035L20.334 13.29L20.2578 12.2793L20.2568 12.2724C20.2303 11.5573 20.1577 11.0481 20.0479 10.7305L20.0459 10.7236L20.0439 10.7158C19.9425 10.3353 19.7836 9.96621 19.5664 9.60838L19.5645 9.60545C19.3419 9.22583 19.1552 9.00891 19.0107 8.91502C18.8249 8.81683 18.6192 8.72951 18.3936 8.65428L18.3877 8.65233C18.3254 8.62937 18.272 8.61096 18.2266 8.59764C18.2345 8.62211 18.2427 8.64902 18.2529 8.67772L18.3428 8.90916L18.3438 8.91307L18.4336 9.17088C18.4582 9.25166 18.4775 9.32863 18.4922 9.40135L18.5254 9.58299C18.5319 9.63212 18.5341 9.67882 18.5352 9.72264C18.5438 9.80029 18.5419 9.9023 18.4834 9.99022C18.4156 10.092 18.3083 10.125 18.2168 10.125C18.068 10.1249 17.9493 10.026 17.8652 9.93455C17.7734 9.83467 17.6794 9.6946 17.583 9.52245L17.5781 9.51366C17.4202 9.19801 17.2045 8.96138 16.9326 8.79588L16.9297 8.79295C16.7895 8.70375 16.6756 8.64558 16.5869 8.61229L16.5781 8.60838C16.4988 8.57442 16.4473 8.56463 16.418 8.56444ZM12.6504 15.6445C12.6564 15.683 12.6644 15.7206 12.6709 15.7578C12.6491 15.6334 12.6291 15.5023 12.6123 15.3642L12.6504 15.6445ZM15.4424 8.6992C15.1848 8.86172 14.9169 9.08349 14.6387 9.36424L14.9141 9.1035C15.0949 8.94263 15.2708 8.8076 15.4424 8.6992ZM17.3506 7.96483C17.354 7.96558 17.3578 7.96509 17.3613 7.9658C17.3344 7.96039 17.3098 7.95489 17.2881 7.94725L17.3506 7.96483Z" fill="#3971E0"/>
<path fill-rule="evenodd" clip-rule="evenodd" d="M6.69727 6.22913C8.02511 5.93704 9.24062 6.34409 10.3301 7.40687L10.5469 7.62855L10.5488 7.6305C10.9447 8.06744 11.2217 8.49529 11.3672 8.9137C11.5258 9.33191 11.6006 9.87272 11.6006 10.525C11.6006 10.9811 11.5782 11.3369 11.5312 11.5826C11.5081 11.7034 11.4765 11.814 11.4277 11.8991C11.3793 11.9835 11.2875 12.0844 11.1406 12.0846H11.1152L11.0918 12.0787C10.9187 12.0355 10.7955 11.92 10.7334 11.7545L10.7275 11.7399L10.7236 11.7242C10.7086 11.6492 10.6952 11.5484 10.6816 11.4264L10.6807 11.4157V11.4049C10.6807 11.2656 10.6867 11.0936 10.7002 10.8912C10.6996 10.5987 10.68 10.3338 10.6426 10.0963V10.0944C10.6043 9.8392 10.5469 9.61272 10.4727 9.41468L10.4717 9.41175C10.3356 9.02812 10.0982 8.64315 9.75195 8.25843C9.47228 7.9523 9.2778 7.79747 9.16309 7.74964L9.15039 7.74378C8.98207 7.6596 8.83618 7.55866 8.71484 7.44105L8.65039 7.39612C8.48066 7.29499 8.17587 7.21005 7.70117 7.1637C7.44161 7.13775 7.22621 7.13194 7.05469 7.14417C6.8851 7.15628 6.78175 7.1854 6.72559 7.21546C6.69087 7.23881 6.64901 7.26801 6.60059 7.30433L6.58594 7.31605L6.56934 7.32386C6.52806 7.34453 6.48509 7.37142 6.44043 7.40491C6.37868 7.45122 6.31516 7.49147 6.25 7.52405C6.21467 7.54173 6.16832 7.57075 6.11133 7.61585L6.11035 7.61683L6.1084 7.61976L6.08594 7.64222C6.08464 7.64346 6.08541 7.64177 6.08398 7.64319L6.08301 7.64515L6.05762 7.67054L6.05566 7.67151L6.05371 7.67347L6.05273 7.67542C6.05165 7.67644 6.05197 7.67521 6.05078 7.6764L6.0498 7.67835L6.0459 7.68226L6.04395 7.68323L6.04199 7.68519L6.04102 7.68714L6.03906 7.68812L6.03418 7.693L6.0332 7.69495L6.01465 7.71351C6.01351 7.71458 6.01394 7.71324 6.0127 7.71448L6.00977 7.71741L6.00879 7.71937L6.00684 7.72034L6.00586 7.7223L6.00391 7.72327L6 7.72718L5.99902 7.72913L5.98828 7.73987L5.98633 7.74085L5.98535 7.7428L5.9834 7.74378L5.98145 7.74671L5.97168 7.75647C5.97018 7.75793 5.97137 7.75581 5.96973 7.75745L5.96777 7.76038L5.96484 7.76331L5.96289 7.76429C5.96176 7.76548 5.96323 7.76492 5.96191 7.76624L5.96094 7.76722C5.95909 7.76903 5.96099 7.76619 5.95898 7.76819L5.95703 7.77112L5.94629 7.78187L5.94434 7.78284L5.94336 7.78382C5.94188 7.78534 5.94407 7.78408 5.94238 7.78577L5.9248 7.8014C5.86464 7.84957 5.803 7.90464 5.74121 7.96644C5.66516 8.04251 5.60404 8.11033 5.55664 8.16956L5.5498 8.17835L5.54199 8.18616C5.51806 8.2101 5.50075 8.22904 5.48926 8.2428C5.48479 8.24816 5.48129 8.25209 5.47949 8.25452L5.44922 8.31409L5.44141 8.31702C5.42846 8.3595 5.41069 8.40021 5.38672 8.43616C5.34551 8.49783 5.28905 8.55017 5.22754 8.5973L5.22852 8.59827C5.18192 8.63716 5.11023 8.7324 5.01953 8.9137L5.01367 8.92444C4.96807 9.00436 4.92608 9.09839 4.88965 9.20765L4.8877 9.21546C4.8495 9.31734 4.80993 9.42558 4.77148 9.54065C4.70793 9.75679 4.67226 9.94967 4.66016 10.1188L4.65918 10.1198C4.63396 10.4478 4.64678 10.7694 4.69629 11.0836L4.75098 11.3073C4.81364 11.5253 4.90053 11.737 5.01172 11.942L5.13086 12.1617C5.15073 12.1949 5.17154 12.2282 5.19141 12.2614L5.24414 12.3492C5.29431 12.412 5.34436 12.475 5.39453 12.5377C5.44555 12.5897 5.49624 12.6463 5.5459 12.7076C5.66001 12.8216 5.7804 12.9361 5.90723 13.0504C6.0341 13.1518 6.16782 13.2466 6.30762 13.3356C6.49435 13.449 6.64614 13.5448 6.7627 13.6237C6.86224 13.691 6.94324 13.7534 6.99902 13.8043C7.05908 13.8414 7.11349 13.8813 7.16016 13.9244C7.21145 13.9629 7.25506 13.9942 7.29102 14.0182L7.37012 14.066L7.38086 14.0719L7.3916 14.0787C7.49525 14.1479 7.61055 14.2297 7.73633 14.3248L8.14648 14.65L8.1582 14.6598C8.43947 14.9277 8.66304 15.151 8.82715 15.3287L8.83398 15.3366L8.93652 15.4655C9.03286 15.5931 9.11747 15.7256 9.19141 15.8619C9.30241 16.0296 9.39413 16.2047 9.46484 16.3873L9.55957 16.6412C9.58781 16.726 9.61252 16.8111 9.63379 16.8961L9.63477 16.8991C9.76281 17.4402 9.7234 17.9304 9.49707 18.3551L9.49805 18.3561C9.24784 18.8407 8.76344 19.1391 8.10156 19.2799L8.09766 19.2809C7.43526 19.4077 6.67174 19.3632 5.81348 19.1588C5.15349 18.9972 4.59323 18.8069 4.1377 18.5866C3.45757 18.2798 2.96451 18.0444 2.66406 17.8805L2.66113 17.8785C2.56522 17.8237 2.46297 17.7618 2.35449 17.694L2.34375 17.6871C2.29726 17.6539 2.25059 17.6207 2.2041 17.5875C2.15747 17.5542 2.11011 17.5212 2.06348 17.4879L2.05176 17.4782C1.97241 17.412 1.88688 17.3392 1.79492 17.2604C1.73059 17.2089 1.5611 17.0788 1.28418 16.8678L1.06543 16.6959C0.854687 16.5145 0.664889 16.3018 0.496094 16.0592L0.494141 16.0553C0.272865 15.7234 0.119872 15.4087 0.0458984 15.1129L0.0478516 15.1119C0.0180413 15.0177 3.90166e-05 14.9221 0 14.8248C0 14.7353 0.0077586 14.6504 0.0263672 14.5758C0.0460732 14.4843 0.0843989 14.3998 0.140625 14.3248L0.162109 14.2946L0.194336 14.275L0.354492 14.1754L0.380859 14.1588L0.412109 14.151C0.468655 14.1369 0.549909 14.1316 0.62793 14.1783C0.693777 14.2179 0.727488 14.2773 0.745117 14.3287C0.787123 14.4094 0.799792 14.5009 0.799805 14.5846C0.79984 14.6492 0.814421 14.7383 0.848633 14.8551C0.89766 14.9638 0.965033 15.0934 1.05273 15.2438L1.05566 15.2496C1.21871 15.5506 1.41851 15.8051 1.65332 16.0153L1.6543 16.0162C2.20804 16.5184 3.00317 17.022 4.04688 17.5241C4.41537 17.6951 4.76932 17.846 5.11035 17.9772C5.45758 18.0926 5.79091 18.1824 6.11035 18.2467C6.44746 18.2986 6.77796 18.3248 7.10059 18.3248C7.38831 18.3248 7.62533 18.3118 7.81348 18.2867H7.81543C8.01363 18.262 8.16544 18.2253 8.27637 18.1823C8.3822 18.1284 8.46233 18.0625 8.52051 17.985C8.58118 17.9041 8.631 17.7959 8.66602 17.6559C8.72907 17.3898 8.665 17.0154 8.41992 16.5123V16.5104C8.30928 16.2768 8.1608 16.0607 7.97461 15.8619L7.96582 15.8522C7.79095 15.6398 7.54899 15.4093 7.23633 15.1617C6.90899 14.9132 6.48094 14.6168 5.95215 14.2731L5.66797 14.0797C5.38921 13.8784 5.12633 13.6533 4.87891 13.4059C4.70401 13.231 4.55462 13.0748 4.43164 12.9381L4.4248 12.9313L4.41797 12.9225C4.3063 12.7689 4.21407 12.6191 4.1416 12.4742C4.04337 12.2874 3.9558 12.0463 3.87891 11.7565L3.73438 11.1569C3.71366 11.0602 3.69657 10.9662 3.68262 10.8756L3.68066 10.86C3.66706 10.6831 3.66016 10.524 3.66016 10.3844V10.3746C3.67437 10.1046 3.74423 9.67764 3.86426 9.10413L3.86621 9.09632C3.88227 9.0321 3.90554 8.96286 3.93457 8.89026L3.94043 8.87562L3.94824 8.86194C3.99017 8.79206 4.03909 8.71542 4.09375 8.63343C4.14677 8.54106 4.20558 8.44239 4.27051 8.33851L4.27441 8.33167C4.3738 8.1859 4.45023 8.07263 4.50195 7.99183C4.52777 7.95148 4.54667 7.92029 4.55957 7.89808C4.56253 7.89298 4.56549 7.88876 4.56738 7.88538C4.57926 7.83215 4.60428 7.78775 4.62305 7.75843C4.65279 7.71204 4.69277 7.66307 4.73828 7.6139C4.83 7.51484 4.96291 7.39349 5.13184 7.25159C5.46351 6.9468 5.73118 6.72524 5.93164 6.59632C6.1956 6.41626 6.44942 6.29165 6.69141 6.23108L6.69727 6.22913ZM8.06055 19.0846C7.83114 19.1285 7.58709 19.15 7.3291 19.151C7.49903 19.1504 7.66279 19.142 7.82031 19.1227L8.06055 19.0846ZM9.32031 18.2643L9.37988 18.1393C9.38064 18.1375 9.38011 18.1352 9.38086 18.1334C9.36223 18.1777 9.34309 18.2218 9.32031 18.2643ZM9.44043 16.944C9.46896 17.0645 9.48761 17.1816 9.49805 17.2946C9.4931 17.2411 9.48655 17.1867 9.47754 17.1315L9.44043 16.944ZM0.240234 15.0651C0.256918 15.1317 0.27787 15.2002 0.303711 15.2701C0.329569 15.3402 0.360483 15.4117 0.395508 15.485C0.465475 15.6316 0.553597 15.7851 0.660156 15.945C0.446934 15.6251 0.30688 15.3317 0.240234 15.0651ZM7.96777 15.5524C8.02273 15.6108 8.07347 15.6686 8.12012 15.7252C8.02682 15.6119 7.91664 15.4946 7.79004 15.3746L7.96777 15.5524ZM6.06055 14.1051C6.32699 14.2783 6.56859 14.4397 6.78516 14.5895L6.06055 14.1051ZM3.87988 10.8444C3.89323 10.9311 3.90964 11.0213 3.92969 11.1149C3.94967 11.2081 3.97337 11.305 4 11.4049C3.94673 11.2051 3.90653 11.0176 3.87988 10.8444ZM11.4004 10.5241C11.4004 10.86 11.3871 11.1339 11.3633 11.3453C11.3791 11.2053 11.3912 11.0381 11.3965 10.8434L11.4004 10.5241ZM11.3447 9.6598C11.3539 9.72392 11.3623 9.78996 11.3691 9.85804L11.3447 9.6598C11.3356 9.59562 11.3259 9.53349 11.3145 9.47327L11.3447 9.6598ZM11.1807 8.98401C11.2174 9.08077 11.2489 9.18585 11.2764 9.29847L11.2324 9.13538C11.2164 9.08324 11.1989 9.03221 11.1807 8.98401ZM5.10059 8.44397C5.08062 8.46061 5.05986 8.48139 5.03906 8.5055L5.10059 8.44397ZM5.7998 7.64417C5.73318 7.69748 5.66721 7.75821 5.60059 7.82483C5.5206 7.90482 5.45372 7.9779 5.40039 8.04456C5.3738 8.07115 5.35161 8.09393 5.33496 8.1139L5.40039 8.04456C5.42695 8.01138 5.45707 7.97656 5.49023 7.94007L5.60059 7.82483L5.7998 7.64417ZM6.48047 7.14417C6.42714 7.17084 6.37365 7.20476 6.32031 7.24476L6.40039 7.19007L6.48047 7.14417ZM7.71973 6.96448C7.92469 6.98448 8.10544 7.01144 8.26172 7.04651L8.09766 7.01429C7.98267 6.99429 7.85637 6.97781 7.71973 6.96448ZM7.04004 6.94397C6.93093 6.95177 6.83796 6.96743 6.76074 6.9889C6.80503 6.97667 6.85445 6.96644 6.90918 6.95862L7.04004 6.94397Z" fill="#3971E0"/>
</svg>
