<svg preserveAspectRatio="none" width="100%" height="100%" overflow="visible" style="display: block;" viewBox="0 0 79.0931 13.0497" fill="none" xmlns="http://www.w3.org/2000/svg">
<g id="&#236;&#139;&#160;&#237;&#149;&#156;&#236;&#158;&#165;&#237;&#149;&#153;&#236;&#158;&#172;&#235;&#139;&#168;">
<path id="Vector" d="M75.5028 8.6644V1.72224C75.5028 1.4926 75.4807 1.31154 75.4366 1.17905C75.3924 1.03774 75.3085 0.892005 75.1849 0.741856C75.0965 0.644701 75.07 0.560795 75.1054 0.490137C75.1495 0.410646 75.2202 0.370901 75.3173 0.370901H77.5828V3.19281H79.0931V4.68988H77.5828V8.6644H75.5028ZM68.8786 4.9151C68.8786 5.15358 68.9272 5.33905 69.0243 5.47154C69.1303 5.59519 69.3379 5.65702 69.647 5.65702H74.7079V6.76988C74.5136 6.9112 74.253 7.00394 73.9263 7.0481C73.5995 7.09226 73.2108 7.11434 72.7604 7.11434H69.0773C68.2736 7.11434 67.6907 6.97302 67.3285 6.69039C66.9753 6.39893 66.7986 5.91757 66.7986 5.24631V2.21243C66.7986 1.98279 66.7765 1.79731 66.7324 1.656C66.6882 1.51468 66.5999 1.37336 66.4674 1.23205C66.3879 1.13489 66.3658 1.04657 66.4012 0.967079C66.4453 0.887589 66.516 0.847844 66.6131 0.847844H73.595V2.30517H68.8786V4.9151ZM70.2697 12.6787C69.8722 12.6787 69.5322 12.6566 69.2496 12.6124C68.9669 12.5683 68.7373 12.4844 68.5607 12.3607C68.3928 12.2459 68.2692 12.0825 68.1897 11.8705C68.1102 11.6674 68.0705 11.398 68.0705 11.0624V9.34007C68.0705 9.20759 68.0484 9.08835 68.0042 8.98237C67.9601 8.87638 67.8894 8.76598 67.7922 8.65116C67.7128 8.554 67.6907 8.46568 67.726 8.38619C67.7613 8.3067 67.8276 8.26695 67.9247 8.26695H70.177V10.6384C70.177 10.8769 70.2211 11.027 70.3094 11.0889C70.4066 11.1507 70.5656 11.1816 70.7864 11.1816H77.7418V12.6787H70.2697Z" fill="var(--fill-0, #0046FF)"/>
<path id="Vector_2" d="M60.1212 1.81498C60.1212 1.57651 60.0991 1.3822 60.0549 1.23205C60.0196 1.0819 59.9534 0.944998 59.8562 0.821346C59.7767 0.715359 59.7546 0.627037 59.79 0.556378C59.8253 0.48572 59.896 0.450391 60.0019 0.450391H62.082V4.51765H63.2346V0.370901H65.2086V12.8377H63.2346V6.14721H62.082V12.4799H60.1212V1.81498ZM53.2585 2.37141V0.87434H59.3263V2.37141H57.4053V5.4053C57.4053 5.8999 57.4671 6.35035 57.5907 6.75663C57.7232 7.15409 57.8955 7.52062 58.1074 7.85625C58.3282 8.18304 58.5844 8.48334 58.8758 8.75714C59.1761 9.02211 59.4941 9.265 59.8297 9.48581L59.0746 10.5192C59.0304 10.581 58.9509 10.5987 58.8361 10.5722C58.7213 10.5457 58.5888 10.4927 58.4386 10.4132C58.2973 10.3337 58.1516 10.2365 58.0014 10.1217C57.8513 10.0069 57.7232 9.89651 57.6172 9.79052C57.3611 9.53438 57.1359 9.27825 56.9416 9.02211C56.7473 8.75714 56.5662 8.45243 56.3984 8.10797C56.2571 8.47009 56.0937 8.79247 55.9082 9.0751C55.7315 9.35774 55.5107 9.6492 55.2458 9.9495C55.0956 10.1085 54.9366 10.263 54.7688 10.4132C54.601 10.5545 54.4376 10.6737 54.2786 10.7709C54.1285 10.8681 53.9916 10.9343 53.8679 10.9696C53.7531 11.005 53.6736 10.9961 53.6295 10.9431L52.7153 9.87001C53.5279 9.31358 54.1638 8.65116 54.6231 7.88275C55.0824 7.10551 55.312 6.27969 55.312 5.4053V2.37141H53.2585Z" fill="var(--fill-0, #0046FF)"/>
<path id="Vector_3" d="M42.8588 1.35134C42.8588 1.1217 42.8412 0.940637 42.8058 0.808153C42.7793 0.666837 42.7043 0.521104 42.5806 0.370955C42.4923 0.273801 42.4658 0.189894 42.5011 0.119236C42.5453 0.0397454 42.6159 0 42.7131 0H44.9786V1.55006H47.986V3.00739H46.6214C46.8245 3.23703 46.9791 3.502 47.0851 3.80229C47.1999 4.09376 47.2573 4.42055 47.2573 4.78268C47.2573 5.23312 47.1778 5.64382 47.0188 6.01478C46.8598 6.38573 46.6302 6.70811 46.3299 6.98191C46.0384 7.24688 45.6807 7.45444 45.2568 7.60459C44.8328 7.7459 44.3559 7.81656 43.826 7.81656C43.296 7.81656 42.8191 7.7459 42.3951 7.60459C41.9712 7.45444 41.6091 7.24688 41.3088 6.98191C41.0173 6.70811 40.7921 6.38573 40.6331 6.01478C40.4741 5.64382 40.3946 5.23312 40.3946 4.78268C40.3946 4.41172 40.4476 4.08051 40.5536 3.78905C40.6684 3.49758 40.823 3.23703 41.0173 3.00739H39.6395V1.55006H42.8588V1.35134ZM41.428 10.135V8.67771H50.8344C50.9404 8.67771 51.0154 8.69979 51.0596 8.74395C51.1126 8.77928 51.1391 8.85435 51.1391 8.96917V12.8775H49.0988V10.135H41.428ZM49.0591 7.9093V1.72229C49.0591 1.49265 49.037 1.31159 48.9928 1.17911C48.9487 1.03779 48.8648 0.89206 48.7411 0.741911C48.6528 0.644756 48.6263 0.56085 48.6616 0.490191C48.7058 0.410701 48.7765 0.370955 48.8736 0.370955H51.1391V3.48433H52.6494V4.9814H51.1391V7.9093H49.0591ZM43.826 6.34599C44.2852 6.34599 44.6385 6.20025 44.8858 5.90879C45.142 5.60849 45.27 5.21104 45.27 4.71643C45.27 4.19533 45.142 3.78904 44.8858 3.49758C44.6385 3.20611 44.2852 3.06038 43.826 3.06038C43.3579 3.06038 43.0001 3.20611 42.7528 3.49758C42.5055 3.78904 42.3819 4.19533 42.3819 4.71643C42.3819 5.21104 42.5055 5.60849 42.7528 5.90879C43.0001 6.20025 43.3579 6.34599 43.826 6.34599Z" fill="var(--fill-0, #0046FF)"/>
<path id="Vector_4" d="M37.8642 10.2145C37.8642 10.6384 37.7582 11.0226 37.5462 11.3671C37.3431 11.7204 37.0384 12.0207 36.6321 12.268C36.2347 12.5153 35.74 12.7052 35.1483 12.8377C34.5654 12.979 33.8985 13.0496 33.1478 13.0496C32.3794 13.0496 31.6993 12.979 31.1075 12.8377C30.5158 12.7052 30.0211 12.5153 29.6237 12.268C29.2262 12.0207 28.9215 11.7204 28.7096 11.3671C28.5064 11.0226 28.4048 10.6384 28.4048 10.2145C28.4048 9.79935 28.5064 9.41956 28.7096 9.0751C28.9215 8.72181 29.2262 8.42152 29.6237 8.17421C30.0211 7.92691 30.5158 7.73702 31.1075 7.60453C31.6993 7.46321 32.3794 7.39256 33.1478 7.39256C33.8985 7.39256 34.5654 7.46321 35.1483 7.60453C35.74 7.73702 36.2347 7.92691 36.6321 8.17421C37.0384 8.42152 37.3431 8.72181 37.5462 9.0751C37.7582 9.41956 37.8642 9.79935 37.8642 10.2145ZM32.2204 6.21345C31.8936 6.00147 31.6065 5.78508 31.3592 5.56428C31.1119 5.34347 30.8867 5.09175 30.6836 4.80912C30.4539 5.17124 30.1978 5.49803 29.9152 5.7895C29.6325 6.08096 29.3102 6.34152 28.948 6.57116C28.7449 6.70364 28.5285 6.83171 28.2989 6.95536C28.0692 7.07901 27.8528 7.18058 27.6497 7.26007C27.4465 7.33956 27.2699 7.38814 27.1197 7.4058C26.9696 7.41464 26.8724 7.37931 26.8283 7.29982L26.2321 6.14721C26.7002 5.97939 27.133 5.77625 27.5304 5.53778C27.9367 5.29931 28.29 5.02992 28.5903 4.72963C28.8906 4.42933 29.1247 4.10254 29.2925 3.74924C29.4603 3.38712 29.5442 3.00292 29.5442 2.59663V2.17268H26.8415V0.71536H34.3136V2.17268H31.6904V2.54364C31.6904 2.9146 31.7832 3.26789 31.9687 3.60351C32.1541 3.93914 32.397 4.24385 32.6973 4.51765C32.9976 4.79145 33.3377 5.02992 33.7175 5.23307C34.0972 5.43621 34.477 5.58636 34.8568 5.68351L34.2739 6.87587C34.2474 6.92886 34.1723 6.95536 34.0487 6.95536C33.925 6.94653 33.766 6.91561 33.5717 6.86262C33.3774 6.80079 33.161 6.71689 32.9225 6.6109C32.6929 6.50491 32.4589 6.37243 32.2204 6.21345ZM35.7577 7.23358V1.72224C35.7577 1.4926 35.7356 1.31154 35.6915 1.17905C35.6473 1.03774 35.5634 0.892005 35.4397 0.741856C35.3514 0.644701 35.3249 0.560795 35.3603 0.490137C35.4044 0.410646 35.4751 0.370901 35.5722 0.370901H37.8377V2.92784H39.348V4.42491H37.8377V7.23358H35.7577ZM35.7312 10.2145C35.7312 10.0202 35.687 9.8391 35.5987 9.67128C35.5104 9.50347 35.3603 9.36215 35.1483 9.24733C34.9451 9.12368 34.6802 9.03094 34.3534 8.96912C34.0266 8.89846 33.6247 8.86313 33.1478 8.86313C32.662 8.86313 32.2513 8.89846 31.9157 8.96912C31.5889 9.03094 31.3195 9.12368 31.1075 9.24733C30.9044 9.36215 30.7586 9.50347 30.6703 9.67128C30.582 9.8391 30.5378 10.0202 30.5378 10.2145C30.5378 10.4264 30.582 10.6163 30.6703 10.7841C30.7586 10.952 30.9044 11.0977 31.1075 11.2213C31.3195 11.3362 31.5889 11.4245 31.9157 11.4863C32.2513 11.5481 32.662 11.5791 33.1478 11.5791C33.6247 11.5791 34.0266 11.5481 34.3534 11.4863C34.6802 11.4245 34.9451 11.3362 35.1483 11.2213C35.3603 11.0977 35.5104 10.952 35.5987 10.7841C35.687 10.6163 35.7312 10.4264 35.7312 10.2145Z" fill="var(--fill-0, #0046FF)"/>
<path id="Vector_5" d="M16.362 1.35134C16.362 1.1217 16.3443 0.940637 16.309 0.808153C16.2825 0.666837 16.2074 0.521104 16.0837 0.370955C15.9954 0.273801 15.9689 0.189894 16.0043 0.119236C16.0484 0.0397454 16.1191 0 16.2162 0H18.4817V1.48382H21.4891V2.94115H20.098C20.3012 3.17079 20.4601 3.43134 20.575 3.7228C20.6986 4.00544 20.7604 4.31456 20.7604 4.65019C20.7604 5.06531 20.6854 5.45393 20.5352 5.81605C20.3851 6.16934 20.1643 6.47847 19.8728 6.74344C19.5813 7.00841 19.2192 7.21597 18.7864 7.36611C18.3625 7.51626 17.8767 7.59134 17.3291 7.59134C16.7815 7.59134 16.2957 7.51626 15.8718 7.36611C15.4478 7.21597 15.0901 7.00841 14.7987 6.74344C14.5072 6.47847 14.282 6.16934 14.123 5.81605C13.9728 5.45393 13.8978 5.06531 13.8978 4.65019C13.8978 4.30573 13.9508 3.99219 14.0567 3.70955C14.1716 3.42692 14.3305 3.17079 14.5337 2.94115H13.1426V1.48382H16.362V1.35134ZM22.5622 8.79694V1.72229C22.5622 1.49265 22.5401 1.31159 22.496 1.17911C22.4518 1.03779 22.3679 0.89206 22.2443 0.741911C22.1559 0.644756 22.1294 0.56085 22.1648 0.490191C22.2089 0.410701 22.2796 0.370955 22.3767 0.370955H24.6422V3.49758H26.1525V4.99465H24.6422V8.79694H22.5622ZM24.8012 11.1817V12.6787H17.3953C16.9979 12.6787 16.6534 12.6522 16.362 12.5992C16.0793 12.5551 15.8453 12.4668 15.6598 12.3343C15.4743 12.2106 15.3374 12.0384 15.2491 11.8176C15.1696 11.6056 15.1299 11.3318 15.1299 10.9962V9.53885C15.1299 9.40637 15.1078 9.28713 15.0636 9.18115C15.0195 9.07516 14.9488 8.96476 14.8516 8.84994C14.7722 8.75278 14.7501 8.66446 14.7854 8.58497C14.8207 8.50548 14.887 8.46573 14.9841 8.46573H17.2364V10.6385C17.2364 10.8769 17.2805 11.0271 17.3688 11.0889C17.466 11.1507 17.625 11.1817 17.8458 11.1817H24.8012ZM17.3291 6.13401C17.7884 6.13401 18.1417 5.98386 18.389 5.68357C18.6451 5.37444 18.7732 5.0079 18.7732 4.58395C18.7732 4.1335 18.6451 3.75813 18.389 3.45783C18.1417 3.14871 17.7884 2.99414 17.3291 2.99414C16.861 2.99414 16.5033 3.14871 16.256 3.45783C16.0087 3.75813 15.885 4.1335 15.885 4.58395C15.885 5.0079 16.0087 5.37444 16.256 5.68357C16.5033 5.98386 16.861 6.13401 17.3291 6.13401Z" fill="var(--fill-0, #0046FF)"/>
<path id="Vector_6" d="M9.6714 8.61141V1.72224C9.6714 1.4926 9.6449 1.30712 9.59191 1.16581C9.54775 1.02449 9.46384 0.883173 9.34019 0.741856C9.2607 0.644701 9.23862 0.560795 9.27395 0.490137C9.31811 0.410646 9.38877 0.370901 9.48592 0.370901H11.7514V8.61141H9.6714ZM3.25917 1.92096C3.25917 1.70016 3.24151 1.52351 3.20618 1.39103C3.17968 1.24971 3.10461 1.1084 2.98095 0.967079C2.90146 0.869924 2.87938 0.781601 2.91471 0.702111C2.95004 0.622621 3.01628 0.582876 3.11344 0.582876H5.40541V2.34491C5.40541 2.77769 5.50257 3.17073 5.69688 3.52402C5.89119 3.86848 6.13849 4.17319 6.43879 4.43816C6.74792 4.70313 7.09238 4.93277 7.47216 5.12708C7.86078 5.32139 8.2494 5.48479 8.63802 5.61727L8.06834 6.69039C7.98002 6.84937 7.77246 6.89353 7.44567 6.82288C7.12771 6.75222 6.68168 6.54024 6.10758 6.18695C5.78078 5.98381 5.46724 5.75859 5.16694 5.51128C4.87548 5.25515 4.62817 4.98576 4.42503 4.70313C3.93926 5.39205 3.33866 5.97498 2.62325 6.45192C2.4201 6.5844 2.20813 6.71247 1.98732 6.83612C1.77535 6.95094 1.57221 7.0481 1.3779 7.12759C1.18359 7.19825 1.01577 7.24241 0.874457 7.26007C0.741973 7.26891 0.65365 7.23358 0.609488 7.15409L6.17078e-05 6.00147C0.441675 5.83366 0.856792 5.63493 1.24541 5.4053C1.64286 5.16682 1.99174 4.90186 2.29204 4.61039C2.59233 4.31893 2.82639 3.99655 2.9942 3.64326C3.17085 3.28997 3.25917 2.90135 3.25917 2.4774V1.92096ZM4.37204 12.6787C3.97458 12.6787 3.63454 12.6566 3.35191 12.6124C3.06928 12.5683 2.83964 12.4844 2.66299 12.3607C2.49518 12.2459 2.37153 12.0825 2.29204 11.8705C2.21255 11.6674 2.1728 11.398 2.1728 11.0624V9.00886C2.1728 8.87638 2.15072 8.75714 2.10656 8.65116C2.0624 8.54517 1.99174 8.43477 1.89458 8.31995C1.81509 8.22279 1.79301 8.13447 1.82834 8.05498C1.86367 7.97549 1.92991 7.93574 2.02707 7.93574H4.2793V10.6384C4.2793 10.8769 4.32346 11.027 4.41178 11.0889C4.50894 11.1507 4.66792 11.1816 4.88872 11.1816H11.9766V12.6787H4.37204Z" fill="var(--fill-0, #0046FF)"/>
</g>
</svg>
