<svg preserveAspectRatio="none" width="100%" height="100%" overflow="visible" style="display: block;" viewBox="0 0 69.9417 29" fill="none" xmlns="http://www.w3.org/2000/svg">
<g id="SOL">
<path id="Vector" d="M59.2204 0.773337V23.9733H69.9416V28.1915H53.4907V4.32364C53.4907 3.71435 53.4204 3.23394 53.2798 2.88243C53.1626 2.53091 52.94 2.16768 52.6119 1.79273C52.401 1.53495 52.3424 1.30061 52.4361 1.0897C52.5299 0.878792 52.7056 0.773337 52.9634 0.773337H59.2204Z" fill="var(--fill-0, #0046FF)"/>
<path id="Vector_2" d="M49.6903 14.4824C49.6903 16.6384 49.3856 18.6069 48.7763 20.3879C48.167 22.1689 47.2648 23.7038 46.0697 24.9927C44.8745 26.2582 43.3981 27.2424 41.6406 27.9455C39.9064 28.6485 37.9028 29 35.6297 29C33.3565 29 31.3412 28.6485 29.5836 27.9455C27.8495 27.2424 26.3848 26.2582 25.1897 24.9927C23.9945 23.7038 23.0923 22.1689 22.483 20.3879C21.8737 18.6069 21.5691 16.6384 21.5691 14.4824C21.5691 12.3265 21.8737 10.358 22.483 8.57697C23.0923 6.79596 23.9945 5.27273 25.1897 4.00727C26.3848 2.74182 27.8495 1.75758 29.5836 1.05455C31.3412 0.351515 33.3565 0 35.6297 0C37.9028 0 39.9064 0.351515 41.6406 1.05455C43.3981 1.75758 44.8745 2.74182 46.0697 4.00727C47.2648 5.27273 48.167 6.79596 48.7763 8.57697C49.3856 10.358 49.6903 12.3265 49.6903 14.4824ZM27.2636 14.4824C27.2636 17.8335 28.0135 20.4113 29.5133 22.2158C31.0131 23.9968 33.0519 24.8873 35.6297 24.8873C38.184 24.8873 40.2111 23.9968 41.7109 22.2158C43.2107 20.4113 43.9606 17.8335 43.9606 14.4824C43.9606 11.1313 43.2107 8.56525 41.7109 6.78424C40.2111 4.9798 38.184 4.07758 35.6297 4.07758C33.0519 4.07758 31.0131 4.9798 29.5133 6.78424C28.0135 8.56525 27.2636 11.1313 27.2636 14.4824Z" fill="var(--fill-0, #0046FF)"/>
<path id="Vector_3" d="M1.16469 22.3564C1.68024 22.7782 2.2661 23.1648 2.92226 23.5164C3.60186 23.8444 4.28146 24.1257 4.96105 24.36C5.66408 24.5943 6.35539 24.7818 7.03499 24.9224C7.71459 25.0396 8.34731 25.0982 8.93317 25.0982C10.3627 25.0982 11.4758 24.8053 12.2726 24.2194C13.0928 23.6101 13.5029 22.7079 13.5029 21.5127C13.5029 20.5988 13.2802 19.8255 12.835 19.1927C12.4132 18.56 11.6164 17.9507 10.4447 17.3648C9.76509 17.0133 9.12065 16.697 8.51136 16.4158C7.90206 16.1345 7.3162 15.8416 6.75378 15.537C6.19135 15.2323 5.64065 14.916 5.10166 14.5879C4.5861 14.2364 4.07055 13.8497 3.55499 13.4279C2.64105 12.6077 1.89115 11.6937 1.30529 10.6861C0.719434 9.65495 0.426505 8.40121 0.426505 6.92485C0.426505 5.91717 0.625697 4.99152 1.02408 4.14788C1.4459 3.28081 2.04348 2.54263 2.81681 1.93333C3.59014 1.32404 4.52752 0.855353 5.62893 0.527272C6.75378 0.175757 8.01923 0 9.42529 0C12.4718 0 15.1784 0.515556 17.5453 1.54667V5.8703C17.5453 6.19838 17.4281 6.40929 17.1938 6.50303C16.9594 6.57333 16.7134 6.50303 16.4556 6.29212C14.534 4.67515 12.4249 3.86667 10.1283 3.86667C8.86287 3.86667 7.89034 4.13616 7.21075 4.67515C6.55459 5.21414 6.22651 5.96404 6.22651 6.92485C6.22651 7.60445 6.34368 8.1903 6.57802 8.68243C6.81236 9.17455 7.16388 9.60808 7.63257 9.98303C8.52307 10.7095 9.47216 11.3422 10.4798 11.8812C11.511 12.4202 12.5186 12.924 13.5029 13.3927C14.4168 13.8145 15.2253 14.2715 15.9283 14.7636C16.6548 15.2558 17.2641 15.8182 17.7562 16.4509C18.2718 17.0836 18.6584 17.8101 18.9162 18.6303C19.174 19.4271 19.3029 20.3644 19.3029 21.4424C19.3029 22.7782 19.0334 23.9265 18.4944 24.8873C17.9788 25.8246 17.2524 26.6097 16.315 27.2424C15.3776 27.8517 14.2762 28.297 13.0107 28.5782C11.7687 28.8594 10.433 29 9.00348 29C7.94893 29 6.84752 28.8828 5.69923 28.6485C4.57438 28.4141 3.56671 28.1212 2.6762 27.7697C1.7857 27.3947 1.08267 26.9846 0.567111 26.5394C0.0515556 26.0941 -0.112485 25.6489 0.0749899 25.2036L1.16469 22.3564Z" fill="var(--fill-0, #0046FF)"/>
</g>
</svg>
