<svg width="57" height="29" viewBox="0 0 57 29" fill="none" xmlns="http://www.w3.org/2000/svg">
<path d="M56.2482 17.3618H29.0439V15.3444H56.2482V17.3618ZM34.5459 12.1043C34.1384 12.1043 33.8531 12.0228 33.6901 11.8598C33.527 11.6968 33.4455 11.4217 33.4455 11.0345V7.97787C33.4455 7.52956 33.4048 7.08125 33.3233 6.63294C33.2417 6.16425 33.0584 5.80764 32.7731 5.56311V5.04348H49.493V1.98682H33.2927V0H51.2964C51.5205 0 51.6632 0.0407554 51.7243 0.122266C51.8058 0.1834 51.8466 0.315855 51.8466 0.519632V6.99974H35.7991V10.1175H52.6107V12.1043H34.5459ZM52.9775 27.8155H34.332C33.9244 27.8155 33.6391 27.7238 33.4761 27.5404C33.3131 27.3774 33.2316 27.1023 33.2316 26.7152V19.5932H35.5852V25.7676H52.9775V27.8155Z" fill="#0046FF"/>
<path d="M27.2042 18.9206H14.7942V28.1517H12.3794V18.9206H0V16.8727H27.2042V18.9206ZM20.0211 4.06527V10.8816H24.0559V12.9601H3.11779V10.8816H7.3054V6.99966C7.3054 6.55135 7.26465 6.10304 7.18314 5.65473C7.10163 5.18605 6.91823 4.82944 6.63294 4.58491V4.06527H9.65903V10.8816H17.6675V4.06527H20.0211ZM2.87325 0.427856H24.3004V2.50638H2.87325V0.427856Z" fill="#0046FF"/>
</svg>
