<svg width="19" height="19" viewBox="0 0 19 19" fill="none" xmlns="http://www.w3.org/2000/svg">
<path fill-rule="evenodd" clip-rule="evenodd" d="M12.575 1.01649C13.9303 -0.338868 16.1278 -0.338791 17.4832 1.01649C18.8383 2.37169 18.8383 4.56851 17.4832 5.92372L6.72836 16.6796C6.32988 17.0781 5.82829 17.3585 5.28011 17.4891L1.13949 18.4745C0.827166 18.5488 0.497503 18.4564 0.270349 18.2294C0.0432215 18.0023 -0.0491028 17.6727 0.0252315 17.3602L1.01058 13.2196C1.14108 12.6716 1.4218 12.1708 1.82015 11.7723L12.575 1.01649ZM3.12777 13.08C2.9715 13.2363 2.86158 13.4333 2.81039 13.6483L2.17269 16.3261L4.8514 15.6893C5.06641 15.6381 5.26347 15.5281 5.41976 15.372L14.242 6.54969L11.95 4.2577L3.12777 13.08ZM16.1756 2.32411C15.5429 1.69138 14.5165 1.69163 13.8836 2.32411L13.2577 2.94911L15.5496 5.2411L16.1756 4.6161C16.8081 3.98336 16.8081 2.95688 16.1756 2.32411Z" fill="white"/>
</svg>
