<svg width="34" height="34" viewBox="0 0 34 34" fill="none" xmlns="http://www.w3.org/2000/svg">
<path d="M6.22932 6.45088L6.3322 6.33171C6.70941 5.95449 7.29968 5.92021 7.71563 6.22883L7.8348 6.33171L17.0002 15.4966L26.1656 6.33171C26.5805 5.91678 27.2531 5.91678 27.6681 6.33171C28.083 6.74663 28.083 7.41938 27.6681 7.83431L18.5032 16.9997L27.6681 26.1651C28.0453 26.5422 28.0796 27.1325 27.7709 27.5485L27.6681 27.6676C27.291 28.0449 26.7006 28.0791 26.2847 27.7704L26.1656 27.6676L17.0002 18.5028L7.8348 27.6676C7.41987 28.0825 6.74712 28.0825 6.3322 27.6676C5.91727 27.2527 5.91727 26.58 6.3322 26.1651L15.4971 16.9997L6.3322 7.83431C5.95498 7.45709 5.9207 6.86683 6.22932 6.45088Z" fill="#212121"/>
</svg>
