<svg preserveAspectRatio="none" width="100%" height="100%" overflow="visible" style="display: block;" viewBox="0 0 78.328 13" fill="none" xmlns="http://www.w3.org/2000/svg">
<g id="Levels">
<path id="Cellular Connection" fill-rule="evenodd" clip-rule="evenodd" d="M19.2 1.53307C19.2 0.900024 18.7224 0.386841 18.1333 0.386841H17.0667C16.4776 0.386841 16 0.900024 16 1.53307V11.467C16 12.1001 16.4776 12.6133 17.0667 12.6133H18.1333C18.7224 12.6133 19.2 12.1001 19.2 11.467V1.53307ZM11.7659 2.83212H12.8326C13.4217 2.83212 13.8992 3.35762 13.8992 4.00586V11.4395C13.8992 12.0878 13.4217 12.6133 12.8326 12.6133H11.7659C11.1768 12.6133 10.6992 12.0878 10.6992 11.4395V4.00586C10.6992 3.35762 11.1768 2.83212 11.7659 2.83212ZM7.43411 5.48117H6.36745C5.77834 5.48117 5.30078 6.01336 5.30078 6.66985V11.4246C5.30078 12.0811 5.77834 12.6132 6.36745 12.6132H7.43411C8.02322 12.6132 8.50078 12.0811 8.50078 11.4246V6.66985C8.50078 6.01336 8.02322 5.48117 7.43411 5.48117ZM2.13333 7.92646H1.06667C0.477563 7.92646 0 8.45105 0 9.09816V11.4416C0 12.0887 0.477563 12.6133 1.06667 12.6133H2.13333C2.72244 12.6133 3.2 12.0887 3.2 11.4416V9.09816C3.2 8.45105 2.72244 7.92646 2.13333 7.92646Z" fill="var(--fill-0, white)"/>
<path id="Wifi" fill-rule="evenodd" clip-rule="evenodd" d="M34.7713 2.8021C37.2584 2.8022 39.6504 3.72428 41.4529 5.37776C41.5887 5.50542 41.8056 5.50381 41.9393 5.37415L43.2368 4.11069C43.3045 4.04493 43.3422 3.95585 43.3417 3.86317C43.3411 3.77049 43.3023 3.68184 43.2338 3.61685C38.5028 -0.757863 31.0391 -0.757863 26.3081 3.61685C26.2395 3.6818 26.2007 3.77041 26.2 3.8631C26.1994 3.95578 26.2371 4.04488 26.3047 4.11069L27.6026 5.37415C27.7362 5.504 27.9533 5.50562 28.0889 5.37776C29.8917 3.72418 32.284 2.80209 34.7713 2.8021ZM34.768 7.02237C36.1253 7.02229 37.4342 7.53403 38.4403 8.45816C38.5764 8.58931 38.7907 8.58647 38.9234 8.45175L40.2107 7.13244C40.2785 7.06324 40.3161 6.96936 40.3151 6.87181C40.3141 6.77426 40.2746 6.68118 40.2055 6.61339C37.1416 3.72254 32.3969 3.72254 29.3331 6.61339C29.2639 6.68118 29.2244 6.77431 29.2235 6.87189C29.2225 6.96947 29.2603 7.06334 29.3282 7.13244L30.6151 8.45175C30.7478 8.58647 30.9622 8.58931 31.0982 8.45816C32.1037 7.53464 33.4115 7.02294 34.768 7.02237ZM37.2924 9.81592C37.2943 9.92127 37.2572 10.0228 37.1899 10.0967L35.0133 12.5514C34.9495 12.6235 34.8625 12.6641 34.7717 12.6641C34.6809 12.6641 34.594 12.6235 34.5301 12.5514L32.3531 10.0967C32.2859 10.0228 32.2489 9.92119 32.2509 9.81584C32.2529 9.71049 32.2937 9.61072 32.3637 9.54011C33.7538 8.22621 35.7897 8.22621 37.1798 9.54011C37.2497 9.61078 37.2905 9.71057 37.2924 9.81592Z" fill="var(--fill-0, white)"/>
<g id="Battery">
<rect id="Border" opacity="0.35" x="51.5" y="0.5" width="24" height="12" rx="3.8" stroke="var(--stroke-0, white)"/>
<path id="Cap" opacity="0.4" d="M77 4.78113V8.8566C77.8047 8.51143 78.328 7.70847 78.328 6.81886C78.328 5.92926 77.8047 5.1263 77 4.78113" fill="var(--fill-0, white)"/>
<rect id="Capacity" x="53" y="2" width="21" height="9" rx="2.5" fill="var(--fill-0, white)"/>
</g>
</g>
</svg>
