<svg preserveAspectRatio="none" width="100%" height="100%" overflow="visible" style="display: block;" viewBox="0 0 24 24" fill="none" xmlns="http://www.w3.org/2000/svg">
<g id="Dismiss / undefined / Glyph: undefined">
<path id="Vector" d="M1.14705 4.30379L1.21967 4.21967C1.48594 3.9534 1.9026 3.9292 2.19621 4.14705L2.28033 4.21967L8.75 10.689L15.2197 4.21967C15.5126 3.92678 15.9874 3.92678 16.2803 4.21967C16.5732 4.51256 16.5732 4.98744 16.2803 5.28033L9.811 11.75L16.2803 18.2197C16.5466 18.4859 16.5708 18.9026 16.3529 19.1962L16.2803 19.2803C16.0141 19.5466 15.5974 19.5708 15.3038 19.3529L15.2197 19.2803L8.75 12.811L2.28033 19.2803C1.98744 19.5732 1.51256 19.5732 1.21967 19.2803C0.92678 18.9874 0.92678 18.5126 1.21967 18.2197L7.689 11.75L1.21967 5.28033C0.9534 5.01406 0.9292 4.5974 1.14705 4.30379Z" fill="var(--fill-0, #E6E6E6)"/>
</g>
</svg>
