<svg preserveAspectRatio="none" width="100%" height="100%" overflow="visible" style="display: block;" viewBox="0 0 52 52" fill="none" xmlns="http://www.w3.org/2000/svg">
<g id="Frame 23">
<rect width="52" height="52" rx="26" fill="var(--fill-0, #ABC8FF)"/>
<path id="Vector" d="M26 16.9004C31.0258 16.9004 35.0996 20.9742 35.0996 26C35.0996 31.0258 31.0258 35.0996 26 35.0996C20.9742 35.0996 16.9004 31.0258 16.9004 26C16.9004 25.5266 16.9361 25.0614 17.0059 24.6074C17.0704 24.1879 17.4417 23.9004 17.8574 23.9004C18.3855 23.9006 18.7546 24.4012 18.6797 24.9072C18.6269 25.2638 18.5996 25.6286 18.5996 26C18.5996 30.0869 21.9131 33.4004 26 33.4004C30.0869 33.4004 33.4004 30.0869 33.4004 26C33.4004 21.9131 30.0869 18.5996 26 18.5996C24.1509 18.5996 22.4612 19.2791 21.1641 20.4004H22.25C22.7194 20.4004 23.0996 20.7806 23.0996 21.25C23.0996 21.7194 22.7194 22.0996 22.25 22.0996H19.25C18.7806 22.0996 18.4004 21.7194 18.4004 21.25V18.25C18.4004 17.7806 18.7806 17.4004 19.25 17.4004C19.7194 17.4004 20.0996 17.7806 20.0996 18.25V19.0742C21.6884 17.7193 23.7482 16.9004 26 16.9004Z" fill="var(--fill-0, #14307C)" stroke="var(--stroke-0, #14307C)" stroke-width="0.2"/>
</g>
</svg>
