<svg preserveAspectRatio="none" width="100%" height="100%" overflow="visible" style="display: block;" viewBox="0 0 18 18" fill="none" xmlns="http://www.w3.org/2000/svg">
<g id="Frame 2147230424">
<path id="Vector" d="M9.00026 7.22827C10.7205 7.22827 12.1154 8.62232 12.1155 10.3425C12.1155 12.0629 10.7205 13.4578 9.00026 13.4578C7.28006 13.4576 5.886 12.0628 5.886 10.3425C5.88606 8.6224 7.28009 7.22839 9.00026 7.22827ZM9.00026 8.47729C7.9701 8.47741 7.13508 9.31236 7.13502 10.3425C7.13502 11.3727 7.97007 12.2076 9.00026 12.2078C10.0306 12.2078 10.8665 11.3728 10.8665 10.3425C10.8664 9.31228 10.0305 8.47729 9.00026 8.47729ZM9.00026 4.54272C12.5582 4.54272 15.6295 6.97223 16.4817 10.3767C16.5653 10.7113 16.3622 11.0498 16.0276 11.1335C15.6929 11.2172 15.3536 11.0141 15.2698 10.6794C14.5558 7.82794 11.9816 5.79174 9.00026 5.79174C6.01751 5.79185 3.44233 7.83002 2.72975 10.6833C2.64609 11.0178 2.30745 11.2208 1.97292 11.1374C1.63828 11.0538 1.43438 10.7153 1.51784 10.3806C2.36855 6.97421 5.4408 4.54282 9.00026 4.54272Z" fill="#C8C8C8" stroke="#C8C8C8" stroke-width="0.1"/>
</g>
</svg>
