<svg preserveAspectRatio="none" width="100%" height="100%" overflow="visible" style="display: block;" viewBox="0 0 121 121" fill="none" xmlns="http://www.w3.org/2000/svg">
<g id="Group 52">
<path id="Ellipse 372" d="M121 60.5001C121 93.9133 93.9133 121 60.5001 121C27.0868 121 6.2121e-05 93.9133 6.2121e-05 60.5001C6.2121e-05 27.0868 27.0868 6.92125e-05 60.5001 6.92125e-05C93.9133 6.92125e-05 121 27.0868 121 60.5001ZM22.5386 60.5001C22.5386 81.4656 39.5345 98.4615 60.5001 98.4615C81.4656 98.4615 98.4615 81.4656 98.4615 60.5001C98.4615 39.5346 81.4656 22.5386 60.5001 22.5386C39.5345 22.5386 22.5386 39.5346 22.5386 60.5001Z" fill="#ABC8FF"/>
<path id="Ellipse 371" d="M103.28 103.28C94.2007 112.359 82.4681 118.315 69.7799 120.284C57.0917 122.254 44.1059 120.135 32.7015 114.235C21.297 108.336 12.0654 98.9604 6.34222 87.4663C0.619072 75.9722 -1.29873 62.9553 0.866283 50.299C3.0313 37.6427 9.16686 26.0034 18.3852 17.0652C27.6036 8.12699 39.4266 2.35346 52.1437 0.57995C64.8607 -1.19356 77.8123 1.12494 89.1244 7.19998C100.436 13.275 109.522 22.7915 115.067 34.3726L94.739 44.1061C91.2597 36.8394 85.5586 30.8682 78.4607 27.0563C71.3628 23.2445 63.2362 21.7897 55.2567 22.9025C47.2773 24.0153 39.8588 27.638 34.0746 33.2463C28.2904 38.8547 24.4406 46.1579 23.0822 54.0993C21.7237 62.0406 22.927 70.2082 26.5181 77.4203C30.1091 84.6325 35.9017 90.5151 43.0575 94.2169C50.2134 97.9188 58.3615 99.2481 66.3228 98.0123C74.2842 96.7765 81.6459 93.0398 87.3428 87.3429L103.28 103.28Z" fill="#E6EFFF"/>
<path id="Ellipse 370" d="M103.28 103.28C95.5723 110.988 85.9253 116.47 75.3588 119.147C64.7923 121.824 53.6988 121.597 43.2509 118.489C32.8029 115.381 23.3887 109.508 16.0032 101.491C8.61778 93.4743 3.53549 83.6108 1.29354 72.9435C-0.948402 62.2761 -0.266707 51.2013 3.26657 40.8894C6.79985 30.5776 13.0535 21.4119 21.3664 14.3611C29.6793 7.31032 39.7427 2.63643 50.4929 0.833432C61.2432 -0.969565 72.2808 0.165321 82.4392 4.11813L74.2661 25.1226C67.892 22.6423 60.9663 21.9302 54.221 23.0615C47.4756 24.1929 41.1612 27.1255 35.9452 31.5496C30.7291 35.9737 26.8052 41.7249 24.5882 48.1951C22.3712 54.6654 21.9435 61.6145 23.3502 68.3078C24.757 75.0012 27.9459 81.1901 32.58 86.2205C37.2141 91.2509 43.1212 94.9359 49.6769 96.8859C56.2325 98.8359 63.1933 98.9786 69.8234 97.2988C76.4535 95.619 82.5065 92.1792 87.3428 87.3429L103.28 103.28Z" fill="#074ED8"/>
</g>
</svg>
