<svg preserveAspectRatio="none" width="100%" height="100%" overflow="visible" style="display: block;" viewBox="0 0 195.511 71.0364" fill="none" xmlns="http://www.w3.org/2000/svg">
<g id="&#235;&#132;&#136;&#236;&#153;&#128; &#235;&#130;&#152;, &#236;&#154;&#176;&#235;&#166;&#172; &#236;&#134;&#148;&#236;&#158;&#142;&#235;&#147;&#164;&#236;&#157;&#152; &#234;&#191;&#136;&#236;&#157;&#132; &#236;&#157;&#145;&#236;&#155;&#144;&#237;&#149;&#180;">
<path id="Vector" d="M149.938 46.6029C149.938 46.2705 150.187 46.1874 150.685 46.3536C150.997 46.4367 151.257 46.6029 151.465 46.8522C151.838 47.2677 152.088 48.1611 152.212 49.5323C152.358 50.9035 152.431 53.4069 152.431 57.0427C152.41 59.7643 152.368 62.1846 152.306 64.3037C152.244 66.402 152.161 68.0122 152.057 69.134C151.974 70.2559 151.87 70.8065 151.745 70.7857C151.558 70.7026 151.496 68.49 151.558 64.1479C151.62 59.7435 151.568 57.4789 151.402 57.3543C151.153 57.2296 150.53 57.3543 149.532 57.7282C149.096 57.8944 148.774 58.0399 148.566 58.1645C148.379 58.2892 148.203 58.4346 148.037 58.6008C147.87 58.767 147.777 59.0267 147.756 59.3799C147.735 59.7331 147.725 60.1174 147.725 60.533C147.725 60.9277 147.746 61.5302 147.787 62.3404C147.912 64.0856 147.891 65.0205 147.725 65.1451C147.455 65.2906 147.257 65.114 147.133 64.6153C146.946 63.7635 146.852 61.4678 146.852 57.7282C146.852 55.0066 146.821 53.2407 146.759 52.4305C146.717 51.6202 146.603 51.1112 146.416 50.9035C146.188 50.6749 146.104 50.4568 146.167 50.249C146.229 50.0205 146.406 49.9062 146.697 49.9062C147.07 49.9062 147.33 50.2179 147.476 50.8411C147.642 51.4436 147.725 52.5136 147.725 54.051C147.725 54.0925 147.725 54.1445 147.725 54.2068C147.725 54.7262 147.715 55.1001 147.694 55.3287C147.673 55.5572 147.683 55.8273 147.725 56.1389C147.766 56.4505 147.798 56.6583 147.818 56.7622C147.839 56.8453 147.902 56.9388 148.005 57.0427C148.109 57.1465 148.192 57.1985 148.255 57.1985C148.338 57.1777 148.494 57.1465 148.722 57.105C148.951 57.0634 149.148 57.0115 149.314 56.9492C149.48 56.8661 149.761 56.7518 150.156 56.6064C150.176 56.5856 150.197 56.5752 150.218 56.5752L151.683 55.9519L151.496 53.7082C151.371 52.0461 151.309 50.758 151.309 49.8439C151.309 49.1583 151.267 48.6701 151.184 48.3792C151.101 48.0884 150.924 47.8183 150.654 47.569C150.176 47.1327 149.938 46.8107 149.938 46.6029ZM135.135 48.0988C135.135 47.9118 135.218 47.7871 135.384 47.7248C135.571 47.6625 135.831 47.6729 136.163 47.756C136.496 47.8391 136.88 47.9741 137.316 48.1611C138.002 48.4727 138.802 48.6805 139.716 48.7844C140.63 48.8882 141.191 49.096 141.399 49.4076C141.586 49.7193 141.638 49.9166 141.555 49.9997C141.471 50.0828 140.869 50.0309 139.747 49.8439C138.625 49.6569 137.971 49.5011 137.784 49.3765C137.618 49.2103 137.14 49.0233 136.35 48.8155C135.54 48.6078 135.135 48.3688 135.135 48.0988ZM139.435 52.9603C142.074 52.2747 143.476 51.9526 143.643 51.9942C143.83 52.0357 143.923 52.1812 143.923 52.4305C143.923 52.7629 142.625 53.2096 140.028 53.7705C139.155 53.999 138.241 54.2379 137.285 54.4873C137.202 54.508 137.109 54.5288 137.005 54.5496C136.215 54.7989 135.748 54.9235 135.602 54.9235C135.478 54.9028 135.415 54.7677 135.415 54.5184C135.415 54.4769 135.415 54.4457 135.415 54.4249C135.415 54.2379 135.675 54.051 136.194 53.864C136.735 53.6562 137.815 53.355 139.435 52.9603ZM138.22 57.7906C138.802 57.0842 139.778 57.0115 141.149 57.5724C141.96 57.9256 142.448 58.4658 142.614 59.1929C142.801 59.9201 142.635 60.7095 142.116 61.5613C141.866 61.9353 141.482 62.3093 140.962 62.6832C140.443 63.0572 139.903 63.348 139.342 63.5558C138.781 63.7428 138.334 63.8051 138.002 63.7428C137.42 63.5973 136.942 63.3688 136.568 63.0572C136.194 62.7248 135.956 62.3508 135.852 61.9353C135.748 61.5198 135.872 61.0212 136.226 60.4395C136.579 59.837 137.244 58.954 138.22 57.7906ZM140.651 58.3515C140.111 58.1438 139.747 58.0399 139.56 58.0399C139.56 58.0607 139.529 58.0814 139.467 58.1022C139.404 58.1022 139.332 58.1126 139.248 58.1334C139.165 58.1541 139.093 58.1749 139.03 58.1957C138.843 58.258 138.438 58.7047 137.815 59.5357C137.212 60.346 136.828 60.9796 136.662 61.4367C136.517 61.7899 136.703 62.1119 137.223 62.4027C137.742 62.6728 138.293 62.7663 138.875 62.6832C139.789 62.5378 140.526 62.1638 141.087 61.5613C141.669 60.9588 141.918 60.346 141.835 59.7227C141.773 59.0787 141.378 58.6216 140.651 58.3515Z" fill="var(--fill-0, #074ED8)" stroke="var(--stroke-0, #074ED8)" stroke-width="0.5"/>
<path id="Vector_2" d="M129.625 46.3225C129.978 45.72 130.383 45.8654 130.84 46.7588C131.027 47.1327 131.194 47.5898 131.339 48.13C131.526 48.7948 131.63 49.6258 131.651 50.623C131.671 51.6203 131.63 53.4381 131.526 56.0766C131.443 59.0475 131.339 60.9485 131.214 61.7795C131.09 62.6105 130.851 63.026 130.498 63.026C130.352 62.9429 130.29 62.3716 130.311 61.3121C130.352 60.2525 130.498 57.6556 130.747 53.5212C130.851 51.9423 130.82 50.5815 130.653 49.4388C130.487 48.2962 130.207 47.5067 129.812 47.0704C129.542 46.738 129.48 46.4887 129.625 46.3225ZM120.93 47.3197C121.471 47.1951 121.855 47.1639 122.084 47.2262C122.333 47.2678 122.624 47.434 122.956 47.7248C123.455 48.2027 123.673 48.7948 123.611 49.5011C123.569 50.1867 123.226 50.8827 122.582 51.5891C122.187 52.0254 121.855 52.3266 121.585 52.4928C121.315 52.6383 121.014 52.711 120.681 52.711C120.349 52.711 120.006 52.6279 119.653 52.4617C119.3 52.2955 118.978 52.0877 118.687 51.8384C118.417 51.5891 118.24 51.319 118.157 51.0281C118.012 50.5295 118.271 49.8336 118.936 48.9402C119.622 48.0261 120.286 47.4859 120.93 47.3197ZM122.208 48.2234C121.813 48.0157 121.491 47.9534 121.242 48.0365C120.993 48.0988 120.598 48.3896 120.058 48.909C119.476 49.4908 119.165 50.0309 119.123 50.5295C119.081 51.0281 119.331 51.3813 119.871 51.5891C120.266 51.7553 120.733 51.7241 121.273 51.4956C121.834 51.2671 122.229 50.9347 122.458 50.4984C122.707 50.0621 122.8 49.6258 122.738 49.1895C122.696 48.7324 122.52 48.4104 122.208 48.2234ZM126.135 53.3031C126.883 52.8252 127.579 52.6279 128.223 52.711C128.514 52.7317 128.576 52.846 128.41 53.0538C128.036 53.49 126.685 54.1549 124.358 55.0482C123.673 55.3183 123.33 55.6299 123.33 55.9831C123.33 56.3363 122.748 57.3855 121.585 59.1306C120.297 61.0212 119.403 62.3612 118.905 63.1507C118.302 64.0648 117.918 64.5634 117.752 64.6465C117.44 64.7504 117.357 64.5738 117.503 64.1168C117.648 63.5766 117.991 62.9325 118.531 62.1846C119.341 61.0004 119.881 60.2006 120.151 59.785C121.71 57.2089 122.478 55.8169 122.458 55.6092C122.437 55.5053 122.239 55.5053 121.865 55.6092C121.408 55.7546 120.338 56.0143 118.656 56.3882C116.973 56.7414 115.809 56.9803 115.165 57.105C114.75 57.1466 114.469 57.1569 114.324 57.1362C114.178 57.0946 114.106 56.9907 114.106 56.8245C114.106 56.5752 114.293 56.3986 114.667 56.2948C115.041 56.1909 115.976 56.0143 117.471 55.765C118.926 55.5364 120.608 55.1521 122.52 54.6119C124.452 54.0718 125.657 53.6355 126.135 53.3031ZM126.883 57.0427C127.568 56.6687 128.171 56.461 128.69 56.4194C129.23 56.3779 129.563 56.5129 129.687 56.8245C129.708 56.8869 129.708 56.9492 129.687 57.0115C129.667 57.0531 129.625 57.0946 129.563 57.1362C129.5 57.1569 129.438 57.1673 129.376 57.1673C129.002 57.1673 128.451 57.3439 127.724 57.6971C124.961 58.9021 123.507 59.4215 123.361 59.2553C123.278 59.1722 123.351 59.006 123.579 58.7567C123.808 58.5074 124.088 58.2788 124.421 58.0711C124.753 57.8425 124.992 57.7283 125.138 57.7283C125.449 57.7283 126.031 57.4997 126.883 57.0427ZM124.608 62.7144C124.857 62.2989 125.127 62.5274 125.418 63.4C125.501 63.6285 125.584 63.9194 125.667 64.2726C125.979 65.4983 126.27 66.2151 126.54 66.4228C126.831 66.6306 127.734 66.6618 129.251 66.5163C130.996 66.3501 132.129 66.2774 132.648 66.2982C133.188 66.319 133.5 66.4125 133.583 66.5787C133.645 66.8072 133.52 66.9734 133.209 67.0773C132.897 67.1604 131.993 67.3162 130.498 67.5447C127.714 67.9187 126.062 67.6174 125.543 66.641C125.293 66.1839 125.044 65.4568 124.795 64.4596C124.566 63.4623 124.504 62.8806 124.608 62.7144Z" fill="var(--fill-0, #074ED8)" stroke="var(--stroke-0, #074ED8)" stroke-width="0.5"/>
<path id="Vector_3" d="M102.671 46.9768C103.356 46.5613 103.949 46.395 104.447 46.4781C104.946 46.5612 105.33 46.769 105.6 47.1014C105.87 47.4338 105.964 47.9013 105.881 48.5038C105.798 49.0855 105.517 49.6776 105.039 50.2801C103.938 51.6305 102.941 52.1499 102.048 51.8382C101.03 51.4643 100.728 50.4982 101.144 48.9401C101.289 48.4414 101.466 48.0675 101.674 47.8182C101.881 47.5481 102.214 47.2676 102.671 46.9768ZM105.039 48.1921C105.039 47.8597 104.998 47.652 104.915 47.5689C104.832 47.465 104.624 47.413 104.291 47.413C103.315 47.4338 102.588 47.9013 102.11 48.8154C101.528 49.9788 101.601 50.654 102.328 50.841C102.91 50.9864 103.502 50.7683 104.104 50.1866C104.728 49.5841 105.039 48.9193 105.039 48.1921ZM110.524 53.6769C111.189 53.4276 111.584 53.3029 111.708 53.3029C111.854 53.2821 112.051 53.3549 112.3 53.5211C112.633 53.7288 112.612 53.9885 112.238 54.3001C111.968 54.5495 111.636 54.6741 111.241 54.6741C110.846 54.6741 109.724 54.9026 107.875 55.3597C106.296 55.7752 104.52 56.1492 102.546 56.4816C100.926 56.7517 98.7651 57.188 96.0642 57.7904C93.4881 58.3306 92.148 58.5488 92.0442 58.4449C91.7949 58.2163 92.0545 57.9567 92.8232 57.6658C93.9451 57.2711 96.5005 56.7413 100.489 56.0765C104.852 55.3285 108.197 54.5287 110.524 53.6769ZM101.611 62.2156C102.588 61.5924 103.388 61.3119 104.011 61.3742C104.634 61.4366 105.164 61.8625 105.6 62.6519C105.829 63.109 105.735 63.7219 105.32 64.4906C104.904 65.2593 104.302 65.8929 103.512 66.3915C102.66 66.9109 102.006 67.1706 101.549 67.1706C101.092 67.1706 100.656 66.9005 100.24 66.3604C99.513 65.5293 99.1598 64.6568 99.1806 63.7426C99.2429 63.2025 99.461 62.9428 99.835 62.9636C100.167 63.0051 100.76 62.7558 101.611 62.2156ZM104.634 62.7143C104.343 62.4026 104.032 62.2468 103.699 62.2468C103.388 62.2468 102.91 62.4026 102.266 62.7143C100.811 63.5037 100.209 64.3036 100.458 65.1138C100.624 65.7787 101.04 66.0903 101.705 66.0487C102.39 65.9864 103.128 65.6021 103.917 64.8957C104.458 64.3971 104.78 63.992 104.883 63.6803C104.987 63.3479 104.904 63.0259 104.634 62.7143Z" fill="var(--fill-0, #074ED8)" stroke="var(--stroke-0, #074ED8)" stroke-width="0.5"/>
<path id="Vector_4" d="M72.138 45.855C72.8859 45.4603 73.4676 45.2525 73.8831 45.2317C74.2986 45.1902 74.7245 45.3252 75.1608 45.6369C75.4517 45.8238 75.6179 46.0108 75.6594 46.1978C75.7218 46.3848 75.7218 46.7276 75.6594 47.2262C75.6179 47.6625 75.4932 48.0364 75.2855 48.3481C75.0985 48.6597 74.7765 49.0129 74.3194 49.4076C73.2806 50.3633 72.4185 50.6853 71.7329 50.3737C71.068 50.062 70.7668 49.2206 70.8291 47.8494C70.8499 47.2054 70.9226 46.7899 71.0473 46.6029C71.1927 46.4159 71.5563 46.1666 72.138 45.855ZM74.4752 46.1666C73.852 45.9589 73.343 46.0212 72.9482 46.3536C72.782 46.499 72.6158 46.6756 72.4496 46.8834C72.2834 47.0911 72.1276 47.3093 71.9822 47.5378C71.8575 47.7663 71.7536 47.9949 71.6705 48.2234C71.5874 48.4519 71.5459 48.6493 71.5459 48.8155C71.5459 49.0648 71.6809 49.231 71.951 49.3141C72.2211 49.3972 72.5535 49.3765 72.9482 49.2518C73.343 49.1271 73.7065 48.9194 74.0389 48.6285C74.5168 48.2338 74.7973 47.7663 74.8804 47.2262C74.9842 46.686 74.8492 46.3328 74.4752 46.1666ZM78.4018 51.7449C78.8173 51.5994 79.2328 51.4956 79.6484 51.4332C80.0639 51.3501 80.3963 51.319 80.6456 51.3397C80.9157 51.3605 81.0507 51.4332 81.0507 51.5579C81.0507 51.8903 80.5521 52.1812 79.5549 52.4305C78.9939 52.5759 77.6851 52.9291 75.6283 53.49C73.5715 54.0302 71.7432 54.4249 70.1435 54.6742C67.9205 55.0066 65.7391 55.5052 63.5992 56.1701C62.5189 56.5025 61.9268 56.6064 61.8229 56.4817C61.8021 56.4401 61.7918 56.3467 61.7918 56.2012C61.7918 55.9519 62.5604 55.5884 64.0978 55.1105C65.656 54.6327 67.2142 54.2795 68.7723 54.051C69.9773 53.9055 71.6186 53.5835 73.6961 53.0849C75.7945 52.5863 77.363 52.1396 78.4018 51.7449ZM73.9455 58.632C74.5064 58.4242 74.9427 58.3203 75.2543 58.3203C75.6075 58.2996 75.8776 58.5073 76.0646 58.9436C76.2515 59.3799 76.2827 59.8993 76.1581 60.5018C75.9919 61.2289 75.9088 61.6652 75.9088 61.8106C75.888 62.0184 75.3374 62.5689 74.2571 63.4623C73.5507 64.0232 73.1041 64.4387 72.9171 64.7088C72.7509 64.9789 72.6885 65.3009 72.7301 65.6749C72.7716 66.0696 72.8547 66.3085 72.9794 66.3916C73.104 66.454 73.4676 66.4644 74.0701 66.4228C74.9427 66.3605 75.9087 66.1112 76.9683 65.6749C78.0694 65.2178 78.755 65.0932 79.0251 65.3009C79.2536 65.5087 79.2952 65.7061 79.1497 65.893C79.0043 66.0592 78.6511 66.267 78.0902 66.5163C77.5708 66.7448 76.719 66.9734 75.5348 67.2019C74.3506 67.4512 73.5403 67.5759 73.1041 67.5759C72.7301 67.5551 72.3769 67.3577 72.0445 66.9838C71.7121 66.6306 71.5459 66.267 71.5459 65.893C71.5459 65.5398 71.4316 65.3529 71.2031 65.3321C70.9746 65.2905 70.4967 65.4152 69.7696 65.7061C69.4787 65.8307 69.3333 65.7684 69.3333 65.5191C69.3541 65.1659 70.7564 64.1167 73.5403 62.3716C74.1636 61.9976 74.5895 61.6444 74.818 61.312C75.0673 60.9796 75.192 60.5641 75.192 60.0655C75.192 59.6084 75.1504 59.3383 75.0673 59.2552C75.005 59.1721 74.8388 59.1825 74.5687 59.2864C73.6546 59.5357 72.46 60.2525 70.9849 61.4367C69.8838 62.2677 69.3333 62.4443 69.3333 61.9665C69.3333 61.6964 69.915 61.1458 71.0784 60.3148C72.2419 59.463 73.1975 58.9021 73.9455 58.632Z" fill="var(--fill-0, #074ED8)" stroke="var(--stroke-0, #074ED8)" stroke-width="0.5"/>
<path id="Vector_5" d="M55.1977 48.0675C55.7171 47.8182 56.1742 47.6936 56.5689 47.6936C56.839 47.6936 57.0052 47.7767 57.0675 47.9429C57.1299 48.1091 57.161 48.5973 57.161 49.4076C57.161 50.6541 57.0364 51.776 56.7871 52.7732C56.5378 53.7496 56.2469 54.2794 55.9145 54.3625C55.7275 54.3833 55.6029 54.3625 55.5405 54.3002C55.499 54.2171 55.5198 54.0405 55.6029 53.7704C55.8106 53.0225 55.9872 52.0461 56.1326 50.8411C56.2988 49.6361 56.3404 48.992 56.2573 48.9089C56.1119 48.8051 55.6029 48.8778 54.7303 49.1271L53.4214 49.5634L52.954 51.7136C52.6631 52.9394 52.4034 53.7912 52.1749 54.269C51.9671 54.7261 51.7282 54.9546 51.4581 54.9546C51.188 54.9546 51.053 54.8923 51.053 54.7677C51.053 54.6222 51.188 54.2483 51.4581 53.6458C51.5828 53.3134 51.7178 52.8148 51.8633 52.1499C52.0087 51.4643 52.1022 50.893 52.1437 50.4359C52.1853 49.9789 52.1541 49.7088 52.0502 49.6257C51.9048 49.6257 51.4581 49.8542 50.7102 50.3113C49.9623 50.7476 49.3494 51.1423 48.8716 51.4955C47.8951 52.2642 47.4069 52.3577 47.4069 51.776C47.4069 51.402 48.1964 50.8099 49.7753 49.9997C51.375 49.1686 52.4346 48.8155 52.954 48.9401C53.411 49.044 53.7642 48.9817 54.0135 48.7531C54.2836 48.5246 54.6783 48.2961 55.1977 48.0675ZM56.0391 55.1105C58.6361 54.2587 60.0177 53.9782 60.1839 54.269L60.2462 54.4249C60.2462 54.4872 60.1423 54.5807 59.9346 54.7053C59.7476 54.83 59.4775 54.9546 59.1243 55.0793C58.7919 55.2039 58.4283 55.3286 58.0336 55.4532C56.517 55.9103 55.686 56.2427 55.5405 56.4505C55.3535 56.6998 55.312 57.5308 55.4159 58.9435C55.5405 60.3563 55.7067 61.0627 55.9145 61.0627C56.2261 61.0627 56.5066 61.2289 56.7559 61.5613C57.026 61.8937 57.161 62.2365 57.161 62.5897C57.161 63.0259 56.974 63.483 56.6001 63.9608C56.2261 64.4387 56.0391 64.7192 56.0391 64.8023C56.0391 64.9269 56.5481 64.9892 57.5661 64.9892C59.062 64.9892 59.8099 65.1451 59.8099 65.4567C59.8099 65.5398 59.7684 65.6125 59.6853 65.6748C59.4775 65.9034 58.688 65.9761 57.3168 65.893C55.9041 65.7891 55.0108 65.8826 54.6368 66.1734C53.9304 66.6097 53.4318 66.7967 53.1409 66.7344C52.8709 66.6513 52.3619 66.2254 51.6139 65.4567L50.2428 63.992L50.9907 63.7427C51.5101 63.5765 52.2476 63.0779 53.2033 62.2469L54.6991 61.0003L54.481 58.8812C54.3563 57.4269 54.2732 56.679 54.2317 56.6375C54.1693 56.5544 53.7538 56.6167 52.9851 56.8244C52.2372 57.0322 51.6243 57.2296 51.1465 57.4165C50.7725 57.5827 50.035 57.8736 48.9339 58.2891C48.1652 58.5592 47.2407 58.9228 46.1604 59.3798C45.3917 59.7122 44.7165 59.9408 44.1347 60.0654C43.553 60.1901 43.2102 60.1797 43.1063 60.0343C42.9817 59.785 43.1791 59.546 43.6985 59.3175C44.571 58.902 48.6846 57.4996 56.0391 55.1105ZM56.1638 62.8078C56.2677 62.5585 56.2781 62.4027 56.195 62.3404C56.1326 62.2573 55.9353 62.2157 55.6029 62.2157C54.7511 62.2365 53.9096 62.6312 53.0786 63.3999C52.3099 64.1063 52.2372 64.7295 52.8605 65.2697C53.0682 65.4359 53.2552 65.5086 53.4214 65.4879C53.5876 65.4671 53.8473 65.3528 54.2005 65.1451C55.1977 64.5841 55.8522 63.805 56.1638 62.8078Z" fill="var(--fill-0, #074ED8)" stroke="var(--stroke-0, #074ED8)" stroke-width="0.5"/>
<path id="Vector_6" d="M193.444 3.27578C193.985 2.65251 194.358 2.97453 194.566 4.24184V4.33533C194.712 5.39489 194.784 8.73975 194.784 14.3699C194.805 20.2702 194.899 23.7189 195.065 24.7162C195.418 26.3782 195.293 27.2092 194.691 27.2092C194.421 27.2092 194.223 26.7106 194.099 25.7134C193.995 24.7369 193.933 22.9087 193.912 20.2286C193.912 20.0417 193.912 19.7716 193.912 19.4184C193.891 17.4032 193.798 16.2501 193.631 15.9593C193.486 15.6684 192.946 15.71 192.011 16.0839C191.969 16.1255 191.928 16.1566 191.886 16.1774C191.845 16.1774 191.803 16.1878 191.762 16.2086C191.72 16.2293 191.668 16.2501 191.606 16.2709C189.964 16.9357 187.544 17.7044 184.345 18.577C181.145 19.4288 179.452 19.7716 179.265 19.6054C179.016 19.3353 179.296 19.0444 180.106 18.7328C180.75 18.5043 181.789 18.2134 183.223 17.8602C184.719 17.5278 186.443 17.0604 188.396 16.4579C190.37 15.8554 191.928 15.3256 193.07 14.8685L193.974 14.5258V9.91357C193.974 6.83879 193.829 5.03131 193.538 4.49115C193.247 3.97176 193.216 3.56664 193.444 3.27578ZM185.124 7.66981C186.1 6.96344 186.89 6.72452 187.492 6.95305C188.095 7.16081 188.396 7.82563 188.396 8.94751C188.396 9.90319 188.115 10.8381 187.554 11.7522C187.014 12.6663 186.381 13.2688 185.654 13.5597C185.176 13.7467 184.636 13.6947 184.033 13.4039C183.451 13.113 183.046 12.7183 182.818 12.2197C182.672 11.8457 182.62 11.5341 182.662 11.2848C182.703 11.0147 182.89 10.5576 183.223 9.91357C183.721 8.9579 184.355 8.20998 185.124 7.66981ZM187.586 8.94751C187.586 8.63588 187.565 8.41773 187.523 8.29308C187.482 8.16843 187.409 8.08532 187.305 8.04377C187.222 7.98145 187.087 7.95028 186.9 7.95028C186.256 7.95028 185.55 8.37618 184.781 9.22798C184.033 10.059 183.659 10.8381 183.659 11.5652C183.659 11.9392 183.856 12.2197 184.251 12.4066C184.916 12.8014 185.633 12.5936 186.401 11.7834C187.191 10.9731 187.586 10.0278 187.586 8.94751Z" fill="var(--fill-0, #074ED8)" stroke="var(--stroke-0, #074ED8)" stroke-width="0.5"/>
<path id="Vector_7" d="M169.919 3.61881C171.893 2.95399 172.942 2.66314 173.067 2.74624C173.108 2.76701 173.129 2.8605 173.129 3.02671C173.129 3.15136 172.963 3.31757 172.631 3.52532C172.319 3.73308 171.955 3.92006 171.54 4.08626C170.688 4.481 169.764 5.0731 168.766 5.86258C167.769 6.65205 167.27 7.2026 167.27 7.51423C167.27 7.68044 167.468 7.77393 167.863 7.7947C168.278 7.7947 168.839 7.74276 169.545 7.63889C170.273 7.51423 171.062 7.33764 171.914 7.10911C172.849 6.8598 173.42 6.75592 173.628 6.79747C173.856 6.83902 173.971 7.05717 173.971 7.45191C173.971 7.63889 173.898 7.77393 173.752 7.85703C173.628 7.91936 173.399 7.95052 173.067 7.95052C172.298 7.99207 171.394 8.1375 170.356 8.38681C169.255 8.61534 168.205 8.73999 167.208 8.76077C166.398 8.76077 165.951 8.63611 165.868 8.38681C165.806 8.11672 166.086 7.6285 166.709 6.92213C167.499 6.02878 167.676 5.57172 167.239 5.55094C167.094 5.53016 166.865 5.54055 166.554 5.5821C166.18 5.66521 165.92 5.68598 165.775 5.64443C165.65 5.60288 165.588 5.48861 165.588 5.30163C165.588 5.01078 165.858 4.8238 166.398 4.74069C166.876 4.63682 168.05 4.26286 169.919 3.61881ZM176.058 10.3189C176.661 10.132 177.066 10.0592 177.274 10.1008C177.502 10.1216 177.617 10.2878 177.617 10.5994C177.617 10.8695 177.263 11.0876 176.557 11.2538C175.851 11.42 173.358 12.0329 169.078 13.0925C164.133 14.339 161.464 14.9207 161.069 14.8376C160.923 14.8168 160.851 14.7234 160.851 14.5572C160.851 14.4948 160.882 14.4325 160.944 14.3702C161.007 14.2871 161.079 14.2144 161.162 14.152C161.266 14.0897 161.381 14.0481 161.505 14.0274C166.99 12.8639 171.841 11.6278 176.058 10.3189ZM169.203 16.1776C170.47 15.5336 171.27 15.2324 171.602 15.2739C171.851 15.3155 171.997 15.4401 172.038 15.6479C172.101 15.8348 172.132 16.3023 172.132 17.0502V18.7642L170.885 19.4186C169.764 20.0004 169.078 20.4782 168.829 20.8521C168.579 21.2053 168.673 21.6001 169.109 22.0364C169.421 22.348 169.836 22.483 170.356 22.4415C170.875 22.3792 171.706 22.1091 172.849 21.6312C174.22 21.0911 175.03 20.9145 175.279 21.1015C175.674 21.4339 175.633 21.7143 175.155 21.9429C174.864 22.1298 174.324 22.348 173.534 22.5973C170.917 23.5322 169.151 23.5322 168.236 22.5973C167.759 22.161 167.52 21.8494 167.52 21.6624C167.52 21.4754 167.281 21.465 166.803 21.6312C166.387 21.7974 166.076 21.8805 165.868 21.8805C165.681 21.8805 165.588 21.8078 165.588 21.6624C165.588 21.517 166.138 21.0599 167.239 20.2912C168.34 19.5017 168.984 19.107 169.171 19.107C169.379 19.107 169.764 18.7954 170.324 18.1721C170.885 17.5488 171.166 17.1125 171.166 16.8632C171.166 16.2607 170.553 16.3231 169.327 17.0502C169.14 17.1541 168.932 17.2788 168.704 17.4242C167.021 18.4422 166.097 18.8681 165.93 18.7019C165.827 18.6188 165.899 18.4526 166.149 18.2033C166.419 17.954 166.824 17.6527 167.364 17.2995C167.904 16.9256 168.517 16.5516 169.203 16.1776Z" fill="var(--fill-0, #074ED8)" stroke="var(--stroke-0, #074ED8)" stroke-width="0.5"/>
<path id="Vector_8" d="M150.663 1.53074C150.663 1.38532 150.684 1.27105 150.726 1.18795C150.767 1.10485 150.85 1.05291 150.975 1.03213C151.1 1.01136 151.266 1.00097 151.474 1.00097C151.681 1.00097 151.848 1.01136 151.972 1.03213C152.097 1.05291 152.211 1.1464 152.315 1.3126C152.44 1.45803 152.533 1.63462 152.595 1.84238C152.679 2.05014 152.751 2.39293 152.814 2.87077C152.897 3.32783 152.959 3.82645 153.001 4.36661C153.042 4.90678 153.104 5.63392 153.188 6.54805C153.354 8.81258 153.395 10.4123 153.312 11.3472C153.25 12.2613 153.042 12.7184 152.689 12.7184C152.523 12.7184 152.408 12.6145 152.346 12.4068C152.305 12.199 152.315 11.7523 152.377 11.0667C152.46 10.0072 152.408 8.31397 152.221 5.98711C152.034 3.66024 151.858 2.37216 151.692 2.12285C151.463 1.89432 151.235 1.8216 151.006 1.90471C150.881 1.96703 150.788 1.96703 150.726 1.90471C150.684 1.8216 150.663 1.69695 150.663 1.53074ZM143.059 5.20802C143.579 4.64708 143.953 4.31467 144.181 4.21079C144.41 4.08614 144.805 4.04459 145.366 4.08614C146.55 4.19002 147.235 4.67824 147.422 5.55082C147.63 6.42339 147.256 7.37907 146.3 8.41785C145.656 9.16577 145.334 9.58128 145.334 9.66438C145.334 9.80981 144.992 10.028 144.306 10.3188C143.62 10.6097 143.101 10.7551 142.748 10.7551C142.332 10.7551 141.948 10.5162 141.595 10.0383C141.366 9.70593 141.252 9.43585 141.252 9.22809C141.252 8.99956 141.345 8.55289 141.532 7.88807C141.844 6.84929 142.353 5.95594 143.059 5.20802ZM146.394 6.04943C146.352 5.57159 146.28 5.28074 146.176 5.17686C146.093 5.0522 145.843 4.97949 145.428 4.95871C144.805 4.85484 144.244 5.08337 143.745 5.64431C143.33 6.0806 142.976 6.61037 142.685 7.23364C142.395 7.85691 142.249 8.41785 142.249 8.91646C142.249 9.2281 142.301 9.42546 142.405 9.50857C142.509 9.59167 142.779 9.63322 143.215 9.63322C143.589 9.63322 143.911 9.55012 144.181 9.38391C144.472 9.21771 144.846 8.8853 145.303 8.38668C145.823 7.82574 146.145 7.41023 146.269 7.14015C146.394 6.84929 146.435 6.48572 146.394 6.04943ZM149.51 14.2766C150.009 14.0688 150.539 13.8922 151.1 13.7468C151.681 13.6014 152.17 13.539 152.564 13.5598C152.959 13.5598 153.156 13.6325 153.156 13.7779C153.156 13.9649 152.762 14.1935 151.972 14.4635C151.785 14.5259 151.525 14.6194 151.193 14.744C150.861 14.8687 150.456 15.0141 149.978 15.1803C149.521 15.3465 149.188 15.4608 148.98 15.5231L147.142 16.2087V19.1692C147.142 21.1221 147.215 22.1921 147.36 22.379C147.568 22.566 147.911 22.3479 148.388 21.7246C148.887 21.1013 149.334 20.3223 149.728 19.3874C150.144 18.4317 150.352 17.6734 150.352 17.1124C150.352 16.0321 150.591 15.4919 151.068 15.4919C151.318 15.4919 151.442 15.5646 151.442 15.7101C151.442 15.8971 151.307 16.6034 151.037 17.8292C150.788 19.0965 150.424 20.1353 149.947 20.9455L149.261 22.1609L152.533 22.0051C153.904 21.922 154.902 21.9116 155.525 21.9739C156.148 22.0155 156.782 22.1297 157.426 22.3167C158.963 22.7945 159.555 23.2828 159.202 23.7814C159.161 23.8229 159.119 23.8541 159.077 23.8749C158.911 24.0826 158.392 23.9788 157.519 23.5632C156.938 23.3347 156.356 23.1789 155.774 23.0958C155.192 23.0127 154.226 22.9815 152.876 23.0023C151.339 23.0023 150.248 23.0542 149.604 23.1581C148.96 23.262 147.942 23.5529 146.55 24.0307C144.514 24.7163 143.413 25.1318 143.246 25.2772C143.039 25.4642 142.685 25.5369 142.187 25.4954C141.688 25.4746 141.439 25.3603 141.439 25.1526C141.439 24.9448 141.834 24.654 142.623 24.28C143.433 23.906 144.212 23.636 144.96 23.4698C145.563 23.3451 145.937 23.1581 146.082 22.9088C146.269 22.6803 146.3 21.5999 146.176 19.6678C146.155 19.0446 146.124 18.5563 146.082 18.2031C146.062 17.8292 146.02 17.5383 145.958 17.3306C145.916 17.102 145.864 16.9566 145.802 16.8943C145.76 16.832 145.698 16.8216 145.615 16.8631C145.345 16.9254 144.649 17.0085 143.527 17.1124C142.509 17.1955 142 17.1436 142 16.9566C142 16.9358 142.01 16.9047 142.031 16.8631C142.135 16.593 142.634 16.3957 143.527 16.271C145.085 16.0633 147.08 15.3984 149.51 14.2766Z" fill="var(--fill-0, #074ED8)" stroke="var(--stroke-0, #074ED8)" stroke-width="0.5"/>
<path id="Vector_9" d="M132.179 0.37757C132.449 0.232142 132.657 0.211366 132.802 0.315244C133.031 0.481449 132.74 1.17743 131.93 2.40319C131.494 3.13033 131.317 3.60817 131.4 3.8367C131.483 4.06523 132.304 4.30415 133.862 4.55346C135.669 4.80277 136.573 5.10401 136.573 5.4572C136.573 5.51952 136.552 5.60263 136.511 5.7065C136.345 5.93504 135.971 5.97659 135.389 5.83116C134.059 5.56107 132.875 5.35332 131.836 5.20789C130.818 5.06246 130.278 5.04169 130.216 5.14557C130.174 5.20789 129.208 6.27783 127.318 8.35539C125.365 10.3914 124.305 11.3678 124.139 11.2847C124.097 11.264 124.077 11.2016 124.077 11.0978C124.077 10.9731 124.575 10.3395 125.572 9.1968C126.57 8.03337 127.66 6.80761 128.845 5.51952C129.593 4.73005 130.278 3.72244 130.901 2.49668C131.545 1.22937 131.971 0.523 132.179 0.37757ZM130.901 8.41772C131.068 7.37894 131.244 6.88032 131.431 6.92188C131.639 6.9842 131.722 7.55553 131.681 8.63586C131.66 9.69541 131.525 10.3602 131.275 10.6303C131.088 10.9212 131.047 11.1082 131.151 11.1913C131.172 11.2536 131.369 11.264 131.743 11.2224C132.138 11.1809 132.615 11.1185 133.176 11.0354C133.737 10.9316 134.361 10.8069 135.046 10.6615C135.732 10.4953 136.407 10.3291 137.072 10.1629C138.339 9.83046 139.087 9.67464 139.316 9.69541C139.565 9.69541 139.689 9.91356 139.689 10.3498C139.689 10.6823 139.648 10.8796 139.565 10.9419C139.482 11.0043 139.274 11.0043 138.942 10.9419C138.464 10.8588 137.508 10.9731 136.075 11.2847C135.701 11.3678 135.005 11.5341 133.987 11.7834C132.969 12.0119 132.273 12.1781 131.899 12.282C130.569 12.5936 129.063 13.1649 127.38 13.996C125.095 15.1594 123.755 15.5437 123.36 15.149C123.09 14.8789 123.401 14.5673 124.295 14.2141C124.544 14.0894 124.866 13.9544 125.261 13.809C125.946 13.5389 126.653 13.2169 127.38 12.8429C128.107 12.469 128.73 12.0846 129.25 11.6899C129.769 11.2951 130.122 10.9523 130.309 10.6615C130.6 10.1836 130.798 9.43572 130.901 8.41772ZM130.247 17.2993C131.909 16.489 132.885 16.1358 133.176 16.2397C133.509 16.3644 133.737 16.6137 133.862 16.9876C134.007 17.3408 133.997 17.7356 133.831 18.1718C133.644 18.6497 133.644 19.0029 133.831 19.2314C133.955 19.3768 133.914 19.5534 133.706 19.7612C133.519 19.9689 133.135 20.2702 132.553 20.6649C131.452 21.4128 130.881 22.0257 130.839 22.5036C130.777 23.0022 130.891 23.3138 131.182 23.4385C131.473 23.5216 132.054 23.4696 132.927 23.2826C133.82 23.0749 134.61 22.784 135.295 22.4101C135.69 22.2231 136.075 22.088 136.449 22.0049C136.843 21.9218 137.155 21.9115 137.383 21.9738C137.633 22.0153 137.757 22.1296 137.757 22.3166C137.757 22.5036 137.29 22.784 136.355 23.158C135.42 23.5319 134.34 23.854 133.114 24.1241C131.348 24.5811 130.268 24.311 129.873 23.3138C129.707 22.9191 129.561 22.7009 129.437 22.6594C129.312 22.6178 129.021 22.7009 128.564 22.9087C127.858 23.1995 127.494 23.3034 127.473 23.2203C127.453 23.158 127.442 23.0541 127.442 22.9087C127.442 22.8464 127.671 22.6282 128.128 22.2542C128.606 21.8595 129.167 21.4648 129.811 21.07C130.933 20.3429 131.743 19.7092 132.241 19.1691C132.74 18.6289 132.989 18.0887 132.989 17.5486C132.989 17.1746 132.667 17.1123 132.023 17.3616L130.122 18.2653C128.232 19.2418 127.359 19.4807 127.505 18.9821C127.505 18.9405 127.525 18.8678 127.567 18.764C127.671 18.5977 128.564 18.1095 130.247 17.2993Z" fill="var(--fill-0, #074ED8)" stroke="var(--stroke-0, #074ED8)" stroke-width="0.5"/>
<path id="Vector_10" d="M110.678 4.70933C110.678 4.35615 110.886 4.2315 111.301 4.33537C111.654 4.43925 111.893 4.64701 112.018 4.95864C112.184 5.4157 112.288 8.84367 112.329 15.2426C112.371 22.0985 112.34 25.6719 112.236 25.9627C112.215 26.0458 112.101 26.0874 111.893 26.0874C111.706 26.0874 111.592 25.5057 111.55 24.3422C111.509 23.1788 111.488 20.4261 111.488 16.084C111.488 11.8873 111.457 9.15531 111.395 7.888C111.353 6.59991 111.249 5.83122 111.083 5.58191C110.813 5.20795 110.678 4.91709 110.678 4.70933ZM102.793 8.63592C103.541 8.36584 104.113 8.25157 104.507 8.29312C104.923 8.3139 105.245 8.50088 105.474 8.85406C105.764 9.2488 105.91 9.8409 105.91 10.6304C105.91 11.1705 105.785 11.6276 105.536 12.0016C105.287 12.3755 104.57 13.165 103.386 14.37C101.682 16.0943 100.913 17.0396 101.079 17.2058C101.225 17.3513 101.9 17.2162 103.105 16.8007C104.31 16.3644 105.588 15.7931 106.938 15.0867C108.891 14.1103 109.816 13.8298 109.712 14.2453C109.649 14.37 109.504 14.5466 109.275 14.7751C108.694 15.2737 107.374 15.9593 105.318 16.8319C103.261 17.6837 101.879 18.1096 101.173 18.1096C100.321 18.1304 99.8745 17.9745 99.8329 17.6421C99.7914 17.3097 100.134 16.6968 100.861 15.8035C101.734 14.8063 102.087 14.2453 101.921 14.1207C101.859 14.0999 101.755 14.0895 101.609 14.0895C101.194 14.0895 101.007 13.996 101.048 13.809C101.152 13.5182 101.537 13.2377 102.201 12.9676C103.157 12.5313 103.822 12.1158 104.196 11.7211C104.591 11.3056 104.788 10.8277 104.788 10.2876C104.788 9.85129 104.736 9.59159 104.632 9.50849C104.549 9.40461 104.32 9.35268 103.947 9.35268C103.365 9.35268 102.648 9.62276 101.796 10.1629C100.654 10.9316 100.072 10.9836 100.051 10.3187C100.051 9.86168 100.965 9.30074 102.793 8.63592Z" fill="var(--fill-0, #074ED8)" stroke="var(--stroke-0, #074ED8)" stroke-width="0.5"/>
<path id="Vector_11" d="M88.7973 3.27605C89.5037 3.06829 89.9815 2.98519 90.2308 3.02674C90.5009 3.04752 90.8437 3.26566 91.2592 3.68117C91.5085 3.93048 91.6643 4.1694 91.7266 4.39793C91.8098 4.60569 91.8201 4.88616 91.7578 5.23934C91.6332 5.88338 91.3942 6.43394 91.0411 6.891C90.6879 7.32729 90.1477 7.78435 89.4206 8.26219C88.6519 8.74002 88.0598 8.99972 87.6443 9.04127C87.2287 9.06205 86.8132 8.86468 86.3977 8.44917C86.003 8.11676 85.7848 7.75319 85.7433 7.35845C85.7225 6.94294 85.8264 6.39239 86.0549 5.70679C86.4704 4.58491 87.3846 3.77466 88.7973 3.27605ZM90.8852 4.74073C90.8229 4.44987 90.7086 4.26289 90.5424 4.17979C90.3762 4.09668 90.0646 4.05513 89.6075 4.05513C89.1505 4.05513 88.7869 4.10707 88.5168 4.21095C88.2675 4.31483 87.9871 4.53297 87.6754 4.86538C87.2599 5.30167 86.9483 5.81067 86.7405 6.39238C86.5535 6.9741 86.5431 7.4 86.7093 7.67008C86.834 7.87784 87.1872 7.97133 87.7689 7.95055C88.3506 7.909 88.8181 7.76357 89.1713 7.51427C89.7322 7.16108 90.1789 6.71441 90.5113 6.17424C90.8645 5.6133 90.9891 5.13546 90.8852 4.74073ZM93.2848 11.3474C96.6089 10.6825 98.271 10.6202 98.271 11.1604C98.271 11.4097 98.0736 11.5863 97.6789 11.6902C97.2841 11.794 96.1622 11.9499 94.3132 12.1576C92.485 12.3654 91.4981 12.6354 91.3527 12.9679C90.8956 13.8404 90.6048 15.8141 90.4801 18.8889C90.3555 21.9429 90.4801 23.9166 90.8541 24.8099C91.3942 26.0357 91.4046 26.6486 90.8852 26.6486C90.6359 26.6486 90.3659 26.3577 90.075 25.776C89.7841 25.2151 89.5764 24.5606 89.4517 23.8127C89.3894 23.2518 89.4309 21.7248 89.5764 19.2317C89.7426 16.7178 89.9192 14.9311 90.1062 13.8716C90.21 13.2899 90.1269 12.999 89.8568 12.999C89.5452 12.999 87.5508 13.4561 83.8735 14.3702C80.1131 15.3051 78.2018 15.7726 78.1394 15.7726C77.994 15.7726 77.9213 15.6479 77.9213 15.3986C77.9213 15.1285 78.2225 14.8896 78.825 14.6818C79.4691 14.4741 81.6297 13.9547 85.307 13.1237C89.0051 12.2719 91.6643 11.6798 93.2848 11.3474Z" fill="var(--fill-0, #074ED8)" stroke="var(--stroke-0, #074ED8)" stroke-width="0.5"/>
<path id="Vector_12" d="M66.1371 19.4185C66.3033 19.3354 66.4695 19.3562 66.6358 19.4808C66.8227 19.5847 66.9578 19.7613 67.0409 20.0106C67.1032 20.2184 67.1136 20.4573 67.072 20.7274C67.0305 20.9974 67.0513 21.2987 67.1344 21.6311C67.3629 22.5868 67.3837 23.3451 67.1967 23.906C67.0097 24.4877 66.4695 24.9448 65.5762 25.2772L64.7971 25.1214C65.1711 24.9967 65.6697 24.8202 66.293 24.5916C66.4176 24.467 66.5007 24.3631 66.5423 24.28C66.6046 24.1969 66.6461 24.1138 66.6669 24.0307C66.7085 23.9476 66.75 23.7918 66.7916 23.5632C66.8539 23.2724 66.8851 23.075 66.8851 22.9711C66.9058 22.8672 66.8851 22.6907 66.8227 22.4413C66.802 22.2959 66.7812 22.1817 66.7604 22.0986C66.7396 22.0154 66.7085 21.9531 66.6669 21.9116C66.6461 21.87 66.6254 21.8492 66.6046 21.8492C66.5838 21.8492 66.5423 21.8804 66.4799 21.9427C66.3345 22.0882 66.1683 22.0986 65.9813 21.9739C65.7943 21.8492 65.6177 21.6207 65.4515 21.2883C65.2853 20.852 65.2957 20.4469 65.4827 20.0729C65.545 19.9483 65.6489 19.8236 65.7943 19.699C65.9398 19.5535 66.054 19.4601 66.1371 19.4185Z" fill="var(--fill-0, #074ED8)" stroke="var(--stroke-0, #074ED8)" stroke-width="0.5"/>
<path id="Vector_13" d="M57.5964 6.8597C57.8249 6.46496 58.0742 6.47535 58.3443 6.89086C58.469 7.09862 58.5624 7.31676 58.6248 7.54529C58.7286 8.00236 58.8014 9.38393 58.8429 11.69L58.8741 14.9933L59.8401 14.1208C60.4842 13.5806 61.0659 13.2378 61.5853 13.0924C62.1255 12.9677 62.489 12.8846 62.676 12.8431C62.9045 12.7807 63.1227 12.8327 63.3304 12.9989C63.5382 13.1651 63.5901 13.3313 63.4862 13.4975C63.3616 13.7053 63.1642 13.8091 62.8941 13.8091C62.6241 13.8091 62.2709 13.913 61.8346 14.1208C61.4191 14.3285 60.9828 14.5986 60.5257 14.931C60.0894 15.2634 59.7155 15.5958 59.4039 15.9282L58.5001 16.9878L58.6871 19.3874C58.7494 20.0522 58.7806 20.5508 58.7806 20.8832C58.8014 21.2156 58.791 21.4961 58.7494 21.7246C58.7079 21.9532 58.6352 22.0674 58.5313 22.0674C58.4274 22.0466 58.2924 22.0259 58.1262 22.0051C57.96 21.922 57.8561 21.4857 57.8145 20.6962C57.7937 19.886 57.8249 18.0889 57.908 15.305C58.0327 10.9421 57.9807 8.50097 57.7522 7.98158C57.5237 7.39987 57.4717 7.0259 57.5964 6.8597ZM48.372 11.0668C48.2266 10.6512 48.3097 10.4435 48.6213 10.4435C48.933 10.4435 49.1511 10.5993 49.2758 10.9109C49.4004 11.2018 49.5458 11.9809 49.712 13.2482C49.7328 13.3105 49.7536 13.4248 49.7744 13.591C49.9198 14.6921 50.1172 15.2634 50.3665 15.305C50.6366 15.3257 51.5091 14.8895 52.9842 13.9961C53.192 13.8715 53.3582 13.778 53.4828 13.7156C55.1033 12.7392 55.9863 12.2821 56.1317 12.3445C56.5888 12.5938 55.9447 13.2378 54.1996 14.2766C54.0541 14.3805 53.9087 14.4636 53.7633 14.5259C52.122 15.4816 51.2183 16.0425 51.0521 16.2087C50.8235 16.4165 50.46 16.5931 49.9614 16.7385C49.5874 16.8424 49.3485 16.7904 49.2446 16.5827C49.1615 16.3541 49.0472 15.5958 48.9018 14.3077C48.6525 12.5003 48.4759 11.4199 48.372 11.0668Z" fill="var(--fill-0, #074ED8)" stroke="var(--stroke-0, #074ED8)" stroke-width="0.5"/>
<path id="Vector_14" d="M27.6064 4.80316C28.3128 4.63695 28.7491 4.88626 28.9153 5.55108C29.1023 6.19512 29.1854 7.80523 29.1646 10.3814V14.3703H29.8813C30.1514 14.3703 31.398 14.2768 33.6209 14.0898C35.6362 13.8821 36.7788 13.8925 37.0489 14.121C37.5475 14.5365 37.5371 14.8066 37.0178 14.9313C36.5607 15.0351 35.5946 15.1078 34.1196 15.1494C32.042 15.1702 30.6396 15.2325 29.9125 15.3364L29.0088 15.5234L29.0711 19.8862C29.1334 21.8391 29.1438 23.0649 29.1023 23.5635C29.0607 24.0621 28.9361 24.3218 28.7283 24.3426C28.5829 24.3634 28.4894 24.2803 28.4478 24.0933C28.3232 23.657 28.2608 21.1016 28.2608 16.4271C28.2608 13.477 28.2608 10.4333 28.2608 7.29623C28.2193 6.61063 28.0115 6.08086 27.6376 5.70689C27.3052 5.37449 27.1286 5.16673 27.1078 5.08363C27.1078 5.00053 27.274 4.90704 27.6064 4.80316ZM18.8495 6.76645C19.3689 6.47559 19.7429 6.31978 19.9714 6.299C20.1999 6.27822 20.6154 6.3821 21.2179 6.61063C22.0074 6.85994 22.3917 7.53515 22.371 8.63625C22.371 9.73736 21.9762 10.693 21.1868 11.5033C20.7713 11.9188 20.5116 12.2512 20.4077 12.5005C20.3246 12.7498 20.2934 13.1653 20.3142 13.747C20.3973 14.5781 20.2934 15.4299 20.0026 16.3024C19.6286 17.362 19.5455 17.9125 19.7532 17.9541C19.8364 17.9541 19.9402 17.9333 20.0649 17.8918C20.2934 17.8087 20.9686 17.7152 22.0905 17.6113C23.2332 17.4866 24.3758 17.3828 25.5185 17.2997C25.8509 17.2581 26.1625 17.2373 26.4534 17.2373C26.7442 17.2166 26.9624 17.2062 27.1078 17.2062C27.274 17.2062 27.3571 17.2166 27.3571 17.2373C27.3571 17.5282 27.2948 17.7463 27.1701 17.8918C27.0455 18.0372 26.8169 18.1411 26.4845 18.2034C26.1729 18.245 25.6639 18.2657 24.9575 18.2657C23.524 18.2657 21.9762 18.4423 20.3142 18.7955C18.6521 19.1487 17.2186 19.5954 16.0136 20.1355C15.0164 20.5718 14.3724 20.79 14.0815 20.79C13.7491 20.79 13.6452 20.5718 13.7699 20.1355C13.8738 19.7408 14.0815 19.5123 14.3932 19.4499C14.9749 19.3668 15.6293 19.1487 16.3564 18.7955C17.0836 18.4215 17.6549 18.0268 18.0704 17.6113C18.5275 17.1958 18.8287 16.7907 18.9742 16.3959C19.1196 15.9804 19.265 15.139 19.4105 13.8717L19.5039 12.7187H18.5379C18.0393 12.7187 17.5718 12.5524 17.1355 12.22C16.72 11.8669 16.5123 11.4929 16.5123 11.0982C16.5123 10.8073 16.6681 10.236 16.9797 9.38417C17.2913 8.53237 17.5407 7.97143 17.7276 7.70135C17.8731 7.51437 18.247 7.20274 18.8495 6.76645ZM20.9686 7.38972C20.6778 7.24429 20.4804 7.17157 20.3765 7.17157C20.2934 7.17157 20.0441 7.24429 19.6286 7.38972C19.2339 7.55592 18.7456 8.0857 18.1639 8.97905C17.603 9.85162 17.3225 10.5061 17.3225 10.9423C17.3225 11.2124 17.3848 11.389 17.5095 11.4721C17.6341 11.5552 17.9042 11.5968 18.3197 11.5968C19.2754 11.5968 20.0441 11.3371 20.6258 10.8177C21.2075 10.2983 21.4984 9.60232 21.4984 8.72974C21.4984 8.04415 21.3218 7.59747 20.9686 7.38972Z" fill="var(--fill-0, #074ED8)" stroke="var(--stroke-0, #074ED8)" stroke-width="0.5"/>
<path id="Vector_15" d="M10.5398 5.42602C10.6645 5.25982 10.8307 5.17672 11.0385 5.17672C11.5371 5.17672 11.8383 5.68572 11.9422 6.70372C12.0461 7.72172 12.1188 10.5991 12.1603 15.336C12.1811 19.9897 12.15 22.7528 12.0669 23.6254C12.0045 24.5188 11.7656 24.9654 11.3501 24.9654C11.2878 24.9654 11.2358 22.8463 11.1943 18.6081C11.1112 14.2868 11.0281 12.095 10.945 12.0327C10.8411 11.9288 10.4671 11.9599 9.82309 12.1261C6.93528 12.8948 5.44983 13.2065 5.36673 13.061C5.32518 12.9987 5.39789 12.8429 5.58487 12.5936C5.8134 12.3443 6.27047 12.1158 6.95606 11.908C7.12227 11.8664 7.3508 11.8041 7.64165 11.721C7.95329 11.6379 8.30647 11.5444 8.70121 11.4406C9.11672 11.3159 9.42835 11.2224 9.63611 11.1601L11.2254 10.6926V8.69818C11.2047 7.34776 11.0592 6.50635 10.7892 6.17394C10.5191 5.82076 10.436 5.57145 10.5398 5.42602ZM0.598735 9.66424C0.598735 9.64346 0.754552 9.63308 1.06619 9.63308C1.29472 9.63308 1.41937 9.80967 1.44015 10.1629C1.46092 10.4953 1.42976 11.3886 1.34666 12.8429C1.3051 13.4038 1.27394 13.944 1.25317 14.4634C1.25317 14.962 1.25317 15.3464 1.25317 15.6164C1.27394 15.8865 1.29472 16.0216 1.31549 16.0216C1.41937 16.0216 2.11535 15.7515 3.40344 15.2113C5.7303 14.2141 6.94567 13.9128 7.04955 14.3076C7.04955 14.4738 6.77947 14.7127 6.2393 15.0243C5.71991 15.336 5.31479 15.4918 5.02393 15.4918C4.81618 15.4918 4.14097 15.7619 2.99831 16.302C1.77256 16.9253 0.983083 17.185 0.629899 17.0811C0.29749 16.9772 0.183224 16.4475 0.287102 15.4918C0.307877 15.3048 0.370204 14.2764 0.474082 12.4066C0.536409 10.6199 0.57796 9.70579 0.598735 9.66424Z" fill="var(--fill-0, #074ED8)" stroke="var(--stroke-0, #074ED8)" stroke-width="0.5"/>
</g>
</svg>
