<svg preserveAspectRatio="none" width="100%" height="100%" overflow="visible" style="display: block;" viewBox="0 0 33.2437 16.6382" fill="none" xmlns="http://www.w3.org/2000/svg">
<g id="&#237;&#145;&#184;&#235;&#165;&#184;">
<path id="Vector" d="M33.2436 10.2611H17.1654V9.06879H33.2436V10.2611ZM20.4172 7.15387C20.1763 7.15387 20.0077 7.10569 19.9114 7.00935C19.815 6.913 19.7669 6.75041 19.7669 6.52158V4.71505C19.7669 4.45009 19.7428 4.18513 19.6946 3.92018C19.6464 3.64317 19.538 3.43241 19.3694 3.28789V2.98078H29.2512V1.17425H19.6765V0H30.317C30.4495 0 30.5338 0.0240871 30.5699 0.0722614C30.6181 0.108392 30.6422 0.186675 30.6422 0.307111V4.13696H21.1579V5.97962H31.0938V7.15387H20.4172ZM31.3106 16.4394H20.2908C20.0499 16.4394 19.8813 16.3852 19.7849 16.2769C19.6886 16.1805 19.6404 16.0179 19.6404 15.7891V11.5799H21.0314V15.2291H31.3106V16.4394Z" fill="var(--fill-0, #074ED8)"/>
<path id="Vector_2" d="M16.0781 11.1824H8.74362V16.6381H7.31646V11.1824H0V9.97202H16.0781V11.1824ZM11.8328 2.40264V6.43121H14.2174V7.65965H1.84266V6.43121H4.31761V4.13692C4.31761 3.87196 4.29353 3.607 4.24535 3.34204C4.19718 3.06504 4.08879 2.85428 3.92018 2.70976V2.40264H5.70864V6.43121H10.4418V2.40264H11.8328ZM1.69814 0.25287H14.3619V1.48131H1.69814V0.25287Z" fill="var(--fill-0, #074ED8)"/>
</g>
</svg>
