<svg preserveAspectRatio="none" width="100%" height="100%" overflow="visible" style="display: block;" viewBox="0 0 41.3369 17.1395" fill="none" xmlns="http://www.w3.org/2000/svg">
<g id="SOL">
<path id="Vector" d="M35.0003 0.457042V14.1686H41.3367V16.6616H31.614V2.55533C31.614 2.19523 31.5724 1.9113 31.4893 1.70355C31.4201 1.4958 31.2885 1.28112 31.0946 1.05952C30.9699 0.90717 30.9353 0.768669 30.9907 0.644018C31.0461 0.519368 31.15 0.457042 31.3023 0.457042H35.0003Z" fill="var(--fill-0, #074ED8)"/>
<path id="Vector_2" d="M29.3679 8.55935C29.3679 9.83356 29.1879 10.997 28.8278 12.0496C28.4677 13.1022 27.9344 14.0094 27.2281 14.7711C26.5217 15.519 25.6492 16.1007 24.6104 16.5162C23.5855 16.9317 22.4013 17.1395 21.0579 17.1395C19.7144 17.1395 18.5233 16.9317 17.4845 16.5162C16.4596 16.1007 15.594 15.519 14.8876 14.7711C14.1813 14.0094 13.6481 13.1022 13.288 12.0496C12.9279 10.997 12.7478 9.83356 12.7478 8.55935C12.7478 7.28514 12.9279 6.12174 13.288 5.06913C13.6481 4.01652 14.1813 3.11627 14.8876 2.36836C15.594 1.62046 16.4596 1.03876 17.4845 0.623254C18.5233 0.207751 19.7144 0 21.0579 0C22.4013 0 23.5855 0.207751 24.6104 0.623254C25.6492 1.03876 26.5217 1.62046 27.2281 2.36836C27.9344 3.11627 28.4677 4.01652 28.8278 5.06913C29.1879 6.12174 29.3679 7.28514 29.3679 8.55935ZM16.1134 8.55935C16.1134 10.5399 16.5566 12.0634 17.443 13.1299C18.3294 14.1825 19.5344 14.7088 21.0579 14.7088C22.5675 14.7088 23.7655 14.1825 24.652 13.1299C25.5384 12.0634 25.9816 10.5399 25.9816 8.55935C25.9816 6.57879 25.5384 5.0622 24.652 4.0096C23.7655 2.94314 22.5675 2.40991 21.0579 2.40991C19.5344 2.40991 18.3294 2.94314 17.443 4.0096C16.5566 5.0622 16.1134 6.57879 16.1134 8.55935Z" fill="var(--fill-0, #074ED8)"/>
<path id="Vector_3" d="M0.688349 13.213C0.993051 13.4623 1.3393 13.6908 1.72711 13.8986C2.12876 14.0925 2.53041 14.2587 2.93206 14.3972C3.34757 14.5357 3.75614 14.6465 4.15779 14.7296C4.55945 14.7988 4.9334 14.8334 5.27965 14.8334C6.12451 14.8334 6.78239 14.6603 7.25329 14.3141C7.73804 13.954 7.98042 13.4207 7.98042 12.7144C7.98042 12.1742 7.84884 11.7172 7.58569 11.3432C7.33639 10.9693 6.86549 10.6092 6.17298 10.2629C5.77133 10.0552 5.39045 9.86818 5.03035 9.70198C4.67025 9.53578 4.324 9.36266 3.99159 9.1826C3.65919 9.00255 3.33371 8.81558 3.01516 8.62168C2.71046 8.41393 2.40576 8.1854 2.10106 7.9361C1.5609 7.45134 1.1177 6.91119 0.77145 6.31564C0.425197 5.70623 0.252072 4.96525 0.252072 4.0927C0.252072 3.49715 0.369797 2.95007 0.605249 2.45147C0.85455 1.93901 1.20773 1.50273 1.66478 1.14263C2.12183 0.782529 2.67584 0.505528 3.32679 0.311627C3.99159 0.103876 4.7395 0 5.5705 0C7.37101 0 8.9707 0.304702 10.3696 0.914106V3.46945C10.3696 3.66335 10.3003 3.788 10.1618 3.8434C10.0233 3.88495 9.87788 3.8434 9.72553 3.71875C8.58982 2.76309 7.34331 2.28526 5.98601 2.28526C5.2381 2.28526 4.66332 2.44454 4.26167 2.76309C3.87387 3.08164 3.67997 3.52485 3.67997 4.0927C3.67997 4.49435 3.74922 4.8406 3.88772 5.13146C4.02622 5.42231 4.23397 5.67853 4.51097 5.90014C5.03727 6.32949 5.5982 6.70344 6.19376 7.02199C6.80316 7.34054 7.39871 7.63832 7.98042 7.91532C8.52057 8.16462 8.9984 8.4347 9.4139 8.72555C9.84325 9.0164 10.2034 9.34881 10.4942 9.72276C10.7989 10.0967 11.0274 10.5261 11.1798 11.0108C11.3321 11.4817 11.4083 12.0357 11.4083 12.6728C11.4083 13.4623 11.249 14.1409 10.9305 14.7088C10.6258 15.2628 10.1964 15.7268 9.64243 16.1007C9.08842 16.4608 8.43747 16.724 7.68957 16.8902C6.95551 17.0564 6.16606 17.1395 5.3212 17.1395C4.69795 17.1395 4.04699 17.0702 3.36834 16.9317C2.70354 16.7932 2.10798 16.6201 1.58168 16.4123C1.05538 16.1907 0.639874 15.9484 0.335172 15.6852C0.0304702 15.4221 -0.0664804 15.1589 0.0443203 14.8958L0.688349 13.213Z" fill="var(--fill-0, #074ED8)"/>
</g>
</svg>
