<svg width="34" height="17" viewBox="0 0 34 17" fill="none" xmlns="http://www.w3.org/2000/svg">
<path d="M33.2437 10.2611H17.1655V9.06879H33.2437V10.2611ZM20.4173 7.15387C20.1764 7.15387 20.0078 7.10569 19.9115 7.00935C19.8151 6.913 19.7669 6.75041 19.7669 6.52158V4.71505C19.7669 4.45009 19.7428 4.18513 19.6947 3.92018C19.6465 3.64317 19.5381 3.43241 19.3695 3.28789V2.98078H29.2512V1.17425H19.6766V0H30.3171C30.4496 0 30.5339 0.0240871 30.57 0.0722614C30.6182 0.108392 30.6423 0.186675 30.6423 0.307111V4.13696H21.158V5.97962H31.0939V7.15387H20.4173ZM31.3107 16.4394H20.2908C20.05 16.4394 19.8813 16.3852 19.785 16.2769C19.6887 16.1805 19.6405 16.0179 19.6405 15.7891V11.5799H21.0315V15.2291H31.3107V16.4394Z" fill="#074ED8"/>
<path d="M16.0781 11.1825H8.74362V16.6382H7.31646V11.1825H0V9.97207H16.0781V11.1825ZM11.8328 2.4027V6.43127H14.2174V7.65971H1.84266V6.43127H4.31761V4.13698C4.31761 3.87202 4.29353 3.60706 4.24535 3.3421C4.19718 3.0651 4.08879 2.85434 3.92018 2.70981V2.4027H5.70864V6.43127H10.4418V2.4027H11.8328ZM1.69814 0.25293H14.3619V1.48137H1.69814V0.25293Z" fill="#074ED8"/>
</svg>
