<svg width="42" height="18" viewBox="0 0 42 18" fill="none" xmlns="http://www.w3.org/2000/svg">
<path d="M35 0.457031V14.1686H41.3364V16.6616H31.6137V2.55532C31.6137 2.19522 31.5721 1.91129 31.489 1.70354C31.4198 1.49579 31.2882 1.28111 31.0943 1.05951C30.9696 0.907159 30.935 0.768658 30.9904 0.644008C31.0458 0.519357 31.1497 0.457031 31.302 0.457031H35Z" fill="#074ED8"/>
<path d="M29.3677 8.55935C29.3677 9.83356 29.1876 10.997 28.8275 12.0496C28.4674 13.1022 27.9342 14.0094 27.2278 14.7711C26.5215 15.519 25.6489 16.1007 24.6102 16.5162C23.5852 16.9317 22.4011 17.1395 21.0576 17.1395C19.7141 17.1395 18.523 16.9317 17.4843 16.5162C16.4594 16.1007 15.5938 15.519 14.8874 14.7711C14.181 14.0094 13.6478 13.1022 13.2877 12.0496C12.9276 10.997 12.7476 9.83356 12.7476 8.55935C12.7476 7.28514 12.9276 6.12174 13.2877 5.06913C13.6478 4.01652 14.181 3.11627 14.8874 2.36836C15.5938 1.62046 16.4594 1.03876 17.4843 0.623254C18.523 0.207751 19.7141 0 21.0576 0C22.4011 0 23.5852 0.207751 24.6102 0.623254C25.6489 1.03876 26.5215 1.62046 27.2278 2.36836C27.9342 3.11627 28.4674 4.01652 28.8275 5.06913C29.1876 6.12174 29.3677 7.28514 29.3677 8.55935ZM16.1131 8.55935C16.1131 10.5399 16.5563 12.0634 17.4427 13.1299C18.3291 14.1825 19.5341 14.7088 21.0576 14.7088C22.5673 14.7088 23.7653 14.1825 24.6517 13.1299C25.5381 12.0634 25.9813 10.5399 25.9813 8.55935C25.9813 6.57879 25.5381 5.0622 24.6517 4.0096C23.7653 2.94314 22.5673 2.40991 21.0576 2.40991C19.5341 2.40991 18.3291 2.94314 17.4427 4.0096C16.5563 5.0622 16.1131 6.57879 16.1131 8.55935Z" fill="#074ED8"/>
<path d="M0.688349 13.213C0.993051 13.4623 1.3393 13.6908 1.72711 13.8986C2.12876 14.0925 2.53041 14.2587 2.93206 14.3972C3.34757 14.5357 3.75614 14.6465 4.15779 14.7296C4.55945 14.7988 4.9334 14.8334 5.27965 14.8334C6.12451 14.8334 6.78238 14.6603 7.25329 14.3141C7.73804 13.954 7.98042 13.4207 7.98042 12.7144C7.98042 12.1742 7.84884 11.7172 7.58569 11.3432C7.33639 10.9693 6.86549 10.6092 6.17298 10.2629C5.77133 10.0552 5.39045 9.86818 5.03035 9.70198C4.67025 9.53578 4.324 9.36266 3.99159 9.1826C3.65919 9.00255 3.33371 8.81558 3.01516 8.62168C2.71046 8.41393 2.40576 8.1854 2.10106 7.9361C1.5609 7.45134 1.1177 6.91119 0.77145 6.31564C0.425197 5.70623 0.252071 4.96525 0.252071 4.0927C0.252071 3.49715 0.369797 2.95007 0.605249 2.45147C0.85455 1.93901 1.20773 1.50273 1.66478 1.14263C2.12183 0.782529 2.67584 0.505528 3.32679 0.311627C3.99159 0.103876 4.7395 0 5.5705 0C7.37101 0 8.9707 0.304702 10.3696 0.914106V3.46945C10.3696 3.66335 10.3003 3.788 10.1618 3.8434C10.0233 3.88495 9.87788 3.8434 9.72553 3.71875C8.58982 2.76309 7.34331 2.28526 5.98601 2.28526C5.2381 2.28526 4.66332 2.44454 4.26167 2.76309C3.87387 3.08164 3.67997 3.52485 3.67997 4.0927C3.67997 4.49435 3.74922 4.8406 3.88772 5.13146C4.02622 5.42231 4.23397 5.67853 4.51097 5.90014C5.03727 6.32949 5.5982 6.70344 6.19376 7.02199C6.80316 7.34054 7.39871 7.63832 7.98042 7.91532C8.52057 8.16462 8.9984 8.4347 9.4139 8.72555C9.84325 9.0164 10.2034 9.34881 10.4942 9.72276C10.7989 10.0967 11.0274 10.5261 11.1798 11.0108C11.3321 11.4817 11.4083 12.0357 11.4083 12.6728C11.4083 13.4623 11.249 14.1409 10.9305 14.7088C10.6258 15.2628 10.1964 15.7268 9.64243 16.1007C9.08842 16.4608 8.43747 16.724 7.68957 16.8902C6.95551 17.0564 6.16606 17.1395 5.3212 17.1395C4.69795 17.1395 4.04699 17.0702 3.36834 16.9317C2.70354 16.7932 2.10798 16.6201 1.58168 16.4123C1.05538 16.1907 0.639874 15.9484 0.335172 15.6852C0.0304702 15.4221 -0.0664804 15.1589 0.0443203 14.8958L0.688349 13.213Z" fill="#074ED8"/>
</svg>
