<svg width="196" height="72" viewBox="0 0 196 72" fill="none" xmlns="http://www.w3.org/2000/svg">
<path d="M149.938 46.6029C149.938 46.2705 150.187 46.1874 150.686 46.3536C150.997 46.4367 151.257 46.6029 151.465 46.8522C151.839 47.2677 152.088 48.1611 152.213 49.5323C152.358 50.9035 152.431 53.4069 152.431 57.0426C152.41 59.7642 152.369 62.1846 152.306 64.3037C152.244 66.402 152.161 68.0121 152.057 69.134C151.974 70.2559 151.87 70.8065 151.745 70.7857C151.558 70.7026 151.496 68.49 151.558 64.1479C151.621 59.7435 151.569 57.4789 151.403 57.3543C151.153 57.2296 150.53 57.3543 149.533 57.7282C149.096 57.8944 148.774 58.0399 148.567 58.1645C148.38 58.2892 148.203 58.4346 148.037 58.6008C147.871 58.767 147.777 59.0267 147.756 59.3799C147.736 59.7331 147.725 60.1174 147.725 60.5329C147.725 60.9277 147.746 61.5302 147.788 62.3404C147.912 64.0856 147.891 65.0205 147.725 65.1451C147.455 65.2905 147.258 65.114 147.133 64.6153C146.946 63.7635 146.853 61.4678 146.853 57.7282C146.853 55.0066 146.822 53.2407 146.759 52.4305C146.718 51.6202 146.603 51.1112 146.416 50.9035C146.188 50.6749 146.105 50.4568 146.167 50.249C146.229 50.0205 146.406 49.9062 146.697 49.9062C147.071 49.9062 147.331 50.2179 147.476 50.8411C147.642 51.4436 147.725 52.5136 147.725 54.051C147.725 54.0925 147.725 54.1444 147.725 54.2068C147.725 54.7262 147.715 55.1001 147.694 55.3287C147.673 55.5572 147.684 55.8273 147.725 56.1389C147.767 56.4505 147.798 56.6583 147.819 56.7622C147.84 56.8453 147.902 56.9388 148.006 57.0426C148.11 57.1465 148.193 57.1985 148.255 57.1985C148.338 57.1777 148.494 57.1465 148.722 57.105C148.951 57.0634 149.148 57.0115 149.315 56.9492C149.481 56.8661 149.761 56.7518 150.156 56.6064C150.177 56.5856 150.198 56.5752 150.218 56.5752L151.683 55.9519L151.496 53.7082C151.371 52.0461 151.309 50.758 151.309 49.8439C151.309 49.1583 151.267 48.6701 151.184 48.3792C151.101 48.0884 150.925 47.8183 150.655 47.569C150.177 47.1327 149.938 46.8107 149.938 46.6029ZM135.135 48.0988C135.135 47.9118 135.218 47.7871 135.385 47.7248C135.572 47.6625 135.831 47.6729 136.164 47.756C136.496 47.8391 136.88 47.9741 137.317 48.1611C138.002 48.4727 138.802 48.6805 139.716 48.7844C140.63 48.8882 141.191 49.096 141.399 49.4076C141.586 49.7193 141.638 49.9166 141.555 49.9997C141.472 50.0828 140.869 50.0309 139.747 49.8439C138.626 49.6569 137.971 49.5011 137.784 49.3765C137.618 49.2103 137.14 49.0233 136.351 48.8155C135.54 48.6078 135.135 48.3688 135.135 48.0988ZM139.436 52.9602C142.074 52.2747 143.477 51.9526 143.643 51.9942C143.83 52.0357 143.923 52.1812 143.923 52.4305C143.923 52.7629 142.625 53.2095 140.028 53.7705C139.155 53.999 138.241 54.2379 137.286 54.4872C137.202 54.508 137.109 54.5288 137.005 54.5496C136.216 54.7989 135.748 54.9235 135.603 54.9235C135.478 54.9028 135.416 54.7677 135.416 54.5184C135.416 54.4769 135.416 54.4457 135.416 54.4249C135.416 54.2379 135.675 54.051 136.195 53.864C136.735 53.6562 137.815 53.355 139.436 52.9602ZM138.22 57.7906C138.802 57.0842 139.779 57.0115 141.15 57.5724C141.96 57.9256 142.448 58.4658 142.614 59.1929C142.801 59.9201 142.635 60.7095 142.116 61.5613C141.867 61.9353 141.482 62.3093 140.963 62.6832C140.443 63.0572 139.903 63.348 139.342 63.5558C138.781 63.7428 138.335 63.8051 138.002 63.7428C137.421 63.5973 136.943 63.3688 136.569 63.0572C136.195 62.7248 135.956 62.3508 135.852 61.9353C135.748 61.5198 135.873 61.0212 136.226 60.4394C136.579 59.837 137.244 58.954 138.22 57.7906ZM140.651 58.3515C140.111 58.1437 139.747 58.0399 139.56 58.0399C139.56 58.0606 139.529 58.0814 139.467 58.1022C139.405 58.1022 139.332 58.1126 139.249 58.1334C139.166 58.1541 139.093 58.1749 139.031 58.1957C138.844 58.258 138.439 58.7047 137.815 59.5357C137.213 60.346 136.828 60.9796 136.662 61.4367C136.517 61.7899 136.704 62.1119 137.223 62.4027C137.743 62.6728 138.293 62.7663 138.875 62.6832C139.789 62.5378 140.527 62.1638 141.087 61.5613C141.669 60.9588 141.918 60.346 141.835 59.7227C141.773 59.0786 141.378 58.6216 140.651 58.3515Z" fill="#074ED8" stroke="#074ED8" stroke-width="0.5"/>
<path d="M129.625 46.3225C129.979 45.72 130.384 45.8654 130.841 46.7588C131.028 47.1327 131.194 47.5898 131.339 48.13C131.526 48.7948 131.63 49.6258 131.651 50.623C131.672 51.6203 131.63 53.4381 131.526 56.0766C131.443 59.0475 131.339 60.9485 131.215 61.7795C131.09 62.6105 130.851 63.0261 130.498 63.0261C130.352 62.943 130.29 62.3716 130.311 61.3121C130.352 60.2525 130.498 57.6556 130.747 53.5212C130.851 51.9423 130.82 50.5815 130.654 49.4388C130.488 48.2962 130.207 47.5067 129.812 47.0704C129.542 46.738 129.48 46.4887 129.625 46.3225ZM120.931 47.3197C121.471 47.1951 121.855 47.1639 122.084 47.2262C122.333 47.2678 122.624 47.434 122.956 47.7249C123.455 48.2027 123.673 48.7948 123.611 49.5012C123.569 50.1868 123.226 50.8827 122.582 51.5891C122.188 52.0254 121.855 52.3266 121.585 52.4928C121.315 52.6383 121.014 52.711 120.681 52.711C120.349 52.711 120.006 52.6279 119.653 52.4617C119.3 52.2955 118.978 52.0877 118.687 51.8384C118.417 51.5891 118.24 51.319 118.157 51.0282C118.012 50.5296 118.271 49.8336 118.936 48.9402C119.622 48.0261 120.287 47.4859 120.931 47.3197ZM122.208 48.2235C121.814 48.0157 121.492 47.9534 121.242 48.0365C120.993 48.0988 120.598 48.3897 120.058 48.9091C119.476 49.4908 119.165 50.0309 119.123 50.5296C119.082 51.0282 119.331 51.3814 119.871 51.5891C120.266 51.7553 120.733 51.7241 121.274 51.4956C121.834 51.2671 122.229 50.9347 122.458 50.4984C122.707 50.0621 122.801 49.6258 122.738 49.1895C122.697 48.7325 122.52 48.4104 122.208 48.2235ZM126.135 53.3031C126.883 52.8253 127.579 52.6279 128.223 52.711C128.514 52.7318 128.576 52.846 128.41 53.0538C128.036 53.4901 126.686 54.1549 124.359 55.0482C123.673 55.3183 123.33 55.63 123.33 55.9831C123.33 56.3363 122.749 57.3855 121.585 59.1306C120.297 61.0212 119.404 62.3612 118.905 63.1507C118.303 64.0648 117.918 64.5634 117.752 64.6466C117.44 64.7504 117.357 64.5738 117.503 64.1168C117.648 63.5766 117.991 62.9326 118.531 62.1846C119.341 61.0004 119.882 60.2006 120.152 59.7851C121.71 57.2089 122.479 55.8169 122.458 55.6092C122.437 55.5053 122.24 55.5053 121.866 55.6092C121.409 55.7546 120.339 56.0143 118.656 56.3883C116.973 56.7415 115.81 56.9804 115.166 57.105C114.75 57.1466 114.47 57.157 114.324 57.1362C114.179 57.0946 114.106 56.9908 114.106 56.8246C114.106 56.5752 114.293 56.3987 114.667 56.2948C115.041 56.1909 115.976 56.0143 117.472 55.765C118.926 55.5365 120.609 55.1521 122.52 54.612C124.452 54.0718 125.657 53.6355 126.135 53.3031ZM126.883 57.0427C127.569 56.6687 128.171 56.461 128.69 56.4194C129.231 56.3779 129.563 56.5129 129.688 56.8246C129.708 56.8869 129.708 56.9492 129.688 57.0115C129.667 57.0531 129.625 57.0946 129.563 57.1362C129.501 57.157 129.438 57.1673 129.376 57.1673C129.002 57.1673 128.451 57.3439 127.724 57.6971C124.961 58.9021 123.507 59.4215 123.361 59.2553C123.278 59.1722 123.351 59.006 123.58 58.7567C123.808 58.5074 124.089 58.2788 124.421 58.0711C124.753 57.8426 124.992 57.7283 125.138 57.7283C125.449 57.7283 126.031 57.4998 126.883 57.0427ZM124.608 62.7144C124.857 62.2989 125.127 62.5275 125.418 63.4C125.501 63.6286 125.584 63.9194 125.668 64.2726C125.979 65.4984 126.27 66.2151 126.54 66.4229C126.831 66.6306 127.735 66.6618 129.251 66.5164C130.996 66.3502 132.129 66.2774 132.648 66.2982C133.188 66.319 133.5 66.4125 133.583 66.5787C133.645 66.8072 133.521 66.9734 133.209 67.0773C132.897 67.1604 131.994 67.3162 130.498 67.5447C127.714 67.9187 126.062 67.6175 125.543 66.641C125.294 66.1839 125.044 65.4568 124.795 64.4596C124.566 63.4623 124.504 62.8806 124.608 62.7144Z" fill="#074ED8" stroke="#074ED8" stroke-width="0.5"/>
<path d="M102.671 46.9769C103.357 46.5614 103.949 46.3952 104.447 46.4783C104.946 46.5614 105.33 46.7692 105.6 47.1016C105.87 47.434 105.964 47.9014 105.881 48.5039C105.798 49.0856 105.517 49.6777 105.039 50.2802C103.938 51.6306 102.941 52.15 102.048 51.8384C101.03 51.4644 100.728 50.4984 101.144 48.9402C101.289 48.4416 101.466 48.0676 101.674 47.8183C101.881 47.5482 102.214 47.2678 102.671 46.9769ZM105.039 48.1923C105.039 47.8599 104.998 47.6521 104.915 47.569C104.832 47.4651 104.624 47.4132 104.291 47.4132C103.315 47.434 102.588 47.9014 102.11 48.8155C101.528 49.979 101.601 50.6542 102.328 50.8412C102.91 50.9866 103.502 50.7684 104.104 50.1867C104.728 49.5842 105.039 48.9194 105.039 48.1923ZM110.524 53.677C111.189 53.4277 111.584 53.3031 111.708 53.3031C111.854 53.2823 112.051 53.355 112.3 53.5212C112.633 53.729 112.612 53.9887 112.238 54.3003C111.968 54.5496 111.636 54.6743 111.241 54.6743C110.846 54.6743 109.724 54.9028 107.875 55.3599C106.296 55.7754 104.52 56.1493 102.546 56.4817C100.926 56.7518 98.7651 57.1881 96.0643 57.7906C93.4881 58.3308 92.1481 58.5489 92.0442 58.445C91.7949 58.2165 92.0546 57.9568 92.8233 57.6659C93.9452 57.2712 96.5006 56.7414 100.489 56.0766C104.852 55.3287 108.197 54.5288 110.524 53.677ZM101.611 62.2158C102.588 61.5925 103.388 61.3121 104.011 61.3744C104.634 61.4367 105.164 61.8626 105.6 62.6521C105.829 63.1091 105.735 63.722 105.32 64.4907C104.904 65.2594 104.302 65.8931 103.512 66.3917C102.661 66.9111 102.006 67.1708 101.549 67.1708C101.092 67.1708 100.656 66.9007 100.24 66.3605C99.513 65.5295 99.1598 64.6569 99.1806 63.7428C99.243 63.2026 99.4611 62.9429 99.8351 62.9637C100.167 63.0053 100.76 62.756 101.611 62.2158ZM104.634 62.7144C104.343 62.4028 104.032 62.247 103.699 62.247C103.388 62.247 102.91 62.4028 102.266 62.7144C100.812 63.5039 100.209 64.3037 100.458 65.114C100.625 65.7788 101.04 66.0904 101.705 66.0489C102.39 65.9866 103.128 65.6022 103.917 64.8958C104.458 64.3972 104.78 63.9921 104.884 63.6805C104.987 63.3481 104.904 63.026 104.634 62.7144Z" fill="#074ED8" stroke="#074ED8" stroke-width="0.5"/>
<path d="M72.1382 45.8552C72.8861 45.4605 73.4679 45.2527 73.8834 45.2319C74.2989 45.1904 74.7248 45.3254 75.1611 45.6371C75.4519 45.824 75.6181 46.011 75.6597 46.198C75.722 46.385 75.722 46.7278 75.6597 47.2264C75.6181 47.6627 75.4935 48.0366 75.2857 48.3483C75.0987 48.6599 74.7767 49.0131 74.3197 49.4078C73.2809 50.3635 72.4187 50.6855 71.7331 50.3739C71.0683 50.0623 70.767 49.2209 70.8294 47.8497C70.8501 47.2056 70.9229 46.7901 71.0475 46.6031C71.1929 46.4161 71.5565 46.1668 72.1382 45.8552ZM74.4755 46.1668C73.8522 45.9591 73.3432 46.0214 72.9485 46.3538C72.7823 46.4993 72.6161 46.6758 72.4499 46.8836C72.2837 47.0914 72.1278 47.3095 71.9824 47.538C71.8578 47.7666 71.7539 47.9951 71.6708 48.2236C71.5877 48.4522 71.5461 48.6495 71.5461 48.8157C71.5461 49.065 71.6812 49.2312 71.9512 49.3143C72.2213 49.3974 72.5537 49.3767 72.9485 49.252C73.3432 49.1274 73.7068 48.9196 74.0392 48.6287C74.517 48.234 74.7975 47.7666 74.8806 47.2264C74.9845 46.6862 74.8494 46.333 74.4755 46.1668ZM78.4021 51.7451C78.8176 51.5997 79.2331 51.4958 79.6486 51.4335C80.0641 51.3503 80.3965 51.3192 80.6458 51.34C80.9159 51.3607 81.0509 51.4335 81.0509 51.5581C81.0509 51.8905 80.5523 52.1814 79.5551 52.4307C78.9942 52.5761 77.6853 52.9293 75.6285 53.4902C73.5717 54.0304 71.7435 54.4251 70.1438 54.6744C67.9208 55.0068 65.7393 55.5055 63.5995 56.1703C62.5191 56.5027 61.927 56.6066 61.8232 56.4819C61.8024 56.4404 61.792 56.3469 61.792 56.2014C61.792 55.9521 62.5607 55.5886 64.0981 55.1107C65.6563 54.6329 67.2144 54.2797 68.7726 54.0512C69.9776 53.9057 71.6188 53.5837 73.6964 53.0851C75.7947 52.5865 77.3633 52.1398 78.4021 51.7451ZM73.9457 58.6322C74.5066 58.4244 74.9429 58.3205 75.2546 58.3205C75.6077 58.2998 75.8778 58.5075 76.0648 58.9438C76.2518 59.3801 76.283 59.8995 76.1583 60.502C75.9921 61.2291 75.909 61.6654 75.909 61.8109C75.8882 62.0186 75.3377 62.5692 74.2573 63.4625C73.551 64.0235 73.1043 64.439 72.9173 64.709C72.7511 64.9791 72.6888 65.3011 72.7303 65.6751C72.7719 66.0698 72.855 66.3088 72.9796 66.3919C73.1043 66.4542 73.4679 66.4646 74.0704 66.423C74.9429 66.3607 75.909 66.1114 76.9685 65.6751C78.0696 65.218 78.7552 65.0934 79.0253 65.3011C79.2539 65.5089 79.2954 65.7063 79.15 65.8932C79.0046 66.0595 78.6514 66.2672 78.0904 66.5165C77.571 66.7451 76.7192 66.9736 75.535 67.2021C74.3508 67.4514 73.5406 67.5761 73.1043 67.5761C72.7303 67.5553 72.3771 67.3579 72.0447 66.984C71.7123 66.6308 71.5461 66.2672 71.5461 65.8932C71.5461 65.5401 71.4319 65.3531 71.2033 65.3323C70.9748 65.2908 70.497 65.4154 69.7698 65.7063C69.479 65.8309 69.3335 65.7686 69.3335 65.5193C69.3543 65.1661 70.7567 64.1169 73.5406 62.3718C74.1638 61.9978 74.5897 61.6446 74.8183 61.3122C75.0676 60.9798 75.1922 60.5643 75.1922 60.0657C75.1922 59.6086 75.1507 59.3386 75.0676 59.2555C75.0053 59.1724 74.839 59.1827 74.569 59.2866C73.6548 59.5359 72.4602 60.2527 70.9852 61.4369C69.8841 62.2679 69.3335 62.4445 69.3335 61.9667C69.3335 61.6966 69.9152 61.146 71.0787 60.315C72.2421 59.4632 73.1978 58.9023 73.9457 58.6322Z" fill="#074ED8" stroke="#074ED8" stroke-width="0.5"/>
<path d="M55.1979 48.0678C55.7173 47.8185 56.1743 47.6938 56.5691 47.6938C56.8392 47.6938 57.0054 47.7769 57.0677 47.9432C57.13 48.1094 57.1612 48.5976 57.1612 49.4078C57.1612 50.6544 57.0365 51.7762 56.7872 52.7735C56.5379 53.7499 56.2471 54.2797 55.9146 54.3628C55.7277 54.3836 55.603 54.3628 55.5407 54.3005C55.4991 54.2174 55.5199 54.0408 55.603 53.7707C55.8108 53.0228 55.9874 52.0463 56.1328 50.8413C56.299 49.6364 56.3405 48.9923 56.2574 48.9092C56.112 48.8053 55.603 48.8781 54.7304 49.1274L53.4216 49.5636L52.9541 51.7139C52.6633 52.9397 52.4036 53.7915 52.175 54.2693C51.9673 54.7264 51.7284 54.9549 51.4583 54.9549C51.1882 54.9549 51.0532 54.8926 51.0532 54.7679C51.0532 54.6225 51.1882 54.2485 51.4583 53.646C51.5829 53.3136 51.718 52.815 51.8634 52.1502C52.0088 51.4646 52.1023 50.8933 52.1439 50.4362C52.1854 49.9792 52.1543 49.7091 52.0504 49.626C51.905 49.626 51.4583 49.8545 50.7104 50.3116C49.9624 50.7479 49.3496 51.1426 48.8717 51.4958C47.8953 52.2645 47.407 52.358 47.407 51.7762C47.407 51.4023 48.1965 50.8102 49.7755 49.9999C51.3752 49.1689 52.4347 48.8157 52.9541 48.9404C53.4112 49.0443 53.7644 48.9819 54.0137 48.7534C54.2838 48.5249 54.6785 48.2963 55.1979 48.0678ZM56.0393 55.1107C58.6362 54.2589 60.0178 53.9785 60.184 54.2693L60.2464 54.4251C60.2464 54.4875 60.1425 54.581 59.9347 54.7056C59.7477 54.8303 59.4777 54.9549 59.1245 55.0796C58.7921 55.2042 58.4285 55.3289 58.0338 55.4535C56.5171 55.9106 55.6861 56.243 55.5407 56.4507C55.3537 56.7001 55.3122 57.5311 55.416 58.9438C55.5407 60.3566 55.7069 61.0629 55.9146 61.0629C56.2263 61.0629 56.5067 61.2291 56.7561 61.5615C57.0261 61.894 57.1612 62.2367 57.1612 62.5899C57.1612 63.0262 56.9742 63.4833 56.6002 63.9611C56.2263 64.439 56.0393 64.7194 56.0393 64.8025C56.0393 64.9272 56.5483 64.9895 57.5663 64.9895C59.0621 64.9895 59.8101 65.1453 59.8101 65.457C59.8101 65.5401 59.7685 65.6128 59.6854 65.6751C59.4777 65.9036 58.6882 65.9763 57.317 65.8932C55.9043 65.7894 55.0109 65.8829 54.6369 66.1737C53.9306 66.61 53.432 66.797 53.1411 66.7347C52.871 66.6516 52.362 66.2257 51.6141 65.457L50.2429 63.9923L50.9908 63.743C51.5102 63.5768 52.2478 63.0782 53.2034 62.2471L54.6993 61.0006L54.4811 58.8815C54.3565 57.4272 54.2734 56.6793 54.2318 56.6377C54.1695 56.5546 53.754 56.617 52.9853 56.8247C52.2374 57.0325 51.6245 57.2298 51.1467 57.4168C50.7727 57.583 50.0352 57.8739 48.934 58.2894C48.1654 58.5595 47.2408 58.923 46.1605 59.3801C45.3918 59.7125 44.7166 59.941 44.1349 60.0657C43.5532 60.1904 43.2104 60.18 43.1065 60.0345C42.9818 59.7852 43.1792 59.5463 43.6986 59.3178C44.5712 58.9023 48.6847 57.4999 56.0393 55.1107ZM56.164 62.8081C56.2678 62.5588 56.2782 62.403 56.1951 62.3406C56.1328 62.2575 55.9354 62.216 55.603 62.216C54.7512 62.2367 53.9098 62.6315 53.0788 63.4002C52.3101 64.1066 52.2374 64.7298 52.8606 65.27C53.0684 65.4362 53.2554 65.5089 53.4216 65.4881C53.5878 65.4674 53.8475 65.3531 54.2007 65.1453C55.1979 64.5844 55.8523 63.8053 56.164 62.8081Z" fill="#074ED8" stroke="#074ED8" stroke-width="0.5"/>
<path d="M193.445 3.27598C193.985 2.65272 194.359 2.97474 194.566 4.24205V4.33554C194.712 5.39509 194.785 8.73996 194.785 14.3701C194.805 20.2704 194.899 23.7191 195.065 24.7164C195.418 26.3784 195.294 27.2094 194.691 27.2094C194.421 27.2094 194.224 26.7108 194.099 25.7136C193.995 24.7371 193.933 22.9089 193.912 20.2288C193.912 20.0419 193.912 19.7718 193.912 19.4186C193.891 17.4034 193.798 16.2503 193.632 15.9595C193.486 15.6686 192.946 15.7102 192.011 16.0841C191.97 16.1257 191.928 16.1568 191.886 16.1776C191.845 16.1776 191.803 16.188 191.762 16.2088C191.72 16.2296 191.668 16.2503 191.606 16.2711C189.965 16.9359 187.544 17.7046 184.345 18.5772C181.145 19.429 179.452 19.7718 179.265 19.6056C179.016 19.3355 179.296 19.0446 180.107 18.733C180.751 18.5045 181.789 18.2136 183.223 17.8604C184.719 17.528 186.443 17.0606 188.396 16.4581C190.37 15.8556 191.928 15.3258 193.071 14.8688L193.974 14.526V9.91378C193.974 6.83899 193.829 5.03152 193.538 4.49135C193.247 3.97196 193.216 3.56684 193.445 3.27598ZM185.124 7.67002C186.1 6.96365 186.89 6.72473 187.492 6.95326C188.095 7.16101 188.396 7.82583 188.396 8.94771C188.396 9.90339 188.116 10.8383 187.555 11.7524C187.015 12.6665 186.381 13.269 185.654 13.5599C185.176 13.7469 184.636 13.6949 184.033 13.4041C183.452 13.1132 183.046 12.7185 182.818 12.2199C182.672 11.8459 182.62 11.5343 182.662 11.285C182.704 11.0149 182.891 10.5578 183.223 9.91378C183.722 8.9581 184.355 8.21018 185.124 7.67002ZM187.586 8.94771C187.586 8.63608 187.565 8.41794 187.524 8.29328C187.482 8.16863 187.409 8.08553 187.305 8.04398C187.222 7.98165 187.087 7.95049 186.9 7.95049C186.256 7.95049 185.55 8.37638 184.781 9.22818C184.033 10.0592 183.659 10.8383 183.659 11.5654C183.659 11.9394 183.857 12.2199 184.251 12.4068C184.916 12.8016 185.633 12.5938 186.402 11.7836C187.191 10.9733 187.586 10.028 187.586 8.94771Z" fill="#074ED8" stroke="#074ED8" stroke-width="0.5"/>
<path d="M169.92 3.61885C171.893 2.95403 172.942 2.66317 173.067 2.74627C173.109 2.76705 173.129 2.86054 173.129 3.02674C173.129 3.1514 172.963 3.3176 172.631 3.52536C172.319 3.73311 171.956 3.92009 171.54 4.0863C170.688 4.48103 169.764 5.07314 168.767 5.86261C167.769 6.65208 167.271 7.20263 167.271 7.51427C167.271 7.68047 167.468 7.77396 167.863 7.79474C168.278 7.79474 168.839 7.7428 169.546 7.63892C170.273 7.51427 171.062 7.33767 171.914 7.10914C172.849 6.85984 173.42 6.75596 173.628 6.79751C173.857 6.83906 173.971 7.0572 173.971 7.45194C173.971 7.63892 173.898 7.77396 173.753 7.85706C173.628 7.91939 173.4 7.95055 173.067 7.95055C172.298 7.9921 171.395 8.13753 170.356 8.38684C169.255 8.61537 168.206 8.74003 167.208 8.7608C166.398 8.7608 165.951 8.63615 165.868 8.38684C165.806 8.11676 166.087 7.62853 166.71 6.92216C167.499 6.02881 167.676 5.57175 167.24 5.55097C167.094 5.5302 166.866 5.54059 166.554 5.58214C166.18 5.66524 165.92 5.68601 165.775 5.64446C165.65 5.60291 165.588 5.48865 165.588 5.30167C165.588 5.01081 165.858 4.82383 166.398 4.74073C166.876 4.63685 168.05 4.26289 169.92 3.61885ZM176.059 10.319C176.661 10.132 177.066 10.0593 177.274 10.1008C177.503 10.1216 177.617 10.2878 177.617 10.5994C177.617 10.8695 177.264 11.0877 176.557 11.2539C175.851 11.4201 173.358 12.033 169.078 13.0925C164.134 14.339 161.464 14.9208 161.069 14.8377C160.924 14.8169 160.851 14.7234 160.851 14.5572C160.851 14.4949 160.882 14.4325 160.945 14.3702C161.007 14.2871 161.08 14.2144 161.163 14.1521C161.267 14.0897 161.381 14.0482 161.506 14.0274C166.99 12.864 171.841 11.6278 176.059 10.319ZM169.203 16.1777C170.47 15.5336 171.27 15.2324 171.602 15.2739C171.852 15.3155 171.997 15.4401 172.039 15.6479C172.101 15.8349 172.132 16.3023 172.132 17.0503V18.7642L170.886 19.4187C169.764 20.0004 169.078 20.4782 168.829 20.8522C168.58 21.2054 168.673 21.6001 169.109 22.0364C169.421 22.348 169.837 22.4831 170.356 22.4415C170.875 22.3792 171.706 22.1091 172.849 21.6313C174.22 21.0911 175.03 20.9145 175.28 21.1015C175.674 21.4339 175.633 21.7144 175.155 21.9429C174.864 22.1299 174.324 22.348 173.535 22.5973C170.917 23.5322 169.151 23.5322 168.237 22.5973C167.759 22.161 167.52 21.8494 167.52 21.6624C167.52 21.4754 167.281 21.4651 166.803 21.6313C166.388 21.7975 166.076 21.8806 165.868 21.8806C165.681 21.8806 165.588 21.8079 165.588 21.6624C165.588 21.517 166.138 21.0599 167.24 20.2912C168.341 19.5018 168.985 19.107 169.172 19.107C169.379 19.107 169.764 18.7954 170.325 18.1721C170.886 17.5489 171.166 17.1126 171.166 16.8633C171.166 16.2608 170.553 16.3231 169.328 17.0503C169.141 17.1541 168.933 17.2788 168.704 17.4242C167.021 18.4422 166.097 18.8681 165.931 18.7019C165.827 18.6188 165.9 18.4526 166.149 18.2033C166.419 17.954 166.824 17.6527 167.364 17.2996C167.904 16.9256 168.517 16.5516 169.203 16.1777Z" fill="#074ED8" stroke="#074ED8" stroke-width="0.5"/>
<path d="M150.663 1.53075C150.663 1.38532 150.684 1.27106 150.726 1.18796C150.767 1.10485 150.85 1.05291 150.975 1.03214C151.1 1.01136 151.266 1.00098 151.474 1.00098C151.681 1.00098 151.847 1.01136 151.972 1.03214C152.097 1.05291 152.211 1.1464 152.315 1.31261C152.44 1.45804 152.533 1.63463 152.595 1.84239C152.679 2.05014 152.751 2.39294 152.814 2.87078C152.897 3.32784 152.959 3.82645 153.001 4.36662C153.042 4.90678 153.104 5.63393 153.188 6.54805C153.354 8.81259 153.395 10.4123 153.312 11.3472C153.25 12.2613 153.042 12.7184 152.689 12.7184C152.523 12.7184 152.408 12.6145 152.346 12.4068C152.305 12.199 152.315 11.7523 152.377 11.0667C152.46 10.0072 152.408 8.31398 152.221 5.98711C152.034 3.66025 151.858 2.37216 151.692 2.12286C151.463 1.89432 151.235 1.82161 151.006 1.90471C150.881 1.96704 150.788 1.96704 150.726 1.90471C150.684 1.82161 150.663 1.69696 150.663 1.53075ZM143.059 5.20803C143.579 4.64709 143.953 4.31468 144.181 4.2108C144.41 4.08615 144.805 4.0446 145.366 4.08615C146.55 4.19003 147.235 4.67825 147.422 5.55083C147.63 6.4234 147.256 7.37908 146.3 8.41785C145.656 9.16578 145.334 9.58129 145.334 9.66439C145.334 9.80982 144.992 10.028 144.306 10.3188C143.62 10.6097 143.101 10.7551 142.748 10.7551C142.332 10.7551 141.948 10.5162 141.595 10.0384C141.366 9.70594 141.252 9.43586 141.252 9.2281C141.252 8.99957 141.345 8.5529 141.532 7.88808C141.844 6.8493 142.353 5.95595 143.059 5.20803ZM146.394 6.04944C146.352 5.5716 146.28 5.28074 146.176 5.17687C146.093 5.05221 145.843 4.9795 145.428 4.95872C144.805 4.85484 144.244 5.08337 143.745 5.64432C143.33 6.0806 142.976 6.61038 142.685 7.23365C142.395 7.85691 142.249 8.41786 142.249 8.91647C142.249 9.2281 142.301 9.42547 142.405 9.50857C142.509 9.59167 142.779 9.63323 143.215 9.63323C143.589 9.63323 143.911 9.55012 144.181 9.38392C144.472 9.21772 144.846 8.88531 145.303 8.38669C145.823 7.82575 146.145 7.41024 146.269 7.14016C146.394 6.8493 146.435 6.48573 146.394 6.04944ZM149.51 14.2766C150.009 14.0688 150.539 13.8922 151.1 13.7468C151.681 13.6014 152.17 13.539 152.564 13.5598C152.959 13.5598 153.156 13.6325 153.156 13.778C153.156 13.9649 152.762 14.1935 151.972 14.4635C151.785 14.5259 151.525 14.6194 151.193 14.744C150.861 14.8687 150.456 15.0141 149.978 15.1803C149.521 15.3465 149.188 15.4608 148.98 15.5231L147.142 16.2087V19.1692C147.142 21.1221 147.215 22.1921 147.36 22.379C147.568 22.566 147.911 22.3479 148.388 21.7246C148.887 21.1013 149.334 20.3223 149.728 19.3874C150.144 18.4317 150.352 17.6734 150.352 17.1124C150.352 16.0321 150.591 15.4919 151.068 15.4919C151.318 15.4919 151.442 15.5647 151.442 15.7101C151.442 15.8971 151.307 16.6034 151.037 17.8292C150.788 19.0965 150.424 20.1353 149.947 20.9455L149.261 22.1609L152.533 22.0051C153.904 21.922 154.902 21.9116 155.525 21.9739C156.148 22.0155 156.782 22.1297 157.426 22.3167C158.963 22.7945 159.555 23.2828 159.202 23.7814C159.16 23.8229 159.119 23.8541 159.077 23.8749C158.911 24.0826 158.392 23.9788 157.519 23.5632C156.938 23.3347 156.356 23.1789 155.774 23.0958C155.192 23.0127 154.226 22.9815 152.876 23.0023C151.338 23.0023 150.248 23.0542 149.604 23.1581C148.96 23.262 147.942 23.5529 146.55 24.0307C144.514 24.7163 143.413 25.1318 143.246 25.2772C143.039 25.4642 142.685 25.5369 142.187 25.4954C141.688 25.4746 141.439 25.3603 141.439 25.1526C141.439 24.9448 141.834 24.654 142.623 24.28C143.433 23.906 144.212 23.636 144.96 23.4698C145.563 23.3451 145.937 23.1581 146.082 22.9088C146.269 22.6803 146.3 21.6 146.176 19.6678C146.155 19.0446 146.124 18.5563 146.082 18.2031C146.061 17.8292 146.02 17.5383 145.958 17.3306C145.916 17.102 145.864 16.9566 145.802 16.8943C145.76 16.832 145.698 16.8216 145.615 16.8631C145.345 16.9255 144.649 17.0086 143.527 17.1124C142.509 17.1955 142 17.1436 142 16.9566C142 16.9358 142.01 16.9047 142.031 16.8631C142.135 16.593 142.634 16.3957 143.527 16.271C145.085 16.0633 147.08 15.3984 149.51 14.2766Z" fill="#074ED8" stroke="#074ED8" stroke-width="0.5"/>
<path d="M132.179 0.377738C132.449 0.23231 132.657 0.211534 132.803 0.315412C133.031 0.481617 132.74 1.1776 131.93 2.40336C131.494 3.1305 131.317 3.60834 131.4 3.83687C131.483 4.0654 132.304 4.30432 133.862 4.55363C135.67 4.80293 136.573 5.10418 136.573 5.45737C136.573 5.51969 136.553 5.60279 136.511 5.70667C136.345 5.9352 135.971 5.97676 135.389 5.83133C134.06 5.56124 132.875 5.35349 131.837 5.20806C130.819 5.06263 130.278 5.04185 130.216 5.14573C130.175 5.20806 129.208 6.278 127.318 8.35556C125.365 10.3916 124.305 11.368 124.139 11.2849C124.098 11.2641 124.077 11.2018 124.077 11.0979C124.077 10.9733 124.576 10.3396 125.573 9.19697C126.57 8.03354 127.661 6.80778 128.845 5.51969C129.593 4.73022 130.278 3.72261 130.902 2.49685C131.546 1.22954 131.972 0.523168 132.179 0.377738ZM130.902 8.41788C131.068 7.37911 131.244 6.88049 131.431 6.92204C131.639 6.98437 131.722 7.5557 131.681 8.63603C131.66 9.69558 131.525 10.3604 131.276 10.6305C131.089 10.9213 131.047 11.1083 131.151 11.1914C131.172 11.2538 131.369 11.2641 131.743 11.2226C132.138 11.181 132.616 11.1187 133.177 11.0356C133.738 10.9317 134.361 10.8071 135.046 10.6616C135.732 10.4954 136.407 10.3292 137.072 10.163C138.339 9.83062 139.087 9.67481 139.316 9.69558C139.565 9.69558 139.69 9.91372 139.69 10.35C139.69 10.6824 139.648 10.8798 139.565 10.9421C139.482 11.0044 139.274 11.0044 138.942 10.9421C138.464 10.859 137.508 10.9733 136.075 11.2849C135.701 11.368 135.005 11.5342 133.987 11.7835C132.969 12.0121 132.273 12.1783 131.899 12.2821C130.569 12.5938 129.063 13.1651 127.38 13.9961C125.095 15.1596 123.755 15.5439 123.36 15.1492C123.09 14.8791 123.402 14.5675 124.295 14.2143C124.544 14.0896 124.866 13.9546 125.261 13.8091C125.947 13.5391 126.653 13.217 127.38 12.8431C128.107 12.4691 128.731 12.0848 129.25 11.69C129.769 11.2953 130.123 10.9525 130.31 10.6616C130.6 10.1838 130.798 9.43589 130.902 8.41788ZM130.247 17.2994C131.909 16.4892 132.886 16.136 133.177 16.2399C133.509 16.3645 133.738 16.6138 133.862 16.9878C134.008 17.341 133.997 17.7357 133.831 18.172C133.644 18.6499 133.644 19.003 133.831 19.2316C133.956 19.377 133.914 19.5536 133.706 19.7613C133.519 19.9691 133.135 20.2703 132.553 20.6651C131.452 21.413 130.881 22.0259 130.839 22.5037C130.777 23.0023 130.891 23.314 131.182 23.4386C131.473 23.5217 132.055 23.4698 132.927 23.2828C133.821 23.0751 134.61 22.7842 135.296 22.4102C135.69 22.2233 136.075 22.0882 136.449 22.0051C136.844 21.922 137.155 21.9116 137.384 21.9739C137.633 22.0155 137.758 22.1298 137.758 22.3167C137.758 22.5037 137.29 22.7842 136.355 23.1582C135.42 23.5321 134.34 23.8541 133.114 24.1242C131.348 24.5813 130.268 24.3112 129.873 23.314C129.707 22.9192 129.562 22.7011 129.437 22.6595C129.312 22.618 129.022 22.7011 128.564 22.9088C127.858 23.1997 127.495 23.3036 127.474 23.2205C127.453 23.1582 127.443 23.0543 127.443 22.9088C127.443 22.8465 127.671 22.6284 128.128 22.2544C128.606 21.8597 129.167 21.4649 129.811 21.0702C130.933 20.3431 131.743 19.7094 132.242 19.1692C132.74 18.6291 132.99 18.0889 132.99 17.5487C132.99 17.1748 132.668 17.1125 132.024 17.3618L130.123 18.2655C128.232 19.242 127.359 19.4809 127.505 18.9823C127.505 18.9407 127.526 18.868 127.567 18.7641C127.671 18.5979 128.564 18.1097 130.247 17.2994Z" fill="#074ED8" stroke="#074ED8" stroke-width="0.5"/>
<path d="M110.678 4.70967C110.678 4.35648 110.886 4.23183 111.301 4.33571C111.654 4.43958 111.893 4.64734 112.018 4.95897C112.184 5.41604 112.288 8.84401 112.329 15.2429C112.371 22.0988 112.34 25.6722 112.236 25.9631C112.215 26.0462 112.101 26.0877 111.893 26.0877C111.706 26.0877 111.592 25.506 111.55 24.3426C111.509 23.1791 111.488 20.4264 111.488 16.0843C111.488 11.8876 111.457 9.15564 111.395 7.88833C111.353 6.60024 111.249 5.83155 111.083 5.58224C110.813 5.20828 110.678 4.91742 110.678 4.70967ZM102.793 8.63625C103.541 8.36617 104.113 8.2519 104.507 8.29345C104.923 8.31423 105.245 8.50121 105.474 8.85439C105.764 9.24913 105.91 9.84123 105.91 10.6307C105.91 11.1709 105.785 11.6279 105.536 12.0019C105.287 12.3759 104.57 13.1653 103.386 14.3703C101.682 16.0947 100.913 17.04 101.079 17.2062C101.225 17.3516 101.9 17.2166 103.105 16.801C104.31 16.3648 105.588 15.7934 106.938 15.0871C108.891 14.1106 109.816 13.8301 109.712 14.2457C109.649 14.3703 109.504 14.5469 109.275 14.7754C108.694 15.274 107.374 15.9596 105.318 16.8322C103.261 17.684 101.879 18.1099 101.173 18.1099C100.321 18.1307 99.8745 17.9749 99.833 17.6425C99.7914 17.3101 100.134 16.6972 100.861 15.8038C101.734 14.8066 102.087 14.2457 101.921 14.121C101.859 14.1002 101.755 14.0898 101.609 14.0898C101.194 14.0898 101.007 13.9963 101.048 13.8094C101.152 13.5185 101.537 13.238 102.201 12.968C103.157 12.5317 103.822 12.1162 104.196 11.7214C104.591 11.3059 104.788 10.8281 104.788 10.2879C104.788 9.85162 104.736 9.59192 104.632 9.50882C104.549 9.40494 104.32 9.35301 103.947 9.35301C103.365 9.35301 102.648 9.62309 101.796 10.1633C100.654 10.9319 100.072 10.9839 100.051 10.3191C100.051 9.86201 100.965 9.30107 102.793 8.63625Z" fill="#074ED8" stroke="#074ED8" stroke-width="0.5"/>
<path d="M88.7974 3.2763C89.5038 3.06854 89.9816 2.98544 90.2309 3.02699C90.501 3.04776 90.8438 3.26591 91.2593 3.68142C91.5086 3.93073 91.6644 4.16965 91.7268 4.39818C91.8099 4.60593 91.8202 4.8864 91.7579 5.23959C91.6333 5.88363 91.3943 6.43418 91.0412 6.89125C90.688 7.32753 90.1478 7.78459 89.4207 8.26243C88.652 8.74027 88.0599 8.99997 87.6444 9.04152C87.2288 9.06229 86.8133 8.86492 86.3978 8.44941C86.0031 8.117 85.7849 7.75343 85.7434 7.3587C85.7226 6.94318 85.8265 6.39263 86.055 5.70704C86.4705 4.58516 87.3847 3.77491 88.7974 3.2763ZM90.8853 4.74097C90.823 4.45012 90.7087 4.26314 90.5425 4.18003C90.3763 4.09693 90.0647 4.05538 89.6076 4.05538C89.1506 4.05538 88.787 4.10732 88.5169 4.2112C88.2676 4.31507 87.9872 4.53322 87.6755 4.86563C87.26 5.30191 86.9484 5.81092 86.7406 6.39263C86.5536 6.97435 86.5432 7.40025 86.7095 7.67033C86.8341 7.87809 87.1873 7.97158 87.769 7.9508C88.3507 7.90925 88.8182 7.76382 89.1714 7.51451C89.7323 7.16133 90.179 6.71465 90.5114 6.17449C90.8646 5.61355 90.9892 5.13571 90.8853 4.74097ZM93.2849 11.3476C96.609 10.6828 98.2711 10.6205 98.2711 11.1606C98.2711 11.4099 98.0737 11.5865 97.679 11.6904C97.2842 11.7943 96.1623 11.9501 94.3133 12.1579C92.4851 12.3656 91.4982 12.6357 91.3528 12.9681C90.8957 13.8407 90.6049 15.8144 90.4802 18.8891C90.3556 21.9431 90.4802 23.9168 90.8542 24.8102C91.3943 26.0359 91.4047 26.6488 90.8853 26.6488C90.636 26.6488 90.366 26.358 90.0751 25.7762C89.7842 25.2153 89.5765 24.5609 89.4518 23.8129C89.3895 23.252 89.4311 21.725 89.5765 19.2319C89.7427 16.7181 89.9193 14.9314 90.1063 13.8718C90.2101 13.2901 90.127 12.9993 89.857 12.9993C89.5453 12.9993 87.5509 13.4563 83.8736 14.3705C80.1132 15.3054 78.2019 15.7728 78.1395 15.7728C77.9941 15.7728 77.9214 15.6481 77.9214 15.3988C77.9214 15.1288 78.2226 14.8898 78.8251 14.6821C79.4692 14.4743 81.6298 13.9549 85.3071 13.1239C89.0052 12.2721 91.6644 11.68 93.2849 11.3476Z" fill="#074ED8" stroke="#074ED8" stroke-width="0.5"/>
<path d="M66.1374 19.4185C66.3036 19.3354 66.4698 19.3562 66.636 19.4808C66.823 19.5847 66.958 19.7613 67.0411 20.0106C67.1034 20.2184 67.1138 20.4573 67.0723 20.7274C67.0307 20.9975 67.0515 21.2987 67.1346 21.6311C67.3631 22.5868 67.3839 23.3451 67.1969 23.906C67.01 24.4878 66.4698 24.9448 65.5764 25.2772L64.7974 25.1214C65.1713 24.9968 65.6699 24.8202 66.2932 24.5916C66.4179 24.467 66.501 24.3631 66.5425 24.28C66.6048 24.1969 66.6464 24.1138 66.6672 24.0307C66.7087 23.9476 66.7503 23.7918 66.7918 23.5632C66.8541 23.2724 66.8853 23.075 66.8853 22.9711C66.9061 22.8673 66.8853 22.6907 66.823 22.4414C66.8022 22.2959 66.7814 22.1817 66.7607 22.0986C66.7399 22.0155 66.7087 21.9531 66.6672 21.9116C66.6464 21.87 66.6256 21.8493 66.6048 21.8493C66.5841 21.8493 66.5425 21.8804 66.4802 21.9427C66.3348 22.0882 66.1686 22.0986 65.9816 21.9739C65.7946 21.8493 65.618 21.6207 65.4518 21.2883C65.2856 20.852 65.296 20.4469 65.483 20.0729C65.5453 19.9483 65.6492 19.8236 65.7946 19.699C65.94 19.5536 66.0543 19.4601 66.1374 19.4185Z" fill="#074ED8" stroke="#074ED8" stroke-width="0.5"/>
<path d="M57.5965 6.85975C57.825 6.46501 58.0743 6.4754 58.3444 6.89091C58.4691 7.09867 58.5626 7.31681 58.6249 7.54534C58.7288 8.00241 58.8015 9.38398 58.843 11.6901L58.8742 14.9934L59.8403 14.1208C60.4843 13.5806 61.066 13.2379 61.5854 13.0924C62.1256 12.9678 62.4891 12.8847 62.6761 12.8431C62.9047 12.7808 63.1228 12.8327 63.3306 12.9989C63.5383 13.1651 63.5902 13.3313 63.4864 13.4975C63.3617 13.7053 63.1643 13.8092 62.8943 13.8092C62.6242 13.8092 62.271 13.9131 61.8347 14.1208C61.4192 14.3286 60.9829 14.5987 60.5259 14.9311C60.0896 15.2635 59.7156 15.5959 59.404 15.9283L58.5002 16.9878L58.6872 19.3874C58.7495 20.0522 58.7807 20.5509 58.7807 20.8833C58.8015 21.2157 58.7911 21.4961 58.7495 21.7247C58.708 21.9532 58.6353 22.0675 58.5314 22.0675C58.4275 22.0467 58.2925 22.0259 58.1263 22.0051C57.9601 21.922 57.8562 21.4858 57.8146 20.6963C57.7939 19.886 57.825 18.0889 57.9081 15.305C58.0328 10.9422 57.9808 8.50102 57.7523 7.98163C57.5238 7.39992 57.4718 7.02595 57.5965 6.85975ZM48.3721 11.0668C48.2267 10.6513 48.3098 10.4435 48.6215 10.4435C48.9331 10.4435 49.1512 10.5994 49.2759 10.911C49.4005 11.2018 49.546 11.9809 49.7122 13.2482C49.7329 13.3106 49.7537 13.4248 49.7745 13.591C49.9199 14.6921 50.1173 15.2635 50.3666 15.305C50.6367 15.3258 51.5093 14.8895 52.9843 13.9962C53.1921 13.8715 53.3583 13.778 53.4829 13.7157C55.1034 12.7392 55.9864 12.2822 56.1318 12.3445C56.5889 12.5938 55.9448 13.2379 54.1997 14.2766C54.0543 14.3805 53.9088 14.4636 53.7634 14.5259C52.1221 15.4816 51.2184 16.0426 51.0522 16.2088C50.8237 16.4165 50.4601 16.5931 49.9615 16.7385C49.5875 16.8424 49.3486 16.7905 49.2447 16.5827C49.1616 16.3542 49.0474 15.5959 48.9019 14.3078C48.6526 12.5003 48.476 11.42 48.3721 11.0668Z" fill="#074ED8" stroke="#074ED8" stroke-width="0.5"/>
<path d="M27.6065 4.80328C28.3129 4.63707 28.7492 4.88638 28.9154 5.5512C29.1024 6.19524 29.1855 7.80535 29.1647 10.3815V14.3704H29.8814C30.1515 14.3704 31.3981 14.2769 33.621 14.09C35.6363 13.8822 36.7789 13.8926 37.049 14.1211C37.5476 14.5366 37.5372 14.8067 37.0179 14.9314C36.5608 15.0353 35.5947 15.108 34.1197 15.1495C32.0421 15.1703 30.6398 15.2326 29.9126 15.3365L29.0089 15.5235L29.0712 19.8863C29.1335 21.8393 29.1439 23.065 29.1024 23.5636C29.0608 24.0622 28.9362 24.3219 28.7284 24.3427C28.583 24.3635 28.4895 24.2804 28.4479 24.0934C28.3233 23.6571 28.261 21.1017 28.261 16.4272C28.261 13.4771 28.261 10.4335 28.261 7.29635C28.2194 6.61075 28.0116 6.08098 27.6377 5.70702C27.3053 5.37461 27.1287 5.16685 27.1079 5.08375C27.1079 5.00065 27.2741 4.90716 27.6065 4.80328ZM18.8496 6.76657C19.369 6.47571 19.743 6.3199 19.9715 6.29912C20.2 6.27835 20.6155 6.38222 21.218 6.61076C22.0075 6.86006 22.3919 7.53527 22.3711 8.63637C22.3711 9.73748 21.9763 10.6932 21.1869 11.5034C20.7714 11.9189 20.5117 12.2513 20.4078 12.5006C20.3247 12.7499 20.2935 13.1654 20.3143 13.7472C20.3974 14.5782 20.2935 15.43 20.0027 16.3026C19.6287 17.3621 19.5456 17.9127 19.7534 17.9542C19.8365 17.9542 19.9403 17.9334 20.065 17.8919C20.2935 17.8088 20.9687 17.7153 22.0906 17.6114C23.2333 17.4868 24.3759 17.3829 25.5186 17.2998C25.851 17.2582 26.1626 17.2375 26.4535 17.2375C26.7443 17.2167 26.9625 17.2063 27.1079 17.2063C27.2741 17.2063 27.3572 17.2167 27.3572 17.2375C27.3572 17.5283 27.2949 17.7465 27.1702 17.8919C27.0456 18.0373 26.817 18.1412 26.4846 18.2035C26.173 18.2451 25.664 18.2659 24.9576 18.2659C23.5241 18.2659 21.9763 18.4424 20.3143 18.7956C18.6522 19.1488 17.2187 19.5955 16.0137 20.1357C15.0165 20.5719 14.3725 20.7901 14.0816 20.7901C13.7492 20.7901 13.6453 20.5719 13.77 20.1357C13.8739 19.7409 14.0816 19.5124 14.3933 19.4501C14.975 19.367 15.6294 19.1488 16.3565 18.7956C17.0837 18.4217 17.655 18.0269 18.0705 17.6114C18.5276 17.1959 18.8288 16.7908 18.9743 16.3961C19.1197 15.9805 19.2651 15.1391 19.4106 13.8718L19.504 12.7188H18.538C18.0394 12.7188 17.5719 12.5526 17.1356 12.2202C16.7201 11.867 16.5124 11.493 16.5124 11.0983C16.5124 10.8074 16.6682 10.2361 16.9798 9.38429C17.2914 8.5325 17.5408 7.97156 17.7277 7.70147C17.8732 7.51449 18.2471 7.20286 18.8496 6.76657ZM20.9687 7.38984C20.6779 7.24441 20.4805 7.1717 20.3766 7.1717C20.2935 7.1717 20.0442 7.24441 19.6287 7.38984C19.234 7.55604 18.7457 8.08582 18.164 8.97917C17.6031 9.85175 17.3226 10.5062 17.3226 10.9425C17.3226 11.2125 17.3849 11.3891 17.5096 11.4722C17.6342 11.5553 17.9043 11.5969 18.3198 11.5969C19.2755 11.5969 20.0442 11.3372 20.6259 10.8178C21.2076 10.2984 21.4985 9.60244 21.4985 8.72986C21.4985 8.04427 21.3219 7.59759 20.9687 7.38984Z" fill="#074ED8" stroke="#074ED8" stroke-width="0.5"/>
<path d="M10.5398 5.42606C10.6645 5.25986 10.8307 5.17676 11.0385 5.17676C11.5371 5.17676 11.8383 5.68576 11.9422 6.70376C12.0461 7.72177 12.1188 10.5992 12.1603 15.336C12.1811 19.9897 12.15 22.7529 12.0668 23.6255C12.0045 24.5188 11.7656 24.9655 11.3501 24.9655C11.2878 24.9655 11.2358 22.8464 11.1943 18.6082C11.1112 14.2868 11.0281 12.095 10.945 12.0327C10.8411 11.9288 10.4671 11.96 9.82309 12.1262C6.93528 12.8949 5.44983 13.2065 5.36673 13.0611C5.32518 12.9988 5.39789 12.8429 5.58487 12.5936C5.8134 12.3443 6.27046 12.1158 6.95606 11.908C7.12226 11.8665 7.35079 11.8042 7.64165 11.7211C7.95329 11.638 8.30647 11.5445 8.70121 11.4406C9.11672 11.3159 9.42835 11.2224 9.63611 11.1601L11.2254 10.6927V8.69822C11.2047 7.34781 11.0592 6.50639 10.7892 6.17399C10.5191 5.8208 10.436 5.57149 10.5398 5.42606ZM0.598733 9.66428C0.598733 9.64351 0.75455 9.63312 1.06618 9.63312C1.29471 9.63312 1.41937 9.80971 1.44014 10.1629C1.46092 10.4953 1.42976 11.3887 1.34665 12.8429C1.3051 13.4039 1.27394 13.944 1.25316 14.4634C1.25316 14.9621 1.25316 15.3464 1.25316 15.6165C1.27394 15.8866 1.29471 16.0216 1.31549 16.0216C1.41937 16.0216 2.11535 15.7515 3.40343 15.2114C5.7303 14.2141 6.94567 13.9129 7.04955 14.3076C7.04955 14.4738 6.77947 14.7127 6.2393 15.0244C5.71991 15.336 5.31479 15.4918 5.02393 15.4918C4.81617 15.4918 4.14097 15.7619 2.99831 16.3021C1.77255 16.9253 0.983081 17.185 0.629896 17.0812C0.297487 16.9773 0.183221 16.4475 0.287099 15.4918C0.307875 15.3048 0.370201 14.2765 0.474079 12.4067C0.536406 10.62 0.577957 9.70583 0.598733 9.66428Z" fill="#074ED8" stroke="#074ED8" stroke-width="0.5"/>
</svg>
