<svg preserveAspectRatio="none" width="100%" height="100%" overflow="visible" style="display: block;" viewBox="0 0 34 34" fill="none" xmlns="http://www.w3.org/2000/svg">
<g id="People Community / undefined">
<path id="Vector" d="M10.6251 4.95833C9.45141 4.95833 8.5 5.90977 8.5 7.08333C8.5 8.2569 9.45141 9.20833 10.6251 9.20833C11.7988 9.20833 12.7502 8.2569 12.7502 7.08333C12.7502 5.90977 11.7988 4.95833 10.6251 4.95833ZM6.375 7.08333C6.375 4.73609 8.27787 2.83333 10.6251 2.83333C12.9723 2.83333 14.8751 4.73609 14.8751 7.08333C14.8751 9.43058 12.9723 11.3333 10.6251 11.3333C8.27787 11.3333 6.375 9.43058 6.375 7.08333ZM5.33777 12.75C3.95461 12.75 2.83333 13.8713 2.83333 15.2544V15.7635C2.83332 16.0586 2.83325 17.7593 3.82622 19.4122C4.60087 20.7015 5.91679 21.8593 8.03997 22.3782C8.33156 21.6003 8.86319 20.9399 9.54468 20.4867C7.27253 20.2436 6.19884 19.2349 5.64775 18.3178C4.96202 17.1764 4.95833 15.9614 4.95833 15.7604V15.2544C4.95833 15.0449 5.12822 14.875 5.33777 14.875H11.3772C11.4727 14.1086 11.7213 13.3898 12.0914 12.75H5.33777ZM21.9088 12.75C22.2789 13.3898 22.5274 14.1086 22.623 14.875H28.6623C28.8718 14.875 29.0417 15.0449 29.0417 15.2544V15.7604C29.0417 15.9614 29.038 17.1764 28.3523 18.3178C27.8012 19.2349 26.7274 20.2436 24.4554 20.4867C25.1368 20.9399 25.6684 21.6003 25.96 22.3782C28.0832 21.8593 29.3991 20.7015 30.1737 19.4122C31.1668 17.7593 31.1667 16.0586 31.1667 15.7635V15.2544C31.1667 13.8713 30.0454 12.75 28.6623 12.75H21.9088ZM21.25 7.08333C21.25 5.90977 22.2014 4.95833 23.3751 4.95833C24.5488 4.95833 25.5001 5.90977 25.5001 7.08333C25.5001 8.2569 24.5488 9.20833 23.3751 9.20833C22.2014 9.20833 21.25 8.2569 21.25 7.08333ZM23.3751 2.83333C21.0279 2.83333 19.125 4.73609 19.125 7.08333C19.125 9.43058 21.0279 11.3333 23.3751 11.3333C25.7223 11.3333 27.6251 9.43058 27.6251 7.08333C27.6251 4.73609 25.7223 2.83333 23.3751 2.83333ZM17.0001 13.4583C15.8264 13.4583 14.875 14.4098 14.875 15.5833C14.875 16.7569 15.8264 17.7083 17.0001 17.7083C18.1739 17.7083 19.1251 16.7569 19.1251 15.5833C19.1251 14.4098 18.1739 13.4583 17.0001 13.4583ZM12.75 15.5833C12.75 13.2361 14.6529 11.3333 17.0001 11.3333C19.3473 11.3333 21.2501 13.2361 21.2501 15.5833C21.2501 17.9306 19.3473 19.8333 17.0001 19.8333C14.6529 19.8333 12.75 17.9306 12.75 15.5833ZM9.20833 23.7544C9.20833 22.3713 10.3296 21.25 11.7128 21.25H22.2873C23.6704 21.25 24.7917 22.3713 24.7917 23.7544V24.2635C24.7917 24.5586 24.7918 26.2593 23.7987 27.9122C22.7486 29.6603 20.7032 31.1667 17 31.1667C13.2968 31.1667 11.2515 29.6603 10.2012 27.9122C9.20825 26.2593 9.20832 24.5586 9.20833 24.2635V23.7544ZM11.7128 23.375C11.5032 23.375 11.3333 23.5449 11.3333 23.7544V24.2604C11.3333 24.4614 11.337 25.6764 12.0228 26.8178C12.6547 27.8697 13.974 29.0417 17 29.0417C20.026 29.0417 21.3452 27.8697 21.9773 26.8178C22.663 25.6764 22.6667 24.4614 22.6667 24.2604V23.7544C22.6667 23.5449 22.4968 23.375 22.2873 23.375H11.7128Z" fill="var(--fill-0, #14307C)"/>
</g>
</svg>
