<svg width="18" height="18" viewBox="0 0 18 18" fill="none" xmlns="http://www.w3.org/2000/svg">
<path d="M9.00049 7.22852C10.7207 7.22852 12.1157 8.62257 12.1157 10.3428C12.1157 12.0631 10.7207 13.458 9.00049 13.458C7.28029 13.4579 5.88623 12.063 5.88623 10.3428C5.88629 8.62265 7.28032 7.22864 9.00049 7.22852ZM9.00049 8.47754C7.97033 8.47766 7.13531 9.31261 7.13525 10.3428C7.13525 11.373 7.9703 12.2079 9.00049 12.208C10.0308 12.208 10.8667 11.3731 10.8667 10.3428C10.8666 9.31253 10.0307 8.47754 9.00049 8.47754ZM9.00049 4.54297C12.5585 4.54297 15.6297 6.97247 16.4819 10.377C16.5655 10.7115 16.3624 11.05 16.0278 11.1338C15.6931 11.2174 15.3538 11.0144 15.27 10.6797C14.5561 7.82818 11.9819 5.79199 9.00049 5.79199C6.01774 5.79209 3.44256 7.83027 2.72998 10.6836C2.64632 11.018 2.30768 11.221 1.97314 11.1377C1.63851 11.0541 1.43461 10.7155 1.51807 10.3809C2.36878 6.97445 5.44103 4.54307 9.00049 4.54297Z" fill="#A6A6A6"/>
<path d="M9.00049 7.22852C10.7207 7.22852 12.1157 8.62257 12.1157 10.3428C12.1157 12.0631 10.7207 13.458 9.00049 13.458C7.28029 13.4579 5.88623 12.063 5.88623 10.3428C5.88629 8.62265 7.28032 7.22864 9.00049 7.22852ZM9.00049 8.47754C7.97033 8.47766 7.13531 9.31261 7.13525 10.3428C7.13525 11.373 7.9703 12.2079 9.00049 12.208C10.0308 12.208 10.8667 11.3731 10.8667 10.3428C10.8666 9.31253 10.0307 8.47754 9.00049 8.47754ZM9.00049 4.54297C12.5585 4.54297 15.6297 6.97247 16.4819 10.377C16.5655 10.7115 16.3624 11.05 16.0278 11.1338C15.6931 11.2174 15.3538 11.0144 15.27 10.6797C14.5561 7.82818 11.9819 5.79199 9.00049 5.79199C6.01774 5.79209 3.44256 7.83027 2.72998 10.6836C2.64632 11.018 2.30768 11.221 1.97314 11.1377C1.63851 11.0541 1.43461 10.7155 1.51807 10.3809C2.36878 6.97445 5.44103 4.54307 9.00049 4.54297Z" fill="black" fill-opacity="0.2"/>
<path d="M9.00049 7.22852C10.7207 7.22852 12.1157 8.62257 12.1157 10.3428C12.1157 12.0631 10.7207 13.458 9.00049 13.458C7.28029 13.4579 5.88623 12.063 5.88623 10.3428C5.88629 8.62265 7.28032 7.22864 9.00049 7.22852ZM9.00049 8.47754C7.97033 8.47766 7.13531 9.31261 7.13525 10.3428C7.13525 11.373 7.9703 12.2079 9.00049 12.208C10.0308 12.208 10.8667 11.3731 10.8667 10.3428C10.8666 9.31253 10.0307 8.47754 9.00049 8.47754ZM9.00049 4.54297C12.5585 4.54297 15.6297 6.97247 16.4819 10.377C16.5655 10.7115 16.3624 11.05 16.0278 11.1338C15.6931 11.2174 15.3538 11.0144 15.27 10.6797C14.5561 7.82818 11.9819 5.79199 9.00049 5.79199C6.01774 5.79209 3.44256 7.83027 2.72998 10.6836C2.64632 11.018 2.30768 11.221 1.97314 11.1377C1.63851 11.0541 1.43461 10.7155 1.51807 10.3809C2.36878 6.97445 5.44103 4.54307 9.00049 4.54297Z" stroke="#A6A6A6" stroke-width="0.1"/>
<path d="M9.00049 7.22852C10.7207 7.22852 12.1157 8.62257 12.1157 10.3428C12.1157 12.0631 10.7207 13.458 9.00049 13.458C7.28029 13.4579 5.88623 12.063 5.88623 10.3428C5.88629 8.62265 7.28032 7.22864 9.00049 7.22852ZM9.00049 8.47754C7.97033 8.47766 7.13531 9.31261 7.13525 10.3428C7.13525 11.373 7.9703 12.2079 9.00049 12.208C10.0308 12.208 10.8667 11.3731 10.8667 10.3428C10.8666 9.31253 10.0307 8.47754 9.00049 8.47754ZM9.00049 4.54297C12.5585 4.54297 15.6297 6.97247 16.4819 10.377C16.5655 10.7115 16.3624 11.05 16.0278 11.1338C15.6931 11.2174 15.3538 11.0144 15.27 10.6797C14.5561 7.82818 11.9819 5.79199 9.00049 5.79199C6.01774 5.79209 3.44256 7.83027 2.72998 10.6836C2.64632 11.018 2.30768 11.221 1.97314 11.1377C1.63851 11.0541 1.43461 10.7155 1.51807 10.3809C2.36878 6.97445 5.44103 4.54307 9.00049 4.54297Z" stroke="black" stroke-opacity="0.2" stroke-width="0.1"/>
</svg>
