<svg width="24" height="24" viewBox="0 0 24 24" fill="none" xmlns="http://www.w3.org/2000/svg">
<path d="M2 9.33333C2 5.28324 5.28324 2 9.33333 2C13.3835 2 16.6667 5.28324 16.6667 9.33333C16.6667 13.3835 13.3835 16.6667 9.33333 16.6667C5.28324 16.6667 2 13.3835 2 9.33333ZM9.33333 0C4.17868 0 0 4.17868 0 9.33333C0 14.488 4.17868 18.6667 9.33333 18.6667C11.5504 18.6667 13.5869 17.8936 15.1881 16.6024L22.2929 23.7071C22.6835 24.0976 23.3165 24.0976 23.7071 23.7071C24.0976 23.3165 24.0976 22.6835 23.7071 22.2929L16.6024 15.1881C17.8936 13.5869 18.6667 11.5504 18.6667 9.33333C18.6667 4.17868 14.488 0 9.33333 0Z" fill="#C8C8C8"/>
</svg>
