<svg width="28" height="28" viewBox="0 0 28 28" fill="none" xmlns="http://www.w3.org/2000/svg">
<path d="M7.57052 21.8737L9.62502 21.281L21.9952 8.7627C22.0928 8.66271 22.1471 8.52835 22.1464 8.38865C22.1458 8.24894 22.0902 8.1151 21.9917 8.01603L21.2508 7.26703C21.203 7.21784 21.1458 7.17868 21.0826 7.15183C21.0194 7.12499 20.9516 7.11099 20.8829 7.11066C20.8143 7.11034 20.7463 7.12369 20.6828 7.14993C20.6194 7.17618 20.5619 7.2148 20.5135 7.26353L8.17602 19.7492L7.57052 21.8737ZM22.7173 5.78303L23.4582 6.5332C24.4802 7.56803 24.4895 9.23753 23.4768 10.2619L10.7298 23.1629L6.33852 24.4275C6.20576 24.4649 6.06695 24.4757 5.93003 24.4593C5.7931 24.443 5.66072 24.3998 5.54047 24.3323C5.42021 24.2649 5.31443 24.1743 5.22917 24.066C5.1439 23.9576 5.08081 23.8335 5.04352 23.7007C4.9863 23.5082 4.98549 23.3033 5.04118 23.1104L6.31868 18.6304L19.0318 5.7632C19.2736 5.51978 19.5614 5.32694 19.8784 5.19591C20.1955 5.06488 20.5355 4.9983 20.8785 5.00003C21.2216 5.00177 21.5608 5.0718 21.8766 5.20603C22.1923 5.34026 22.4781 5.53718 22.7173 5.78303Z" fill="white"/>
</svg>
