<svg width="18" height="18" viewBox="0 0 18 18" fill="none" xmlns="http://www.w3.org/2000/svg">
<path d="M9.00049 2.2832C12.7098 2.28338 15.7173 5.29059 15.7173 9C15.7171 12.7092 12.7097 15.7166 9.00049 15.7168C7.92047 15.7168 6.87613 15.4606 5.93701 14.9785L3.40479 15.6846C2.93495 15.8157 2.44809 15.5411 2.31689 15.0713C2.27354 14.916 2.27356 14.7519 2.31689 14.5967L3.02295 12.0664C2.53975 11.1265 2.28374 10.0813 2.28369 9C2.28369 5.29049 5.29097 2.2832 9.00049 2.2832ZM9.00049 3.38281C5.89849 3.38281 3.3833 5.898 3.3833 9C3.38336 9.97097 3.62975 10.9049 4.09229 11.7334L4.19287 11.9131L4.20264 11.9316L4.19775 11.9512L3.479 14.5215L6.05225 13.8047L6.07178 13.7988L6.08936 13.8086L6.26904 13.9092C7.09692 14.3708 8.03049 14.6162 9.00049 14.6162C12.1022 14.616 14.6165 12.1017 14.6167 9C14.6167 5.89811 12.1023 3.38299 9.00049 3.38281Z" fill="#A6A6A6"/>
<path d="M9.00049 2.2832C12.7098 2.28338 15.7173 5.29059 15.7173 9C15.7171 12.7092 12.7097 15.7166 9.00049 15.7168C7.92047 15.7168 6.87613 15.4606 5.93701 14.9785L3.40479 15.6846C2.93495 15.8157 2.44809 15.5411 2.31689 15.0713C2.27354 14.916 2.27356 14.7519 2.31689 14.5967L3.02295 12.0664C2.53975 11.1265 2.28374 10.0813 2.28369 9C2.28369 5.29049 5.29097 2.2832 9.00049 2.2832ZM9.00049 3.38281C5.89849 3.38281 3.3833 5.898 3.3833 9C3.38336 9.97097 3.62975 10.9049 4.09229 11.7334L4.19287 11.9131L4.20264 11.9316L4.19775 11.9512L3.479 14.5215L6.05225 13.8047L6.07178 13.7988L6.08936 13.8086L6.26904 13.9092C7.09692 14.3708 8.03049 14.6162 9.00049 14.6162C12.1022 14.616 14.6165 12.1017 14.6167 9C14.6167 5.89811 12.1023 3.38299 9.00049 3.38281Z" fill="black" fill-opacity="0.2"/>
<path d="M9.00049 2.2832C12.7098 2.28338 15.7173 5.29059 15.7173 9C15.7171 12.7092 12.7097 15.7166 9.00049 15.7168C7.92047 15.7168 6.87613 15.4606 5.93701 14.9785L3.40479 15.6846C2.93495 15.8157 2.44809 15.5411 2.31689 15.0713C2.27354 14.916 2.27356 14.7519 2.31689 14.5967L3.02295 12.0664C2.53975 11.1265 2.28374 10.0813 2.28369 9C2.28369 5.29049 5.29097 2.2832 9.00049 2.2832ZM9.00049 3.38281C5.89849 3.38281 3.3833 5.898 3.3833 9C3.38336 9.97097 3.62975 10.9049 4.09229 11.7334L4.19287 11.9131L4.20264 11.9316L4.19775 11.9512L3.479 14.5215L6.05225 13.8047L6.07178 13.7988L6.08936 13.8086L6.26904 13.9092C7.09692 14.3708 8.03049 14.6162 9.00049 14.6162C12.1022 14.616 14.6165 12.1017 14.6167 9C14.6167 5.89811 12.1023 3.38299 9.00049 3.38281Z" stroke="#A6A6A6" stroke-width="0.1"/>
<path d="M9.00049 2.2832C12.7098 2.28338 15.7173 5.29059 15.7173 9C15.7171 12.7092 12.7097 15.7166 9.00049 15.7168C7.92047 15.7168 6.87613 15.4606 5.93701 14.9785L3.40479 15.6846C2.93495 15.8157 2.44809 15.5411 2.31689 15.0713C2.27354 14.916 2.27356 14.7519 2.31689 14.5967L3.02295 12.0664C2.53975 11.1265 2.28374 10.0813 2.28369 9C2.28369 5.29049 5.29097 2.2832 9.00049 2.2832ZM9.00049 3.38281C5.89849 3.38281 3.3833 5.898 3.3833 9C3.38336 9.97097 3.62975 10.9049 4.09229 11.7334L4.19287 11.9131L4.20264 11.9316L4.19775 11.9512L3.479 14.5215L6.05225 13.8047L6.07178 13.7988L6.08936 13.8086L6.26904 13.9092C7.09692 14.3708 8.03049 14.6162 9.00049 14.6162C12.1022 14.616 14.6165 12.1017 14.6167 9C14.6167 5.89811 12.1023 3.38299 9.00049 3.38281Z" stroke="black" stroke-opacity="0.2" stroke-width="0.1"/>
</svg>
