<svg preserveAspectRatio="none" width="100%" height="100%" overflow="visible" style="display: block;" viewBox="0 0 40 40" fill="none" xmlns="http://www.w3.org/2000/svg">
<g id="Frame 107">
<rect width="40" height="40" rx="12" fill="var(--fill-0, #074ED8)"/>
<path id="Vector" d="M21.9247 10.7515C22.7225 10.7515 23.4607 11.174 23.8647 11.8619L24.6793 13.2485H26.75C28.5449 13.2485 30 14.7035 30 16.4985V25.9985C30 27.7934 28.5449 29.2485 26.75 29.2485H13.25C11.4551 29.2485 10 27.7934 10 25.9985V16.4985C10 14.7035 11.4551 13.2485 13.25 13.2485H15.3304L16.205 11.8242C16.6142 11.1577 17.3403 10.7515 18.1224 10.7515H21.9247ZM21.9247 12.2515H18.1224C17.8989 12.2515 17.6892 12.351 17.5479 12.5193L17.4832 12.6091L16.3891 14.3909C16.2527 14.6131 16.0107 14.7485 15.75 14.7485H13.25C12.2835 14.7485 11.5 15.532 11.5 16.4985V25.9985C11.5 26.965 12.2835 27.7485 13.25 27.7485H26.75C27.7165 27.7485 28.5 26.965 28.5 25.9985V16.4985C28.5 15.532 27.7165 14.7485 26.75 14.7485H24.25C23.9841 14.7485 23.738 14.6076 23.6033 14.3783L22.5714 12.6216C22.4367 12.3923 22.1906 12.2515 21.9247 12.2515ZM20 16.2485C22.4853 16.2485 24.5 18.2632 24.5 20.7485C24.5 23.2337 22.4853 25.2485 20 25.2485C17.5147 25.2485 15.5 23.2337 15.5 20.7485C15.5 18.2632 17.5147 16.2485 20 16.2485ZM20 17.7485C18.3431 17.7485 17 19.0916 17 20.7485C17 22.4053 18.3431 23.7485 20 23.7485C21.6569 23.7485 23 22.4053 23 20.7485C23 19.0916 21.6569 17.7485 20 17.7485Z" fill="var(--fill-0, white)"/>
</g>
</svg>
