<svg preserveAspectRatio="none" width="100%" height="100%" overflow="visible" style="display: block;" viewBox="0 0 31 31" fill="none" xmlns="http://www.w3.org/2000/svg">
<g id="Frame">
<path id="Vector" d="M8.71497 5.16607H13.1896C13.7246 5.16607 14.1583 5.5998 14.1583 6.13482C14.1583 6.62527 13.7938 7.03058 13.321 7.09472L13.1896 7.10357H8.71497C7.17677 7.10357 5.91768 8.29857 5.81542 9.81084L5.80872 10.0098V22.2806C5.80872 23.8188 7.00371 25.078 8.51598 25.1803L8.71497 25.1869H20.9867C22.525 25.1869 23.784 23.9919 23.8863 22.4797L23.893 22.2806V21.6377C23.893 21.1026 24.3267 20.669 24.8617 20.669C25.3522 20.669 25.7575 21.0334 25.8217 21.5062L25.8305 21.6377V22.2806C25.8305 24.8695 23.7995 26.984 21.244 27.1176L20.9867 27.1244H8.71497C6.12613 27.1244 4.01166 25.0935 3.87793 22.5379L3.87122 22.2806V10.0098C3.87122 7.42099 5.90218 5.30652 8.45772 5.17279L8.71497 5.16607ZM18.7306 8.42089V4.84316C18.7306 4.0372 19.6434 3.60309 20.2637 4.05498L20.3698 4.14403L28.1129 11.5711C28.4743 11.9177 28.5072 12.4745 28.2115 12.8593L28.113 12.9692L20.37 20.3988C19.7883 20.9568 18.843 20.5985 18.7398 19.8379L18.7306 19.6997V16.1795L18.2869 16.2184C15.1873 16.5417 12.2164 17.9379 9.35557 20.4302C8.68505 21.0143 7.64767 20.4619 7.75796 19.5796C8.61663 12.7085 12.2099 8.92134 18.3439 8.44626L18.7306 8.42089ZM20.6681 7.11473V9.36399C20.6681 9.89901 20.2343 10.3327 19.6993 10.3327C14.6962 10.3327 11.5953 12.4977 10.2556 16.9941L10.1535 17.3539L10.6084 17.0481C13.4971 15.1599 16.5318 14.2077 19.6993 14.2077C20.1898 14.2077 20.5951 14.5722 20.6592 15.0451L20.6681 15.1764V17.4277L26.043 12.2704L20.6681 7.11473Z" fill="var(--fill-0, #121212)"/>
</g>
</svg>
