<svg width="79" height="13" viewBox="0 0 79 13" fill="none" xmlns="http://www.w3.org/2000/svg">
<path fill-rule="evenodd" clip-rule="evenodd" d="M19.2 1.53295C19.2 0.899902 18.7224 0.386719 18.1333 0.386719H17.0667C16.4776 0.386719 16 0.899902 16 1.53295V11.4669C16 12.0999 16.4776 12.6131 17.0667 12.6131H18.1333C18.7224 12.6131 19.2 12.0999 19.2 11.4669V1.53295ZM11.7659 2.832H12.8326C13.4217 2.832 13.8992 3.3575 13.8992 4.00574V11.4394C13.8992 12.0876 13.4217 12.6131 12.8326 12.6131H11.7659C11.1768 12.6131 10.6992 12.0876 10.6992 11.4394V4.00574C10.6992 3.3575 11.1768 2.832 11.7659 2.832ZM7.43411 5.48105H6.36745C5.77834 5.48105 5.30078 6.01324 5.30078 6.66973V11.4244C5.30078 12.0809 5.77834 12.6131 6.36745 12.6131H7.43411C8.02322 12.6131 8.50078 12.0809 8.50078 11.4244V6.66973C8.50078 6.01324 8.02322 5.48105 7.43411 5.48105ZM2.13333 7.92634H1.06667C0.477563 7.92634 0 8.45093 0 9.09804V11.4414C0 12.0885 0.477563 12.6131 1.06667 12.6131H2.13333C2.72244 12.6131 3.2 12.0885 3.2 11.4414V9.09804C3.2 8.45093 2.72244 7.92634 2.13333 7.92634Z" fill="black"/>
<path fill-rule="evenodd" clip-rule="evenodd" d="M34.7715 2.80222C37.2586 2.80232 39.6506 3.72441 41.4531 5.37789C41.5889 5.50554 41.8058 5.50393 41.9395 5.37428L43.237 4.11081C43.3047 4.04505 43.3424 3.95597 43.3419 3.86329C43.3413 3.77061 43.3025 3.68197 43.234 3.61697C38.503 -0.757741 31.0393 -0.757741 26.3083 3.61697C26.2397 3.68192 26.2008 3.77054 26.2002 3.86322C26.1996 3.9559 26.2372 4.045 26.3049 4.11081L27.6027 5.37428C27.7363 5.50413 27.9535 5.50574 28.0891 5.37789C29.8919 3.7243 32.2841 2.80221 34.7715 2.80222ZM34.7681 7.0225C36.1255 7.02241 37.4343 7.53415 38.4405 8.45828C38.5765 8.58943 38.7909 8.58659 38.9236 8.45187L40.2108 7.13256C40.2786 7.06336 40.3163 6.96948 40.3153 6.87193C40.3143 6.77438 40.2748 6.6813 40.2056 6.61351C37.1418 3.72266 32.3971 3.72266 29.3332 6.61351C29.264 6.6813 29.2245 6.77443 29.2236 6.87201C29.2227 6.96959 29.2605 7.06346 29.3284 7.13256L30.6153 8.45187C30.748 8.58659 30.9623 8.58943 31.0984 8.45828C32.1039 7.53476 33.4117 7.02307 34.7681 7.0225ZM37.2926 9.81605C37.2945 9.9214 37.2574 10.023 37.1901 10.0968L35.0135 12.5515C34.9497 12.6236 34.8627 12.6642 34.7719 12.6642C34.6811 12.6642 34.5941 12.6236 34.5303 12.5515L32.3533 10.0968C32.286 10.0229 32.2491 9.92131 32.251 9.81596C32.253 9.71061 32.2938 9.61085 32.3638 9.54023C33.7539 8.22634 35.7899 8.22634 37.18 9.54023C37.2499 9.6109 37.2906 9.7107 37.2926 9.81605Z" fill="black"/>
<rect opacity="0.35" x="51.5" y="0.5" width="24" height="12" rx="3.8" stroke="black"/>
<path opacity="0.4" d="M77 4.78125V8.85672C77.8047 8.51155 78.328 7.70859 78.328 6.81899C78.328 5.92938 77.8047 5.12642 77 4.78125Z" fill="black"/>
<rect x="53" y="2" width="21" height="9" rx="2.5" fill="black"/>
</svg>
