<svg width="30" height="30" viewBox="0 0 30 30" fill="none" xmlns="http://www.w3.org/2000/svg">
<path d="M26.25 22.1875C26.25 24.4311 24.4311 26.25 22.1875 26.25H7.8125C5.56884 26.25 3.75 24.4311 3.75 22.1875V7.8125C3.75 5.56884 5.56884 3.75 7.8125 3.75H22.1875C24.4311 3.75 26.25 5.56884 26.25 7.8125V22.1875ZM24.375 22.1875V7.8125C24.375 6.60438 23.3956 5.625 22.1875 5.625H7.8125C6.60438 5.625 5.625 6.60438 5.625 7.8125V22.1875C5.625 23.3956 6.60438 24.375 7.8125 24.375H22.1875C23.3956 24.375 24.375 23.3956 24.375 22.1875ZM21.25 9.6875C21.25 10.1621 20.8973 10.5544 20.4398 10.6164L20.3125 10.625H9.6875C9.16974 10.625 8.75 10.2053 8.75 9.6875C8.75 9.21287 9.10269 8.82064 9.56029 8.75856L9.6875 8.75H20.3125C20.8302 8.75 21.25 9.16974 21.25 9.6875ZM21.25 20.3125C21.25 20.7871 20.8973 21.1794 20.4398 21.2415L20.3125 21.25H9.6875C9.16974 21.25 8.75 20.8302 8.75 20.3125C8.75 19.8379 9.10269 19.4456 9.56029 19.3835L9.6875 19.375H20.3125C20.8302 19.375 21.25 19.7948 21.25 20.3125ZM21.25 15C21.25 15.4746 20.8973 15.8669 20.4398 15.929L20.3125 15.9375H9.6875C9.16974 15.9375 8.75 15.5177 8.75 15C8.75 14.5254 9.10269 14.1331 9.56029 14.071L9.6875 14.0625H20.3125C20.8302 14.0625 21.25 14.4823 21.25 15Z" fill="#C8C8C8"/>
</svg>
