<svg preserveAspectRatio="none" width="100%" height="100%" overflow="visible" style="display: block;" viewBox="0 0 164.471 18.06" fill="none" xmlns="http://www.w3.org/2000/svg">
<g id="&#237;&#145;&#184;&#235;&#165;&#184;SOL&#234;&#179;&#188; &#237;&#149;&#168;&#234;&#187;&#152;&#237;&#149;&#156;&#236;&#167;&#128; 374&#236;&#157;&#188;">
<path id="Vector" d="M162.042 8.44414C162.217 8.37791 162.384 8.35477 162.507 8.43633H162.506C162.571 8.46911 162.622 8.52427 162.659 8.5916C162.698 8.66197 162.726 8.75027 162.747 8.85234C162.833 9.1554 162.816 9.58721 162.709 10.1365C162.614 10.6763 162.465 11.1643 162.262 11.5994L162.263 11.6004C162.168 11.8164 162.076 11.9851 161.985 12.1014C161.898 12.213 161.793 12.2996 161.671 12.2996C161.638 12.2997 161.584 12.3157 161.504 12.365C161.425 12.4135 161.33 12.4884 161.22 12.5926L161.211 12.6014L161.21 12.6004C161.07 12.7022 160.867 12.8851 160.601 13.1512L160.596 13.1561L160.591 13.1609C160.431 13.2777 160.331 13.5337 160.331 13.9803C160.331 14.2377 160.338 14.3996 160.348 14.4744C160.367 14.5268 160.397 14.5621 160.435 14.5877C160.457 14.5948 160.496 14.6043 160.56 14.6102C160.629 14.6164 160.719 14.6199 160.831 14.6199C161.191 14.6199 161.733 14.4374 162.465 14.0516L162.469 14.0496C163.056 13.7758 163.51 13.619 163.822 13.5906C163.977 13.5765 164.115 13.5922 164.217 13.659C164.325 13.7306 164.371 13.8464 164.371 13.9803C164.371 14.1946 164.224 14.3534 163.997 14.4676L163.998 14.4686C163.79 14.5796 163.268 14.7817 162.444 15.074L162.443 15.073C162.002 15.24 161.634 15.358 161.338 15.4227C161.046 15.4864 160.811 15.5026 160.645 15.4559V15.4568C160.279 15.3583 159.98 15.1668 159.753 14.8826V14.8816C159.527 14.6125 159.411 14.3113 159.411 13.9803C159.411 13.8561 159.404 13.7628 159.392 13.698C159.387 13.6658 159.38 13.6437 159.374 13.6297C159.367 13.6148 159.365 13.6154 159.371 13.6199L159.359 13.6111L159.353 13.6033C159.349 13.6013 159.334 13.5963 159.301 13.5945C159.25 13.5919 159.175 13.5975 159.075 13.616L159.076 13.617C158.921 13.6574 158.788 13.6744 158.689 13.6521C158.637 13.6403 158.586 13.6156 158.551 13.5682C158.515 13.5204 158.507 13.4641 158.512 13.4109L158.513 13.4041C158.538 13.2461 158.647 13.0807 158.814 12.91C158.984 12.7365 159.226 12.5452 159.535 12.3367L159.539 12.3348L160.082 12.0135L160.089 12.0086C160.685 11.7302 161.08 11.509 161.284 11.3445C161.483 11.1701 161.636 10.9449 161.737 10.6658L161.74 10.658C161.8 10.5252 161.846 10.3374 161.872 10.0896V10.0848C161.911 9.83639 161.924 9.62394 161.911 9.44707V9.44023L161.908 9.31523C161.907 9.29548 161.903 9.27842 161.901 9.26348C161.896 9.26571 161.892 9.26874 161.887 9.27129C161.834 9.29733 161.76 9.33687 161.666 9.39141C161.478 9.50036 161.211 9.66494 160.865 9.88457L160.863 9.88555C160.17 10.3118 159.625 10.658 159.226 10.9236L159.225 10.9227C158.932 11.1223 158.705 11.2563 158.546 11.3143C158.47 11.3418 158.389 11.3602 158.32 11.3416C158.281 11.331 158.245 11.3078 158.221 11.2703C158.198 11.235 158.191 11.1953 158.191 11.16H158.192C158.187 11.121 158.191 11.0821 158.2 11.0486C158.212 11.0032 158.233 10.9515 158.262 10.8953C158.286 10.8284 158.341 10.7576 158.409 10.6863C158.487 10.6052 158.593 10.51 158.728 10.4021L158.73 10.4002C158.872 10.2923 159.032 10.1783 159.21 10.0574L159.798 9.67559C160.226 9.39446 160.681 9.11983 161.163 8.85234L161.164 8.85137C161.464 8.6914 161.705 8.57429 161.884 8.50176L162.042 8.44414ZM162.171 0.100391C162.401 0.100391 162.599 0.157941 162.754 0.282031C162.913 0.409945 163.033 0.663643 163.127 1.01055L163.203 1.29375C163.274 1.59466 163.331 1.94731 163.371 2.35039C163.424 2.88576 163.478 3.62721 163.531 4.57402L163.58 5.4627C163.617 6.26175 163.622 6.7932 163.591 7.05156C163.577 7.22239 163.544 7.36445 163.482 7.4666C163.417 7.57565 163.318 7.64039 163.191 7.64043C163.119 7.64043 163.074 7.58858 163.05 7.55156C163.024 7.51131 163.003 7.45822 162.985 7.39824C162.949 7.27662 162.918 7.09992 162.891 6.87188C162.838 6.41422 162.798 5.73082 162.771 4.82402L162.715 3.76934C162.652 2.80953 162.572 2.13553 162.474 1.74395L162.473 1.74199C162.357 1.22348 162.143 0.929061 161.854 0.813281V0.812305C161.719 0.764607 161.61 0.709344 161.541 0.64043C161.505 0.604461 161.476 0.561554 161.464 0.510547C161.451 0.458271 161.458 0.406457 161.479 0.35918L161.481 0.355273L161.526 0.287891C161.579 0.226571 161.653 0.183785 161.739 0.155078C161.853 0.116991 161.999 0.100417 162.171 0.100391ZM158.151 1.91973C158.42 1.91974 158.698 2.01559 158.985 2.19609L159.109 2.27813L159.118 2.28496L159.284 2.44707C159.333 2.49982 159.377 2.55172 159.413 2.60234C159.489 2.70853 159.54 2.83471 159.569 2.97832L159.588 3.08477C159.604 3.19907 159.611 3.33793 159.611 3.4998C159.611 4.15973 159.295 4.83598 158.686 5.52617C158.091 6.20318 157.479 6.56025 156.851 6.56035C156.56 6.56035 156.256 6.39229 155.942 6.09258L155.94 6.09063C155.639 5.78888 155.472 5.485 155.471 5.18047V5.17559C155.486 4.81585 155.691 4.30388 156.064 3.6502C156.439 2.99434 156.788 2.53917 157.112 2.29961L157.118 2.29473C157.511 2.05103 157.857 1.91973 158.151 1.91973ZM158.171 2.79961C157.475 2.79981 156.893 3.32184 156.444 4.45684C156.353 4.71211 156.296 4.9226 156.27 5.08965C156.245 5.25983 156.254 5.37256 156.283 5.44023C156.309 5.50172 156.366 5.55642 156.471 5.59648C156.579 5.63715 156.731 5.65996 156.931 5.65996C157.083 5.65993 157.22 5.64109 157.343 5.6043C157.465 5.56746 157.582 5.51133 157.693 5.4373C157.809 5.34665 157.946 5.23048 158.103 5.08672C158.738 4.46421 158.956 3.83275 158.794 3.18438L158.793 3.17949C158.754 2.98485 158.695 2.8974 158.641 2.86699C158.61 2.84907 158.557 2.83163 158.476 2.81914C158.396 2.80684 158.294 2.79961 158.171 2.79961Z" fill="var(--fill-0, #14307C)" stroke="var(--stroke-0, #14307C)" stroke-width="0.2"/>
<path id="Vector_2" d="M154.33 6.04039C154.406 6.04039 154.48 6.05929 154.537 6.1107C154.594 6.16206 154.621 6.23312 154.63 6.30894H154.629C154.644 6.38466 154.634 6.4678 154.605 6.55211L154.604 6.55699C154.575 6.6295 154.532 6.71434 154.478 6.80992L154.472 6.81871C153.579 8.05804 152.934 9.01488 152.536 9.69078L152.535 9.69176C152.463 9.80929 152.423 9.89685 152.407 9.95641C152.403 9.97361 152.402 9.98598 152.401 9.99449C152.415 9.99728 152.434 10.0036 152.461 10.0052C152.511 10.0082 152.579 10.0068 152.663 10.0004C152.849 9.97381 153.112 9.93373 153.453 9.88121C153.728 9.83434 153.956 9.80251 154.136 9.78551C154.313 9.76875 154.453 9.76597 154.547 9.7816C154.651 9.79893 154.733 9.85248 154.789 9.9398H154.79C154.791 9.94123 154.792 9.94324 154.793 9.94469C154.794 9.94606 154.795 9.9472 154.796 9.94859H154.795C154.848 10.0237 154.87 10.1172 154.87 10.2201C154.87 10.2665 154.861 10.3117 154.848 10.3568C154.843 10.4115 154.815 10.4565 154.781 10.4906C154.761 10.5201 154.737 10.5441 154.705 10.5619L154.706 10.5629C154.704 10.5641 154.701 10.5645 154.699 10.5658C154.698 10.5666 154.697 10.5689 154.695 10.5697L154.694 10.5687C154.648 10.598 154.593 10.6266 154.527 10.6527L154.519 10.6566L154.51 10.6576C154.435 10.6726 154.341 10.679 154.232 10.6791L154.233 10.68C153.917 10.6899 153.543 10.7187 153.112 10.766L152.663 10.8187C152.357 10.8586 152.122 10.8936 151.958 10.9232C151.876 10.938 151.812 10.9516 151.768 10.9632C151.745 10.969 151.729 10.9738 151.718 10.9779C151.705 10.9827 151.705 10.9839 151.71 10.9798C151.669 11.0107 151.623 11.0609 151.573 11.1351L151.568 11.1429C151.52 11.2034 151.463 11.2911 151.397 11.4086L151.395 11.4144C150.768 12.3881 150.193 13.2414 149.672 13.9759C149.418 14.3428 149.222 14.6245 149.081 14.8187C149.011 14.9157 148.954 14.9915 148.911 15.0462C148.89 15.0735 148.872 15.0969 148.856 15.1146C148.843 15.13 148.827 15.1474 148.811 15.1595L148.797 15.1693L148.782 15.1752C148.737 15.1901 148.692 15.1996 148.65 15.1996C148.608 15.1996 148.558 15.1894 148.52 15.1507C148.495 15.1263 148.487 15.0967 148.484 15.0824C148.481 15.065 148.48 15.0463 148.48 15.0296C148.481 14.996 148.484 14.9538 148.491 14.9056L148.493 14.8959L148.523 14.7962C148.562 14.6864 148.626 14.5455 148.711 14.3754C148.826 14.1462 148.983 13.8576 149.184 13.5101L149.187 13.5062C149.426 13.1341 149.758 12.5945 150.185 11.888L150.187 11.8851C150.359 11.6193 150.488 11.4117 150.573 11.2611C150.616 11.1856 150.647 11.1257 150.667 11.0814C150.677 11.0596 150.683 11.0427 150.687 11.0306V11.0287C150.682 11.0261 150.677 11.0219 150.667 11.0179C150.647 11.0095 150.619 11.001 150.582 10.9945L150.444 10.9798H150.271C150.21 10.9798 150.142 10.9858 150.066 10.9984C149.986 11.0119 149.898 11.026 149.805 11.0394C149.711 11.0528 149.611 11.0651 149.504 11.0785C149.414 11.0913 149.31 11.1119 149.192 11.138L149.183 11.14V11.139C149.079 11.1519 148.969 11.1715 148.852 11.1976C148.732 11.2242 148.612 11.2511 148.492 11.2777C148.375 11.3038 148.25 11.336 148.119 11.3754L148.114 11.3773C147.874 11.4375 147.678 11.481 147.528 11.5082C147.384 11.5345 147.269 11.5482 147.198 11.5394H147.196C147.12 11.5285 147.058 11.4872 147.019 11.4203C146.983 11.3586 146.971 11.2811 146.971 11.1996C146.971 11.1452 146.989 11.0881 147.015 11.0326C147.041 10.9756 147.08 10.9123 147.128 10.8431C147.226 10.6903 147.396 10.4733 147.635 10.1947C147.876 9.91344 148.243 9.50574 148.735 8.97301C149.309 8.33281 149.77 7.8323 150.118 7.47105C150.463 7.11246 150.71 6.8776 150.853 6.77769C150.909 6.73534 150.967 6.69947 151.025 6.67027L151.033 6.66637C151.1 6.63952 151.156 6.61905 151.198 6.60484H151.201C151.296 6.57569 151.389 6.56403 151.47 6.58922C151.558 6.61681 151.617 6.68223 151.646 6.76793L151.652 6.78941L151.649 6.81285C151.647 6.83407 151.639 6.85353 151.633 6.86754C151.626 6.88282 151.617 6.8991 151.607 6.91539C151.587 6.94814 151.56 6.98731 151.525 7.03258C151.457 7.12359 151.356 7.24526 151.226 7.39586C150.964 7.69733 150.577 8.12169 150.063 8.66832C149.537 9.22814 149.142 9.65596 148.88 9.95152C148.749 10.0994 148.651 10.2129 148.587 10.2933C148.559 10.328 148.54 10.3559 148.525 10.3763C148.543 10.3776 148.564 10.3802 148.59 10.3802C148.674 10.3802 148.782 10.3681 148.911 10.3421L148.921 10.3402H148.931C148.99 10.3402 149.064 10.3333 149.153 10.3207C149.249 10.2939 149.357 10.2744 149.476 10.2611L150.198 10.1605C150.413 10.1337 150.614 10.1134 150.803 10.1H150.807C150.972 10.0933 151.102 10.0834 151.197 10.0707C151.245 10.0643 151.283 10.0573 151.312 10.0502C151.34 10.043 151.354 10.0371 151.358 10.0345L151.365 10.0306C151.37 10.0285 151.385 10.0181 151.407 9.98473L151.413 9.97594L151.42 9.9691C151.452 9.93715 151.479 9.89896 151.501 9.85484L151.505 9.84703L151.511 9.84019C151.548 9.79004 151.587 9.73248 151.625 9.66832C151.759 9.44085 151.926 9.16697 152.126 8.84703L152.127 8.8441C152.34 8.52458 152.546 8.2118 152.746 7.90562L152.748 7.90269C152.962 7.59553 153.162 7.315 153.35 7.0609C153.443 6.92777 153.528 6.8094 153.605 6.70543L153.813 6.43687C153.908 6.31483 153.996 6.21909 154.077 6.15269C154.156 6.0883 154.242 6.04047 154.33 6.04039Z" fill="var(--fill-0, #14307C)" stroke="var(--stroke-0, #14307C)" stroke-width="0.2"/>
<path id="Vector_3" d="M146.566 6.58004C146.566 6.61608 146.556 6.64983 146.543 6.68258C146.538 6.71454 146.522 6.73922 146.505 6.75875L146.506 6.75973C146.505 6.76133 146.502 6.76205 146.501 6.76363C146.499 6.76555 146.499 6.76869 146.497 6.77047L146.496 6.76949C146.438 6.83978 146.344 6.89064 146.23 6.92965L146.122 7.00484C146.067 7.04675 145.997 7.10396 145.911 7.17672C145.753 7.32172 145.548 7.51919 145.297 7.77047C145.139 7.94175 144.992 8.0927 144.859 8.22555L144.86 8.22652C144.742 8.35829 144.644 8.47644 144.566 8.58004L144.563 8.58492L144.486 8.52047L144.562 8.58492C144.485 8.67429 144.428 8.74361 144.39 8.79391C144.331 8.91995 144.243 9.04286 144.125 9.16207L144.002 9.34078C143.861 9.56643 143.667 9.93286 143.416 10.4443L143.414 10.4472C143.295 10.6719 143.197 10.8761 143.118 11.0595L143.117 11.0615C143.038 11.2328 142.972 11.3906 142.92 11.5341L142.919 11.5371C142.866 11.6685 142.827 11.7783 142.802 11.8671V11.8681C142.622 12.4851 142.646 13.2051 142.882 14.0322L142.883 14.0332C142.95 14.2733 142.996 14.4554 143.023 14.5781L143.024 14.58C143.037 14.6433 143.042 14.7033 143.044 14.7587C143.056 14.7952 143.069 14.8318 143.081 14.8681L143.086 14.8837V14.9004C143.086 14.945 143.083 14.9872 143.073 15.0244C143.064 15.061 143.047 15.1001 143.017 15.1308L143.016 15.1298C142.971 15.1871 142.899 15.2002 142.846 15.2002C142.627 15.2 142.45 15.0732 142.313 14.8593C142.176 14.6477 142.069 14.3393 141.988 13.9423L141.931 13.6504C141.816 12.9772 141.842 12.3564 142.011 11.791C142.092 11.5205 142.193 11.2439 142.314 10.9609L142.315 10.9589C142.449 10.6644 142.596 10.3561 142.757 10.0351L142.758 10.0341C143.08 9.41718 143.403 8.90438 143.728 8.49801C143.78 8.43226 143.818 8.38111 143.843 8.34469L143.846 8.3398C143.865 8.31425 143.878 8.29553 143.886 8.28316C143.887 8.28044 143.889 8.27791 143.89 8.27633L143.889 8.27926C143.888 8.2822 143.886 8.28978 143.886 8.29976C143.886 8.27338 143.893 8.24929 143.9 8.23141C143.908 8.21234 143.919 8.19318 143.931 8.17379C143.954 8.13496 143.987 8.08864 144.028 8.03707C144.07 7.98547 144.121 7.92592 144.182 7.85836L144.394 7.63082C144.605 7.39921 144.754 7.2203 144.844 7.09273C144.886 7.03277 144.911 6.98785 144.925 6.95699L144.845 6.91109C144.725 6.86371 144.598 6.8398 144.466 6.8398C144.418 6.83977 144.345 6.83262 144.252 6.8193C144.156 6.80562 144.041 6.78466 143.906 6.75777C143.775 6.73159 143.617 6.70515 143.432 6.67867H143.427V6.67769C143.295 6.65139 143.177 6.63207 143.073 6.6191L143.062 6.61812V6.61715C142.957 6.59099 142.867 6.57132 142.79 6.55855C142.713 6.54574 142.652 6.54003 142.606 6.54H142.59L142.574 6.53512C142.561 6.53067 142.55 6.52782 142.541 6.52535C142.54 6.52672 142.539 6.52868 142.537 6.53023L142.508 6.55953H142.489C142.486 6.56242 142.481 6.56553 142.477 6.57027C142.464 6.58258 142.447 6.59988 142.424 6.62301C142.41 6.64795 142.394 6.67587 142.374 6.70601C142.358 6.75022 142.337 6.79421 142.31 6.8359C142.051 7.24396 141.433 8.00906 140.462 9.12594L140.454 9.13375C140.358 9.22271 140.27 9.29369 140.189 9.34469C140.111 9.39483 140.032 9.43013 139.958 9.43941L139.946 9.44039C139.902 9.44039 139.86 9.42859 139.821 9.40914C139.79 9.39347 139.759 9.37453 139.735 9.35055L139.724 9.33883L139.717 9.32516C139.71 9.31188 139.703 9.29839 139.696 9.28512C139.69 9.27189 139.683 9.2583 139.677 9.24508L139.671 9.23141C139.653 9.179 139.646 9.12079 139.646 9.05953C139.647 8.91766 139.693 8.78014 139.78 8.6484C139.823 8.57745 139.885 8.48756 139.966 8.37984L139.971 8.37398L140.134 8.19625C140.194 8.13218 140.261 8.0629 140.335 7.98922C141.159 7.0987 141.725 6.37944 142.039 5.83004L142.068 5.78023H142.096C142.164 5.68585 142.223 5.61045 142.273 5.5566C142.302 5.52589 142.331 5.49902 142.358 5.47945C142.383 5.46205 142.421 5.44048 142.466 5.44039C142.496 5.44039 142.521 5.45178 142.542 5.4648C142.568 5.46849 142.594 5.47443 142.618 5.48531L142.737 5.52535C142.785 5.54131 142.832 5.56424 142.877 5.59371C143.042 5.6916 143.316 5.78284 143.706 5.86226C144.094 5.94123 144.591 6.00736 145.195 6.06051H145.194L146.433 6.14059L146.47 6.14254L146.497 6.16891L146.517 6.18941L146.542 6.2148L146.546 6.25094L146.565 6.47066L146.566 6.48043V6.58004Z" fill="var(--fill-0, #14307C)" stroke="var(--stroke-0, #14307C)" stroke-width="0.2"/>
<path id="Vector_4" d="M137.152 6.24039C137.289 6.2404 137.419 6.24714 137.543 6.2609L137.974 6.32144C138.374 6.39261 138.68 6.49638 138.887 6.63687H138.888C139.027 6.72966 139.126 6.86068 139.186 7.02555H139.185C139.245 7.17663 139.266 7.35837 139.252 7.56656C139.235 8.12316 138.785 8.69412 137.971 9.28141L137.97 9.28043C137.824 9.3864 137.713 9.47275 137.636 9.53727C137.597 9.56937 137.568 9.59515 137.548 9.61539C137.525 9.63803 137.52 9.64692 137.521 9.64469L137.515 9.65934L137.492 9.6818C137.492 9.69082 137.495 9.7015 137.502 9.715C137.515 9.74056 137.527 9.76568 137.54 9.79117L137.586 9.85855C137.621 9.90077 137.665 9.93729 137.719 9.96695L137.807 10.006L137.807 10.007C138.129 10.1293 138.337 10.423 138.448 10.8517L138.49 11.0129C138.576 11.3876 138.583 11.7634 138.511 12.1388L138.51 12.1398C138.467 12.3533 138.376 12.5772 138.238 12.8107C138.101 13.0444 137.916 13.2901 137.686 13.547L137.684 13.549C137.456 13.7909 137.227 14.0129 136.998 14.215L136.996 14.217C136.767 14.4057 136.529 14.5549 136.284 14.6652C135.707 15.0171 135.098 15.037 134.469 14.7296C133.921 14.4694 133.505 14.2528 133.221 14.0802C133.079 13.9942 132.967 13.9173 132.888 13.8498C132.848 13.816 132.814 13.783 132.788 13.7502C132.763 13.7186 132.741 13.6802 132.733 13.6369L132.732 13.6281C132.718 13.4582 132.732 13.3039 132.777 13.1681L132.778 13.1652C132.804 13.0962 132.87 13.0807 132.908 13.0793C132.947 13.0778 132.989 13.0871 133.03 13.0998C133.115 13.1258 133.23 13.1773 133.373 13.2511C133.658 13.3987 134.072 13.644 134.612 13.9865C134.799 14.0351 134.986 14.0597 135.172 14.0597C135.364 14.0597 135.542 14.0398 135.707 14.0021C135.87 13.9516 136.034 13.8763 136.199 13.7746C136.812 13.3961 137.259 12.929 137.543 12.3742L137.544 12.3732C137.841 11.8173 137.869 11.3616 137.664 10.9884V10.9875C137.598 10.8662 137.432 10.7177 137.141 10.5461L137.137 10.5431C136.862 10.3598 136.649 10.2804 136.492 10.2804C136.414 10.2804 136.292 10.303 136.121 10.3556L136.114 10.3576C135.946 10.3963 135.737 10.4614 135.486 10.5539H135.485C135.071 10.7008 134.657 10.8412 134.243 10.9748L134.23 10.9796V10.9787C134.083 11.0054 133.954 11.0246 133.846 11.0382C133.754 11.0514 133.675 11.0654 133.611 11.0783C133.574 11.0857 133.539 11.09 133.507 11.09C133.478 11.09 133.446 11.0851 133.415 11.0714V11.0724L133.413 11.0714C133.411 11.0706 133.409 11.0704 133.407 11.0695V11.0675C133.339 11.0364 133.302 10.974 133.285 10.9103C133.268 10.8446 133.265 10.7631 133.272 10.672C133.286 10.4929 133.328 10.3418 133.406 10.2287L133.45 10.1662C133.5 10.105 133.568 10.0461 133.649 9.98844C133.759 9.91074 133.9 9.83158 134.069 9.75016C134.405 9.5888 134.684 9.48985 134.899 9.46109H134.9C135.134 9.43357 135.447 9.4262 135.836 9.43961H136.07C136.14 9.42838 136.203 9.42114 136.257 9.42008C136.317 9.4079 136.363 9.3958 136.396 9.38492C136.518 9.33575 136.774 9.17779 137.175 8.89762C137.584 8.60694 137.891 8.34443 138.097 8.10953C138.304 7.87261 138.401 7.67398 138.412 7.51285V7.42105L138.401 7.41031C138.377 7.38633 138.358 7.35567 138.343 7.32437C138.346 7.33007 138.346 7.32732 138.332 7.31656C138.319 7.30653 138.299 7.29352 138.27 7.27848C138.213 7.24853 138.131 7.21309 138.02 7.17398C137.873 7.12488 137.697 7.09977 137.492 7.09977H137.485C137.284 7.08633 137.056 7.06598 136.802 7.03922V7.03824C136.647 7.0255 136.507 7.02666 136.382 7.03922C136.252 7.05216 136.145 7.07133 136.059 7.09586L136.049 7.09879C135.987 7.10914 135.929 7.1348 135.875 7.17789L135.874 7.17691C135.789 7.24638 135.696 7.29121 135.596 7.29996C135.495 7.30871 135.396 7.28155 135.302 7.22672L135.301 7.22574L135.121 7.11344L135.11 7.09781C135.053 7.01776 135.052 6.92564 135.091 6.83902C135.126 6.75882 135.196 6.68045 135.287 6.60367L135.291 6.60074C135.367 6.54157 135.49 6.49216 135.644 6.4484C135.803 6.40363 136.007 6.36174 136.256 6.32144L136.494 6.28629C136.572 6.27614 136.648 6.26768 136.723 6.2609C136.872 6.24732 137.016 6.24039 137.152 6.24039Z" fill="var(--fill-0, #14307C)" stroke="var(--stroke-0, #14307C)" stroke-width="0.2"/>
<path id="Vector_5" d="M125.018 2.08039C125.179 2.08042 125.307 2.16365 125.401 2.305C125.45 2.37783 125.492 2.48294 125.529 2.61262C125.567 2.744 125.603 2.9077 125.637 3.10285C125.704 3.49469 125.751 3.98539 125.778 4.57355L125.838 5.62531L125.898 7.01594V7.01789C125.912 7.72382 125.945 8.90364 125.998 10.557C126.051 12.195 126.085 13.2547 126.098 13.7357L126.13 14.7025C126.153 15.6053 126.153 16.3168 126.128 16.8353C126.111 17.1798 126.084 17.4441 126.044 17.6243C126.024 17.7136 125.999 17.7892 125.967 17.845C125.936 17.8979 125.883 17.9601 125.799 17.9603C125.723 17.9603 125.658 17.9213 125.607 17.8704C125.588 17.8507 125.575 17.8266 125.565 17.806C125.555 17.7839 125.547 17.7582 125.539 17.7308C125.523 17.6758 125.509 17.6044 125.496 17.5189C125.469 17.3473 125.445 17.108 125.424 16.8021C125.402 16.4959 125.383 16.1212 125.365 15.678L125.318 14.1419C125.258 10.5092 125.182 7.75207 125.089 5.87043C125.042 4.92952 124.991 4.20854 124.936 3.70734C124.909 3.45648 124.881 3.26246 124.852 3.12434C124.838 3.05528 124.824 3.00245 124.81 2.96418C124.804 2.94522 124.798 2.93105 124.793 2.92121C124.789 2.91455 124.787 2.91087 124.786 2.90949C124.627 2.7631 124.538 2.5924 124.538 2.39973C124.538 2.33509 124.561 2.27541 124.607 2.22883C124.654 2.18182 124.711 2.1515 124.773 2.13215V2.13019C124.844 2.09463 124.928 2.08039 125.018 2.08039ZM121.759 5.54816L121.757 5.54719C121.744 5.71691 121.738 5.93444 121.738 6.19953V6.21027C121.723 6.36352 121.645 6.5659 121.517 6.81086C121.453 6.93498 121.374 7.073 121.281 7.22394L120.961 7.71613C120.795 7.96195 120.666 8.16053 120.574 8.31184C120.48 8.46643 120.429 8.564 120.413 8.61164C120.401 8.64743 120.403 8.67915 120.419 8.71223C120.427 8.73034 120.44 8.75052 120.46 8.7718L120.537 8.83918L120.542 8.84211C120.731 8.99567 121.085 9.10747 121.628 9.16047L121.635 9.16144C122.211 9.25538 122.627 9.41268 122.851 9.65168L122.97 9.78937C123.004 9.8329 123.032 9.87447 123.055 9.9134C123.1 9.98827 123.131 10.0683 123.123 10.1458C123.113 10.2356 123.053 10.2953 122.977 10.3265C122.907 10.3553 122.816 10.3632 122.715 10.3597H122.704V10.3587C122.508 10.3306 122.234 10.2553 121.887 10.1351C121.555 10.0222 121.278 9.93792 121.058 9.88215C120.837 9.82592 120.678 9.80012 120.578 9.80012C120.31 9.80007 120.09 9.74186 119.993 9.5716C119.95 9.50186 119.906 9.47508 119.866 9.46809C119.822 9.46056 119.759 9.47218 119.67 9.5257L119.666 9.52863C119.576 9.57637 119.438 9.67829 119.249 9.84113C119.061 10.0026 118.827 10.2189 118.548 10.4915V10.4925C118.035 10.9856 117.642 11.3144 117.374 11.471C117.306 11.5106 117.243 11.5409 117.186 11.5599C117.131 11.5784 117.073 11.5885 117.018 11.5794C116.959 11.5693 116.908 11.5369 116.877 11.4837C116.848 11.4351 116.839 11.377 116.839 11.3196C116.839 11.2954 116.846 11.2751 116.85 11.264C116.856 11.2511 116.864 11.2386 116.871 11.2269C116.886 11.2033 116.906 11.1753 116.93 11.1448C116.98 11.0836 117.052 11.0021 117.145 10.9017C117.333 10.7001 117.615 10.4159 117.988 10.0491L117.99 10.0472C118.612 9.46516 119.234 8.76269 119.858 7.93977C120.171 7.52777 120.404 7.19082 120.557 6.92902C120.634 6.79827 120.69 6.68746 120.726 6.59699C120.764 6.50488 120.778 6.44065 120.778 6.39973C120.778 6.32615 120.772 6.27684 120.764 6.24641C120.75 6.24994 120.732 6.2543 120.711 6.26105C120.659 6.27747 120.591 6.30369 120.506 6.3382C120.42 6.37275 120.319 6.41591 120.201 6.46809L119.801 6.6507C119.331 6.87207 118.936 7.01613 118.618 7.07844C118.304 7.13996 118.043 7.12536 117.862 7.00227V7.00031C117.773 6.94911 117.738 6.85828 117.738 6.76008C117.738 6.62402 117.837 6.52736 117.962 6.46125C118.089 6.39404 118.271 6.34167 118.501 6.30109H118.503C118.915 6.23668 119.485 6.03526 120.216 5.68977C120.676 5.46305 121.031 5.31808 121.276 5.26203C121.396 5.23458 121.505 5.22495 121.59 5.24836C121.634 5.26076 121.677 5.28414 121.709 5.32258C121.741 5.36139 121.756 5.40766 121.759 5.45441V5.54816Z" fill="var(--fill-0, #14307C)" stroke="var(--stroke-0, #14307C)" stroke-width="0.2"/>
<path id="Vector_6" d="M108.533 12.0851C108.606 12.0818 108.669 12.117 108.719 12.1622C108.77 12.2074 108.817 12.2709 108.863 12.3478L108.945 12.503C108.996 12.6165 109.041 12.7494 109.081 12.9005L109.135 13.1407L109.137 13.1495L109.161 13.338C109.225 13.7709 109.352 14.1678 109.544 14.5294L109.666 14.7179C109.705 14.7722 109.744 14.8177 109.78 14.8556C109.853 14.932 109.915 14.9701 109.964 14.9835L109.971 14.9855V14.9864C110.03 15.0076 110.155 15.0268 110.359 15.0401C110.559 15.0533 110.826 15.0597 111.158 15.0597C111.794 15.0597 112.525 15.0266 113.349 14.9601H113.35C113.721 14.9336 113.977 14.9261 114.108 14.9405L114.119 14.9415V14.9425C114.239 14.9693 114.329 15.0382 114.386 15.1398L114.433 15.2511L114.435 15.2589L114.437 15.2677C114.447 15.3474 114.426 15.4225 114.375 15.4845C114.326 15.5432 114.254 15.5845 114.172 15.6144L114.171 15.6134C114.022 15.6719 113.724 15.7268 113.29 15.7794H113.287C112.145 15.8862 111.237 15.9234 110.567 15.8898C110.232 15.8729 109.954 15.8379 109.733 15.7843C109.514 15.7311 109.341 15.6567 109.229 15.5528L109.226 15.5509V15.5499C109.126 15.4489 109.021 15.2658 108.911 15.0157C108.799 14.7614 108.677 14.4257 108.543 14.0109L108.542 14.0099C108.408 13.5885 108.315 13.244 108.264 12.9786C108.239 12.8461 108.223 12.7312 108.218 12.6349C108.216 12.5875 108.217 12.5424 108.22 12.5011L108.244 12.3839H108.245C108.277 12.3025 108.313 12.2329 108.356 12.1818C108.4 12.1302 108.459 12.0884 108.533 12.0851ZM111.591 0.84093C111.821 0.871699 111.996 0.990235 112.105 1.19249L112.107 1.19542C112.262 1.50439 112.416 2.14587 112.576 3.10265L112.69 3.78624C112.788 4.43179 112.838 4.96343 112.838 5.37999V5.9796C112.838 6.0418 112.853 6.12013 112.888 6.21593C112.913 6.25785 112.932 6.28868 112.948 6.30968C112.954 6.3173 112.958 6.3232 112.962 6.32726C112.997 6.33583 113.074 6.34757 113.205 6.35948C113.355 6.35929 113.485 6.35284 113.596 6.34093C113.719 6.31372 113.934 6.27494 114.24 6.22179H114.241C114.32 6.20868 114.374 6.19548 114.406 6.18468L114.416 6.18175L114.425 6.18077C114.852 6.12751 115.161 6.10604 115.345 6.12023H115.344C115.544 6.12153 115.71 6.17943 115.826 6.30773H115.827C115.921 6.39873 115.991 6.49151 116.019 6.58507C116.05 6.68741 116.029 6.78507 115.956 6.86339C115.889 6.93455 115.785 6.98366 115.662 7.01964C115.536 7.0563 115.376 7.08275 115.186 7.09972H115.185C115.009 7.11331 114.799 7.12023 114.557 7.12023H113.838C113.692 7.12023 113.537 7.15015 113.374 7.213C113.218 7.27822 113.132 7.33732 113.095 7.38292C113.055 7.43319 113 7.55558 112.933 7.76964L112.932 7.77159C112.869 7.96306 112.823 8.16087 112.797 8.36534L112.798 8.36632C112.784 8.56618 112.764 8.87301 112.737 9.28624C112.697 9.90063 112.65 10.3796 112.596 10.7208C112.569 10.8909 112.54 11.0295 112.509 11.1349C112.493 11.1876 112.475 11.2348 112.456 11.2735C112.437 11.311 112.414 11.3471 112.384 11.3741L112.384 11.3751C112.325 11.4265 112.262 11.4671 112.197 11.4825C112.126 11.4993 112.055 11.4849 111.998 11.4366C111.946 11.3928 111.912 11.3271 111.888 11.256C111.865 11.1833 111.848 11.094 111.838 10.9903L111.837 10.9796H111.838C111.838 10.7199 111.872 10.3082 111.938 9.74816L112.043 8.82433C112.073 8.53518 112.098 8.26418 112.118 8.01183C112.117 7.89916 112.109 7.81746 112.095 7.76378C112.08 7.70216 112.066 7.70699 112.081 7.713L112.068 7.70812L112.057 7.70031C112.065 7.70623 112.066 7.70197 112.043 7.69933C112.022 7.69698 111.992 7.69624 111.95 7.69933C111.867 7.70549 111.75 7.72497 111.598 7.75792L111.595 7.7589V7.75792C111.374 7.79813 111.198 7.81221 111.078 7.7882C111.018 7.77618 110.956 7.75157 110.915 7.70031C110.87 7.64416 110.865 7.57647 110.881 7.51573L110.884 7.50597L110.919 7.4337C110.961 7.36272 111.026 7.29522 111.105 7.23156C111.213 7.1456 111.356 7.05913 111.533 6.97081L111.535 6.96984L112.113 6.69738L112.017 5.14659C111.951 4.09621 111.835 3.2701 111.671 2.66613C111.505 2.05816 111.298 1.69755 111.065 1.54503C110.994 1.51213 110.933 1.48032 110.885 1.44738C110.837 1.41413 110.793 1.37354 110.768 1.32433L110.764 1.31749C110.738 1.25257 110.748 1.18652 110.782 1.12902C110.814 1.07626 110.865 1.03233 110.925 0.995227L110.926 0.99425C111.143 0.86467 111.365 0.810881 111.591 0.84093ZM106.648 6.24034C107.033 6.28308 107.386 6.46108 107.705 6.76573C108.03 7.06232 108.198 7.41566 108.198 7.82042C108.198 8.26469 108.003 8.7007 107.633 9.12609C107.264 9.54864 106.84 9.87573 106.361 10.1085L106.362 10.1095C105.896 10.3424 105.421 10.4601 104.937 10.4601H104.934C104.456 10.4459 104.099 10.267 103.891 9.91027L103.89 9.90929C103.763 9.68257 103.713 9.4633 103.76 9.25792L103.761 9.25011H103.762C103.793 9.15111 103.867 9.00568 103.976 8.81945C104.088 8.63032 104.24 8.39111 104.434 8.10363C104.694 7.68441 104.918 7.34392 105.106 7.08214C105.293 6.82155 105.449 6.63348 105.571 6.5255L105.58 6.51769L105.637 6.59972L105.581 6.51769C105.906 6.29127 106.264 6.19771 106.648 6.24034ZM106.498 6.93956C106.438 6.93956 106.341 6.97634 106.202 7.08019C106.066 7.18135 105.903 7.33609 105.712 7.54698C105.33 7.96864 105.007 8.40933 104.744 8.86925C104.612 9.09971 104.533 9.28073 104.5 9.41417C104.465 9.5512 104.487 9.60676 104.508 9.62804C104.551 9.66554 104.642 9.69411 104.812 9.68468C104.981 9.67528 105.206 9.62967 105.489 9.54406C106.054 9.37326 106.501 9.1515 106.835 8.88195C107.21 8.57119 107.41 8.25796 107.459 7.94445C107.483 7.78117 107.464 7.63953 107.407 7.51671C107.35 7.39343 107.25 7.28133 107.102 7.18273H107.101C106.855 7.01422 106.655 6.93964 106.498 6.93956ZM108.805 3.56066L108.819 3.56163L108.798 3.65929L108.819 3.56261C108.961 3.59409 109.069 3.66938 109.126 3.79503H109.127L109.128 3.79796C109.128 3.79892 109.129 3.79993 109.13 3.80089H109.129C109.185 3.91896 109.159 4.03893 109.084 4.14855L109.085 4.14952C109.084 4.151 109.082 4.15197 109.081 4.15343C109.08 4.15477 109.08 4.15697 109.079 4.15831L109.078 4.15734C109.006 4.2769 108.887 4.34803 108.737 4.37804L108.727 4.37999H108.715C108.712 4.38014 108.709 4.38059 108.706 4.38097C108.698 4.38179 108.688 4.38295 108.675 4.38488C108.651 4.38873 108.619 4.3953 108.579 4.40343C108.498 4.41978 108.387 4.44445 108.246 4.47765C107.964 4.54407 107.562 4.64325 107.043 4.77648C106.075 5.02348 105.31 5.18479 104.751 5.2589C104.471 5.29592 104.24 5.31177 104.058 5.3048C103.887 5.29817 103.744 5.27016 103.648 5.20616C103.614 5.19347 103.579 5.17443 103.556 5.13683C103.528 5.08954 103.53 5.03776 103.541 4.9962L103.543 4.98839L103.546 4.98058C103.578 4.90577 103.645 4.84605 103.725 4.79698C103.807 4.74667 103.915 4.6999 104.046 4.65538C104.305 4.56661 104.669 4.48242 105.134 4.40245L106.704 4.02745C107.102 3.93114 107.378 3.86323 107.531 3.82335L107.985 3.70226C108.121 3.66776 108.242 3.63931 108.347 3.6173C108.501 3.58501 108.628 3.56441 108.722 3.55968L108.805 3.56066ZM104.1 1.21886L104.221 1.24327L104.229 1.24523L104.514 1.3214L104.766 1.37316C104.852 1.39365 104.939 1.41726 105.027 1.44445H105.026C105.208 1.4836 105.372 1.5222 105.517 1.56163C105.806 1.62204 106.047 1.68378 106.238 1.74523C106.38 1.79091 106.499 1.83718 106.592 1.88683L106.675 1.93761L106.68 1.94152L106.685 1.9464C106.782 2.03628 106.856 2.1228 106.897 2.20519C106.939 2.28913 106.953 2.38372 106.904 2.46984L106.901 2.4757C106.85 2.55288 106.76 2.58218 106.672 2.58995C106.581 2.59786 106.467 2.58524 106.337 2.55773V2.55675C106.309 2.55449 106.282 2.54855 106.257 2.5382L104.78 2.21202C104.415 2.12837 104.178 2.06947 104.068 2.03527C103.951 1.99855 103.852 1.9442 103.783 1.86632C103.712 1.78654 103.677 1.68915 103.677 1.58019C103.677 1.50839 103.685 1.44307 103.703 1.38878C103.721 1.33521 103.753 1.28179 103.809 1.25206C103.863 1.22092 103.927 1.21007 103.993 1.21007C104.026 1.21009 104.062 1.21332 104.1 1.21886Z" fill="var(--fill-0, #14307C)" stroke="var(--stroke-0, #14307C)" stroke-width="0.2"/>
<path id="Vector_7" d="M101.901 4.20552C101.976 4.21523 102.037 4.26484 102.085 4.32075C102.135 4.37876 102.184 4.4584 102.232 4.55513L102.233 4.55708C102.328 4.75583 102.405 4.99896 102.466 5.28462L102.522 5.58442L102.547 5.77974C102.603 6.31006 102.649 7.36472 102.684 8.93696L102.717 10.2719C102.744 11.5901 102.753 12.8596 102.743 14.0805C102.736 14.8876 102.722 15.4949 102.698 15.9008C102.687 16.1032 102.673 16.2589 102.656 16.3647C102.648 16.4166 102.638 16.4615 102.626 16.4956C102.62 16.512 102.611 16.5322 102.598 16.5502C102.585 16.5669 102.555 16.5999 102.504 16.6C102.356 16.6 102.267 16.4746 102.215 16.3354C102.16 16.1885 102.124 15.9768 102.103 15.7075C102.063 15.1696 102.044 13.9522 102.044 12.06C102.044 9.47469 101.95 7.62223 101.765 6.49751C101.664 5.94992 101.6 5.51153 101.569 5.18403C101.554 5.02038 101.547 4.88208 101.55 4.77095C101.551 4.71678 101.555 4.66662 101.561 4.62153L101.591 4.50239C101.622 4.41611 101.659 4.3426 101.704 4.29048C101.752 4.23572 101.819 4.1948 101.901 4.20552ZM95.0761 5.90083L95.0849 5.90181L95.0927 5.90474C95.22 5.94389 95.3005 6.04554 95.3437 6.17915C95.3861 6.31006 95.3965 6.48176 95.3828 6.68696C95.3551 7.08873 95.2313 7.52728 95.0146 8.00142L95.0127 8.00435C94.5129 9.00389 93.7447 9.99294 92.7119 10.9721L92.7109 10.9731C92.4498 11.2141 92.2373 11.3871 92.0752 11.4858C91.9952 11.5344 91.9203 11.57 91.8535 11.5834C91.7855 11.597 91.7049 11.5903 91.6484 11.5258L91.6377 11.5141L91.6318 11.4995C91.608 11.4439 91.6162 11.3842 91.6318 11.3354C91.648 11.2848 91.6767 11.2297 91.7138 11.1713C91.7886 11.0538 91.9089 10.9067 92.0703 10.7319L92.0722 10.7299C92.6686 10.1203 93.1706 9.51128 93.5801 8.90376L93.581 8.90278C94.0067 8.29094 94.2581 7.82257 94.3467 7.4936C94.4061 7.2491 94.447 7.06265 94.4697 6.93306C94.4785 6.88268 94.4831 6.84194 94.4863 6.81099C94.4429 6.81448 94.3822 6.82306 94.3027 6.83833C94.1331 6.87095 93.8886 6.92959 93.5693 7.01606C93.248 7.10307 92.9904 7.16139 92.7978 7.18892C92.7017 7.20265 92.6186 7.20935 92.5508 7.20747C92.4865 7.20568 92.4202 7.19583 92.3701 7.1645L92.3691 7.16352C92.2854 7.10892 92.2137 7.03974 92.1933 6.94966C92.1712 6.85152 92.2168 6.76602 92.2832 6.69966C92.3486 6.63422 92.4462 6.57384 92.5683 6.51704C92.6922 6.45948 92.8483 6.40163 93.0342 6.34419C93.2094 6.29026 93.4045 6.23671 93.6191 6.18306H93.6201C94.0405 6.08295 94.3708 6.00939 94.6093 5.96235C94.7285 5.93887 94.8262 5.92097 94.9013 5.9106C94.937 5.90568 94.9703 5.9018 95 5.89985L95.0761 5.90083ZM98.123 7.51997C98.123 7.6154 98.1313 7.68522 98.1445 7.73286C98.1536 7.76563 98.164 7.78137 98.1699 7.78852L98.1709 7.7895C98.1779 7.79074 98.1877 7.79176 98.2002 7.79243C98.2252 7.79378 98.2584 7.7936 98.3008 7.79048C98.3857 7.78419 98.5004 7.76803 98.6455 7.74165L98.6513 7.74067L98.9384 7.69185C99.1968 7.63422 99.3711 7.55104 99.4726 7.44966L99.4775 7.4438L99.4834 7.43989C99.5409 7.39677 99.5931 7.3198 99.6328 7.19477C99.6723 7.07004 99.6966 6.90488 99.7031 6.69673C99.7147 6.31444 99.6634 6.06496 99.5713 5.92231L99.5293 5.86763C99.457 5.80089 99.4042 5.7252 99.3818 5.64009C99.3582 5.55016 99.3715 5.4605 99.414 5.37544L99.417 5.3686L99.4218 5.36274C99.4717 5.29157 99.523 5.2326 99.5771 5.19087C99.6316 5.14896 99.6948 5.11958 99.7636 5.11958C99.9376 5.11965 100.077 5.21035 100.178 5.36567C100.276 5.51656 100.342 5.73322 100.383 6.00532C100.464 6.54796 100.497 7.70967 100.483 9.48091V9.48384C100.457 10.2241 100.423 10.7219 100.382 10.9711C100.368 11.0896 100.344 11.1917 100.3 11.2661C100.253 11.3449 100.18 11.3999 100.083 11.3999C99.9897 11.3997 99.9169 11.3505 99.8662 11.2768C99.818 11.2068 99.7867 11.1107 99.7656 10.9985C99.7236 10.7745 99.7031 10.3382 99.7031 9.69966C99.7031 9.16668 99.7 8.76771 99.6933 8.50239C99.6904 8.38351 99.6858 8.29267 99.6816 8.22895L98.7529 8.51606C98.5369 8.59473 98.3616 8.66564 98.2265 8.72993C98.0887 8.79555 97.9993 8.8513 97.9502 8.89497C97.8553 8.97933 97.7737 9.14534 97.7217 9.41841C97.6797 9.77401 97.5751 10.0797 97.4062 10.3334L97.4072 10.3344C97.331 10.4521 97.2503 10.5435 97.1621 10.5922C97.1164 10.6173 97.0662 10.6326 97.0136 10.6313C96.9607 10.6299 96.9115 10.6123 96.8681 10.5834V10.5825C96.8008 10.5419 96.7556 10.4813 96.7363 10.4047C96.7175 10.3295 96.7239 10.2443 96.7461 10.1557L96.749 10.1459L96.789 10.02C96.885 9.67892 97.0041 9.00461 97.1445 7.98677L97.2285 7.25825L96.7187 7.33833V7.33931C96.4493 7.37971 96.2309 7.37672 96.083 7.31099C96.0084 7.27785 95.9389 7.22185 95.9248 7.13032C95.9117 7.04552 95.9529 6.96566 96.0049 6.89888C96.1144 6.74496 96.3127 6.60994 96.582 6.48872C96.845 6.36079 97.0723 6.2787 97.2617 6.24653C97.4487 6.21477 97.6141 6.22981 97.7383 6.31685H97.7392C97.8672 6.40227 97.9542 6.55557 98.0136 6.75142C98.0737 6.94928 98.1095 7.20537 98.123 7.51606L98.124 7.51997H98.123Z" fill="var(--fill-0, #14307C)" stroke="var(--stroke-0, #14307C)" stroke-width="0.2"/>
<path id="Vector_8" d="M86.2879 11.9599C86.2904 11.9599 86.2932 11.9599 86.2957 11.9599C86.298 11.9602 86.3003 11.9606 86.3025 11.9609H86.3016C86.3774 11.9643 86.4504 11.9958 86.5193 12.0429C86.5895 12.0909 86.661 12.159 86.7342 12.2441L86.8094 12.3154C86.9757 12.485 87.0617 12.6759 87.0477 12.8867C87.0402 12.9985 87.0044 13.1574 86.9441 13.3584C86.8833 13.5611 86.7949 13.8128 86.6814 14.1133C86.5951 14.3523 86.5302 14.5464 86.4842 14.6943C86.4388 14.8401 86.4154 14.9357 86.409 14.9863C86.4114 15.0588 86.456 15.1436 86.5857 15.2383C86.6602 15.2915 86.7217 15.3482 86.7586 15.4092C86.7976 15.4737 86.8127 15.5499 86.7801 15.625C86.7504 15.6932 86.6891 15.7423 86.6209 15.7793C86.5509 15.8172 86.4606 15.8492 86.3533 15.8769L86.3504 15.8779C86.2274 15.9052 86.0716 15.9312 85.8846 15.958C85.4991 16.0355 85.1252 16.1907 84.7625 16.4238L84.7605 16.4258H84.7596C84.5026 16.5813 84.277 16.6878 84.0848 16.7412C83.9029 16.7917 83.7392 16.7957 83.6043 16.7363V16.7373C83.5676 16.7281 83.5286 16.7113 83.4979 16.6806C83.4645 16.6473 83.448 16.6043 83.448 16.5595C83.4482 16.4797 83.4919 16.3979 83.5477 16.3213C83.6051 16.2422 83.6879 16.1524 83.7938 16.0527C83.8497 15.984 83.8895 15.9258 83.9148 15.8779C83.9411 15.8282 83.948 15.797 83.948 15.7802C83.948 15.7731 83.9434 15.7482 83.9158 15.6992C83.8901 15.6534 83.8497 15.5961 83.7928 15.5263C83.6861 15.4256 83.6018 15.33 83.5438 15.2392C83.4848 15.1471 83.448 15.0528 83.448 14.9599C83.448 14.9093 83.4294 14.8376 83.3797 14.7412C83.3304 14.6458 83.2545 14.5326 83.1502 14.4023L83.1492 14.4013C82.9049 14.089 82.7442 13.7906 82.6727 13.5068L82.6717 13.5078C82.6448 13.4137 82.6258 13.3382 82.615 13.2842C82.6098 13.2578 82.6055 13.2328 82.6043 13.2119C82.6037 13.2017 82.6043 13.1884 82.6063 13.1748C82.6077 13.1649 82.6123 13.1346 82.6375 13.1093L82.6678 13.0869C82.6989 13.0706 82.7314 13.071 82.7518 13.0732C82.7809 13.0765 82.8106 13.086 82.8377 13.0976C82.8929 13.1213 82.9623 13.1625 83.0438 13.2168L83.0457 13.2177C83.1586 13.2968 83.2604 13.3137 83.3592 13.2842L83.3621 13.2832C83.4893 13.2484 83.6959 13.1321 83.9891 12.9189L83.9939 12.916L84.3436 12.7021C84.6978 12.4972 85.0675 12.3187 85.452 12.167L85.4568 12.165L85.7566 12.0693C85.8463 12.0422 85.9254 12.02 85.9939 12.0029C86.0622 11.9858 86.1214 11.9731 86.1707 11.9658C86.2123 11.9596 86.2529 11.957 86.2879 11.9599ZM85.9236 12.8779C85.8746 12.883 85.8106 12.8937 85.7303 12.9121C85.5758 12.9475 85.3741 13.0082 85.1238 13.0937L84.8836 13.1963C84.6563 13.3051 84.4675 13.4314 84.3162 13.5732C84.1141 13.7628 84.0283 13.9381 84.0281 14.0996C84.0281 14.1502 84.0456 14.2433 84.0887 14.3857C84.1307 14.5249 84.1944 14.7033 84.2801 14.9209C84.3729 15.1397 84.4493 15.3006 84.5096 15.4052C84.5399 15.4579 84.5641 15.4924 84.5818 15.5127C84.5834 15.5145 84.5853 15.5161 84.5867 15.5176C84.6966 15.5117 84.8299 15.4553 84.9891 15.3232C85.1562 15.1844 85.3426 14.9722 85.5467 14.6826V14.6816C85.9699 14.0864 86.1687 13.6081 86.1688 13.2402C86.1688 13.1066 86.1502 13.0152 86.1229 12.958C86.0978 12.9058 86.067 12.8846 86.0301 12.8779H85.9236ZM85.7859 0.480442C85.8974 0.441942 86.0225 0.446556 86.1551 0.483371C86.4288 0.559409 86.6297 0.750513 86.7596 1.03904H86.7586C86.9252 1.36105 87.0741 1.90541 87.2068 2.66208L87.2947 3.20993C87.3702 3.74108 87.408 4.22465 87.408 4.66013V5.34079L87.991 5.24118H87.993C88.168 5.21426 88.736 5.14026 89.6941 5.02048C89.935 4.98703 90.1296 4.96528 90.2762 4.95505C90.3494 4.94994 90.4122 4.94829 90.4637 4.94919C90.5114 4.95003 90.556 4.95335 90.5916 4.96286C90.6759 4.98393 90.7397 5.03826 90.7781 5.11521C90.8145 5.18804 90.8279 5.279 90.8279 5.37986C90.8279 5.47684 90.8114 5.56544 90.7703 5.63864C90.7277 5.71441 90.6626 5.76733 90.5799 5.79489C90.506 5.81951 90.3838 5.83474 90.2244 5.8447C90.0616 5.85487 89.8494 5.86032 89.5887 5.86032C88.8455 5.86032 88.2915 5.92678 87.9207 6.05466L87.9168 6.05564C87.7877 6.09438 87.6869 6.13585 87.6121 6.17771C87.539 6.2187 87.497 6.25716 87.4754 6.29001C87.4573 6.32883 87.4398 6.39389 87.4275 6.49216C87.4149 6.59322 87.408 6.72227 87.408 6.87986V6.88279C87.3813 7.87023 87.3377 8.62534 87.2771 9.14646C87.247 9.40636 87.2129 9.61176 87.1727 9.75974C87.1526 9.83354 87.1301 9.89739 87.1043 9.94724C87.08 9.99422 87.0449 10.0433 86.993 10.0693L86.9852 10.0732C86.887 10.1124 86.7878 10.1002 86.6971 10.0459L86.6893 10.041L86.6824 10.0351C86.6507 10.0074 86.6309 9.96888 86.618 9.93454C86.6043 9.89817 86.5937 9.8545 86.5848 9.80564C86.5669 9.70735 86.5554 9.57587 86.5486 9.41404C86.5351 9.08969 86.5415 8.62929 86.5682 8.03513V8.0322C86.6147 7.44039 86.6311 6.97625 86.618 6.63864C86.6114 6.46995 86.5982 6.33535 86.5779 6.23337C86.5571 6.12848 86.5313 6.06964 86.5096 6.04197L86.5086 6.04001C86.4666 5.984 86.4326 5.932 86.409 5.88474C86.3862 5.83914 86.368 5.78946 86.368 5.74021C86.368 5.68231 86.3936 5.63254 86.4275 5.59372C86.4601 5.55652 86.5043 5.52414 86.5545 5.49509C86.5611 5.49076 86.5813 5.47079 86.6014 5.40622C86.6205 5.34431 86.6353 5.25619 86.6434 5.13864C86.6595 4.90338 86.649 4.56767 86.6092 4.12986L86.5438 3.54001C86.4729 2.98419 86.3852 2.52886 86.282 2.17282C86.1428 1.69217 85.981 1.41584 85.8133 1.30368L85.8094 1.30075C85.6848 1.21074 85.5896 1.11926 85.5359 1.02439C85.4797 0.924817 85.4673 0.816968 85.5184 0.714817L85.5213 0.709934C85.5844 0.599544 85.6726 0.519659 85.7859 0.480442ZM81.0486 5.83982C81.3313 5.83984 81.5599 5.87318 81.7254 5.94724H81.7264C81.9085 6.02312 82.0952 6.18439 82.2859 6.41599H82.285C82.5964 6.78971 82.7525 7.17844 82.7381 7.57907C82.7254 7.92847 82.5834 8.27505 82.323 8.61814L82.2039 8.7656C81.6469 9.40416 81.0236 9.81764 80.3338 9.99704H80.3318C79.6409 10.1629 79.0641 10.0478 78.6209 9.63376C78.4765 9.50369 78.3763 9.35549 78.327 9.18845C78.2776 9.02127 78.2813 8.84221 78.3318 8.65427C78.4188 8.31956 78.6739 7.88407 79.0848 7.35154L79.2703 7.11716C79.504 6.82334 79.7022 6.58692 79.8641 6.40818C80.0244 6.23112 80.1548 6.10516 80.2518 6.03806C80.4484 5.90197 80.7182 5.83982 81.0486 5.83982ZM81.0564 6.57907C80.7389 6.54254 80.5005 6.63319 80.325 6.84372C79.9253 7.32334 79.6339 7.68858 79.449 7.93943C79.2788 8.18852 79.1561 8.4013 79.0799 8.57907C79.0424 8.6666 79.0258 8.7348 79.0232 8.78513C79.021 8.83101 79.0307 8.85701 79.0428 8.87302C79.112 8.94105 79.2252 9.01997 79.3885 9.10837C79.6918 9.24185 80.0577 9.24018 80.4949 9.08591L80.4959 9.08493C80.9446 8.93106 81.3367 8.662 81.6727 8.27439L81.6746 8.27243C81.8399 8.09396 81.9637 7.94524 82.0467 7.82712C82.1328 7.70458 82.1649 7.62822 82.1688 7.58982C82.1725 7.54429 82.157 7.47347 82.1043 7.37107C82.0521 7.26966 81.969 7.14668 81.8514 7.0029L81.8484 7.00095C81.653 6.74449 81.3934 6.60476 81.0613 6.58005L81.0564 6.57907ZM83.4881 3.35544C83.5473 3.35856 83.602 3.36682 83.6473 3.38181C83.6484 3.38203 83.6501 3.38255 83.6512 3.38279C83.6559 3.38443 83.6613 3.38487 83.6658 3.38669L83.6648 3.38767C83.7076 3.39894 83.749 3.41878 83.7801 3.45603C83.8154 3.49843 83.8279 3.54969 83.8279 3.59958C83.8279 3.71936 83.7517 3.81788 83.6482 3.89548C83.5432 3.97418 83.3923 4.04625 83.202 4.11423L83.2 4.11521C82.8331 4.23749 82.1404 4.39777 81.1277 4.59763L81.1268 4.59861C80.0208 4.81179 79.2481 4.93282 78.8143 4.95993H78.6609C78.5176 4.9554 78.3972 4.9363 78.3045 4.89743C78.2414 4.87099 78.1865 4.83315 78.1473 4.78122C78.1072 4.72816 78.0887 4.66587 78.0887 4.59958C78.0889 4.44856 78.2123 4.35102 78.3592 4.28806C78.5125 4.22241 78.7337 4.17426 79.0164 4.1406H79.0174C79.393 4.10106 79.9348 4.00893 80.6434 3.86423L81.407 3.70212C81.8603 3.59549 82.2348 3.51558 82.5301 3.46189C82.8248 3.40831 83.0627 3.37404 83.241 3.36032L83.4881 3.35544ZM78.7596 1.02048C78.918 1.00616 79.2615 1.02708 79.7781 1.08005H79.7771C80.5278 1.1459 81.032 1.21964 81.2752 1.30368H81.2762C81.3984 1.33963 81.5012 1.39116 81.574 1.46384C81.6494 1.53922 81.6883 1.63363 81.6883 1.74021C81.6882 1.8537 81.638 1.94688 81.5428 2.00876C81.4544 2.06619 81.3335 2.09256 81.1932 2.09958L81.1883 2.10056V2.09958C80.9248 2.09958 80.4095 2.03145 79.6512 1.89841C79.2758 1.83138 78.9865 1.75848 78.7898 1.67771C78.6922 1.63757 78.6109 1.59298 78.5525 1.54197C78.4938 1.49056 78.448 1.42269 78.448 1.33982C78.4481 1.25462 78.4727 1.17455 78.533 1.11423C78.5919 1.05545 78.6727 1.02838 78.7596 1.02048Z" fill="var(--fill-0, #14307C)" stroke="var(--stroke-0, #14307C)" stroke-width="0.2"/>
<path id="Vector_9" d="M66.3943 3.75517C66.4853 3.69772 66.5887 3.69325 66.6941 3.72392L66.6951 3.72294C66.9178 3.77434 67.0576 3.95384 67.1297 4.21318C67.1493 4.2839 67.1626 4.3963 67.1727 4.54228C67.1828 4.69058 67.1898 4.8812 67.1932 5.11357C67.1999 5.57882 67.1927 6.21559 67.1727 7.02275C67.1726 7.14562 67.1664 7.3011 67.1531 7.48759C67.1398 7.89849 67.1266 8.19229 67.1131 8.36748C67.1135 8.52007 67.1264 8.6928 67.1521 8.88603L67.1902 9.09599C67.1963 9.1201 67.2015 9.1369 67.2059 9.14775C67.2064 9.14912 67.2064 9.15063 67.2068 9.15166C67.2122 9.15524 67.2253 9.16299 67.2498 9.17412C67.2809 9.18822 67.3235 9.20441 67.3787 9.22294C67.4981 9.2461 67.6005 9.24481 67.6883 9.22294C67.8008 9.18149 67.9941 9.12175 68.2654 9.04423L68.2732 9.0413C68.4064 9.01467 68.5064 8.99507 68.573 8.98173C69.2545 8.79503 69.8463 8.68755 70.3475 8.66044C70.6033 8.64698 70.8081 8.65295 70.9568 8.68193C71.0311 8.69642 71.0974 8.71785 71.1502 8.74931C71.2025 8.78046 71.2463 8.82488 71.2664 8.88603H71.2674C71.3012 8.97935 71.3019 9.07645 71.2459 9.16044C71.1937 9.23871 71.104 9.28529 71.0018 9.31474C70.8214 9.37018 70.3351 9.47236 69.5516 9.61845H69.5496C68.7779 9.74485 68.1896 9.87242 67.783 10.0003C67.5795 10.0643 67.4252 10.1278 67.3172 10.1888C67.2087 10.25 67.1622 10.3005 67.1473 10.3343C67.1267 10.4117 67.1182 10.5343 67.1277 10.7093C67.1326 10.7982 67.1422 10.899 67.1561 11.011L67.2117 11.3831V11.3841L67.282 11.889C67.3425 12.3956 67.3729 12.9061 67.3729 13.4202C67.3728 13.7275 67.366 13.964 67.3523 14.1282V14.1292C67.3386 14.2797 67.3105 14.405 67.2586 14.4915C67.2041 14.5823 67.1206 14.6399 67.0125 14.6399C66.9102 14.6398 66.8194 14.5885 66.742 14.511L66.7342 14.5032L66.7352 14.5022C66.6687 14.4191 66.6326 14.3243 66.6326 14.22C66.6326 14.1732 66.6273 14.0982 66.6141 13.9925C66.6007 13.8858 66.5874 13.7788 66.574 13.6722C66.5608 13.5661 66.5472 13.4669 66.534 13.3743L66.533 13.3694C66.4925 12.9372 66.4663 11.4116 66.4529 8.80205L66.409 7.02177C66.3932 6.50819 66.3765 6.07419 66.3582 5.72002C66.3399 5.36592 66.3201 5.0928 66.2996 4.8997C66.2893 4.80297 66.2787 4.72742 66.2684 4.67314C66.2632 4.64611 66.2591 4.62534 66.2547 4.61064C66.2519 4.6013 66.2497 4.59619 66.2488 4.59404H66.2479C66.122 4.41753 66.1087 4.21998 66.202 4.01787C66.2457 3.90403 66.307 3.81036 66.3943 3.75517ZM61.2332 9.56767H61.2322C61.2124 9.81169 61.2139 9.99488 61.2322 10.1204C61.2414 10.1832 61.2537 10.2271 61.2674 10.2552C61.277 10.2748 61.2864 10.282 61.2908 10.2854C61.3107 10.2893 61.3488 10.2931 61.4119 10.2903C61.4833 10.2872 61.5774 10.2775 61.6941 10.261C61.9274 10.2282 62.2464 10.1688 62.6521 10.0823L62.6629 10.0804H62.6727C62.6954 10.0804 62.7161 10.0791 62.7342 10.0765L62.7928 10.0618L63.1277 9.99931C63.4536 9.94374 63.7541 9.9099 64.0291 9.8997C64.3913 9.88629 64.6791 9.91237 64.8836 9.98466H64.8846C64.9922 10.0205 65.0839 10.071 65.1414 10.1429C65.2027 10.2197 65.2149 10.3104 65.1883 10.4036L65.1902 10.4046C65.1497 10.5661 64.9949 10.6606 64.8006 10.7161L64.7957 10.7171C64.6108 10.7598 64.2399 10.7858 63.6951 10.7991L63.6961 10.8001C62.8019 10.8268 62.2128 10.9073 61.9119 11.0325L61.9051 11.0354V11.0345C61.5415 11.1557 61.2419 11.22 61.0125 11.22C60.9052 11.2201 60.735 11.2613 60.4939 11.3538C60.2555 11.4453 59.9576 11.5831 59.5994 11.7688L59.5965 11.7698C59.1285 11.9971 58.7598 12.1485 58.4939 12.221C58.3619 12.257 58.2477 12.2758 58.1561 12.2708C58.0656 12.2658 57.9721 12.2359 57.9246 12.1477L57.9236 12.1448C57.9002 12.0979 57.8934 12.041 57.8934 11.9847C57.8934 11.9267 57.901 11.8589 57.9148 11.7825C57.951 11.486 58.1928 11.294 58.5643 11.1839H58.5662C58.8814 11.0956 59.2825 10.8709 59.7723 10.5003C59.9964 10.3156 60.1406 10.1763 60.2127 10.0804L60.2137 10.0784C60.297 9.97131 60.3421 9.86236 60.3533 9.75029L60.3543 9.74248L60.3699 9.61943C60.3817 9.47474 60.3829 9.26399 60.3729 8.98369V7.8333C60.3767 7.77941 60.3883 7.72518 60.4148 7.68095C60.4441 7.63225 60.4906 7.59861 60.5506 7.59111C60.6043 7.58439 60.6575 7.60016 60.7039 7.62236C60.7276 7.6337 60.752 7.64779 60.7771 7.66435L60.8553 7.72197L60.8641 7.7288L60.9363 7.80693C61.0059 7.88725 61.0667 7.97579 61.1199 8.07158C61.1968 8.20995 61.2405 8.40027 61.2576 8.6331C61.2746 8.86509 61.266 9.14772 61.2332 9.47978V9.56767ZM63.0857 4.15556L63.1375 4.16337L63.1473 4.16533V4.1663C63.3154 4.22824 63.4236 4.38258 63.4881 4.59013C63.5527 4.79831 63.5798 5.07769 63.573 5.42216C63.5595 6.10028 63.4172 6.91619 63.1492 7.86748C63.062 8.18928 62.9727 8.43772 62.8807 8.60771C62.8347 8.69259 62.7857 8.76345 62.7313 8.81377C62.6762 8.86457 62.6094 8.89969 62.533 8.8997C62.408 8.8997 62.2904 8.8594 62.2371 8.7415C62.1904 8.63759 62.2104 8.50426 62.2586 8.3665C62.4034 7.85211 62.5217 7.32441 62.6141 6.78349L62.6736 6.38505C62.7231 6.00667 62.7429 5.68596 62.7332 5.42314C62.7266 5.23958 62.7066 5.11199 62.6785 5.03349C62.6647 4.99491 62.6513 4.97516 62.6424 4.96611C62.6357 4.95947 62.6333 4.96025 62.6326 4.96025C62.6095 4.96032 62.5655 4.967 62.4949 4.98564C62.426 5.00385 62.3382 5.03178 62.2313 5.06962C62.0175 5.14528 61.731 5.25944 61.3719 5.4124H61.3709C61.0092 5.55977 60.699 5.67174 60.4412 5.74638C60.185 5.82055 59.974 5.85961 59.8133 5.85966C59.681 5.85966 59.572 5.8518 59.492 5.83232C59.4522 5.82262 59.4129 5.80885 59.3807 5.7874C59.3473 5.76519 59.3146 5.73013 59.3045 5.67998C59.2947 5.6312 59.3107 5.58717 59.3299 5.554C59.3491 5.52091 59.3767 5.48976 59.408 5.46123C59.4711 5.40388 59.5646 5.34063 59.6834 5.27275L59.6883 5.2708C60.0137 5.10807 60.512 4.90661 61.1795 4.6663L61.1814 4.66533C61.7354 4.47847 62.1731 4.34227 62.493 4.2581C62.6526 4.21611 62.7848 4.18677 62.8885 4.17021C62.9623 4.15842 63.0302 4.15171 63.0857 4.15556Z" fill="var(--fill-0, #14307C)" stroke="var(--stroke-0, #14307C)" stroke-width="0.2"/>
<path id="Vector_10" d="M50.1064 4.43454C50.2296 4.36062 50.3606 4.34475 50.4863 4.40524C50.5747 4.44778 50.6523 4.52357 50.7207 4.62399L50.7861 4.73239L50.7881 4.73629C50.8905 4.94853 50.9533 5.29915 50.9834 5.7734C51.0137 6.25167 51.0119 6.8691 50.9785 7.62399C50.9117 9.13512 50.7443 10.5606 50.4766 11.8994C50.4103 12.2572 50.3491 12.5689 50.2959 12.8349L50.2969 12.8359C50.2569 13.089 50.224 13.2958 50.1973 13.456C50.1782 13.6303 50.1781 13.7581 50.1924 13.8437C50.2001 13.89 50.2103 13.9156 50.2187 13.9297L50.2334 13.9463L50.2373 13.9482C50.2373 13.9482 50.2383 13.9479 50.2393 13.9482C50.2403 13.9486 50.2421 13.9496 50.2441 13.9502C50.2482 13.9512 50.2537 13.952 50.2607 13.9531C50.2757 13.9555 50.2959 13.9578 50.3213 13.959C50.3723 13.9612 50.4408 13.9599 50.5273 13.955C50.6998 13.9453 50.9379 13.9205 51.2422 13.8808C52.5364 13.674 53.5953 13.5289 54.418 13.4453C55.2379 13.362 55.8309 13.3395 56.1895 13.3808H56.1885C56.3523 13.3946 56.5044 13.4286 56.6445 13.4834C56.7989 13.5255 56.9307 13.5829 57.0361 13.6582C57.2318 13.7979 57.3534 13.9708 57.2939 14.1689L57.292 14.1767L57.2881 14.1845C57.2651 14.2306 57.2286 14.266 57.1826 14.289C57.154 14.3087 57.1209 14.3246 57.0898 14.3349C57.0374 14.3524 56.9793 14.3603 56.918 14.3603V14.3593C56.8323 14.3657 56.7017 14.3643 56.5273 14.3545L55.8486 14.2998C55.446 14.2608 54.7813 14.2866 53.8486 14.3798C52.9176 14.4729 52.0396 14.5911 51.2158 14.7373L51.2168 14.7382C50.785 14.818 50.445 14.8938 50.1963 14.9658C50.072 15.0018 49.972 15.0365 49.8955 15.0693C49.8173 15.1028 49.7695 15.1321 49.7451 15.1543L49.7354 15.1631L49.7227 15.1699C49.684 15.1891 49.6423 15.2001 49.5986 15.2002C49.5665 15.2002 49.5376 15.1867 49.5234 15.1797C49.5049 15.1704 49.4844 15.1579 49.4629 15.1435C49.4166 15.1126 49.371 15.0741 49.3271 15.0302C49.2483 14.9513 49.1932 14.856 49.1621 14.747L49.1582 14.7343L49.1592 14.7334C49.145 14.634 49.1387 14.5158 49.1387 14.3798V14.3691L49.1729 14.1269C49.2211 13.8374 49.3106 13.4069 49.4404 12.8379C49.5334 12.4128 49.6205 11.9742 49.7002 11.5224C49.7798 11.0579 49.8463 10.5934 49.8994 10.1289V10.1259C49.9658 9.64808 50.025 9.15683 50.0781 8.65231L50.1182 8.11032C50.1967 6.88727 50.1824 5.95031 50.0791 5.29587V5.29489C50.0328 5.06895 50.0065 4.88734 50.0029 4.7529C50.0012 4.68544 50.0055 4.62453 50.0176 4.57419C50.0291 4.52614 50.0517 4.47041 50.1025 4.43649L50.1064 4.43454Z" fill="var(--fill-0, #14307C)" stroke="var(--stroke-0, #14307C)" stroke-width="0.2"/>
<path id="Vector_11" d="M43.9512 4.42023C43.3824 4.43363 42.7205 4.83774 41.9658 5.68488C41.2282 6.52788 40.6953 7.46961 40.3662 8.5091C40.2072 9.02026 40.1416 9.64102 40.1719 10.3724L40.1914 10.6927V10.6937C40.2178 11.1285 40.263 11.5094 40.3281 11.8362C40.3869 12.0811 40.4601 12.299 40.5469 12.4896L40.6387 12.6712L40.6406 12.6741C40.98 13.3398 41.4133 13.8245 41.9395 14.1331H41.9404C42.0303 14.1845 42.1139 14.2295 42.1904 14.2679C42.2783 14.3055 42.3504 14.3294 42.4072 14.3411C42.4841 14.3539 42.5893 14.367 42.7217 14.3802H43.2314C43.6559 14.3802 43.9403 14.3659 44.0918 14.3411C44.2388 14.3035 44.4546 14.2095 44.7432 14.0521L44.7461 14.0501C45.1924 13.827 45.5497 13.5795 45.8203 13.3089L45.8213 13.3079C46.0643 13.0713 46.3356 12.6883 46.6338 12.1517C46.9313 11.6162 47.2529 10.933 47.5986 10.1019L47.5996 10.0999L47.9697 9.26105L47.8916 8.22785V8.22394C47.865 7.50624 47.7917 6.9848 47.6768 6.65265L47.6748 6.64582C47.5707 6.25551 47.4075 5.87767 47.1855 5.51203L47.1846 5.51105C46.9604 5.12862 46.7649 4.89272 46.5996 4.78547C46.4064 4.68281 46.1932 4.59273 45.96 4.51496L45.957 4.51398C45.8326 4.46812 45.7369 4.43986 45.6689 4.42804C45.6508 4.4249 45.6355 4.42501 45.623 4.42414C45.6261 4.44238 45.6301 4.46587 45.6377 4.49445C45.6502 4.54135 45.6691 4.59843 45.6934 4.66632L45.7842 4.90265V4.90363C45.8522 5.08043 45.9016 5.23974 45.9297 5.38019H45.9287C45.9559 5.503 45.9716 5.60997 45.9717 5.69953H45.9707C45.9767 5.76532 45.9719 5.8349 45.9346 5.89093C45.8906 5.95662 45.82 5.9798 45.751 5.9798C45.6466 5.97968 45.553 5.9099 45.4727 5.82257C45.3884 5.73096 45.299 5.5984 45.2041 5.42902L45.2021 5.42511C45.0366 5.09394 44.8088 4.84146 44.5195 4.66535L44.5176 4.66437C44.3741 4.5731 44.2539 4.5106 44.1562 4.47394L44.1514 4.47199V4.47101C44.065 4.43406 43.999 4.42023 43.9512 4.42023ZM48.7314 8.51984C48.7314 8.58806 48.7236 8.65605 48.7109 8.72394V8.88019C48.7109 8.94172 48.7036 9.00299 48.6885 9.06379L48.6865 9.0716C48.6742 9.10857 48.6613 9.15286 48.6484 9.20441C48.631 9.33873 48.5678 9.55126 48.4648 9.83429V9.83527C48.3577 10.1164 48.2102 10.4842 48.0234 10.9378L48.0225 10.9407C47.6235 11.8451 47.3087 12.5067 47.0801 12.9241C47.0591 12.966 47.037 13.0084 47.0127 13.0501L46.9297 13.1829C46.8762 13.2498 46.8146 13.3218 46.748 13.4017L46.749 13.4027C46.6952 13.4699 46.6353 13.544 46.5684 13.6243L46.5674 13.6234C46.5093 13.6957 46.439 13.7676 46.3555 13.8372L46.1543 14.0384L46.0908 13.9603L46.1533 14.0384C46.0868 14.0916 46.0206 14.1453 45.9541 14.1986C45.8843 14.2544 45.8139 14.3035 45.7432 14.346C45.6754 14.3866 45.6125 14.4196 45.5566 14.4476L45.5576 14.4486C45.3049 14.5816 45.0844 14.6939 44.8975 14.7874L44.8984 14.7884C44.7242 14.8822 44.5751 14.9564 44.4521 15.0111L44.2041 15.1351L44.1904 15.138C44.1171 15.1526 43.9919 15.1667 43.8193 15.18C43.6424 15.1936 43.4121 15.1995 43.1309 15.1995C42.6794 15.1995 42.3699 15.1871 42.2129 15.1585V15.1575C42.0578 15.1397 41.8711 15.0582 41.6582 14.9251V14.9241C41.1507 14.6219 40.6947 14.1714 40.2891 13.5765L40.2881 13.5755C39.8944 12.9782 39.6414 12.3515 39.5322 11.6966V11.6937C39.5188 11.6 39.5055 11.4997 39.4922 11.3929V11.3909C39.4788 11.2706 39.4655 11.1436 39.4521 11.0101L39.4512 11.0003L39.4463 10.805C39.443 10.74 39.4381 10.6747 39.4316 10.6097L39.4307 10.5999H39.4316V10.14C39.4316 9.27673 39.5595 8.49135 39.8174 7.78547C39.9398 7.43228 40.1093 7.07359 40.3252 6.70929L40.3262 6.70636C40.5549 6.34313 40.8171 5.9737 41.1123 5.59797C41.5128 5.09071 41.8701 4.70533 42.1836 4.44562C42.3362 4.30692 42.5031 4.1893 42.6836 4.09211C42.8749 3.98297 43.0731 3.89401 43.2783 3.8255C43.8244 3.63556 44.2901 3.59475 44.6631 3.72492L44.8174 3.79132L44.8203 3.7923H44.8193C44.8593 3.81453 44.9333 3.83375 45.0518 3.84015C45.1672 3.84638 45.3155 3.84009 45.498 3.82062L45.6475 3.805C45.995 3.78048 46.3189 3.84187 46.6162 3.99054H46.6152C46.9522 4.14555 47.2567 4.40352 47.5303 4.7591C47.8043 5.1153 48.049 5.57075 48.2646 6.12336H48.2637C48.3591 6.3553 48.4412 6.61305 48.5088 6.89679C48.576 7.179 48.6222 7.45515 48.6494 7.72492C48.6899 7.99456 48.7179 8.25822 48.7314 8.51496V8.51984Z" fill="var(--fill-0, #14307C)" stroke="var(--stroke-0, #14307C)" stroke-width="0.2"/>
<path id="Vector_12" d="M34.2529 2.28205C35.5419 1.99851 36.7248 2.39003 37.7949 3.43439L38.0078 3.65217L38.0088 3.65314C38.3999 4.08473 38.6682 4.50172 38.8076 4.90412C38.9603 5.30657 39.0342 5.83408 39.0342 6.48029C39.0342 6.93472 39.0129 7.28219 38.9678 7.51838C38.9454 7.63547 38.9156 7.73356 38.875 7.80451C38.8346 7.87502 38.7699 7.94006 38.6748 7.94025H38.6621L38.6504 7.93732C38.5105 7.90235 38.4114 7.81076 38.3604 7.67463L38.3574 7.66779L38.3564 7.65998C38.3423 7.58911 38.3289 7.49196 38.3154 7.37092L38.3135 7.36017H38.3145C38.3145 7.22535 38.3218 7.05843 38.335 6.86017H38.334C38.334 6.55788 38.3144 6.28316 38.2754 6.03596V6.03498C38.2362 5.77402 38.1777 5.5405 38.1006 5.33478V5.33381C37.9768 4.98499 37.773 4.63793 37.4873 4.29377L37.3604 4.14728C37.0804 3.84069 36.8737 3.6695 36.7363 3.61213L36.7295 3.6092C36.5652 3.52702 36.4257 3.42963 36.3115 3.31721C36.1361 3.17726 35.7891 3.07247 35.2451 3.01935H35.2441C34.9811 2.99306 34.7601 2.98703 34.5811 2.99982C34.4002 3.01278 34.2781 3.04452 34.2041 3.08674C34.1673 3.11147 34.124 3.14312 34.0742 3.18049L34.0674 3.18537L34.0596 3.18928C34.0122 3.21297 33.9631 3.24328 33.9141 3.2801C33.8566 3.32317 33.7984 3.35988 33.7393 3.38947C33.6951 3.41155 33.6419 3.44578 33.5801 3.49494C33.5548 3.52025 33.5283 3.54772 33.5 3.576L33.3975 3.67853L33.334 3.60041L33.3965 3.67853C33.3332 3.72921 33.2692 3.78629 33.2051 3.85041C33.127 3.9285 33.0631 3.99934 33.0127 4.06232L33.0059 4.07111L32.9346 3.99982L33.0049 4.07111C32.9512 4.1248 32.929 4.15447 32.9238 4.16486L32.9092 4.19416L32.8906 4.20295C32.8833 4.25016 32.8651 4.2949 32.8379 4.33576C32.803 4.38804 32.7535 4.43594 32.6943 4.48029C32.6317 4.53437 32.554 4.6447 32.4639 4.82502L32.4609 4.8299C32.4115 4.91654 32.3673 5.01699 32.3291 5.13166L32.3281 5.13557C32.2886 5.24085 32.2486 5.35269 32.209 5.4715C32.1607 5.63629 32.1275 5.78895 32.1084 5.92951L32.0937 6.06721C32.0678 6.40458 32.0804 6.73561 32.1318 7.05939C32.1961 7.3681 32.3057 7.66439 32.46 7.94807C32.5003 8.01533 32.5402 8.08939 32.5801 8.16877L32.6396 8.26838C32.658 8.29895 32.677 8.3296 32.6953 8.36017C32.7478 8.42583 32.8 8.49178 32.8525 8.55744H32.8516C32.9044 8.61089 32.9577 8.66932 33.0098 8.7342C33.1258 8.85001 33.2482 8.96585 33.377 9.08185L33.5771 9.23322C33.6458 9.28228 33.7161 9.32999 33.7881 9.3758C33.9744 9.48897 34.1254 9.58427 34.2402 9.66193C34.3433 9.73165 34.4216 9.79101 34.4707 9.83674C34.5348 9.87554 34.5891 9.91714 34.6338 9.95978C34.686 9.99894 34.7316 10.0312 34.7695 10.0565L34.8594 10.1102L34.8701 10.116L34.8145 10.2L34.8701 10.117C34.972 10.1849 35.0854 10.2659 35.21 10.3602L35.6182 10.6824L35.624 10.6873H35.623C35.7634 10.821 35.8892 10.9437 36 11.0545L36.2881 11.3524L36.291 11.3563C36.4262 11.5185 36.5419 11.6876 36.6377 11.8641L36.7168 11.9901C36.7916 12.1165 36.8544 12.2472 36.9062 12.3817L36.999 12.6287L37.0713 12.8758V12.8768C37.1954 13.4006 37.1554 13.8654 36.9424 14.2645L36.9434 14.2654C36.7116 14.7144 36.2595 15.0004 35.6152 15.1375L35.6133 15.1385C34.9687 15.2619 34.2203 15.2196 33.3711 15.0174H33.3701C32.7135 14.8566 32.1606 14.6678 31.7129 14.451C31.0329 14.1443 30.543 13.9098 30.2461 13.7479L30.2451 13.7469C30.1505 13.6928 30.0489 13.6324 29.9414 13.5653L29.9365 13.5613C29.8899 13.528 29.8426 13.4951 29.7959 13.4617C29.7493 13.4284 29.7029 13.3945 29.6562 13.3612L29.6504 13.3572C29.5706 13.2907 29.4844 13.2171 29.3916 13.1375C29.3259 13.0849 29.1547 12.9524 28.876 12.7401V12.741C28.586 12.5339 28.3315 12.272 28.1123 11.9569L28.1113 11.9559C27.8959 11.6327 27.7507 11.3308 27.6797 11.0516C27.6498 10.962 27.6348 10.8714 27.6348 10.7801C27.6348 10.6953 27.6412 10.6195 27.6572 10.5555H27.6582C27.6747 10.4765 27.7058 10.4038 27.7539 10.3397L27.7656 10.325L27.7812 10.3153L27.9414 10.2156L27.9551 10.2069L27.9697 10.2029C28.0113 10.1926 28.063 10.1912 28.1104 10.2195C28.1461 10.241 28.1657 10.2734 28.1787 10.3055C28.2208 10.3694 28.2344 10.4525 28.2344 10.5399C28.2344 10.6184 28.2512 10.719 28.2881 10.8436C28.3133 10.9001 28.3431 10.9616 28.3779 11.0281L28.501 11.2498L28.502 11.2528C28.6702 11.5633 28.877 11.8273 29.1211 12.0457L29.3437 12.2371C29.8893 12.6836 30.6191 13.128 31.5361 13.5692C31.9076 13.7416 32.266 13.8938 32.6104 14.0262H32.6094C32.9646 14.1445 33.3061 14.236 33.6338 14.3016H33.6328C33.9736 14.3539 34.3078 14.3797 34.6348 14.3797C34.9253 14.3797 35.1673 14.3665 35.3613 14.3406H35.3623C35.5671 14.315 35.7289 14.2771 35.8506 14.2293C35.9711 14.1689 36.0654 14.0924 36.1348 13.9998C36.205 13.9061 36.2594 13.7854 36.2969 13.6356C36.3684 13.3359 36.2942 12.9353 36.0449 12.4237L36.0439 12.4227C35.9286 12.1792 35.7742 11.9549 35.5811 11.7488L35.5771 11.744C35.3964 11.5244 35.1484 11.2894 34.832 11.0389V11.0379C34.5016 10.7869 34.0712 10.4886 33.54 10.1434C33.1608 9.89951 32.8082 9.61564 32.4834 9.29084C32.3093 9.11672 32.1615 8.96195 32.04 8.82697L32.0332 8.81916C31.924 8.66896 31.8342 8.52377 31.7646 8.38459V8.38361C31.6392 8.14548 31.5302 7.80996 31.4365 7.38166V7.38068C31.3831 7.17971 31.3425 6.99123 31.3154 6.81525L31.3145 6.80744C31.301 6.63237 31.2939 6.47613 31.2939 6.33967V6.33478H31.2949C31.3087 6.07314 31.3761 5.65325 31.4961 5.0799L31.4971 5.076C31.5118 5.01719 31.5337 4.95231 31.5615 4.88264L31.5645 4.8758L31.5684 4.86896C31.6093 4.80066 31.6569 4.72538 31.7109 4.64435C31.7641 4.55153 31.8239 4.45269 31.8896 4.34748L31.8916 4.34357C31.9914 4.19719 32.0676 4.08292 32.1201 4.0008C32.1464 3.95977 32.1667 3.92715 32.1807 3.90314C32.1951 3.87822 32.1991 3.86817 32.1992 3.86799H32.2002C32.2075 3.83054 32.2232 3.79547 32.2412 3.7674C32.2664 3.72803 32.3022 3.68449 32.3457 3.63752C32.4327 3.5436 32.5603 3.42571 32.7266 3.28596C33.0606 2.97861 33.3263 2.76043 33.5205 2.63557C33.779 2.45902 34.0224 2.33995 34.25 2.28303L34.2529 2.28205Z" fill="var(--fill-0, #14307C)" stroke="var(--stroke-0, #14307C)" stroke-width="0.2"/>
<path id="Vector_13" d="M19.948 11.9401L19.952 11.9411C20.0839 11.9599 20.2032 12.057 20.3113 12.193C20.4214 12.3316 20.5329 12.5273 20.6473 12.776C20.8251 13.1427 21.0791 13.4093 21.409 13.5797L21.5555 13.6471L21.5564 13.6481C21.8698 13.7787 22.12 13.8319 22.3113 13.82C22.5119 13.8074 22.9938 13.698 23.7693 13.484C24.3107 13.3237 24.7361 13.2192 25.0428 13.1715C25.1956 13.1478 25.3236 13.1367 25.4236 13.1422C25.5168 13.1475 25.613 13.1681 25.6717 13.2331L25.6746 13.236C25.7211 13.2918 25.7479 13.3575 25.7479 13.4303C25.7478 13.498 25.7232 13.5624 25.6863 13.6237L25.6873 13.6247C25.6866 13.6261 25.6851 13.6272 25.6844 13.6286C25.6836 13.6299 25.6833 13.6321 25.6824 13.6335L25.6814 13.6325C25.6136 13.762 25.4886 13.8666 25.3221 13.9499C25.15 14.0358 24.9747 14.0797 24.7977 14.0797C24.712 14.0798 24.5518 14.1082 24.3084 14.1715C24.0679 14.2341 23.7546 14.3284 23.3689 14.4547L23.367 14.4557L22.1668 14.8161L22.1297 14.8268L22.0945 14.8102L21.2967 14.4313L21.1326 14.3522C20.7606 14.164 20.4624 13.9424 20.242 13.6852L20.2391 13.6813C20.0019 13.3744 19.836 12.9998 19.74 12.5612V12.5592C19.7063 12.3839 19.6939 12.239 19.7146 12.1354C19.7252 12.0828 19.7464 12.029 19.7889 11.9899C19.8232 11.9584 19.8641 11.9434 19.9061 11.9401H19.948ZM26.7596 7.5026C26.8046 7.50168 26.8472 7.50437 26.8846 7.51334C26.921 7.52208 26.9623 7.53898 26.993 7.57389L27.0018 7.58366L27.0008 7.58463C27.0296 7.62791 27.0393 7.68573 27.0428 7.73795C27.0466 7.79488 27.0447 7.8657 27.0379 7.94791L27.0369 7.95963L26.9383 7.9401L27.0359 7.95963C27.0209 8.03479 26.9907 8.1133 26.95 8.19596L26.951 8.19694C26.9187 8.27754 26.8664 8.34209 26.7928 8.38248C26.7908 8.38379 26.7889 8.38512 26.7869 8.38639C26.7855 8.38713 26.7844 8.3886 26.783 8.38932L26.782 8.38834C26.7328 8.41902 26.6797 8.43829 26.6219 8.43912C26.351 8.4521 25.9582 8.51783 25.4402 8.63737C24.9197 8.7575 24.5769 8.86251 24.4021 8.94987L24.4012 8.94889C24.2359 9.03303 23.9417 9.14196 23.5242 9.27311C23.1032 9.40536 22.5512 9.56325 21.8689 9.74674C20.5042 10.1138 18.6146 10.5835 16.201 11.1569C15.6331 11.2905 15.1974 11.3614 14.8992 11.3649C14.7514 11.3666 14.6263 11.352 14.534 11.3131C14.4869 11.2933 14.4441 11.2656 14.4119 11.2262C14.3788 11.1856 14.361 11.1373 14.3582 11.0856L14.3572 11.0797H14.3582C14.3582 11.0286 14.3661 10.9779 14.3826 10.9284L14.3875 10.9137L14.3963 10.902C14.4282 10.8573 14.4848 10.8226 14.5418 10.7936C14.6031 10.7625 14.6832 10.7299 14.7801 10.696C14.9744 10.6278 15.2459 10.5495 15.5936 10.4626C16.2891 10.2754 16.9392 10.1356 17.5428 10.0417L17.5447 10.0407C18.0433 9.97508 19.2027 9.69754 21.0311 9.20377L22.3279 8.83756C23.5412 8.48555 24.5057 8.1747 25.2225 7.90592L25.2254 7.90494C25.7331 7.73127 26.1295 7.61365 26.4119 7.55241C26.5525 7.52193 26.6693 7.50446 26.7596 7.5026ZM22.5447 1.88737C22.6375 1.89277 22.7214 1.91318 22.7879 1.95475L22.7889 1.95377C22.9261 2.03611 23.0127 2.21805 23.0701 2.45084C23.1291 2.69005 23.164 3.01221 23.1775 3.41373C23.2042 3.85331 23.205 4.16998 23.1766 4.35514V4.35612C23.1459 4.54037 23.0564 4.68135 22.8982 4.75162L22.8875 4.75651V4.75553C22.7293 4.8042 22.518 4.9191 22.2508 5.10709C22.0515 5.24736 21.8243 5.42633 21.5691 5.6442L21.3045 5.87467C20.9458 6.19348 20.6773 6.45365 20.4979 6.65592C20.4081 6.75709 20.3421 6.84214 20.2986 6.9108C20.2564 6.97755 20.2411 7.02009 20.2381 7.04264C20.2383 7.0475 20.2389 7.04997 20.2391 7.05045L20.24 7.05143C20.2427 7.05398 20.2549 7.06331 20.2889 7.06901C20.3589 7.08068 20.4784 7.07137 20.6561 7.0319C21.0069 6.95392 21.5404 6.76709 22.2596 6.46744H22.2605C22.7808 6.26069 23.189 6.10463 23.4842 6.00065C23.6317 5.94869 23.7528 5.9091 23.8455 5.88248C23.9334 5.85725 24.008 5.83961 24.0574 5.83951C24.1232 5.83951 24.1847 5.84683 24.2361 5.86588C24.2891 5.88557 24.3384 5.92154 24.3641 5.98014C24.3889 6.03685 24.3836 6.09703 24.367 6.15006C24.3509 6.20149 24.3207 6.2547 24.283 6.31022L24.284 6.31119C24.1514 6.53221 23.9525 6.69313 23.6941 6.79362L23.6854 6.79655C23.5481 6.83577 23.3437 6.90421 23.0721 7.00358L22.0545 7.39323C21.4714 7.62372 20.8802 7.75275 20.282 7.77994C19.9916 7.79343 19.7565 7.77841 19.5818 7.73112C19.4087 7.68424 19.2714 7.59871 19.2225 7.45182V7.44889C19.2047 7.38959 19.2116 7.32515 19.2293 7.26432C19.2473 7.20239 19.279 7.13392 19.3211 7.06022C19.4055 6.91253 19.54 6.73035 19.7215 6.5153L19.7225 6.51432C19.9149 6.29534 20.05 6.12733 20.1297 6.00944C20.1528 5.97519 20.167 5.94453 20.1795 5.92155C20.1607 5.92321 20.1379 5.92353 20.1111 5.92838C20.0087 5.947 19.8622 5.98738 19.6707 6.05338C19.4103 6.14682 19.2039 6.1988 19.0604 6.19498C18.9888 6.19305 18.9139 6.17708 18.8602 6.12662C18.8019 6.0717 18.7893 5.99653 18.7986 5.92643L18.8016 5.90397L18.8143 5.88444C18.8381 5.84863 18.8633 5.80593 18.8885 5.75553C18.903 5.72645 18.9259 5.70171 18.948 5.68131C18.9713 5.65986 19.0003 5.63733 19.033 5.61491C19.0985 5.57009 19.187 5.51896 19.2967 5.46159C19.5168 5.34644 19.8316 5.20165 20.2391 5.02799L20.241 5.02701C20.7692 4.81573 21.1881 4.61162 21.5008 4.41666C21.8138 4.208 22.0368 3.99715 22.1736 3.7858C22.3099 3.57518 22.3777 3.3473 22.3777 3.10026C22.3777 2.95586 22.3712 2.8468 22.3592 2.77116C22.3531 2.73341 22.3461 2.70693 22.3396 2.6901C22.3366 2.68224 22.3338 2.67809 22.3328 2.67643L22.327 2.67057C22.3319 2.67554 22.3321 2.6721 22.3162 2.66862C22.3008 2.66529 22.2768 2.66326 22.242 2.66471C22.1719 2.66763 22.0729 2.68477 21.9422 2.71744H21.9393C21.5228 2.80855 20.9437 3.01882 20.199 3.35123L20.198 3.35026C19.8117 3.53011 19.5154 3.66179 19.3094 3.74284C19.2067 3.78323 19.1236 3.81229 19.0623 3.82877C19.0322 3.83686 19.0029 3.84343 18.9773 3.84537C18.9647 3.84633 18.9489 3.8463 18.9324 3.84342C18.9171 3.84073 18.8899 3.83402 18.867 3.81119C18.8295 3.77372 18.8163 3.71801 18.8094 3.67643C18.8014 3.62866 18.7977 3.56882 18.7977 3.49967C18.7978 3.3933 18.8608 3.29599 18.9471 3.20963C19.0503 3.10643 19.1993 3.00773 19.3885 2.91276L19.5428 2.83073C19.6526 2.77581 19.7753 2.72092 19.9109 2.66666L20.1238 2.58561C20.4187 2.46511 20.7791 2.33157 21.2049 2.18522C21.6137 2.04446 21.9486 1.95214 22.2068 1.9108C22.3359 1.89016 22.4492 1.88182 22.5447 1.88737Z" fill="var(--fill-0, #14307C)" stroke="var(--stroke-0, #14307C)" stroke-width="0.2"/>
<path id="Vector_14" d="M13.2781 7.45291C13.3449 7.46867 13.4055 7.4988 13.45 7.54959H13.451C13.4518 7.55041 13.4521 7.55169 13.4529 7.55252C13.4544 7.55427 13.4564 7.55561 13.4578 7.55741H13.4568C13.5346 7.64125 13.5603 7.77301 13.5604 7.91971C13.5604 7.99712 13.54 8.06933 13.4969 8.13162C13.4542 8.19322 13.3936 8.23899 13.3211 8.27127C13.184 8.33219 12.9419 8.37163 12.6111 8.39823L12.6121 8.3992C12.0633 8.46454 11.3311 8.6616 10.4139 8.99393L10.3973 8.99979H10.3797C10.378 8.99997 10.3697 9.00166 10.3523 9.00662C10.3335 9.01203 10.3085 9.02044 10.2771 9.03299L10.2732 9.03397C10.047 9.11383 9.88454 9.16844 9.78789 9.19608C9.70845 9.21878 9.59764 9.2726 9.45391 9.36405C9.30548 9.4585 9.22113 9.51967 9.19023 9.55057C9.19172 9.54908 9.18861 9.55274 9.17949 9.56717C9.1713 9.58015 9.16089 9.59815 9.14824 9.62186C9.12329 9.66864 9.09034 9.73328 9.05156 9.81717L9.05254 9.81815C8.98689 9.9757 8.95079 10.0939 8.93926 10.1746L8.93828 10.1765C8.92569 10.2522 8.90644 10.435 8.87969 10.7293C8.86655 11.0063 8.86016 11.2434 8.86016 11.4402V12.743C8.83347 13.7572 8.84073 14.4229 8.87969 14.7478L8.9207 14.9783C8.95743 15.1332 9.0122 15.2903 9.08477 15.45L9.20684 15.6912L9.20879 15.6941C9.33638 15.9426 9.43361 16.1548 9.49883 16.3299C9.56307 16.5023 9.60029 16.6478 9.60039 16.7596C9.60039 16.8413 9.59242 16.9149 9.57305 16.9754C9.5536 17.0359 9.5189 17.0943 9.45879 17.1277C9.39776 17.1616 9.33034 17.1585 9.26934 17.1404C9.20918 17.1226 9.14629 17.0873 9.08184 17.0408V17.0398C8.86346 16.893 8.67393 16.6517 8.51055 16.325V16.324C8.31905 15.9674 8.19518 15.5839 8.14043 15.1736V15.1707C8.09981 14.778 8.07989 13.9526 8.07988 12.701L8.06426 11.4607C8.05677 11.104 8.04658 10.8033 8.03496 10.5594C8.02334 10.3154 8.01031 10.1296 7.99492 10.0008C7.98721 9.93621 7.97918 9.8881 7.97148 9.85526C7.96999 9.84889 7.96791 9.84331 7.9666 9.83866C7.95539 9.83507 7.94067 9.8292 7.91973 9.82694C7.88219 9.82291 7.83262 9.82365 7.77031 9.82987C7.64534 9.84236 7.4781 9.87706 7.26738 9.93631L7.26641 9.93533C5.1872 10.5617 3.66964 10.9579 2.7166 11.1189L2.71563 11.118C2.43439 11.1847 2.05534 11.2646 1.57891 11.3572L1.57988 11.3582C1.34639 11.4049 1.16531 11.4402 1.03789 11.4637C0.974373 11.4754 0.923336 11.484 0.885547 11.49C0.861539 11.4938 0.838417 11.4952 0.820117 11.4969C0.595273 11.5496 0.419158 11.5756 0.305469 11.5594L0.29668 11.5574L0.287891 11.5545C0.22756 11.5342 0.177592 11.4966 0.144336 11.4412C0.112232 11.3876 0.100391 11.3245 0.100391 11.2596C0.10049 11.1489 0.137652 11.0509 0.212695 10.9715C0.284639 10.8954 0.385565 10.8417 0.506641 10.8055C0.627237 10.7629 0.879416 10.7016 1.25469 10.6219C1.63243 10.5416 2.14199 10.4421 2.78203 10.3221C4.00533 10.096 5.16843 9.81635 6.27129 9.48416H6.27227C7.51144 9.1244 8.31277 8.89732 8.67461 8.8035H8.67559C9.18992 8.67159 10.0523 8.37979 11.2654 7.92655L11.2664 7.92557C11.7203 7.76536 12.0825 7.64491 12.3514 7.56424C12.6186 7.48409 12.8464 7.44141 13.032 7.44022C13.1244 7.43311 13.2078 7.43637 13.2781 7.45291ZM10.4988 1.02323L10.4998 1.02225L10.5008 1.02323C10.5019 1.02348 10.5036 1.02296 10.5047 1.02323L10.5037 1.0242C10.5554 1.03543 10.6034 1.06077 10.6365 1.10721C10.669 1.15283 10.6804 1.20696 10.6805 1.25955C10.6805 1.36324 10.6254 1.45619 10.5457 1.53592C10.4657 1.61591 10.3509 1.69287 10.2068 1.76834L10.2059 1.76737C9.92998 1.91875 9.38274 2.13575 8.57207 2.41483C8.04637 2.5945 7.63861 2.74497 7.34844 2.86698C7.20331 2.928 7.08905 2.98176 7.00469 3.02713C6.91736 3.07411 6.87176 3.10738 6.8543 3.12674L6.85039 3.13065C6.82492 3.15625 6.8002 3.22005 6.81914 3.36209C6.83747 3.49919 6.89361 3.68445 6.99199 3.92069L7.1248 4.25467C7.23973 4.57108 7.29958 4.83384 7.29961 5.03983C7.29961 5.11549 7.31575 5.1751 7.34258 5.22244C7.38534 5.2742 7.41119 5.27995 7.41973 5.28006C7.41972 5.28004 7.43777 5.27876 7.47734 5.24783C7.5148 5.21855 7.56115 5.17089 7.61699 5.10233C7.72875 4.96503 7.86823 4.75461 8.03398 4.46951C8.1991 4.17883 8.3212 3.93295 8.40215 3.73221C8.48398 3.52921 8.5203 3.38049 8.52031 3.28006C8.52031 3.14086 8.55901 3.00445 8.63262 2.87186L8.63457 2.86893C8.71968 2.72708 8.81711 2.6183 8.93047 2.5535C8.98876 2.52019 9.05212 2.50024 9.11797 2.50565C9.18553 2.51128 9.24383 2.54264 9.29082 2.58963C9.34141 2.64033 9.37324 2.70934 9.39238 2.78592C9.41166 2.86317 9.41973 2.95562 9.41973 3.06033C9.41965 3.13824 9.39296 3.24556 9.34941 3.37283C9.30469 3.50348 9.23835 3.66663 9.15117 3.86112C8.98969 4.25099 8.79512 4.64736 8.56719 5.04959L8.56621 5.04862C8.35345 5.44735 8.17574 5.72616 8.03105 5.87088C7.96534 5.94318 7.92124 6.00251 7.89531 6.04959C7.86787 6.09942 7.86808 6.1225 7.86895 6.12772C7.86987 6.12875 7.87405 6.13412 7.88652 6.13944C7.91334 6.15086 7.96191 6.15993 8.03984 6.15994C8.21416 6.15994 8.49802 6.11541 8.89727 6.02225H8.90117C9.45009 5.91515 9.9402 5.84095 10.3709 5.80057C10.801 5.76026 11.1506 5.75967 11.4158 5.80155C11.547 5.82228 11.6567 5.85254 11.7381 5.89725C11.8203 5.94245 11.887 6.0104 11.8992 6.10721V6.10916C11.9078 6.1868 11.8955 6.2614 11.8553 6.32694C11.8153 6.39183 11.7536 6.43897 11.6805 6.47147L11.6795 6.47049C11.6143 6.50217 11.5178 6.53112 11.3963 6.55741C11.2696 6.5848 11.1084 6.6126 10.9139 6.63944H10.91C8.49895 6.87921 6.76676 7.25176 5.70293 7.75076H5.70098C4.99101 8.07225 4.31992 8.32628 3.68828 8.51444L3.68926 8.51541C3.381 8.60923 3.13381 8.67126 2.95 8.69901C2.85833 8.71284 2.77837 8.71855 2.7127 8.71463C2.65079 8.71093 2.58372 8.69778 2.53496 8.65604L2.5291 8.65116C2.45873 8.58078 2.42073 8.4939 2.42559 8.3953C2.4303 8.3011 2.47349 8.20838 2.53984 8.11991C2.67365 7.92816 2.84804 7.8201 3.06035 7.8201C3.18827 7.82001 3.40716 7.76907 3.72637 7.65604C4.0422 7.54418 4.44566 7.37507 4.9373 7.1492L5.5916 6.82791C5.78185 6.72948 5.94422 6.63984 6.07891 6.55936C6.2135 6.47893 6.31827 6.40796 6.39531 6.34744C6.47421 6.28545 6.51613 6.24006 6.53301 6.21073L6.53691 6.20291H6.53789C6.59304 6.12238 6.62457 5.99016 6.61504 5.78983C6.60557 5.59105 6.5568 5.33747 6.46465 5.02811L6.46367 5.02713C6.2904 4.40067 6.2 3.94165 6.2 3.65994C6.2 3.57847 6.19216 3.52247 6.18047 3.48709C6.16865 3.45163 6.15809 3.45099 6.16289 3.45291L6.15508 3.44998V3.44901C6.16259 3.45276 6.16158 3.45003 6.14043 3.44998C6.12132 3.44998 6.0935 3.4526 6.05645 3.45877C5.98252 3.47109 5.88051 3.49642 5.74883 3.53592L5.7459 3.5369C5.27762 3.66398 4.91394 3.72279 4.66289 3.70487C4.53763 3.69592 4.42789 3.66698 4.34746 3.60623C4.26159 3.54122 4.21953 3.44757 4.21953 3.33963C4.21968 3.20545 4.30295 3.10349 4.42266 3.03006C4.54102 2.95751 4.70978 2.90294 4.9207 2.86209L4.92363 2.86112C5.11487 2.82923 5.45141 2.7335 5.93828 2.5701C6.18069 2.48874 6.45897 2.39103 6.77324 2.27713L7.825 1.88651C8.42437 1.64678 8.89178 1.46594 9.22637 1.34549H9.22734C9.57482 1.22521 9.85104 1.13803 10.0545 1.08377L10.0555 1.0828C10.1635 1.05579 10.2539 1.03684 10.325 1.02616C10.3888 1.01659 10.4512 1.01276 10.4988 1.02323Z" fill="var(--fill-0, #14307C)" stroke="var(--stroke-0, #14307C)" stroke-width="0.2"/>
</g>
</svg>
