<svg width="167" height="26" viewBox="0 0 167 26" fill="none" xmlns="http://www.w3.org/2000/svg">
<path d="M162.041 12.0452C162.216 11.9789 162.383 11.9558 162.506 12.0374H162.505C162.57 12.0701 162.621 12.1253 162.658 12.1926C162.697 12.263 162.725 12.3513 162.746 12.4534C162.833 12.7564 162.815 13.1882 162.708 13.7375C162.614 14.2773 162.464 14.7653 162.261 15.2004L162.262 15.2014C162.167 15.4175 162.075 15.5861 161.984 15.7024C161.897 15.8141 161.792 15.9006 161.67 15.9006C161.637 15.9008 161.583 15.9168 161.503 15.9661C161.424 16.0145 161.329 16.0895 161.219 16.1936L161.21 16.2024L161.209 16.2014C161.069 16.3032 160.867 16.4862 160.601 16.7522L160.596 16.7571L160.59 16.762C160.431 16.8787 160.33 17.1347 160.33 17.5813C160.33 17.8388 160.337 18.0006 160.348 18.0754C160.366 18.1278 160.396 18.1632 160.435 18.1887C160.456 18.1958 160.495 18.2053 160.56 18.2112C160.629 18.2175 160.719 18.2209 160.83 18.2209C161.19 18.2209 161.732 18.0385 162.464 17.6526L162.468 17.6506C163.055 17.3768 163.509 17.22 163.821 17.1917C163.977 17.1775 164.114 17.1932 164.216 17.26C164.324 17.3316 164.37 17.4474 164.37 17.5813C164.37 17.7956 164.224 17.9544 163.996 18.0686L163.997 18.0696C163.789 18.1806 163.267 18.3828 162.443 18.675L162.442 18.6741C162.001 18.841 161.633 18.959 161.337 19.0237C161.045 19.0874 160.81 19.1036 160.645 19.0569V19.0579C160.278 18.9593 159.979 18.7678 159.752 18.4836V18.4827C159.526 18.2136 159.41 17.9123 159.41 17.5813C159.41 17.4572 159.403 17.3638 159.392 17.2991C159.386 17.2668 159.379 17.2448 159.373 17.2307C159.367 17.2159 159.364 17.2164 159.37 17.2209L159.358 17.2122L159.353 17.2043C159.348 17.2024 159.333 17.1973 159.3 17.1956C159.249 17.1929 159.175 17.1985 159.074 17.217L159.075 17.218C158.92 17.2584 158.787 17.2755 158.688 17.2532C158.637 17.2414 158.585 17.2166 158.55 17.1692C158.515 17.1215 158.506 17.0652 158.511 17.012L158.512 17.0051C158.537 16.8471 158.646 16.6817 158.813 16.511C158.983 16.3375 159.225 16.1463 159.534 15.9377L159.538 15.9358L160.081 15.6145L160.088 15.6096C160.684 15.3312 161.079 15.11 161.283 14.9456C161.483 14.7711 161.635 14.546 161.736 14.2668L161.739 14.259C161.8 14.1262 161.845 13.9384 161.871 13.6907V13.6858C161.91 13.4374 161.923 13.225 161.91 13.0481V13.0413L161.907 12.9163C161.906 12.8965 161.902 12.8794 161.9 12.8645C161.896 12.8667 161.891 12.8698 161.886 12.8723C161.833 12.8984 161.759 12.9379 161.665 12.9924C161.477 13.1014 161.21 13.266 160.864 13.4856L160.862 13.4866C160.17 13.9128 159.624 14.259 159.226 14.5247L159.225 14.5237C158.932 14.7233 158.704 14.8573 158.545 14.9153C158.469 14.9429 158.388 14.9612 158.319 14.9426C158.28 14.932 158.244 14.9088 158.22 14.8713C158.197 14.836 158.19 14.7964 158.19 14.761H158.191C158.186 14.7221 158.19 14.6831 158.199 14.6497C158.212 14.6042 158.233 14.5526 158.261 14.4963C158.285 14.4294 158.34 14.3587 158.408 14.2874C158.486 14.2062 158.593 14.1111 158.728 14.0032L158.729 14.0012C158.871 13.8934 159.031 13.7793 159.209 13.6584L159.797 13.2766C160.225 12.9955 160.681 12.7209 161.162 12.4534L161.163 12.4524C161.463 12.2924 161.704 12.1753 161.883 12.1028L162.041 12.0452ZM162.17 3.70142C162.4 3.70142 162.598 3.75897 162.753 3.88306C162.913 4.01097 163.032 4.26467 163.126 4.61157L163.202 4.89478C163.274 5.19568 163.33 5.54834 163.37 5.95142C163.424 6.48678 163.477 7.22823 163.53 8.17505L163.579 9.06372C163.617 9.86278 163.621 10.3942 163.59 10.6526C163.576 10.8234 163.543 10.9655 163.481 11.0676C163.416 11.1767 163.317 11.2414 163.19 11.2415C163.118 11.2415 163.073 11.1896 163.049 11.1526C163.023 11.1123 163.002 11.0593 162.984 10.9993C162.949 10.8776 162.917 10.7009 162.891 10.4729C162.837 10.0152 162.797 9.33184 162.771 8.42505L162.714 7.37036C162.652 6.41055 162.572 5.73655 162.474 5.34497L162.473 5.34302C162.356 4.8245 162.142 4.53009 161.854 4.41431V4.41333C161.718 4.36563 161.609 4.31037 161.54 4.24146C161.504 4.20549 161.475 4.16258 161.463 4.11157C161.451 4.0593 161.458 4.00748 161.479 3.96021L161.48 3.9563L161.525 3.88892C161.578 3.8276 161.652 3.78481 161.738 3.7561C161.853 3.71802 161.998 3.70144 162.17 3.70142ZM158.15 5.52075C158.419 5.52077 158.698 5.61662 158.984 5.79712L159.108 5.87915L159.117 5.88599L159.283 6.0481C159.332 6.10084 159.376 6.15274 159.412 6.20337C159.488 6.30956 159.539 6.43573 159.568 6.57935L159.587 6.68579C159.603 6.8001 159.61 6.93895 159.61 7.10083C159.61 7.76075 159.295 8.43701 158.686 9.1272C158.09 9.8042 157.478 10.1613 156.851 10.1614C156.559 10.1614 156.255 9.99331 155.941 9.6936L155.939 9.69165C155.638 9.3899 155.471 9.08603 155.471 8.78149V8.77661C155.485 8.41687 155.69 7.9049 156.063 7.25122C156.438 6.59537 156.787 6.1402 157.111 5.90063L157.117 5.89575C157.51 5.65206 157.856 5.52075 158.15 5.52075ZM158.17 6.40063C157.474 6.40083 156.892 6.92287 156.443 8.05786C156.352 8.31314 156.295 8.52363 156.27 8.69067C156.244 8.86086 156.253 8.97358 156.282 9.04126C156.309 9.10275 156.365 9.15745 156.471 9.19751C156.578 9.23817 156.73 9.26099 156.931 9.26099C157.082 9.26096 157.219 9.24212 157.342 9.20532C157.465 9.16848 157.581 9.11235 157.692 9.03833C157.809 8.94768 157.946 8.8315 158.103 8.68774C158.737 8.06524 158.955 7.43378 158.793 6.7854L158.792 6.78052C158.753 6.58588 158.694 6.49843 158.641 6.46802C158.609 6.4501 158.557 6.43266 158.476 6.42017C158.396 6.40786 158.294 6.40063 158.17 6.40063Z" fill="#14307C" stroke="#14307C" stroke-width="0.2"/>
<path d="M154.33 9.64136C154.406 9.64136 154.48 9.66026 154.537 9.71167C154.594 9.76303 154.621 9.83408 154.63 9.90991H154.629C154.644 9.98563 154.634 10.0688 154.605 10.1531L154.604 10.158C154.575 10.2305 154.532 10.3153 154.478 10.4109L154.472 10.4197C153.579 11.659 152.934 12.6158 152.536 13.2917L152.535 13.2927C152.463 13.4103 152.423 13.4978 152.407 13.5574C152.403 13.5746 152.402 13.5869 152.401 13.5955C152.415 13.5983 152.434 13.6046 152.461 13.6062C152.511 13.6092 152.579 13.6078 152.663 13.6013C152.849 13.5748 153.112 13.5347 153.453 13.4822C153.728 13.4353 153.956 13.4035 154.136 13.3865C154.313 13.3697 154.453 13.3669 154.547 13.3826C154.651 13.3999 154.733 13.4535 154.789 13.5408H154.79C154.791 13.5422 154.792 13.5442 154.793 13.5457C154.794 13.547 154.795 13.5482 154.796 13.5496H154.795C154.848 13.6247 154.87 13.7181 154.87 13.821C154.87 13.8675 154.861 13.9127 154.848 13.9578C154.843 14.0124 154.815 14.0575 154.781 14.0916C154.761 14.1211 154.737 14.1451 154.705 14.1628L154.706 14.1638C154.704 14.1651 154.701 14.1655 154.699 14.1667C154.698 14.1676 154.697 14.1699 154.695 14.1707L154.694 14.1697C154.648 14.199 154.593 14.2276 154.527 14.2537L154.519 14.2576L154.51 14.2585C154.435 14.2736 154.341 14.2799 154.232 14.28L154.233 14.281C153.917 14.2909 153.543 14.3196 153.112 14.3669L152.663 14.4197C152.357 14.4596 152.122 14.4946 151.958 14.5242C151.876 14.539 151.812 14.5526 151.768 14.5642C151.745 14.57 151.729 14.5748 151.718 14.5789C151.705 14.5837 151.705 14.5848 151.71 14.5808C151.669 14.6117 151.623 14.6619 151.573 14.7361L151.568 14.7439C151.52 14.8044 151.463 14.8921 151.397 15.0095L151.395 15.0154C150.768 15.989 150.193 16.8424 149.672 17.5769C149.418 17.9438 149.222 18.2254 149.081 18.4197C149.011 18.5166 148.954 18.5925 148.911 18.6472C148.89 18.6745 148.872 18.6979 148.856 18.7156C148.843 18.731 148.827 18.7484 148.811 18.7605L148.797 18.7703L148.782 18.7761C148.737 18.7911 148.692 18.8005 148.65 18.8005C148.608 18.8005 148.558 18.7904 148.52 18.7517C148.495 18.7272 148.487 18.6976 148.484 18.6833C148.481 18.666 148.48 18.6473 148.48 18.6306C148.48 18.597 148.484 18.5548 148.491 18.5066L148.493 18.4968L148.523 18.3972C148.562 18.2874 148.626 18.1465 148.711 17.9763C148.826 17.7472 148.983 17.4586 149.184 17.1111L149.187 17.1072C149.426 16.735 149.758 16.1954 150.185 15.489L150.187 15.4861C150.359 15.2203 150.488 15.0126 150.573 14.8621C150.616 14.7866 150.647 14.7266 150.667 14.6824C150.677 14.6606 150.683 14.6437 150.687 14.6316V14.6296C150.682 14.6271 150.677 14.6228 150.667 14.6189C150.647 14.6105 150.619 14.6019 150.582 14.5955L150.444 14.5808H150.271C150.21 14.5808 150.142 14.5868 150.066 14.5994C149.986 14.6128 149.898 14.627 149.805 14.6404C149.711 14.6538 149.611 14.6661 149.504 14.6794C149.414 14.6923 149.31 14.7128 149.192 14.739L149.183 14.741V14.74C149.079 14.7529 148.969 14.7725 148.852 14.7986L148.492 14.8787C148.375 14.9047 148.25 14.937 148.119 14.9763L148.114 14.9783C147.874 15.0384 147.678 15.0819 147.528 15.1091C147.384 15.1354 147.269 15.1491 147.198 15.1404H147.196C147.12 15.1295 147.058 15.0882 147.019 15.0212C146.983 14.9595 146.971 14.8821 146.971 14.8005C146.971 14.7462 146.989 14.689 147.015 14.6335C147.041 14.5766 147.08 14.5133 147.128 14.4441C147.226 14.2912 147.396 14.0743 147.635 13.7957C147.876 13.5144 148.243 13.1067 148.735 12.574C149.309 11.9338 149.77 11.4333 150.118 11.072C150.463 10.7134 150.71 10.4786 150.853 10.3787C150.909 10.3363 150.967 10.3004 151.025 10.2712L151.033 10.2673C151.1 10.2405 151.156 10.22 151.198 10.2058H151.201C151.296 10.1767 151.389 10.165 151.47 10.1902C151.558 10.2178 151.617 10.2832 151.646 10.3689L151.652 10.3904L151.649 10.4138C151.647 10.435 151.639 10.4545 151.633 10.4685C151.626 10.4838 151.617 10.5001 151.607 10.5164C151.587 10.5491 151.56 10.5883 151.525 10.6335C151.457 10.7246 151.356 10.8462 151.226 10.9968C150.964 11.2983 150.577 11.7227 150.063 12.2693C149.537 12.8291 149.142 13.2569 148.88 13.5525C148.749 13.7003 148.651 13.8139 148.587 13.8943C148.559 13.9289 148.54 13.9569 148.525 13.9773C148.543 13.9786 148.564 13.9812 148.59 13.9812C148.674 13.9812 148.782 13.969 148.911 13.9431L148.921 13.9412H148.931C148.99 13.9411 149.064 13.9343 149.153 13.9216C149.249 13.8949 149.357 13.8754 149.476 13.8621L150.198 13.7615C150.413 13.7347 150.614 13.7144 150.803 13.7009H150.807C150.972 13.6943 151.102 13.6844 151.197 13.6716C151.245 13.6653 151.283 13.6582 151.312 13.6511C151.34 13.644 151.354 13.6381 151.358 13.6355L151.365 13.6316C151.37 13.6294 151.385 13.6191 151.407 13.5857L151.413 13.5769L151.42 13.5701C151.452 13.5381 151.479 13.4999 151.501 13.4558L151.505 13.448L151.511 13.4412C151.548 13.391 151.587 13.3334 151.625 13.2693C151.759 13.0418 151.926 12.7679 152.126 12.448L152.127 12.4451C152.34 12.1255 152.546 11.8128 152.746 11.5066L152.748 11.5037C152.962 11.1965 153.162 10.916 153.35 10.6619C153.443 10.5287 153.528 10.4104 153.605 10.3064L153.812 10.0378C153.908 9.9158 153.996 9.82006 154.077 9.75366C154.156 9.68927 154.242 9.64144 154.33 9.64136Z" fill="#14307C" stroke="#14307C" stroke-width="0.2"/>
<path d="M146.566 10.1812C146.566 10.2172 146.556 10.2509 146.543 10.2837C146.538 10.3157 146.522 10.3403 146.505 10.3599L146.506 10.3608C146.505 10.3624 146.502 10.3632 146.501 10.3647C146.499 10.3667 146.499 10.3698 146.497 10.3716L146.496 10.3706C146.438 10.4409 146.344 10.4918 146.23 10.5308L146.122 10.606C146.067 10.6479 145.997 10.7051 145.911 10.7778C145.753 10.9228 145.548 11.1203 145.297 11.3716C145.139 11.5429 144.992 11.6938 144.859 11.8267L144.86 11.8276C144.742 11.9594 144.644 12.0776 144.566 12.1812L144.562 12.186L144.486 12.1216L144.562 12.186C144.485 12.2754 144.428 12.3447 144.39 12.395C144.331 12.5211 144.243 12.644 144.125 12.7632L144.002 12.9419C143.861 13.1675 143.667 13.534 143.416 14.0454L143.414 14.0483C143.295 14.273 143.197 14.4772 143.118 14.6606L143.117 14.6626C143.038 14.8339 142.972 14.9917 142.92 15.1353L142.919 15.1382C142.866 15.2696 142.827 15.3794 142.802 15.4683V15.4692C142.622 16.0862 142.646 16.8062 142.882 17.6333L142.883 17.6343C142.95 17.8744 142.996 18.0565 143.023 18.1792L143.024 18.1812C143.037 18.2444 143.042 18.3044 143.044 18.3599C143.056 18.3963 143.069 18.4328 143.081 18.4692L143.086 18.4849V18.5015C143.086 18.5462 143.083 18.5883 143.073 18.6255C143.064 18.6622 143.047 18.7012 143.017 18.7319L143.016 18.731C142.971 18.7883 142.899 18.8013 142.846 18.8013C142.627 18.8011 142.45 18.6743 142.312 18.4604C142.176 18.2489 142.069 17.9404 141.988 17.5435L141.931 17.2515C141.816 16.5783 141.842 15.9575 142.011 15.3921C142.092 15.1216 142.193 14.845 142.314 14.562L142.315 14.5601C142.449 14.2655 142.596 13.9572 142.757 13.6362L142.758 13.6353C143.08 13.0183 143.403 12.5055 143.728 12.0991C143.78 12.0334 143.818 11.9822 143.843 11.9458L143.846 11.9409C143.865 11.9154 143.878 11.8966 143.886 11.8843C143.887 11.8816 143.889 11.879 143.89 11.8774L143.889 11.8804C143.888 11.8833 143.886 11.8909 143.886 11.9009C143.886 11.8745 143.893 11.8504 143.9 11.8325C143.908 11.8135 143.919 11.7943 143.931 11.7749C143.954 11.7361 143.987 11.6898 144.028 11.6382C144.07 11.5866 144.121 11.527 144.182 11.4595L144.394 11.2319C144.605 11.0003 144.754 10.8214 144.844 10.6938C144.886 10.6339 144.911 10.589 144.925 10.5581L144.845 10.5122C144.725 10.4648 144.598 10.4409 144.466 10.4409C144.418 10.4409 144.345 10.4337 144.252 10.4204C144.156 10.4067 144.041 10.3858 143.906 10.3589C143.775 10.3327 143.617 10.3063 143.432 10.2798H143.427V10.2788C143.295 10.2525 143.177 10.2332 143.073 10.2202L143.062 10.2192V10.2183C142.957 10.1921 142.867 10.1724 142.79 10.1597C142.713 10.1469 142.652 10.1411 142.606 10.1411H142.59L142.574 10.1362C142.561 10.1318 142.55 10.1289 142.541 10.1265C142.54 10.1278 142.539 10.1298 142.537 10.1313L142.508 10.1606H142.489C142.486 10.1635 142.481 10.1666 142.477 10.1714C142.464 10.1838 142.447 10.2009 142.424 10.2241C142.41 10.2491 142.394 10.277 142.374 10.3071C142.358 10.3513 142.337 10.3953 142.31 10.437C142.051 10.8451 141.433 11.6102 140.462 12.7271L140.454 12.7349C140.358 12.8238 140.27 12.8948 140.189 12.9458C140.111 12.9959 140.032 13.0312 139.958 13.0405L139.946 13.0415C139.902 13.0415 139.86 13.0297 139.821 13.0103C139.79 12.9946 139.759 12.9756 139.735 12.9517L139.724 12.9399L139.717 12.9263C139.71 12.913 139.703 12.8995 139.696 12.8862C139.69 12.873 139.683 12.8594 139.677 12.8462L139.671 12.8325C139.653 12.7801 139.646 12.7219 139.646 12.6606C139.647 12.5188 139.693 12.3813 139.78 12.2495C139.823 12.1786 139.885 12.0887 139.966 11.981L139.971 11.9751L140.134 11.7974C140.194 11.7333 140.261 11.664 140.335 11.5903C141.159 10.6998 141.725 9.98055 142.039 9.43115L142.068 9.38135H142.096C142.164 9.28696 142.223 9.21156 142.273 9.15771C142.302 9.12701 142.331 9.10014 142.358 9.08057C142.383 9.06317 142.421 9.04159 142.466 9.0415C142.496 9.0415 142.521 9.0529 142.542 9.06592C142.568 9.0696 142.594 9.07554 142.618 9.08643L142.737 9.12646C142.785 9.14242 142.832 9.16536 142.877 9.19482C143.042 9.29272 143.316 9.38395 143.706 9.46338C144.094 9.54234 144.591 9.60847 145.195 9.66162H145.194L146.433 9.7417L146.47 9.74365L146.497 9.77002L146.517 9.79053L146.542 9.81592L146.546 9.85205L146.565 10.0718L146.566 10.0815V10.1812Z" fill="#14307C" stroke="#14307C" stroke-width="0.2"/>
<path d="M137.151 9.84131C137.288 9.84132 137.418 9.84806 137.542 9.86182L137.974 9.92236C138.373 9.99352 138.68 10.0973 138.886 10.2378H138.887C139.026 10.3306 139.126 10.4616 139.186 10.6265H139.185C139.244 10.7775 139.265 10.9593 139.251 11.1675C139.234 11.7241 138.784 12.295 137.97 12.8823L137.969 12.8813C137.823 12.9873 137.712 13.0737 137.635 13.1382C137.596 13.1703 137.567 13.1961 137.547 13.2163C137.524 13.2389 137.519 13.2478 137.521 13.2456L137.514 13.2603L137.491 13.2827C137.491 13.2917 137.494 13.3024 137.501 13.3159C137.508 13.3292 137.514 13.3427 137.521 13.356C137.527 13.368 137.533 13.3801 137.539 13.3921L137.585 13.4595C137.62 13.5017 137.664 13.5382 137.718 13.5679L137.806 13.6069L137.807 13.6079C138.128 13.7302 138.336 14.0239 138.447 14.4526L138.489 14.6138C138.575 14.9886 138.582 15.3643 138.51 15.7397L138.509 15.7407C138.466 15.9542 138.375 16.1781 138.237 16.4116C138.1 16.6454 137.915 16.891 137.686 17.1479L137.684 17.1499C137.455 17.3918 137.226 17.6138 136.997 17.8159L136.995 17.8179C136.766 18.0066 136.528 18.1558 136.283 18.2661C135.706 18.6181 135.097 18.6379 134.468 18.3306C133.921 18.0703 133.504 17.8537 133.22 17.6812C133.078 17.5951 132.966 17.5182 132.887 17.4507C132.847 17.4169 132.813 17.3839 132.787 17.3511C132.762 17.3195 132.74 17.2811 132.732 17.2378L132.731 17.229C132.717 17.0591 132.731 16.9048 132.776 16.769L132.777 16.7661C132.803 16.6971 132.869 16.6817 132.907 16.6802C132.946 16.6787 132.988 16.688 133.029 16.7007C133.114 16.7268 133.229 16.7782 133.372 16.8521C133.657 16.9996 134.071 17.2449 134.611 17.5874C134.798 17.636 134.985 17.6606 135.171 17.6606C135.363 17.6606 135.542 17.6408 135.706 17.603C135.869 17.5525 136.033 17.4772 136.198 17.3755C136.812 16.997 137.258 16.5299 137.542 15.9751L137.543 15.9741C137.84 15.4182 137.868 14.9625 137.663 14.5894V14.5884C137.597 14.4671 137.431 14.3186 137.141 14.147L137.136 14.144C136.861 13.9607 136.648 13.8814 136.491 13.8813C136.413 13.8813 136.291 13.9039 136.12 13.9565L136.113 13.9585C135.946 13.9972 135.736 14.0623 135.485 14.1548H135.484C135.07 14.3017 134.656 14.4421 134.242 14.5757L134.229 14.5806V14.5796C134.082 14.6064 133.954 14.6255 133.845 14.6392C133.753 14.6523 133.675 14.6664 133.61 14.6792C133.573 14.6866 133.538 14.6909 133.506 14.6909C133.477 14.6909 133.445 14.686 133.414 14.6724V14.6733L133.412 14.6724C133.41 14.6715 133.408 14.6713 133.406 14.6704V14.6685C133.338 14.6373 133.301 14.5749 133.284 14.5112C133.267 14.4455 133.264 14.3641 133.271 14.2729C133.285 14.0938 133.327 13.9428 133.405 13.8296L133.449 13.7671C133.499 13.7059 133.567 13.647 133.648 13.5894C133.758 13.5117 133.899 13.4325 134.068 13.3511C134.405 13.1897 134.683 13.0908 134.898 13.062H134.899C135.133 13.0345 135.446 13.0271 135.835 13.0405H136.069C136.14 13.0293 136.202 13.0221 136.256 13.021C136.316 13.0088 136.362 12.9967 136.396 12.9858C136.517 12.9367 136.774 12.7787 137.174 12.4985C137.583 12.2079 137.89 11.9453 138.096 11.7104C138.303 11.4735 138.4 11.2749 138.411 11.1138V11.022L138.4 11.0112C138.376 10.9872 138.357 10.9566 138.342 10.9253C138.345 10.931 138.345 10.9282 138.331 10.9175C138.318 10.9075 138.298 10.8944 138.27 10.8794C138.213 10.8494 138.13 10.814 138.02 10.7749C137.872 10.7258 137.696 10.7007 137.491 10.7007H137.484C137.283 10.6872 137.055 10.6669 136.801 10.6401V10.6392C136.647 10.6264 136.506 10.6276 136.381 10.6401C136.252 10.6531 136.144 10.6723 136.059 10.6968L136.048 10.6997C135.986 10.7101 135.928 10.7357 135.874 10.7788L135.873 10.7778C135.788 10.8473 135.695 10.8921 135.595 10.9009C135.494 10.9096 135.395 10.8825 135.301 10.8276L135.3 10.8267L135.12 10.7144L135.109 10.6987C135.052 10.6187 135.051 10.5266 135.09 10.4399C135.126 10.3597 135.195 10.2814 135.286 10.2046L135.29 10.2017C135.366 10.1425 135.489 10.0931 135.644 10.0493C135.802 10.0046 136.006 9.96266 136.255 9.92236L136.493 9.88721C136.571 9.87706 136.647 9.8686 136.722 9.86182C136.871 9.84824 137.015 9.84131 137.151 9.84131Z" fill="#14307C" stroke="#14307C" stroke-width="0.2"/>
<path d="M125.018 5.6814C125.178 5.68142 125.306 5.76466 125.4 5.90601C125.449 5.97884 125.491 6.08395 125.528 6.21362C125.566 6.34501 125.602 6.5087 125.636 6.70386C125.703 7.0957 125.751 7.5864 125.777 8.17456L125.837 9.22632L125.897 10.6169V10.6189C125.911 11.3248 125.944 12.5046 125.997 14.158C126.05 15.796 126.084 16.8557 126.098 17.3367L126.129 18.3035C126.153 19.2063 126.152 19.9178 126.127 20.4363C126.11 20.7808 126.083 21.0451 126.043 21.2253C126.023 21.3146 125.998 21.3902 125.966 21.446C125.936 21.4989 125.883 21.5611 125.798 21.5613C125.722 21.5613 125.657 21.5223 125.606 21.4714C125.587 21.4517 125.574 21.4276 125.564 21.407C125.555 21.385 125.546 21.3592 125.538 21.3318C125.523 21.2768 125.508 21.2054 125.495 21.1199C125.469 20.9483 125.445 20.709 125.423 20.4031C125.401 20.0969 125.382 19.7222 125.364 19.2791L125.317 17.7429C125.257 14.1102 125.181 11.3531 125.088 9.47144C125.041 8.53053 124.99 7.80954 124.936 7.30835C124.908 7.05749 124.88 6.86346 124.852 6.72534C124.837 6.65629 124.823 6.60346 124.81 6.56519C124.803 6.54622 124.797 6.53205 124.792 6.52222C124.789 6.51556 124.786 6.51188 124.785 6.5105C124.626 6.36411 124.537 6.1934 124.537 6.00073C124.537 5.9361 124.56 5.87641 124.606 5.82983C124.653 5.78283 124.71 5.7525 124.772 5.73315V5.7312C124.844 5.69564 124.927 5.6814 125.018 5.6814ZM121.758 9.14917L121.756 9.14819C121.743 9.31791 121.737 9.53545 121.737 9.80054V9.81128C121.722 9.96453 121.644 10.1669 121.517 10.4119C121.452 10.536 121.373 10.674 121.28 10.825L120.96 11.3171C120.794 11.563 120.665 11.7615 120.573 11.9128C120.479 12.0674 120.428 12.165 120.412 12.2126C120.4 12.2484 120.402 12.2802 120.418 12.3132C120.426 12.3313 120.44 12.3515 120.459 12.3728L120.536 12.4402L120.541 12.4431C120.73 12.5967 121.084 12.7085 121.627 12.7615L121.634 12.7625C122.211 12.8564 122.627 13.0137 122.851 13.2527L122.969 13.3904C123.003 13.4339 123.032 13.4755 123.055 13.5144C123.099 13.5893 123.131 13.6693 123.122 13.7468C123.112 13.8366 123.053 13.8963 122.977 13.9275C122.906 13.9563 122.815 13.9642 122.714 13.9607H122.703V13.9597C122.507 13.9317 122.233 13.8563 121.886 13.7361C121.554 13.6232 121.277 13.5389 121.058 13.4832C120.836 13.4269 120.677 13.4011 120.577 13.4011C120.309 13.4011 120.089 13.3429 119.992 13.1726C119.949 13.1029 119.905 13.0761 119.865 13.0691C119.822 13.0616 119.758 13.0732 119.669 13.1267L119.665 13.1296C119.576 13.1774 119.437 13.2793 119.248 13.4421C119.06 13.6036 118.826 13.82 118.547 14.0925V14.0935C118.034 14.5866 117.641 14.9154 117.373 15.072C117.305 15.1116 117.242 15.1419 117.186 15.1609C117.13 15.1794 117.072 15.1896 117.018 15.1804C116.958 15.1703 116.908 15.1379 116.876 15.0847C116.847 15.0361 116.838 14.978 116.838 14.9207C116.838 14.8964 116.845 14.8761 116.85 14.865C116.855 14.8521 116.863 14.8396 116.87 14.8279C116.885 14.8043 116.905 14.7763 116.93 14.7458C116.979 14.6846 117.051 14.6032 117.145 14.5027C117.333 14.3011 117.614 14.0169 117.987 13.6501L117.989 13.6482C118.611 13.0662 119.234 12.3637 119.857 11.5408C120.17 11.1288 120.403 10.7918 120.557 10.53C120.633 10.3993 120.689 10.2885 120.726 10.198C120.763 10.1059 120.777 10.0417 120.777 10.0007C120.777 9.92716 120.771 9.87784 120.764 9.84741C120.749 9.85094 120.731 9.8553 120.71 9.86206C120.658 9.87848 120.59 9.9047 120.505 9.93921C120.419 9.97375 120.318 10.0169 120.2 10.0691L119.8 10.2517C119.33 10.4731 118.935 10.6171 118.617 10.6794C118.303 10.741 118.042 10.7264 117.861 10.6033V10.6013C117.772 10.5501 117.737 10.4593 117.737 10.3611C117.737 10.225 117.836 10.1284 117.961 10.0623C118.088 9.99504 118.27 9.94268 118.5 9.9021H118.502C118.914 9.83769 119.484 9.63627 120.215 9.29077C120.675 9.06406 121.03 8.91909 121.275 8.86304C121.396 8.83559 121.504 8.82596 121.589 8.84937C121.634 8.86177 121.676 8.88515 121.708 8.92358C121.74 8.9624 121.755 9.00866 121.758 9.05542V9.14917Z" fill="#14307C" stroke="#14307C" stroke-width="0.2"/>
<path d="M108.532 15.686C108.605 15.6827 108.668 15.7179 108.719 15.7632C108.769 15.8084 108.817 15.8719 108.862 15.9487L108.944 16.104C108.996 16.2175 109.041 16.3504 109.08 16.5015L109.135 16.7417L109.137 16.7505L109.16 16.939C109.224 17.3718 109.351 17.7688 109.543 18.1304L109.665 18.3188C109.704 18.3731 109.743 18.4187 109.779 18.4565C109.853 18.5329 109.914 18.571 109.963 18.5845L109.971 18.5864V18.5874C110.029 18.6086 110.154 18.6277 110.358 18.6411C110.559 18.6542 110.825 18.6606 111.157 18.6606C111.794 18.6606 112.524 18.6275 113.349 18.561H113.35C113.721 18.5345 113.977 18.5271 114.107 18.5415L114.118 18.5425V18.5435C114.239 18.5703 114.328 18.6392 114.386 18.7407L114.433 18.8521L114.435 18.8599L114.437 18.8687C114.446 18.9484 114.426 19.0235 114.374 19.0854C114.325 19.1441 114.253 19.1854 114.171 19.2153L114.17 19.2144C114.021 19.2728 113.723 19.3278 113.289 19.3804H113.286C112.144 19.4872 111.237 19.5244 110.566 19.4907C110.232 19.4739 109.953 19.4389 109.732 19.3853C109.514 19.3321 109.34 19.2577 109.229 19.1538L109.226 19.1519V19.1509C109.125 19.0498 109.02 18.8668 108.91 18.6167C108.798 18.3624 108.676 18.0266 108.542 17.6118L108.541 17.6108C108.407 17.1894 108.315 16.845 108.264 16.5796C108.238 16.4471 108.222 16.3322 108.218 16.2358C108.216 16.1884 108.216 16.1434 108.22 16.1021L108.243 15.9849H108.244C108.276 15.9034 108.312 15.8338 108.355 15.7827C108.399 15.7311 108.458 15.6894 108.532 15.686ZM111.59 4.44189C111.821 4.47266 111.996 4.5912 112.104 4.79346L112.106 4.79639C112.261 5.10536 112.416 5.74683 112.575 6.70361L112.689 7.38721C112.787 8.03275 112.837 8.56439 112.837 8.98096V9.58057C112.837 9.64276 112.853 9.72109 112.888 9.81689C112.912 9.85882 112.932 9.88965 112.947 9.91064C112.953 9.91827 112.957 9.92416 112.961 9.92822C112.996 9.93679 113.073 9.94854 113.204 9.96045C113.354 9.96025 113.484 9.9538 113.596 9.94189C113.718 9.91468 113.934 9.87591 114.239 9.82275H114.24C114.319 9.80965 114.373 9.79644 114.405 9.78564L114.415 9.78271L114.425 9.78174C114.851 9.72847 115.16 9.707 115.345 9.72119H115.344C115.543 9.72249 115.709 9.78039 115.825 9.90869H115.826C115.921 9.9997 115.99 10.0925 116.019 10.186C116.049 10.2884 116.028 10.386 115.955 10.4644C115.889 10.5355 115.785 10.5846 115.661 10.6206C115.535 10.6573 115.376 10.6837 115.186 10.7007H115.185C115.008 10.7143 114.798 10.7212 114.557 10.7212H113.837C113.691 10.7212 113.537 10.7511 113.373 10.814C113.217 10.8792 113.131 10.9383 113.095 10.9839C113.055 11.0342 113 11.1565 112.933 11.3706L112.932 11.3726C112.868 11.564 112.822 11.7618 112.796 11.9663L112.797 11.9673C112.784 12.1671 112.763 12.474 112.736 12.8872C112.696 13.5016 112.65 13.9806 112.596 14.3218C112.569 14.4919 112.54 14.6305 112.508 14.7358C112.492 14.7886 112.474 14.8358 112.455 14.8745C112.437 14.9119 112.414 14.9481 112.384 14.9751L112.383 14.9761C112.324 15.0275 112.262 15.0681 112.196 15.0835C112.125 15.1003 112.054 15.0859 111.997 15.0376C111.945 14.9938 111.911 14.9281 111.888 14.8569C111.864 14.7843 111.847 14.695 111.837 14.5913L111.836 14.5806H111.837C111.837 14.3208 111.871 13.9092 111.938 13.3491L112.042 12.4253C112.072 12.1361 112.097 11.8651 112.117 11.6128C112.117 11.5001 112.108 11.4184 112.095 11.3647C112.079 11.3031 112.065 11.308 112.08 11.314L112.067 11.3091L112.057 11.3013C112.065 11.3072 112.065 11.3029 112.042 11.3003C112.021 11.2979 111.991 11.2972 111.949 11.3003C111.866 11.3065 111.749 11.3259 111.598 11.3589L111.595 11.3599V11.3589C111.374 11.3991 111.197 11.4132 111.077 11.3892C111.017 11.3771 110.955 11.3525 110.914 11.3013C110.869 11.2451 110.865 11.1774 110.88 11.1167L110.883 11.1069L110.918 11.0347C110.96 10.9637 111.025 10.8962 111.104 10.8325C111.212 10.7466 111.356 10.6601 111.532 10.5718L111.534 10.5708L112.112 10.2983L112.017 8.74756C111.95 7.69717 111.834 6.87106 111.67 6.26709C111.505 5.65913 111.297 5.29852 111.064 5.146C110.993 5.11309 110.932 5.08128 110.885 5.04834C110.837 5.0151 110.792 4.97451 110.768 4.92529L110.764 4.91846C110.738 4.85354 110.747 4.78748 110.781 4.72998C110.813 4.67723 110.864 4.6333 110.924 4.59619L110.926 4.59521C111.142 4.46563 111.364 4.41185 111.59 4.44189ZM106.647 9.84131C107.032 9.88404 107.385 10.062 107.704 10.3667C108.029 10.6633 108.197 11.0166 108.197 11.4214C108.197 11.8657 108.002 12.3017 107.632 12.7271C107.264 13.1496 106.839 13.4767 106.36 13.7095L106.361 13.7104C105.895 13.9434 105.42 14.061 104.937 14.061H104.934C104.455 14.0469 104.099 13.868 103.891 13.5112L103.89 13.5103C103.762 13.2835 103.712 13.0643 103.76 12.8589L103.761 12.8511H103.762C103.792 12.7521 103.866 12.6066 103.976 12.4204C104.087 12.2313 104.24 11.9921 104.434 11.7046C104.693 11.2854 104.918 10.9449 105.105 10.6831C105.293 10.4225 105.448 10.2344 105.57 10.1265L105.579 10.1187L105.637 10.2007L105.58 10.1187C105.906 9.89223 106.263 9.79867 106.647 9.84131ZM106.497 10.5405C106.437 10.5405 106.341 10.5773 106.201 10.6812C106.065 10.7823 105.902 10.9371 105.711 11.1479C105.329 11.5696 105.006 12.0103 104.743 12.4702C104.611 12.7007 104.532 12.8817 104.499 13.0151C104.465 13.1522 104.487 13.2077 104.507 13.229C104.55 13.2665 104.642 13.2951 104.812 13.2856C104.98 13.2762 105.205 13.2306 105.488 13.145C106.053 12.9742 106.5 12.7525 106.834 12.4829C107.209 12.1722 107.41 11.8589 107.458 11.5454C107.482 11.3821 107.463 11.2405 107.406 11.1177C107.349 10.9944 107.249 10.8823 107.102 10.7837H107.101C106.854 10.6152 106.654 10.5406 106.497 10.5405ZM108.805 7.16162L108.818 7.1626L108.797 7.26025L108.818 7.16357C108.96 7.19506 109.069 7.27034 109.125 7.396H109.126L109.127 7.39893C109.127 7.39988 109.128 7.40089 109.129 7.40186H109.128C109.184 7.51992 109.158 7.63989 109.083 7.74951L109.084 7.75049C109.083 7.75196 109.081 7.75293 109.08 7.75439C109.079 7.75574 109.079 7.75794 109.078 7.75928L109.077 7.7583C109.005 7.87787 108.886 7.94899 108.736 7.979L108.727 7.98096H108.714C108.712 7.9811 108.709 7.98156 108.705 7.98193C108.698 7.98275 108.687 7.98391 108.675 7.98584C108.65 7.98969 108.618 7.99626 108.578 8.00439C108.497 8.02074 108.386 8.04541 108.245 8.07861C107.963 8.14503 107.562 8.24421 107.042 8.37744C106.074 8.62444 105.309 8.78576 104.75 8.85986C104.471 8.89688 104.239 8.91274 104.058 8.90576C103.886 8.89914 103.743 8.87112 103.647 8.80713C103.614 8.79443 103.578 8.77539 103.556 8.73779C103.527 8.6905 103.53 8.63872 103.54 8.59717L103.542 8.58936L103.545 8.58154C103.577 8.50673 103.645 8.44701 103.725 8.39795C103.807 8.34764 103.915 8.30087 104.045 8.25635C104.305 8.16757 104.668 8.08339 105.134 8.00342L106.703 7.62842C107.102 7.5321 107.377 7.46419 107.53 7.42432L107.984 7.30322C108.121 7.26872 108.242 7.24028 108.347 7.21826C108.501 7.18597 108.627 7.16537 108.722 7.16064L108.805 7.16162ZM104.1 4.81982L104.221 4.84424L104.229 4.84619L104.514 4.92236L104.766 4.97412C104.851 4.99461 104.938 5.01822 105.026 5.04541H105.025C105.208 5.08456 105.371 5.12317 105.517 5.1626C105.805 5.223 106.046 5.28474 106.237 5.34619C106.379 5.39187 106.499 5.43814 106.591 5.48779L106.674 5.53857L106.68 5.54248L106.685 5.54736C106.781 5.63725 106.855 5.72377 106.896 5.80615C106.938 5.89009 106.953 5.98468 106.903 6.0708L106.9 6.07666C106.849 6.15384 106.76 6.18315 106.671 6.19092C106.58 6.19882 106.467 6.1862 106.336 6.15869V6.15771C106.308 6.15546 106.282 6.14952 106.256 6.13916L104.779 5.81299C104.415 5.72933 104.177 5.67044 104.067 5.63623C103.95 5.59951 103.851 5.54516 103.782 5.46729C103.711 5.3875 103.677 5.29012 103.677 5.18115C103.677 5.10936 103.684 5.04403 103.702 4.98975C103.72 4.93618 103.752 4.88275 103.809 4.85303C103.862 4.82188 103.927 4.81104 103.992 4.81104C104.026 4.81106 104.062 4.81428 104.1 4.81982Z" fill="#14307C" stroke="#14307C" stroke-width="0.2"/>
<path d="M101.901 7.80664C101.976 7.81635 102.037 7.86597 102.085 7.92188C102.135 7.97988 102.184 8.05952 102.232 8.15625L102.233 8.1582C102.328 8.35695 102.405 8.60009 102.466 8.88574L102.522 9.18555L102.547 9.38086C102.603 9.91118 102.649 10.9658 102.684 12.5381L102.717 13.873C102.744 15.1912 102.753 16.4608 102.743 17.6816C102.736 18.4887 102.722 19.0961 102.698 19.502C102.687 19.7044 102.673 19.86 102.656 19.9658C102.648 20.0177 102.638 20.0626 102.626 20.0967C102.62 20.1131 102.611 20.1333 102.598 20.1514C102.585 20.168 102.555 20.201 102.504 20.2012C102.356 20.2012 102.267 20.0758 102.215 19.9365C102.16 19.7897 102.124 19.578 102.104 19.3086C102.063 18.7708 102.044 17.5534 102.044 15.6611C102.044 13.0758 101.95 11.2234 101.765 10.0986C101.664 9.55105 101.6 9.11266 101.569 8.78516C101.554 8.62151 101.547 8.4832 101.55 8.37207C101.551 8.31791 101.555 8.26774 101.562 8.22266L101.591 8.10352C101.622 8.01723 101.659 7.94372 101.704 7.8916C101.752 7.83684 101.819 7.79593 101.901 7.80664ZM95.0762 9.50195L95.085 9.50293L95.0928 9.50586C95.22 9.54501 95.3005 9.64667 95.3438 9.78027C95.3861 9.91118 95.3965 10.0829 95.3828 10.2881C95.3551 10.6898 95.2314 11.1284 95.0146 11.6025L95.0127 11.6055C94.5129 12.605 93.7447 13.5941 92.7119 14.5732L92.7109 14.5742C92.4498 14.8153 92.2373 14.9882 92.0752 15.0869C91.9952 15.1356 91.9203 15.1711 91.8535 15.1846C91.7855 15.1982 91.7049 15.1914 91.6484 15.127L91.6377 15.1152L91.6318 15.1006C91.608 15.045 91.6163 14.9853 91.6318 14.9365C91.648 14.886 91.6767 14.8308 91.7139 14.7725C91.7887 14.6549 91.9089 14.5078 92.0703 14.333L92.0723 14.3311C92.6686 13.7214 93.1707 13.1124 93.5801 12.5049L93.5811 12.5039C94.0067 11.8921 94.2581 11.4237 94.3467 11.0947C94.4061 10.8502 94.447 10.6638 94.4697 10.5342C94.4785 10.4838 94.4831 10.4431 94.4863 10.4121C94.4429 10.4156 94.3822 10.4242 94.3027 10.4395C94.1331 10.4721 93.8886 10.5307 93.5693 10.6172C93.2481 10.7042 92.9904 10.7625 92.7979 10.79C92.7017 10.8038 92.6187 10.8105 92.5508 10.8086C92.4865 10.8068 92.4202 10.797 92.3701 10.7656L92.3691 10.7646C92.2854 10.71 92.2137 10.6409 92.1934 10.5508C92.1712 10.4526 92.2168 10.3671 92.2832 10.3008C92.3487 10.2353 92.4462 10.175 92.5684 10.1182C92.6922 10.0606 92.8483 10.0028 93.0342 9.94531C93.2095 9.89138 93.4045 9.83783 93.6191 9.78418H93.6201C94.0406 9.68407 94.3708 9.61052 94.6094 9.56348C94.7285 9.53999 94.8262 9.52209 94.9014 9.51172C94.937 9.50681 94.9704 9.50292 95 9.50098L95.0762 9.50195ZM98.123 11.1211C98.123 11.2165 98.1314 11.2863 98.1445 11.334C98.1536 11.3667 98.164 11.3825 98.1699 11.3896L98.1709 11.3906C98.1779 11.3919 98.1877 11.3929 98.2002 11.3936C98.2252 11.3949 98.2585 11.3947 98.3008 11.3916C98.3857 11.3853 98.5004 11.3691 98.6455 11.3428L98.6514 11.3418L98.9385 11.293C99.1969 11.2353 99.3711 11.1522 99.4727 11.0508L99.4775 11.0449L99.4834 11.041C99.5409 10.9979 99.5932 10.9209 99.6328 10.7959C99.6724 10.6712 99.6966 10.506 99.7031 10.2979C99.7147 9.91556 99.6634 9.66608 99.5713 9.52344L99.5293 9.46875C99.4571 9.40202 99.4042 9.32633 99.3818 9.24121C99.3583 9.15128 99.3716 9.06162 99.4141 8.97656L99.417 8.96973L99.4219 8.96387C99.4717 8.89269 99.523 8.83372 99.5771 8.79199C99.6316 8.75008 99.6948 8.7207 99.7637 8.7207C99.9377 8.72077 100.077 8.81147 100.178 8.9668C100.276 9.11768 100.342 9.33434 100.383 9.60645C100.464 10.1491 100.497 11.3108 100.483 13.082V13.085C100.457 13.8252 100.423 14.3231 100.382 14.5723C100.368 14.6907 100.344 14.7928 100.3 14.8672C100.253 14.946 100.18 15.001 100.083 15.001C99.9898 15.0008 99.9169 14.9516 99.8662 14.8779C99.8181 14.8079 99.7867 14.7119 99.7656 14.5996C99.7236 14.3757 99.7031 13.9393 99.7031 13.3008C99.7031 12.7678 99.7 12.3688 99.6934 12.1035C99.6904 11.9846 99.6858 11.8938 99.6816 11.8301L98.7529 12.1172C98.5369 12.1959 98.3616 12.2668 98.2266 12.3311C98.0888 12.3967 97.9993 12.4524 97.9502 12.4961C97.8553 12.5805 97.7737 12.7465 97.7217 13.0195C97.6798 13.3751 97.5751 13.6808 97.4062 13.9346L97.4072 13.9355C97.3311 14.0532 97.2503 14.1447 97.1621 14.1934C97.1165 14.2185 97.0662 14.2337 97.0137 14.2324C96.9608 14.231 96.9116 14.2135 96.8682 14.1846V14.1836C96.8008 14.1431 96.7556 14.0825 96.7363 14.0059C96.7175 13.9306 96.724 13.8454 96.7461 13.7568L96.749 13.7471L96.7891 13.6211C96.885 13.28 97.0041 12.6057 97.1445 11.5879L97.2285 10.8594L96.7188 10.9395V10.9404C96.4494 10.9808 96.2309 10.9778 96.083 10.9121C96.0085 10.879 95.9389 10.823 95.9248 10.7314C95.9118 10.6466 95.9529 10.5668 96.0049 10.5C96.1145 10.3461 96.3127 10.2111 96.582 10.0898C96.845 9.96192 97.0723 9.87982 97.2617 9.84766C97.4487 9.8159 97.6141 9.83094 97.7383 9.91797H97.7393C97.8672 10.0034 97.9542 10.1567 98.0137 10.3525C98.0737 10.5504 98.1095 10.8065 98.123 11.1172L98.124 11.1211H98.123Z" fill="#14307C" stroke="#14307C" stroke-width="0.2"/>
<path d="M86.2871 15.561C86.2896 15.561 86.2925 15.561 86.2949 15.561C86.2972 15.5613 86.2995 15.5617 86.3018 15.562H86.3008C86.3766 15.5654 86.4496 15.5969 86.5186 15.644C86.5887 15.692 86.6602 15.7601 86.7334 15.8452L86.8086 15.9165C86.9749 16.0861 87.0609 16.277 87.0469 16.4878C87.0394 16.5996 87.0036 16.7585 86.9434 16.9595C86.8826 17.1622 86.7941 17.4139 86.6807 17.7144C86.5943 17.9534 86.5294 18.1475 86.4834 18.2954C86.438 18.4412 86.4146 18.5368 86.4082 18.5874C86.4107 18.6599 86.4552 18.7447 86.585 18.8394C86.6594 18.8926 86.7209 18.9493 86.7578 19.0103C86.7968 19.0748 86.8119 19.151 86.7793 19.2261C86.7496 19.2943 86.6883 19.3434 86.6201 19.3804C86.5501 19.4183 86.4598 19.4503 86.3525 19.478L86.3496 19.479C86.2267 19.5063 86.0708 19.5323 85.8838 19.5591C85.4983 19.6366 85.1244 19.7918 84.7617 20.0249L84.7598 20.0269H84.7588C84.5018 20.1824 84.2762 20.2889 84.084 20.3423C83.9021 20.3928 83.7384 20.3968 83.6035 20.3374V20.3384C83.5669 20.3292 83.5278 20.3124 83.4971 20.2817C83.4638 20.2484 83.4473 20.2054 83.4473 20.1606C83.4474 20.0808 83.4911 19.999 83.5469 19.9224C83.6044 19.8433 83.6871 19.7535 83.793 19.6538C83.8489 19.5851 83.8887 19.5269 83.9141 19.479C83.9403 19.4293 83.9472 19.3981 83.9473 19.3813C83.9473 19.3742 83.9426 19.3493 83.915 19.3003C83.8893 19.2545 83.8489 19.1972 83.792 19.1274C83.6853 19.0267 83.6011 18.9311 83.543 18.8403C83.484 18.7482 83.4473 18.6539 83.4473 18.561C83.4472 18.5104 83.4286 18.4387 83.3789 18.3423C83.3297 18.2469 83.2537 18.1337 83.1494 18.0034L83.1484 18.0024C82.9041 17.6901 82.7434 17.3917 82.6719 17.1079L82.6709 17.1089C82.644 17.0148 82.6251 16.9393 82.6143 16.8853C82.609 16.8589 82.6047 16.8339 82.6035 16.813C82.6029 16.8028 82.6035 16.7895 82.6055 16.7759C82.6069 16.766 82.6115 16.7357 82.6367 16.7104L82.667 16.688C82.6981 16.6717 82.7307 16.6721 82.751 16.6743C82.7801 16.6776 82.8098 16.6871 82.8369 16.6987C82.8921 16.7224 82.9615 16.7636 83.043 16.8179L83.0449 16.8188C83.1578 16.8979 83.2596 16.9148 83.3584 16.8853L83.3613 16.8843C83.4885 16.8495 83.6951 16.7332 83.9883 16.52L83.9932 16.5171L84.3428 16.3032C84.697 16.0983 85.0667 15.9198 85.4512 15.7681L85.4561 15.7661L85.7559 15.6704C85.8455 15.6433 85.9247 15.6211 85.9932 15.604C86.0614 15.5869 86.1206 15.5742 86.1699 15.5669C86.2115 15.5607 86.2522 15.5581 86.2871 15.561ZM85.9229 16.479C85.8738 16.4841 85.8098 16.4948 85.7295 16.5132C85.575 16.5486 85.3733 16.6093 85.123 16.6948L84.8828 16.7974C84.6556 16.9062 84.4667 17.0325 84.3154 17.1743C84.1133 17.3639 84.0275 17.5392 84.0273 17.7007C84.0273 17.7513 84.0448 17.8444 84.0879 17.9868C84.13 18.126 84.1936 18.3044 84.2793 18.522C84.3722 18.7408 84.4485 18.9017 84.5088 19.0063C84.5391 19.059 84.5633 19.0935 84.5811 19.1138C84.5827 19.1156 84.5846 19.1172 84.5859 19.1187C84.6958 19.1128 84.8292 19.0564 84.9883 18.9243C85.1555 18.7855 85.3418 18.5733 85.5459 18.2837V18.2827C85.9691 17.6875 86.1679 17.2092 86.168 16.8413C86.168 16.7077 86.1494 16.6163 86.1221 16.5591C86.097 16.5069 86.0662 16.4857 86.0293 16.479H85.9229ZM85.7852 4.08154C85.8967 4.04304 86.0217 4.04766 86.1543 4.08447C86.428 4.16051 86.629 4.35161 86.7588 4.64014H86.7578C86.9245 4.96215 87.0733 5.50652 87.2061 6.26318L87.2939 6.81104C87.3695 7.34218 87.4072 7.82575 87.4072 8.26123V8.94189L87.9902 8.84229H87.9922C88.1672 8.81536 88.7352 8.74136 89.6934 8.62158C89.9342 8.58813 90.1288 8.56639 90.2754 8.55615C90.3486 8.55104 90.4114 8.5494 90.4629 8.55029C90.5106 8.55113 90.5552 8.55445 90.5908 8.56396C90.6751 8.58503 90.7389 8.63937 90.7773 8.71631C90.8137 8.78914 90.8271 8.8801 90.8271 8.98096C90.8271 9.07794 90.8106 9.16654 90.7695 9.23975C90.7269 9.31551 90.6618 9.36843 90.5791 9.396C90.5052 9.42061 90.383 9.43584 90.2236 9.4458C90.0608 9.45598 89.8486 9.46142 89.5879 9.46143C88.8447 9.46143 88.2908 9.52789 87.9199 9.65576L87.916 9.65674C87.7869 9.69549 87.6861 9.73695 87.6113 9.77881C87.5382 9.8198 87.4962 9.85826 87.4746 9.89111C87.4565 9.92993 87.4391 9.995 87.4268 10.0933C87.4141 10.1943 87.4072 10.3234 87.4072 10.481V10.4839C87.3805 11.4713 87.3369 12.2264 87.2764 12.7476C87.2462 13.0075 87.2121 13.2129 87.1719 13.3608C87.1518 13.4346 87.1293 13.4985 87.1035 13.5483C87.0792 13.5953 87.0441 13.6444 86.9922 13.6704L86.9844 13.6743C86.8862 13.7135 86.787 13.7013 86.6963 13.647L86.6885 13.6421L86.6816 13.6362C86.6499 13.6085 86.6301 13.57 86.6172 13.5356C86.6035 13.4993 86.5929 13.4556 86.584 13.4067C86.5661 13.3084 86.5546 13.177 86.5479 13.0151C86.5343 12.6908 86.5407 12.2304 86.5674 11.6362V11.6333C86.6139 11.0415 86.6303 10.5774 86.6172 10.2397C86.6106 10.0711 86.5974 9.93646 86.5771 9.83447C86.5563 9.72958 86.5305 9.67074 86.5088 9.64307L86.5078 9.64111C86.4658 9.5851 86.4318 9.5331 86.4082 9.48584C86.3854 9.44024 86.3672 9.39057 86.3672 9.34131C86.3672 9.28341 86.3928 9.23364 86.4268 9.19482C86.4593 9.15762 86.5035 9.12524 86.5537 9.09619C86.5603 9.09186 86.5805 9.07189 86.6006 9.00732C86.6198 8.94541 86.6345 8.85729 86.6426 8.73975C86.6587 8.50448 86.6482 8.16877 86.6084 7.73096L86.543 7.14111C86.4722 6.58529 86.3844 6.12997 86.2812 5.77393C86.142 5.29327 85.9802 5.01694 85.8125 4.90479L85.8086 4.90186C85.684 4.81184 85.5888 4.72036 85.5352 4.62549C85.4789 4.52592 85.4665 4.41807 85.5176 4.31592L85.5205 4.31104C85.5837 4.20065 85.6719 4.12076 85.7852 4.08154ZM81.0479 9.44092C81.3305 9.44095 81.5591 9.47428 81.7246 9.54834H81.7256C81.9077 9.62422 82.0944 9.78549 82.2852 10.0171H82.2842C82.5956 10.3908 82.7517 10.7795 82.7373 11.1802C82.7246 11.5296 82.5827 11.8762 82.3223 12.2192L82.2031 12.3667C81.6461 13.0053 81.0228 13.4187 80.333 13.5981H80.3311C79.6401 13.764 79.0633 13.6489 78.6201 13.2349C78.4758 13.1048 78.3755 12.9566 78.3262 12.7896C78.2768 12.6224 78.2805 12.4433 78.3311 12.2554C78.418 11.9207 78.6731 11.4852 79.084 10.9526L79.2695 10.7183C79.5033 10.4244 79.7014 10.188 79.8633 10.0093C80.0236 9.83222 80.1541 9.70626 80.251 9.63916C80.4476 9.50307 80.7175 9.44092 81.0479 9.44092ZM81.0557 10.1802C80.7381 10.1436 80.4997 10.2343 80.3242 10.4448C79.9245 10.9244 79.6331 11.2897 79.4482 11.5405C79.278 11.7896 79.1553 12.0024 79.0791 12.1802C79.0416 12.2677 79.025 12.3359 79.0225 12.3862C79.0202 12.4321 79.0299 12.4581 79.042 12.4741C79.1112 12.5421 79.2244 12.6211 79.3877 12.7095C79.6911 12.843 80.057 12.8413 80.4941 12.687L80.4951 12.686C80.9438 12.5322 81.3359 12.2631 81.6719 11.8755L81.6738 11.8735C81.8391 11.6951 81.9629 11.5463 82.0459 11.4282C82.132 11.3057 82.1641 11.2293 82.168 11.1909C82.1718 11.1454 82.1562 11.0746 82.1035 10.9722C82.0513 10.8708 81.9682 10.7478 81.8506 10.604L81.8477 10.6021C81.6523 10.3456 81.3926 10.2059 81.0605 10.1812L81.0557 10.1802ZM83.4873 6.95654C83.5466 6.95966 83.6012 6.96792 83.6465 6.98291C83.6476 6.98313 83.6493 6.98365 83.6504 6.98389C83.6552 6.98553 83.6605 6.98597 83.665 6.98779L83.6641 6.98877C83.7068 7.00004 83.7483 7.01988 83.7793 7.05713C83.8146 7.09953 83.8271 7.15079 83.8271 7.20068C83.8271 7.32046 83.7509 7.41898 83.6475 7.49658C83.5424 7.57529 83.3915 7.64735 83.2012 7.71533L83.1992 7.71631C82.8324 7.83859 82.1396 7.99887 81.127 8.19873L81.126 8.19971C80.02 8.41289 79.2473 8.53392 78.8135 8.56104H78.6602C78.5168 8.5565 78.3964 8.5374 78.3037 8.49854C78.2407 8.47209 78.1857 8.43425 78.1465 8.38232C78.1064 8.32926 78.0879 8.26697 78.0879 8.20068C78.0881 8.04966 78.2115 7.95212 78.3584 7.88916C78.5117 7.82351 78.7329 7.77536 79.0156 7.7417H79.0166C79.3922 7.70216 79.9341 7.61003 80.6426 7.46533L81.4062 7.30322C81.8595 7.1966 82.234 7.11668 82.5293 7.06299C82.824 7.00941 83.0619 6.97514 83.2402 6.96143L83.4873 6.95654ZM78.7588 4.62158C78.9172 4.60726 79.2608 4.62818 79.7773 4.68115H79.7764C80.527 4.747 81.0312 4.82074 81.2744 4.90479H81.2754C81.3976 4.94073 81.5005 4.99226 81.5732 5.06494C81.6486 5.14032 81.6875 5.23473 81.6875 5.34131C81.6874 5.4548 81.6372 5.54798 81.542 5.60986C81.4536 5.66729 81.3328 5.69366 81.1924 5.70068L81.1875 5.70166V5.70068C80.924 5.70068 80.4088 5.63255 79.6504 5.49951C79.275 5.43248 78.9857 5.35958 78.7891 5.27881C78.6914 5.23867 78.6102 5.19409 78.5518 5.14307C78.493 5.09166 78.4473 5.02379 78.4473 4.94092C78.4473 4.85572 78.4719 4.77566 78.5322 4.71533C78.5912 4.65655 78.6719 4.62948 78.7588 4.62158Z" fill="#14307C" stroke="#14307C" stroke-width="0.2"/>
<path d="M66.3936 7.3562C66.4845 7.29875 66.5879 7.29428 66.6934 7.32495L66.6943 7.32397C66.9171 7.37537 67.0569 7.55487 67.1289 7.81421C67.1485 7.88493 67.1619 7.99733 67.1719 8.14331C67.182 8.29161 67.189 8.48223 67.1924 8.7146C67.1991 9.17985 67.1919 9.81662 67.1719 10.6238C67.1718 10.7467 67.1657 10.9021 67.1523 11.0886C67.1391 11.4995 67.1258 11.7933 67.1123 11.9685C67.1127 12.1211 67.1256 12.2938 67.1514 12.4871L67.1895 12.697C67.1955 12.7211 67.2007 12.7379 67.2051 12.7488C67.2056 12.7502 67.2056 12.7517 67.2061 12.7527C67.2114 12.7563 67.2246 12.764 67.249 12.7751C67.2801 12.7892 67.3228 12.8054 67.3779 12.824C67.4973 12.8471 67.5998 12.8458 67.6875 12.824C67.8001 12.7825 67.9934 12.7228 68.2646 12.6453L68.2725 12.6423C68.339 12.629 68.3973 12.6181 68.4473 12.6082C68.4971 12.5982 68.539 12.5894 68.5723 12.5828C69.2537 12.3961 69.8455 12.2886 70.3467 12.2615C70.6025 12.248 70.8073 12.254 70.9561 12.283C71.0303 12.2975 71.0966 12.3189 71.1494 12.3503C71.2017 12.3815 71.2455 12.4259 71.2656 12.4871H71.2666C71.3005 12.5804 71.3011 12.6775 71.2451 12.7615C71.1929 12.8397 71.1033 12.8863 71.001 12.9158C70.8206 12.9712 70.3344 13.0734 69.5508 13.2195H69.5488C68.7771 13.3459 68.1888 13.4735 67.7822 13.6013C67.5787 13.6653 67.4245 13.7288 67.3164 13.7898C67.2079 13.851 67.1614 13.9015 67.1465 13.9353C67.1259 14.0127 67.1174 14.1354 67.127 14.3103C67.1318 14.3993 67.1414 14.5 67.1553 14.6121L67.2109 14.9841V14.9851L67.2812 15.49C67.3418 15.9966 67.3721 16.5071 67.3721 17.0212C67.3721 17.3285 67.3652 17.5651 67.3516 17.7292V17.7302C67.3379 17.8807 67.3097 18.006 67.2578 18.0925C67.2033 18.1833 67.1199 18.241 67.0117 18.241C66.9094 18.2408 66.8187 18.1895 66.7412 18.1121L66.7334 18.1042L66.7344 18.1033C66.6679 18.0202 66.6318 17.9253 66.6318 17.821C66.6318 17.7742 66.6265 17.6992 66.6133 17.5935C66.6066 17.5402 66.5994 17.4867 66.5928 17.4333C66.5861 17.3801 66.5799 17.3265 66.5732 17.2732C66.56 17.1672 66.5464 17.0679 66.5332 16.9753L66.5322 16.9705C66.4917 16.5382 66.4655 15.0127 66.4521 12.4031L66.4082 10.6228C66.3924 10.1092 66.3757 9.67522 66.3574 9.32104C66.3391 8.96695 66.3194 8.69383 66.2988 8.50073C66.2885 8.404 66.2779 8.32845 66.2676 8.27417C66.2624 8.24714 66.2583 8.22637 66.2539 8.21167C66.2511 8.20233 66.249 8.19722 66.248 8.19507H66.2471C66.1212 8.01856 66.1079 7.82101 66.2012 7.6189C66.2449 7.50506 66.3062 7.41139 66.3936 7.3562ZM61.2324 13.1687H61.2314C61.2117 13.4127 61.2131 13.5959 61.2314 13.7214C61.2406 13.7843 61.2529 13.8282 61.2666 13.8562C61.2762 13.8758 61.2856 13.883 61.29 13.8865C61.3099 13.8903 61.348 13.8941 61.4111 13.8914C61.4825 13.8882 61.5766 13.8785 61.6934 13.8621C61.9266 13.8292 62.2456 13.7698 62.6514 13.6833L62.6621 13.6814H62.6719C62.6946 13.6814 62.7153 13.6801 62.7334 13.6775L62.792 13.6628L63.127 13.6003C63.4529 13.5448 63.7533 13.5109 64.0283 13.5007C64.3906 13.4873 64.6783 13.5134 64.8828 13.5857H64.8838C64.9914 13.6216 65.0831 13.672 65.1406 13.7439C65.2019 13.8207 65.2141 13.9115 65.1875 14.0046L65.1895 14.0056C65.1489 14.1671 64.9941 14.2616 64.7998 14.3171L64.7949 14.3181C64.61 14.3608 64.2391 14.3869 63.6943 14.4001L63.6953 14.4011C62.8011 14.4278 62.2121 14.5083 61.9111 14.6335L61.9043 14.6365V14.6355C61.5407 14.7567 61.2411 14.821 61.0117 14.821C60.9044 14.8212 60.7342 14.8624 60.4932 14.9548C60.2547 15.0463 59.9568 15.1842 59.5986 15.3699L59.5957 15.3708C59.1277 15.5982 58.759 15.7495 58.4932 15.822C58.3611 15.858 58.2469 15.8769 58.1553 15.8718C58.0648 15.8668 57.9714 15.8369 57.9238 15.7488L57.9229 15.7458C57.8994 15.6989 57.8926 15.642 57.8926 15.5857C57.8926 15.5277 57.9002 15.4599 57.9141 15.3835C57.9502 15.0871 58.192 14.895 58.5635 14.7849H58.5654C58.8806 14.6966 59.2817 14.4719 59.7715 14.1013C59.9956 13.9166 60.1398 13.7773 60.2119 13.6814L60.2129 13.6794C60.2962 13.5723 60.3413 13.4634 60.3525 13.3513L60.3535 13.3435L60.3691 13.2205C60.3809 13.0758 60.3821 12.865 60.3721 12.5847V11.4343C60.3759 11.3804 60.3875 11.3262 60.4141 11.282C60.4433 11.2333 60.4899 11.1996 60.5498 11.1921C60.6035 11.1854 60.6567 11.2012 60.7031 11.2234C60.7268 11.2347 60.7513 11.2488 60.7764 11.2654L60.8545 11.323L60.8633 11.3298L60.9355 11.408C61.0051 11.4883 61.0659 11.5768 61.1191 11.6726C61.196 11.811 61.2397 12.0013 61.2568 12.2341C61.2739 12.4661 61.2652 12.7488 61.2324 13.0808V13.1687ZM63.085 7.75659L63.1367 7.7644L63.1465 7.76636V7.76733C63.3146 7.82927 63.4228 7.98361 63.4873 8.19116C63.5519 8.39934 63.579 8.67872 63.5723 9.02319C63.5587 9.70131 63.4164 10.5172 63.1484 11.4685C63.0612 11.7903 62.972 12.0387 62.8799 12.2087C62.8339 12.2936 62.7849 12.3645 62.7305 12.4148C62.6754 12.4656 62.6086 12.5007 62.5322 12.5007C62.4072 12.5007 62.2897 12.4604 62.2363 12.3425C62.1896 12.2386 62.2096 12.1053 62.2578 11.9675C62.4026 11.4531 62.5209 10.9254 62.6133 10.3845L62.6729 9.98608C62.7223 9.6077 62.7422 9.28699 62.7324 9.02417C62.7258 8.84061 62.7058 8.71302 62.6777 8.63452C62.6639 8.59594 62.6505 8.57619 62.6416 8.56714C62.635 8.5605 62.6325 8.56128 62.6318 8.56128C62.6087 8.56135 62.5647 8.56803 62.4941 8.58667C62.4253 8.60488 62.3374 8.63281 62.2305 8.67065C62.0167 8.74631 61.7302 8.86047 61.3711 9.01343H61.3701C61.0084 9.1608 60.6982 9.27277 60.4404 9.34741C60.1842 9.42158 59.9732 9.46064 59.8125 9.46069C59.6802 9.46069 59.5712 9.45283 59.4912 9.43335C59.4514 9.42365 59.4122 9.40988 59.3799 9.38843C59.3466 9.36622 59.3138 9.33116 59.3037 9.28101C59.294 9.23223 59.3099 9.1882 59.3291 9.15503C59.3483 9.12194 59.3759 9.09078 59.4072 9.06226C59.4703 9.00491 59.5638 8.94166 59.6826 8.87378L59.6875 8.87183C60.013 8.70909 60.5112 8.50764 61.1787 8.26733L61.1807 8.26636C61.7346 8.0795 62.1723 7.9433 62.4922 7.85913C62.6518 7.81714 62.784 7.7878 62.8877 7.77124C62.9616 7.75945 63.0295 7.75274 63.085 7.75659Z" fill="#14307C" stroke="#14307C" stroke-width="0.2"/>
<path d="M50.1064 8.03564C50.2296 7.96172 50.3606 7.94586 50.4863 8.00635C50.5747 8.04888 50.6523 8.12468 50.7207 8.2251L50.7861 8.3335L50.7881 8.3374C50.8905 8.54964 50.9533 8.90025 50.9834 9.37451C51.0137 9.85278 51.0119 10.4702 50.9785 11.2251C50.9117 12.7362 50.7443 14.1617 50.4766 15.5005C50.4103 15.8583 50.3491 16.17 50.2959 16.436L50.2969 16.437C50.2569 16.6901 50.224 16.8969 50.1973 17.0571C50.1782 17.2314 50.1781 17.3592 50.1924 17.4448C50.2001 17.4911 50.2103 17.5167 50.2188 17.5308L50.2334 17.5474L50.2373 17.5493C50.2373 17.5493 50.2383 17.549 50.2393 17.5493C50.2403 17.5497 50.2421 17.5507 50.2441 17.5513C50.2482 17.5523 50.2537 17.5531 50.2607 17.5542C50.2757 17.5566 50.2959 17.5589 50.3213 17.5601C50.3723 17.5623 50.4408 17.561 50.5273 17.5562C50.6998 17.5464 50.9379 17.5216 51.2422 17.4819C52.5364 17.2751 53.5953 17.13 54.418 17.0464C55.2379 16.9631 55.8309 16.9406 56.1895 16.9819H56.1885C56.3523 16.9957 56.5044 17.0298 56.6445 17.0845C56.7989 17.1266 56.9307 17.184 57.0361 17.2593C57.2318 17.3991 57.3534 17.5719 57.2939 17.77L57.292 17.7778L57.2881 17.7856C57.2651 17.8317 57.2286 17.8671 57.1826 17.8901C57.154 17.9099 57.1209 17.9257 57.0898 17.936C57.0374 17.9535 56.9793 17.9614 56.918 17.9614V17.9604C56.8323 17.9668 56.7017 17.9654 56.5273 17.9556L55.8486 17.9009C55.446 17.8619 54.7813 17.8877 53.8486 17.981C52.9176 18.0741 52.0396 18.1922 51.2158 18.3384L51.2168 18.3394C50.785 18.4191 50.445 18.4949 50.1963 18.5669C50.072 18.6029 49.972 18.6376 49.8955 18.6704C49.8173 18.7039 49.7695 18.7332 49.7451 18.7554L49.7354 18.7642L49.7227 18.771C49.684 18.7903 49.6423 18.8012 49.5986 18.8013C49.5665 18.8013 49.5376 18.7878 49.5234 18.7808C49.5049 18.7715 49.4844 18.759 49.4629 18.7446C49.4166 18.7137 49.371 18.6752 49.3271 18.6313C49.2483 18.5524 49.1932 18.4571 49.1621 18.3481L49.1582 18.3354L49.1592 18.3345C49.145 18.2351 49.1387 18.1169 49.1387 17.981V17.9702L49.1729 17.728C49.2211 17.4385 49.3107 17.008 49.4404 16.439C49.5334 16.0139 49.6205 15.5754 49.7002 15.1235C49.7798 14.659 49.8463 14.1945 49.8994 13.73V13.7271C49.9658 13.2492 50.025 12.7579 50.0781 12.2534L50.1182 11.7114C50.1967 10.4884 50.1824 9.55142 50.0791 8.89697V8.896C50.0328 8.67006 50.0065 8.48845 50.0029 8.354C50.0012 8.28655 50.0055 8.22563 50.0176 8.17529C50.0291 8.12725 50.0517 8.07152 50.1025 8.0376L50.1064 8.03564Z" fill="#14307C" stroke="#14307C" stroke-width="0.2"/>
<path d="M43.9512 8.02124C43.3824 8.03464 42.7205 8.43875 41.9658 9.28589C41.2282 10.1289 40.6953 11.0706 40.3662 12.1101C40.2072 12.6213 40.1416 13.242 40.1719 13.9734L40.1914 14.2937V14.2947C40.2178 14.7295 40.263 15.1104 40.3281 15.4373C40.3869 15.6821 40.4601 15.9 40.5469 16.0906L40.6387 16.2722L40.6406 16.2751C40.98 16.9408 41.4133 17.4256 41.9395 17.7341H41.9404C42.0303 17.7855 42.1139 17.8305 42.1904 17.8689C42.2783 17.9066 42.3504 17.9304 42.4072 17.9421C42.4841 17.955 42.5893 17.968 42.7217 17.9812H43.2314C43.6559 17.9812 43.9403 17.967 44.0918 17.9421C44.2388 17.9045 44.4546 17.8105 44.7432 17.6531L44.7461 17.6511C45.1924 17.428 45.5497 17.1805 45.8203 16.9099L45.8213 16.9089C46.0643 16.6723 46.3356 16.2893 46.6338 15.7527C46.9313 15.2172 47.2529 14.534 47.5986 13.7029L47.5996 13.7009L47.9697 12.8621L47.8916 11.8289V11.825C47.865 11.1072 47.7917 10.5858 47.6768 10.2537L47.6748 10.2468C47.5707 9.85652 47.4075 9.47868 47.1855 9.11304L47.1846 9.11206C46.9604 8.72963 46.7649 8.49372 46.5996 8.38647C46.4064 8.28382 46.1932 8.19374 45.96 8.11597L45.957 8.11499C45.8326 8.06913 45.7369 8.04087 45.6689 8.02905C45.6508 8.02591 45.6355 8.02602 45.623 8.02515C45.6261 8.04339 45.6301 8.06688 45.6377 8.09546C45.6502 8.14236 45.6691 8.19944 45.6934 8.26733L45.7842 8.50366V8.50464C45.8522 8.68144 45.9016 8.84075 45.9297 8.9812H45.9287C45.9559 9.10401 45.9716 9.21098 45.9717 9.30054H45.9707C45.9767 9.36633 45.9719 9.43591 45.9346 9.49194C45.8906 9.55762 45.82 9.58081 45.751 9.58081C45.6466 9.58069 45.553 9.51091 45.4727 9.42358C45.3884 9.33197 45.299 9.19941 45.2041 9.03003L45.2021 9.02612C45.0366 8.69495 44.8088 8.44246 44.5195 8.26636L44.5176 8.26538C44.3742 8.17411 44.2539 8.11161 44.1562 8.07495L44.1514 8.073V8.07202C44.065 8.03507 43.999 8.02124 43.9512 8.02124ZM48.7314 12.1208C48.7314 12.1891 48.7236 12.2571 48.7109 12.325V12.4812C48.7109 12.5427 48.7036 12.604 48.6885 12.6648L48.6865 12.6726C48.6742 12.7096 48.6613 12.7539 48.6484 12.8054C48.631 12.9397 48.5678 13.1523 48.4648 13.4353V13.4363C48.3577 13.7174 48.2102 14.0852 48.0234 14.5388L48.0225 14.5417C47.6235 15.4461 47.3087 16.1077 47.0801 16.5251C47.0591 16.5671 47.037 16.6094 47.0127 16.6511L46.9297 16.7839C46.8762 16.8508 46.8146 16.9229 46.748 17.0027L46.749 17.0037C46.6952 17.0709 46.6353 17.145 46.5684 17.2253L46.5674 17.2244C46.5093 17.2968 46.439 17.3686 46.3555 17.4382L46.1543 17.6394L46.0908 17.5613L46.1533 17.6394C46.0868 17.6926 46.0206 17.7463 45.9541 17.7996C45.8843 17.8554 45.8139 17.9045 45.7432 17.947C45.6754 17.9877 45.6125 18.0206 45.5566 18.0486L45.5576 18.0496C45.3049 18.1826 45.0845 18.2949 44.8975 18.3884L44.8984 18.3894C44.7242 18.4832 44.5751 18.5574 44.4521 18.6121C44.4005 18.6379 44.3554 18.6609 44.3164 18.6804C44.2764 18.7004 44.2425 18.7169 44.2158 18.7302L44.2041 18.7361L44.1904 18.739C44.1171 18.7536 43.9919 18.7677 43.8193 18.781C43.6424 18.7946 43.4121 18.8005 43.1309 18.8005C42.6794 18.8005 42.3699 18.7881 42.2129 18.7595V18.7585C42.0578 18.7407 41.8711 18.6592 41.6582 18.5261V18.5251C41.1507 18.2229 40.6947 17.7724 40.2891 17.1775L40.2881 17.1765C39.8944 16.5792 39.6414 15.9525 39.5322 15.2976V15.2947C39.5188 15.201 39.5055 15.1007 39.4922 14.9939V14.9919C39.4788 14.8716 39.4655 14.7447 39.4521 14.6111L39.4512 14.6013L39.4463 14.406C39.443 14.341 39.4381 14.2757 39.4316 14.2107L39.4307 14.2009H39.4316V13.741C39.4316 12.8777 39.5595 12.0924 39.8174 11.3865C39.9398 11.0333 40.1093 10.6746 40.3252 10.3103L40.3262 10.3074C40.5549 9.94414 40.8171 9.57471 41.1123 9.19897C41.5128 8.69172 41.8701 8.30634 42.1836 8.04663C42.3362 7.90793 42.5031 7.79031 42.6836 7.69312C42.8749 7.58398 43.0731 7.49501 43.2783 7.42651C43.8244 7.23656 44.2901 7.19576 44.6631 7.32593L44.8174 7.39233L44.8203 7.39331H44.8193C44.8593 7.41554 44.9333 7.43476 45.0518 7.44116C45.1672 7.44739 45.3155 7.4411 45.498 7.42163L45.6475 7.40601C45.995 7.38149 46.3189 7.44288 46.6162 7.59155H46.6152C46.9522 7.74656 47.2567 8.00453 47.5303 8.36011C47.8043 8.7163 48.049 9.17176 48.2646 9.72437H48.2637C48.3591 9.95631 48.4412 10.2141 48.5088 10.4978C48.576 10.78 48.6222 11.0562 48.6494 11.3259C48.6899 11.5956 48.7179 11.8592 48.7314 12.116V12.1208Z" fill="#14307C" stroke="#14307C" stroke-width="0.2"/>
<path d="M34.2529 5.88306C35.5419 5.59952 36.7248 5.99104 37.7949 7.0354L38.0078 7.25317L38.0088 7.25415C38.3999 7.68574 38.6682 8.10272 38.8076 8.50513C38.9603 8.90758 39.0342 9.43509 39.0342 10.0813C39.0342 10.5357 39.0129 10.8832 38.9678 11.1194C38.9454 11.2365 38.9156 11.3346 38.875 11.4055C38.8346 11.476 38.7699 11.5411 38.6748 11.5413H38.6621L38.6504 11.5383C38.5105 11.5034 38.4114 11.4118 38.3604 11.2756L38.3574 11.2688L38.3564 11.261C38.3423 11.1901 38.3289 11.093 38.3154 10.9719L38.3135 10.9612H38.3145C38.3145 10.8264 38.3218 10.6594 38.335 10.4612H38.334C38.334 10.1589 38.3144 9.88417 38.2754 9.63696V9.63599C38.2362 9.37502 38.1777 9.1415 38.1006 8.93579V8.93481C37.9768 8.58599 37.773 8.23894 37.4873 7.89478L37.3604 7.74829C37.0804 7.4417 36.8737 7.27051 36.7363 7.21313L36.7295 7.21021C36.5652 7.12803 36.4257 7.03064 36.3115 6.91821C36.1361 6.77827 35.7891 6.67347 35.2451 6.62036H35.2441C34.9811 6.59407 34.7601 6.58804 34.5811 6.60083C34.4002 6.61379 34.2781 6.64552 34.2041 6.68774C34.1673 6.71248 34.124 6.74413 34.0742 6.78149L34.0674 6.78638L34.0596 6.79028C34.0122 6.81397 33.9631 6.84429 33.9141 6.8811C33.8566 6.92418 33.7984 6.96089 33.7393 6.99048C33.6951 7.01255 33.6419 7.04679 33.5801 7.09595C33.5279 7.1481 33.47 7.20702 33.4053 7.27173L33.3975 7.27954L33.334 7.20142L33.3965 7.27954C33.3332 7.33022 33.2692 7.3873 33.2051 7.45142C33.127 7.52951 33.0631 7.60035 33.0127 7.66333L33.0059 7.67212L32.9346 7.60083L33.0049 7.67212C32.9512 7.72581 32.929 7.75548 32.9238 7.76587L32.9092 7.79517L32.8906 7.80396C32.8833 7.85117 32.8651 7.8959 32.8379 7.93677C32.803 7.98905 32.7535 8.03695 32.6943 8.0813C32.6317 8.13537 32.554 8.24571 32.4639 8.42603L32.4609 8.43091C32.4115 8.51755 32.3673 8.618 32.3291 8.73267L32.3281 8.73657C32.2887 8.84185 32.2486 8.9537 32.209 9.07251C32.1607 9.2373 32.1275 9.38995 32.1084 9.53052L32.0938 9.66821C32.0678 10.0056 32.0804 10.3366 32.1318 10.6604C32.1962 10.9691 32.3057 11.2654 32.46 11.5491C32.5003 11.6163 32.5402 11.6904 32.5801 11.7698L32.6396 11.8694C32.658 11.9 32.677 11.9306 32.6953 11.9612C32.7478 12.0268 32.8 12.0928 32.8525 12.1584H32.8516C32.9044 12.2119 32.9577 12.2703 33.0098 12.3352C33.1258 12.451 33.2482 12.5669 33.377 12.6829L33.5771 12.8342C33.6458 12.8833 33.7161 12.931 33.7881 12.9768C33.9744 13.09 34.1254 13.1853 34.2402 13.2629C34.3433 13.3327 34.4216 13.392 34.4707 13.4377C34.5348 13.4765 34.5891 13.5181 34.6338 13.5608C34.686 13.5999 34.7316 13.6322 34.7695 13.6575L34.8594 13.7112L34.8701 13.717L34.8145 13.801L34.8701 13.718C34.972 13.7859 35.0854 13.8669 35.21 13.9612L35.6182 14.2834L35.624 14.2883H35.623C35.7634 14.422 35.8892 14.5447 36 14.6555L36.2881 14.9534L36.291 14.9573C36.4262 15.1195 36.5419 15.2886 36.6377 15.4651L36.7168 15.5911C36.7916 15.7175 36.8544 15.8482 36.9062 15.9827L36.999 16.2297L37.0713 16.4768V16.4778C37.1954 17.0016 37.1554 17.4664 36.9424 17.8655L36.9434 17.8665C36.7116 18.3155 36.2595 18.6014 35.6152 18.7385L35.6133 18.7395C34.9687 18.8629 34.2203 18.8206 33.3711 18.6184H33.3701C32.7135 18.4576 32.1606 18.2688 31.7129 18.052C31.0329 17.7453 30.543 17.5108 30.2461 17.3489L30.2451 17.3479C30.1505 17.2939 30.0489 17.2335 29.9414 17.1663L29.9365 17.1624C29.8899 17.129 29.8426 17.0961 29.7959 17.0627C29.7493 17.0294 29.7029 16.9955 29.6562 16.9622L29.6504 16.9583C29.5706 16.8917 29.4844 16.8181 29.3916 16.7385C29.3259 16.686 29.1547 16.5534 28.876 16.3411V16.342C28.586 16.1349 28.3315 15.873 28.1123 15.5579L28.1113 15.5569C27.8959 15.2337 27.7507 14.9318 27.6797 14.6526C27.6498 14.563 27.6348 14.4724 27.6348 14.3811C27.6348 14.2963 27.6412 14.2205 27.6572 14.1565H27.6582C27.6747 14.0775 27.7058 14.0048 27.7539 13.9407L27.7656 13.926L27.7812 13.9163L27.9414 13.8167L27.9551 13.8079L27.9697 13.804C28.0113 13.7936 28.063 13.7922 28.1104 13.8206C28.1461 13.842 28.1657 13.8744 28.1787 13.9065C28.2208 13.9704 28.2344 14.0535 28.2344 14.1409C28.2344 14.2194 28.2512 14.32 28.2881 14.4446C28.3133 14.5011 28.3431 14.5627 28.3779 14.6292L28.501 14.8508L28.502 14.8538C28.6702 15.1643 28.877 15.4283 29.1211 15.6467L29.3438 15.8381C29.8893 16.2846 30.6191 16.729 31.5361 17.1702C31.9076 17.3426 32.266 17.4948 32.6104 17.6272H32.6094C32.9646 17.7455 33.3061 17.837 33.6338 17.9026H33.6328C33.9736 17.9549 34.3078 17.9807 34.6348 17.9807C34.9253 17.9807 35.1673 17.9675 35.3613 17.9417H35.3623C35.5671 17.916 35.7289 17.8781 35.8506 17.8303C35.9711 17.7699 36.0654 17.6934 36.1348 17.6008C36.205 17.5071 36.2594 17.3865 36.2969 17.2366C36.3684 16.9369 36.2942 16.5363 36.0449 16.0247L36.0439 16.0237C35.9286 15.7802 35.7742 15.5559 35.5811 15.3499L35.5771 15.345C35.3964 15.1254 35.1484 14.8904 34.832 14.6399V14.6389C34.5016 14.3879 34.0712 14.0896 33.54 13.7444C33.1608 13.5005 32.8082 13.2166 32.4834 12.8918C32.3093 12.7177 32.1615 12.563 32.04 12.428L32.0332 12.4202C31.924 12.27 31.8342 12.1248 31.7646 11.9856V11.9846C31.6392 11.7465 31.5302 11.411 31.4365 10.9827V10.9817C31.3831 10.7807 31.3425 10.5922 31.3154 10.4163L31.3145 10.4084C31.301 10.2334 31.2939 10.0771 31.2939 9.94067V9.93579H31.2949C31.3087 9.67414 31.3761 9.25425 31.4961 8.68091L31.4971 8.677C31.5118 8.61819 31.5337 8.55331 31.5615 8.48364L31.5645 8.47681L31.5684 8.46997C31.6093 8.40167 31.6569 8.32639 31.7109 8.24536C31.7641 8.15254 31.8239 8.0537 31.8896 7.94849L31.8916 7.94458C31.9914 7.79819 32.0676 7.68392 32.1201 7.60181C32.1464 7.56077 32.1667 7.52816 32.1807 7.50415C32.1951 7.47922 32.1991 7.46917 32.1992 7.46899H32.2002C32.2075 7.43154 32.2232 7.39648 32.2412 7.36841C32.2664 7.32904 32.3022 7.2855 32.3457 7.23853C32.4327 7.14461 32.5603 7.02671 32.7266 6.88696C33.0606 6.57962 33.3263 6.36144 33.5205 6.23657C33.779 6.06002 34.0224 5.94096 34.25 5.88403L34.2529 5.88306Z" fill="#14307C" stroke="#14307C" stroke-width="0.2"/>
<path d="M19.9473 15.541L19.9512 15.542C20.0832 15.5609 20.2024 15.6579 20.3105 15.7939C20.4206 15.9325 20.5321 16.1283 20.6465 16.377C20.8243 16.7436 21.0783 17.0103 21.4082 17.1807L21.5547 17.248L21.5557 17.249C21.8691 17.3796 22.1192 17.4328 22.3105 17.4209C22.5111 17.4084 22.993 17.2989 23.7686 17.085C24.3099 16.9246 24.7353 16.8202 25.042 16.7725C25.1948 16.7487 25.3228 16.7376 25.4229 16.7432C25.516 16.7484 25.6122 16.769 25.6709 16.834L25.6738 16.8369C25.7203 16.8927 25.7471 16.9585 25.7471 17.0312C25.747 17.0989 25.7224 17.1633 25.6855 17.2246L25.6865 17.2256C25.6858 17.227 25.6843 17.2281 25.6836 17.2295C25.6828 17.2308 25.6825 17.233 25.6816 17.2344L25.6807 17.2334C25.6128 17.3629 25.4878 17.4675 25.3213 17.5508C25.1492 17.6367 24.974 17.6807 24.7969 17.6807C24.7112 17.6807 24.551 17.7091 24.3076 17.7725C24.0671 17.8351 23.7539 17.9293 23.3682 18.0557L23.3662 18.0566L22.166 18.417L22.1289 18.4277L22.0938 18.4111L21.2959 18.0322L21.1318 17.9531C20.7598 17.7649 20.4617 17.5433 20.2412 17.2861L20.2383 17.2822C20.0011 16.9753 19.8352 16.6007 19.7393 16.1621V16.1602C19.7055 15.9849 19.6932 15.8399 19.7139 15.7363C19.7244 15.6838 19.7456 15.6299 19.7881 15.5908C19.8224 15.5593 19.8634 15.5443 19.9053 15.541H19.9473ZM26.7588 11.1035C26.8038 11.1026 26.8464 11.1053 26.8838 11.1143C26.9202 11.123 26.9615 11.1399 26.9922 11.1748L27.001 11.1846L27 11.1855C27.0289 11.2288 27.0385 11.2866 27.042 11.3389C27.0458 11.3958 27.0439 11.4666 27.0371 11.5488L27.0361 11.5605L26.9375 11.541L27.0352 11.5605C27.0201 11.6357 26.9899 11.7142 26.9492 11.7969L26.9502 11.7979C26.918 11.8785 26.8656 11.943 26.792 11.9834C26.79 11.9847 26.7881 11.986 26.7861 11.9873C26.7847 11.988 26.7837 11.9895 26.7822 11.9902L26.7812 11.9893C26.732 12.0199 26.6789 12.0392 26.6211 12.04C26.3502 12.053 25.9574 12.1187 25.4395 12.2383C24.9189 12.3584 24.5761 12.4634 24.4014 12.5508L24.4004 12.5498C24.2351 12.6339 23.9409 12.7429 23.5234 12.874C23.1024 13.0063 22.5504 13.1642 21.8682 13.3477C20.5035 13.7147 18.6138 14.1844 16.2002 14.7578C15.6323 14.8914 15.1966 14.9623 14.8984 14.9658C14.7506 14.9675 14.6256 14.9529 14.5332 14.9141C14.4862 14.8943 14.4433 14.8665 14.4111 14.8271C14.378 14.7865 14.3602 14.7382 14.3574 14.6865L14.3564 14.6807H14.3574C14.3574 14.6295 14.3653 14.5788 14.3818 14.5293L14.3867 14.5146L14.3955 14.5029C14.4274 14.4582 14.484 14.4235 14.541 14.3945C14.6024 14.3634 14.6825 14.3309 14.7793 14.2969C14.9736 14.2287 15.2452 14.1504 15.5928 14.0635C16.2883 13.8763 16.9384 13.7365 17.542 13.6426L17.5439 13.6416C18.0425 13.576 19.202 13.2985 21.0303 12.8047L22.3271 12.4385C23.5404 12.0865 24.5049 11.7756 25.2217 11.5068L25.2246 11.5059C25.7323 11.3322 26.1287 11.2146 26.4111 11.1533C26.5517 11.1228 26.6685 11.1054 26.7588 11.1035ZM22.5439 5.48828C22.6368 5.49369 22.7206 5.51409 22.7871 5.55566L22.7881 5.55469C22.9253 5.63703 23.012 5.81896 23.0693 6.05176C23.1283 6.29096 23.1633 6.61312 23.1768 7.01465C23.2034 7.45422 23.2043 7.7709 23.1758 7.95605V7.95703C23.1451 8.14129 23.0556 8.28227 22.8975 8.35254L22.8867 8.35742V8.35645C22.7285 8.40511 22.5172 8.52001 22.25 8.70801C22.0507 8.84827 21.8235 9.02725 21.5684 9.24512L21.3037 9.47559C20.9451 9.79439 20.6765 10.0546 20.4971 10.2568C20.4073 10.358 20.3414 10.4431 20.2979 10.5117C20.2556 10.5785 20.2404 10.621 20.2373 10.6436C20.2375 10.6484 20.2381 10.6509 20.2383 10.6514L20.2393 10.6523C20.242 10.6549 20.2542 10.6642 20.2881 10.6699C20.3581 10.6816 20.4776 10.6723 20.6553 10.6328C21.0062 10.5548 21.5396 10.368 22.2588 10.0684H22.2598C22.78 9.86161 23.1882 9.70555 23.4834 9.60156C23.6309 9.54961 23.752 9.51001 23.8447 9.4834C23.9327 9.45817 24.0072 9.44052 24.0566 9.44043C24.1224 9.44043 24.1839 9.44775 24.2354 9.4668C24.2883 9.48649 24.3376 9.52246 24.3633 9.58105C24.3881 9.63776 24.3828 9.69794 24.3662 9.75098C24.3501 9.80241 24.3199 9.85561 24.2822 9.91113L24.2832 9.91211C24.1506 10.1331 23.9518 10.294 23.6934 10.3945L23.6846 10.3975C23.5473 10.4367 23.3429 10.5051 23.0713 10.6045L22.0537 10.9941C21.4707 11.2246 20.8795 11.3537 20.2812 11.3809C19.9908 11.3943 19.7557 11.3793 19.5811 11.332C19.408 11.2852 19.2707 11.1996 19.2217 11.0527V11.0498C19.2039 10.9905 19.2109 10.9261 19.2285 10.8652C19.2465 10.8033 19.2782 10.7348 19.3203 10.6611C19.4047 10.5134 19.5393 10.3313 19.7207 10.1162L19.7217 10.1152C19.9141 9.89625 20.0492 9.72824 20.1289 9.61035C20.152 9.57611 20.1662 9.54544 20.1787 9.52246C20.1599 9.52413 20.1371 9.52444 20.1104 9.5293C20.008 9.54791 19.8614 9.58829 19.6699 9.6543C19.4095 9.74773 19.2031 9.79971 19.0596 9.7959C18.988 9.79396 18.9131 9.778 18.8594 9.72754C18.8011 9.67261 18.7885 9.59745 18.7979 9.52734L18.8008 9.50488L18.8135 9.48535C18.8373 9.44954 18.8625 9.40684 18.8877 9.35645C18.9022 9.32736 18.9251 9.30262 18.9473 9.28223C18.9705 9.26078 18.9995 9.23825 19.0322 9.21582C19.0977 9.171 19.1862 9.11987 19.2959 9.0625C19.516 8.94735 19.8308 8.80257 20.2383 8.62891L20.2402 8.62793C20.7684 8.41664 21.1874 8.21254 21.5 8.01758C21.813 7.80891 22.036 7.59807 22.1729 7.38672C22.3091 7.1761 22.3769 6.94821 22.377 6.70117C22.377 6.55678 22.3705 6.44772 22.3584 6.37207C22.3524 6.33433 22.3454 6.30785 22.3389 6.29102C22.3358 6.28315 22.333 6.27901 22.332 6.27734L22.3262 6.27148C22.3311 6.27646 22.3313 6.27301 22.3154 6.26953C22.3 6.2662 22.276 6.26418 22.2412 6.26562C22.1711 6.26855 22.0721 6.28568 21.9414 6.31836H21.9385C21.522 6.40946 20.9429 6.61974 20.1982 6.95215L20.1973 6.95117C19.8109 7.13103 19.5146 7.26271 19.3086 7.34375C19.2059 7.38414 19.1229 7.41321 19.0615 7.42969C19.0314 7.43778 19.0021 7.44435 18.9766 7.44629C18.9639 7.44724 18.9481 7.44722 18.9316 7.44434C18.9163 7.44165 18.8891 7.43493 18.8662 7.41211C18.8287 7.37463 18.8155 7.31892 18.8086 7.27734C18.8006 7.22957 18.7969 7.16974 18.7969 7.10059C18.797 6.99422 18.86 6.8969 18.9463 6.81055C19.0495 6.70735 19.1985 6.60865 19.3877 6.51367L19.542 6.43164C19.6518 6.37673 19.7745 6.32184 19.9102 6.26758L20.123 6.18652C20.4179 6.06602 20.7784 5.93248 21.2041 5.78613C21.613 5.64538 21.9478 5.55305 22.2061 5.51172C22.3351 5.49107 22.4484 5.48273 22.5439 5.48828Z" fill="#14307C" stroke="#14307C" stroke-width="0.2"/>
<path d="M13.2773 11.054C13.3441 11.0697 13.4048 11.0998 13.4492 11.1506H13.4502C13.451 11.1515 13.4513 11.1527 13.4521 11.1536C13.4536 11.1553 13.4556 11.1567 13.457 11.1584H13.4561C13.5338 11.2423 13.5595 11.374 13.5596 11.5208C13.5596 11.5982 13.5392 11.6704 13.4961 11.7327C13.4534 11.7943 13.3928 11.84 13.3203 11.8723C13.1832 11.9332 12.9411 11.9727 12.6104 11.9993L12.6113 12.0002C12.0625 12.0656 11.3303 12.2626 10.4131 12.595L10.3965 12.6008H10.3789C10.3772 12.601 10.369 12.6027 10.3516 12.6077C10.3327 12.6131 10.3077 12.6215 10.2764 12.634L10.2725 12.635C10.0462 12.7149 9.88376 12.7695 9.78711 12.7971C9.70766 12.8198 9.59686 12.8736 9.45312 12.9651C9.3047 13.0595 9.22035 13.1207 9.18945 13.1516C9.19094 13.1501 9.18783 13.1538 9.17871 13.1682C9.17052 13.1812 9.16011 13.1992 9.14746 13.2229C9.12251 13.2697 9.08956 13.3343 9.05078 13.4182L9.05176 13.4192C8.98611 13.5767 8.95001 13.6949 8.93848 13.7756L8.9375 13.7776C8.92491 13.8532 8.90566 14.0361 8.87891 14.3303C8.86576 14.6074 8.85938 14.8444 8.85938 15.0413V16.344C8.83269 17.3582 8.83995 18.024 8.87891 18.3489L8.91992 18.5793C8.95665 18.7342 9.01142 18.8914 9.08398 19.051L9.20605 19.2922L9.20801 19.2952C9.3356 19.5436 9.43283 19.7559 9.49805 19.9309C9.56229 20.1034 9.59951 20.2488 9.59961 20.3606C9.59961 20.4423 9.59164 20.516 9.57227 20.5764C9.55282 20.6369 9.51812 20.6953 9.45801 20.7288C9.39697 20.7627 9.32956 20.7595 9.26855 20.7415C9.2084 20.7236 9.1455 20.6884 9.08105 20.6418V20.6409C8.86268 20.4941 8.67315 20.2527 8.50977 19.926V19.925C8.31827 19.5685 8.19439 19.185 8.13965 18.7747V18.7717C8.09903 18.3791 8.07911 17.5537 8.0791 16.302L8.06348 15.0618C8.05599 14.705 8.0458 14.4043 8.03418 14.1604C8.02256 13.9165 8.00953 13.7307 7.99414 13.6018C7.98643 13.5373 7.9784 13.4891 7.9707 13.4563C7.96921 13.4499 7.96713 13.4444 7.96582 13.4397C7.95461 13.4361 7.93989 13.4302 7.91895 13.428C7.88141 13.424 7.83184 13.4247 7.76953 13.4309C7.64456 13.4434 7.47732 13.4781 7.2666 13.5374L7.26562 13.5364C5.18642 14.1628 3.66886 14.5589 2.71582 14.72L2.71484 14.719C2.43361 14.7858 2.05456 14.8656 1.57812 14.9583L1.5791 14.9592C1.34561 15.0059 1.16453 15.0412 1.03711 15.0647C0.973591 15.0764 0.922555 15.0851 0.884766 15.0911C0.860758 15.0949 0.837635 15.0962 0.819336 15.0979C0.594492 15.1507 0.418377 15.1766 0.304688 15.1604L0.295898 15.1584L0.287109 15.1555C0.226779 15.1353 0.17681 15.0977 0.143555 15.0422C0.11145 14.9886 0.0996094 14.9255 0.0996094 14.8606C0.0997091 14.75 0.136871 14.652 0.211914 14.5725C0.283858 14.4964 0.384784 14.4427 0.505859 14.4065C0.626456 14.3639 0.878635 14.3026 1.25391 14.2229C1.63165 14.1427 2.14121 14.0431 2.78125 13.9231C4.00455 13.697 5.16765 13.4174 6.27051 13.0852H6.27148C7.51066 12.7254 8.31199 12.4984 8.67383 12.4045H8.6748C9.18914 12.2726 10.0516 11.9808 11.2646 11.5276L11.2656 11.5266C11.7196 11.3664 12.0817 11.246 12.3506 11.1653C12.6178 11.0851 12.8456 11.0425 13.0312 11.0413C13.1236 11.0342 13.207 11.0374 13.2773 11.054ZM10.498 4.62427L10.499 4.62329L10.5 4.62427C10.5011 4.62452 10.5028 4.624 10.5039 4.62427L10.5029 4.62524C10.5546 4.63647 10.6026 4.66181 10.6357 4.70825C10.6682 4.75387 10.6796 4.808 10.6797 4.8606C10.6797 4.96428 10.6247 5.05723 10.5449 5.13696C10.4649 5.21695 10.3501 5.29391 10.2061 5.36938L10.2051 5.36841C9.9292 5.51979 9.38195 5.73679 8.57129 6.01587C8.04559 6.19554 7.63783 6.34601 7.34766 6.46802C7.20253 6.52904 7.08827 6.58281 7.00391 6.62817C6.91657 6.67515 6.87098 6.70842 6.85352 6.72778L6.84961 6.73169C6.82414 6.75729 6.79942 6.82109 6.81836 6.96313C6.83669 7.10024 6.89283 7.28549 6.99121 7.52173L7.12402 7.85571C7.23895 8.17212 7.29879 8.43489 7.29883 8.64087C7.29883 8.71653 7.31497 8.77615 7.3418 8.82349C7.38456 8.87525 7.4104 8.88099 7.41895 8.8811C7.41894 8.88108 7.43699 8.8798 7.47656 8.84888C7.51402 8.81959 7.56036 8.77193 7.61621 8.70337C7.72797 8.56607 7.86745 8.35565 8.0332 8.07056C8.19832 7.77988 8.32042 7.53399 8.40137 7.33325C8.4832 7.13025 8.51952 6.98153 8.51953 6.8811C8.51953 6.7419 8.55823 6.60549 8.63184 6.4729L8.63379 6.46997C8.7189 6.32812 8.81633 6.21934 8.92969 6.15454C8.98798 6.12123 9.05133 6.10128 9.11719 6.10669C9.18475 6.11232 9.24305 6.14368 9.29004 6.19067C9.34063 6.24137 9.37246 6.31039 9.3916 6.38696C9.41088 6.46421 9.41895 6.55666 9.41895 6.66138C9.41887 6.73928 9.39217 6.8466 9.34863 6.97388C9.30391 7.10452 9.23757 7.26767 9.15039 7.46216C8.98891 7.85204 8.79434 8.2484 8.56641 8.65063L8.56543 8.64966C8.35266 9.0484 8.17496 9.3272 8.03027 9.47192C7.96456 9.54422 7.92046 9.60356 7.89453 9.65063C7.86709 9.70046 7.8673 9.72354 7.86816 9.72876C7.86909 9.72979 7.87327 9.73516 7.88574 9.74048C7.91256 9.7519 7.96113 9.76097 8.03906 9.76099C8.21337 9.76099 8.49724 9.71645 8.89648 9.62329H8.90039C9.44931 9.51619 9.93941 9.44199 10.3701 9.40161C10.8002 9.3613 11.1498 9.36071 11.415 9.40259C11.5462 9.42332 11.656 9.45358 11.7373 9.49829C11.8195 9.54349 11.8862 9.61145 11.8984 9.70825V9.71021C11.907 9.78785 11.8947 9.86245 11.8545 9.92798C11.8146 9.99287 11.7528 10.04 11.6797 10.0725L11.6787 10.0715C11.6135 10.1032 11.517 10.1322 11.3955 10.1584C11.2688 10.1858 11.1077 10.2136 10.9131 10.2405H10.9092C8.49817 10.4802 6.76598 10.8528 5.70215 11.3518H5.7002C4.99023 11.6733 4.31914 11.9273 3.6875 12.1155L3.68848 12.1165C3.38022 12.2103 3.13303 12.2723 2.94922 12.3C2.85755 12.3139 2.77758 12.3196 2.71191 12.3157C2.65001 12.312 2.58294 12.2988 2.53418 12.2571L2.52832 12.2522C2.45795 12.1818 2.41995 12.0949 2.4248 11.9963C2.42951 11.9021 2.47271 11.8094 2.53906 11.7209C2.67287 11.5292 2.84726 11.4211 3.05957 11.4211C3.18749 11.421 3.40638 11.3701 3.72559 11.2571C4.04142 11.1452 4.44488 10.9761 4.93652 10.7502L5.59082 10.429C5.78107 10.3305 5.94344 10.2409 6.07812 10.1604C6.21272 10.08 6.31749 10.009 6.39453 9.94849C6.47343 9.88649 6.51535 9.8411 6.53223 9.81177L6.53613 9.80396H6.53711C6.59226 9.72343 6.62379 9.5912 6.61426 9.39087C6.60479 9.19209 6.55602 8.93851 6.46387 8.62915L6.46289 8.62817C6.28961 8.00171 6.19922 7.5427 6.19922 7.26099C6.19922 7.17951 6.19138 7.12351 6.17969 7.08813C6.16787 7.05267 6.15731 7.05203 6.16211 7.05396L6.1543 7.05103V7.05005C6.16181 7.05381 6.16079 7.05107 6.13965 7.05103C6.12054 7.05103 6.09272 7.05364 6.05566 7.05981C5.98174 7.07214 5.87973 7.09746 5.74805 7.13696L5.74512 7.13794C5.27683 7.26502 4.91316 7.32383 4.66211 7.30591C4.53685 7.29696 4.42711 7.26802 4.34668 7.20728C4.26081 7.14226 4.21875 7.04861 4.21875 6.94067C4.2189 6.80649 4.30217 6.70453 4.42188 6.6311C4.54024 6.55856 4.709 6.50398 4.91992 6.46313L4.92285 6.46216C5.11409 6.43027 5.45063 6.33455 5.9375 6.17114C6.17991 6.08979 6.45819 5.99208 6.77246 5.87817L7.82422 5.48755C8.42358 5.24782 8.89099 5.06699 9.22559 4.94653H9.22656C9.57404 4.82625 9.85026 4.73907 10.0537 4.68481L10.0547 4.68384C10.1627 4.65683 10.2531 4.63788 10.3242 4.6272C10.388 4.61763 10.4505 4.6138 10.498 4.62427Z" fill="#14307C" stroke="#14307C" stroke-width="0.2"/>
</svg>
