<svg preserveAspectRatio="none" width="100%" height="100%" overflow="visible" style="display: block;" viewBox="0 0 56.2484 28.1518" fill="none" xmlns="http://www.w3.org/2000/svg">
<g id="&#237;&#145;&#184;&#235;&#165;&#184;">
<path id="Vector" d="M56.2483 17.3618H29.0441V15.3444H56.2483V17.3618ZM34.5461 12.1044C34.1385 12.1044 33.8532 12.0229 33.6902 11.8598C33.5272 11.6968 33.4457 11.4217 33.4457 11.0345V7.97788C33.4457 7.52957 33.4049 7.08126 33.3234 6.63295C33.2419 6.16427 33.0585 5.80766 32.7732 5.56313V5.04349H49.4931V1.98684H33.2928V1.61069e-05H51.2965C51.5207 1.61069e-05 51.6633 0.0407715 51.7245 0.122282C51.806 0.183416 51.8467 0.315871 51.8467 0.519648V6.99975H35.7993V10.1175H52.6109V12.1044H34.5461ZM52.9777 27.8156H34.3321C33.9245 27.8156 33.6393 27.7239 33.4762 27.5405C33.3132 27.3774 33.2317 27.1023 33.2317 26.7152V19.5932H35.5853V25.7676H52.9777V27.8156Z" fill="var(--fill-0, #0046FF)"/>
<path id="Vector_2" d="M27.2042 18.9207H14.7942V28.1518H12.3794V18.9207H0V16.8727H27.2042V18.9207ZM20.0211 4.06533V10.8817H24.0559V12.9602H3.11779V10.8817H7.3054V6.99972C7.3054 6.55141 7.26465 6.1031 7.18314 5.65479C7.10163 5.1861 6.91823 4.8295 6.63294 4.58496V4.06533H9.65903V10.8817H17.6675V4.06533H20.0211ZM2.87325 0.427914H24.3004V2.50644H2.87325V0.427914Z" fill="var(--fill-0, #0046FF)"/>
</g>
</svg>
