<svg preserveAspectRatio="none" width="100%" height="100%" overflow="visible" style="display: block;" viewBox="0 0 69.9418 29" fill="none" xmlns="http://www.w3.org/2000/svg">
<g id="SOL">
<path id="Vector" d="M59.2206 0.773337V23.9733H69.9418V28.1915H53.4909V4.32364C53.4909 3.71435 53.4206 3.23394 53.28 2.88243C53.1628 2.53091 52.9402 2.16768 52.6121 1.79273C52.4012 1.53495 52.3426 1.30061 52.4364 1.0897C52.5301 0.878792 52.7058 0.773337 52.9636 0.773337H59.2206Z" fill="var(--fill-0, #0046FF)"/>
<path id="Vector_2" d="M49.6905 14.4824C49.6905 16.6384 49.3859 18.6069 48.7766 20.3879C48.1673 22.1689 47.265 23.7038 46.0699 24.9927C44.8747 26.2582 43.3984 27.2424 41.6408 27.9455C39.9067 28.6485 37.903 29 35.6299 29C33.3568 29 31.3414 28.6485 29.5838 27.9455C27.8497 27.2424 26.385 26.2582 25.1899 24.9927C23.9947 23.7038 23.0925 22.1689 22.4832 20.3879C21.8739 18.6069 21.5693 16.6384 21.5693 14.4824C21.5693 12.3265 21.8739 10.358 22.4832 8.57697C23.0925 6.79596 23.9947 5.27273 25.1899 4.00727C26.385 2.74182 27.8497 1.75758 29.5838 1.05455C31.3414 0.351515 33.3568 0 35.6299 0C37.903 0 39.9067 0.351515 41.6408 1.05455C43.3984 1.75758 44.8747 2.74182 46.0699 4.00727C47.265 5.27273 48.1673 6.79596 48.7766 8.57697C49.3859 10.358 49.6905 12.3265 49.6905 14.4824ZM27.2638 14.4824C27.2638 17.8335 28.0137 20.4113 29.5135 22.2158C31.0133 23.9968 33.0521 24.8873 35.6299 24.8873C38.1842 24.8873 40.2113 23.9968 41.7111 22.2158C43.2109 20.4113 43.9608 17.8335 43.9608 14.4824C43.9608 11.1313 43.2109 8.56525 41.7111 6.78424C40.2113 4.9798 38.1842 4.07758 35.6299 4.07758C33.0521 4.07758 31.0133 4.9798 29.5135 6.78424C28.0137 8.56525 27.2638 11.1313 27.2638 14.4824Z" fill="var(--fill-0, #0046FF)"/>
<path id="Vector_3" d="M1.16492 22.3564C1.68047 22.7782 2.26633 23.1648 2.92249 23.5164C3.60209 23.8444 4.28169 24.1257 4.96128 24.36C5.66431 24.5943 6.35563 24.7818 7.03522 24.9224C7.71482 25.0396 8.34755 25.0982 8.9334 25.0982C10.3629 25.0982 11.476 24.8053 12.2728 24.2194C13.093 23.6101 13.5031 22.7079 13.5031 21.5127C13.5031 20.5988 13.2805 19.8255 12.8352 19.1927C12.4134 18.56 11.6166 17.9507 10.4449 17.3648C9.76532 17.0133 9.12088 16.697 8.51159 16.4158C7.90229 16.1345 7.31643 15.8416 6.75401 15.537C6.19159 15.2323 5.64088 14.916 5.10189 14.5879C4.58633 14.2364 4.07078 13.8497 3.55522 13.4279C2.64128 12.6077 1.89138 11.6937 1.30552 10.6861C0.719665 9.65495 0.426736 8.40121 0.426736 6.92485C0.426736 5.91717 0.625928 4.99152 1.02431 4.14788C1.44613 3.28081 2.04371 2.54263 2.81704 1.93333C3.59037 1.32404 4.52775 0.855353 5.62916 0.527272C6.75401 0.175757 8.01946 0 9.42553 0C12.472 0 15.1787 0.515556 17.5455 1.54667V5.8703C17.5455 6.19838 17.4284 6.40929 17.194 6.50303C16.9597 6.57333 16.7136 6.50303 16.4558 6.29212C14.5342 4.67515 12.4251 3.86667 10.1286 3.86667C8.8631 3.86667 7.89057 4.13616 7.21098 4.67515C6.55482 5.21414 6.22674 5.96404 6.22674 6.92485C6.22674 7.60445 6.34391 8.1903 6.57825 8.68243C6.8126 9.17455 7.16411 9.60808 7.6328 9.98303C8.5233 10.7095 9.47239 11.3422 10.4801 11.8812C11.5112 12.4202 12.5189 12.924 13.5031 13.3927C14.417 13.8145 15.2255 14.2715 15.9286 14.7636C16.655 15.2558 17.2643 15.8182 17.7564 16.4509C18.272 17.0836 18.6587 17.8101 18.9164 18.6303C19.1742 19.4271 19.3031 20.3644 19.3031 21.4424C19.3031 22.7782 19.0336 23.9265 18.4946 24.8873C17.9791 25.8246 17.2526 26.6097 16.3152 27.2424C15.3778 27.8517 14.2764 28.297 13.011 28.5782C11.769 28.8594 10.4332 29 9.00371 29C7.94916 29 6.84775 28.8828 5.69946 28.6485C4.57462 28.4141 3.56694 28.1212 2.67643 27.7697C1.78593 27.3947 1.0829 26.9846 0.567342 26.5394C0.0517863 26.0941 -0.112254 25.6489 0.0752206 25.2036L1.16492 22.3564Z" fill="var(--fill-0, #0046FF)"/>
</g>
</svg>
