<svg preserveAspectRatio="none" width="100%" height="100%" overflow="visible" style="display: block;" viewBox="0 0 13.5 13.5" fill="none" xmlns="http://www.w3.org/2000/svg">
<path id="Vector" d="M2.4375 0C1.0913 0 0 1.0913 0 2.4375V11.0625C0 12.4087 1.0913 13.5 2.4375 13.5H11.0625C12.4087 13.5 13.5 12.4087 13.5 11.0625V2.4375C13.5 1.0913 12.4087 0 11.0625 0H2.4375ZM1.125 2.4375C1.125 1.71263 1.71263 1.125 2.4375 1.125H11.0625C11.7874 1.125 12.375 1.71263 12.375 2.4375V11.0625C12.375 11.7874 11.7874 12.375 11.0625 12.375H2.4375C1.71263 12.375 1.125 11.7874 1.125 11.0625V2.4375ZM10.71 4.71048C10.9298 4.49093 10.93 4.13478 10.7104 3.91499C10.4909 3.69518 10.1347 3.69498 9.915 3.91452L5.24744 8.5767L3.58563 6.91477C3.36596 6.6951 3.00981 6.6951 2.79014 6.9147C2.57045 7.13437 2.57044 7.49055 2.7901 7.71023L4.84943 9.76965C5.06901 9.98925 5.42498 9.9894 5.64473 9.76995L10.71 4.71048Z" fill="var(--fill-0, #074ED8)"/>
</svg>
