<svg preserveAspectRatio="none" width="100%" height="100%" overflow="visible" style="display: block;" viewBox="0 0 34 34" fill="none" xmlns="http://www.w3.org/2000/svg">
<g id="Dismiss / undefined / Glyph: undefined">
<path id="Vector" d="M6.22915 6.4512L6.33203 6.33203C6.70925 5.95482 7.29952 5.92053 7.71546 6.22915L7.83463 6.33203L17 15.4969L26.1654 6.33203C26.5803 5.91711 27.253 5.91711 27.6679 6.33203C28.0829 6.74696 28.0829 7.41971 27.6679 7.83463L18.5031 17L27.6679 26.1654C28.0452 26.5425 28.0795 27.1328 27.7708 27.5488L27.6679 27.6679C27.2908 28.0452 26.7005 28.0795 26.2845 27.7708L26.1654 27.6679L17 18.5031L7.83463 27.6679C7.41971 28.0829 6.74696 28.0829 6.33203 27.6679C5.91711 27.253 5.91711 26.5803 6.33203 26.1654L15.4969 17L6.33203 7.83463C5.95482 7.45742 5.92053 6.86715 6.22915 6.4512Z" fill="var(--fill-0, #212121)"/>
</g>
</svg>
