<svg preserveAspectRatio="none" width="100%" height="100%" overflow="visible" style="display: block;" viewBox="0 0 34 34" fill="none" xmlns="http://www.w3.org/2000/svg">
<g id="Person Edit / undefined">
<path id="Vector" d="M22.0701 21.6941L24.1951 19.5691H9.88287C8.12334 19.5691 6.69697 20.9954 6.69697 22.7551V23.5733C6.69697 24.8381 7.14819 26.0614 7.96953 27.0232C9.94686 29.3387 12.8463 30.6092 16.608 30.8584C16.6021 30.5994 16.6308 30.333 16.6982 30.0632L17.0254 28.7545C13.6631 28.5849 11.2046 27.5393 9.5855 25.6432C9.09271 25.0662 8.82197 24.3322 8.82197 23.5733V22.7551C8.82197 22.1691 9.29695 21.6941 9.88287 21.6941H22.0701ZM18.0253 2.57576C21.9373 2.57576 25.1087 5.74708 25.1087 9.65909C25.1087 13.5711 21.9373 16.7425 18.0253 16.7425C14.1133 16.7425 10.9419 13.5711 10.9419 9.65909C10.9419 5.74708 14.1133 2.57576 18.0253 2.57576ZM18.0253 4.70076C15.2869 4.70076 13.0669 6.92069 13.0669 9.65909C13.0669 12.3975 15.2869 14.6175 18.0253 14.6175C20.7637 14.6175 22.9837 12.3975 22.9837 9.65909C22.9837 6.92069 20.7637 4.70076 18.0253 4.70076ZM28.083 17.684L19.7211 26.0457C19.2336 26.5332 18.8878 27.144 18.7205 27.813L18.0721 30.4065C17.7902 31.5343 18.8119 32.556 19.9397 32.2739L22.5332 31.6255C23.202 31.4584 23.8128 31.1126 24.3005 30.6249L32.6622 22.2632C33.9267 20.9987 33.9267 18.9485 32.6622 17.684C31.3977 16.4193 29.3475 16.4193 28.083 17.684Z" fill="var(--fill-0, #14307C)"/>
</g>
</svg>
