<svg preserveAspectRatio="none" width="100%" height="100%" overflow="visible" style="display: block;" viewBox="0 0 36 36" fill="none" xmlns="http://www.w3.org/2000/svg">
<g id="Frame">
<path id="Vector" d="M25.5 3.74665C28.401 3.74665 30.7527 6.09834 30.7527 8.99931C30.7527 11.9003 28.401 14.2519 25.5 14.2519C23.955 14.2519 22.5659 13.585 21.6048 12.5232L14.7668 16.4298C14.9218 16.9254 15.0052 17.4527 15.0052 17.9993C15.0052 18.546 14.9218 19.0731 14.7668 19.5687L21.6034 23.477C22.5645 22.4142 23.9542 21.7466 25.5 21.7466C28.401 21.7466 30.7527 24.0983 30.7527 26.9993C30.7527 29.9003 28.401 32.252 25.5 32.252C22.599 32.252 20.2473 29.9003 20.2473 26.9993C20.2473 26.4527 20.3308 25.9254 20.4858 25.4298L13.6493 21.5217C12.6881 22.5843 11.2983 23.252 9.75266 23.252C6.8517 23.252 4.5 20.9003 4.5 17.9993C4.5 15.0983 6.8517 12.7467 9.75266 12.7467C11.2976 12.7467 12.6868 13.4136 13.6479 14.4754L20.4858 10.5688C20.3308 10.0731 20.2473 9.54598 20.2473 8.99931C20.2473 6.09834 22.599 3.74665 25.5 3.74665ZM25.5 23.9966C23.8418 23.9966 22.4973 25.341 22.4973 26.9993C22.4973 28.6577 23.8418 30.002 25.5 30.002C27.1582 30.002 28.5027 28.6577 28.5027 26.9993C28.5027 25.341 27.1582 23.9966 25.5 23.9966ZM9.75266 14.9967C8.09433 14.9967 6.75 16.341 6.75 17.9993C6.75 19.6577 8.09433 21.002 9.75266 21.002C11.411 21.002 12.7553 19.6577 12.7553 17.9993C12.7553 16.341 11.411 14.9967 9.75266 14.9967ZM25.5 5.99665C23.8418 5.99665 22.4973 7.34098 22.4973 8.99931C22.4973 10.6576 23.8418 12.0019 25.5 12.0019C27.1582 12.0019 28.5027 10.6576 28.5027 8.99931C28.5027 7.34098 27.1582 5.99665 25.5 5.99665Z" fill="#14307C"/>
</g>
</svg>
